<?xml version="1.0" encoding="utf-8"?>
<!-- Generator: Adobe Illustrator 24.0.1, SVG Export Plug-In . SVG Version: 6.00 Build 0)  -->
<svg version="1.1" id="_90_code_development" xmlns="http://www.w3.org/2000/svg" xmlns:xlink="http://www.w3.org/1999/xlink"
	 x="0px" y="0px" viewBox="0 0 1920 1080" style="enable-background:new 0 0 1920 1080;" xml:space="preserve">
<style type="text/css">
	.st0{fill:#E6E7E8;}
	.st1{fill:#FFFFFF;}
	.st2{fill:#231F20;}
	.st3{fill:#CECECE;}
	.st4{fill:#68E1FD;}
</style>
<path class="st0" d="M1159.3,987.4c-10.9,0.1-21.7-1.3-32.2-4.3c-27.6-8.3-52.4-31.5-67.8-63.5c-13.8-28.7-19.4-60.2-24.7-90.9
	c-0.2-1.1,0.5-2.2,1.6-2.4c0,0,0.1,0,0.1,0c1.1-0.2,2.2,0.5,2.4,1.7c0,0,0,0,0,0c5.3,30.3,10.7,61.6,24.3,89.7
	c14.9,31,38.7,53.3,65.2,61.3c19.3,5.8,40.3,4.3,60.1,2c42.5-5,68.4-18.2,79.2-40.2c0.4-0.9,0.8-1.6,1-2.4
	c-6.8,1.9-13.5,4.3-20.1,6.8c-5.5,2-11.1,4-16.7,5.8c-27.4,8.6-56.5,10.5-84.7,5.5c-13.6-2.4-22-9-22.3-17.6s7.1-15.4,20.3-19.2
	c36.2-10.5,74.5-11.2,111.1-2c10.4,2.6,16.1,6.9,17.3,13.2c0.1,0.7,0.2,1.4,0.3,2.1c1.6-0.4,3.3-0.7,5-1c17.6-3.1,35.9-1.3,53.7,0.3
	c25.2,2.4,49,4.7,70.5-5.8c1.1-0.5,2.3-0.1,2.8,1c0.5,1,0.1,2.3-0.9,2.8c0,0,0,0,0,0c-22.6,11-48.1,8.7-72.8,6.2
	c-17.3-1.7-35.6-3.4-52.6-0.4c-2.1,0.3-4.3,0.8-6.2,1.3c-0.5,1.9-1.2,3.8-2.1,5.5c-11.5,23.4-38.5,37.3-82.5,42.5
	C1179,986.7,1169.2,987.3,1159.3,987.4z M1204.5,915.4c-19.7,0-39.2,2.8-58.1,8.3c-5.3,1.5-17.6,6.1-17.3,15.1
	c0.3,9,14.4,13,18.8,13.6c27.6,4.9,56,3.2,82.8-5.1c5.5-1.7,11.1-3.8,16.5-5.7c7.4-2.7,14.9-5.5,22.7-7.5c0.1-0.7,0.1-1.5,0-2.2
	c-1-4.6-5.7-7.8-14.4-10C1238.7,917.5,1221.6,915.3,1204.5,915.4z"/>
<path class="st1" d="M1387.4,324.7h281.9c11.4,0,20.6,9.2,20.6,20.6v602.8c0,11.4-9.2,20.6-20.6,20.6h-281.9
	c-11.4,0-20.6-9.2-20.6-20.6V345.3C1366.8,333.9,1376.1,324.7,1387.4,324.7z"/>
<path class="st2" d="M1669.3,970.8h-281.9c-12.5,0-22.7-10.2-22.7-22.7V345.3c0-12.5,10.2-22.7,22.7-22.7h281.9
	c12.5,0,22.7,10.2,22.7,22.7v602.8C1692,960.6,1681.8,970.8,1669.3,970.8z M1387.4,326.8c-10.2,0-18.5,8.3-18.5,18.5v602.8
	c0,10.2,8.3,18.5,18.5,18.5h281.9c10.2,0,18.5-8.3,18.5-18.5V345.3c0-10.2-8.3-18.5-18.5-18.5H1387.4z"/>
<rect x="1383.8" y="382.9" class="st3" width="289.1" height="495.6"/>
<path class="st1" d="M1500.9,902.7h55c7,0,12.6,5.7,12.6,12.6v21.1c0,7-5.7,12.6-12.6,12.6h-55c-7,0-12.6-5.7-12.6-12.6v-21.1
	C1488.2,908.3,1493.9,902.7,1500.9,902.7z"/>
<path class="st0" d="M1555.9,951.1h-55c-8.2,0-14.8-6.6-14.8-14.8l0,0v-21c0-8.2,6.6-14.8,14.8-14.8l0,0h55
	c8.2,0,14.8,6.6,14.8,14.7c0,0,0,0,0,0v21C1570.6,944.5,1564,951.1,1555.9,951.1z M1500.9,904.8c-5.8,0-10.6,4.7-10.6,10.6l0,0v21
	c0,5.8,4.7,10.6,10.6,10.6l0,0h55c5.8,0,10.6-4.7,10.6-10.6l0,0v-21c0-5.8-4.7-10.6-10.6-10.6l0,0H1500.9z"/>
<path class="st0" d="M1557.6,354.6h-82.3c-1.1,0-2.1-0.9-2.1-2c0,0,0,0,0,0c0-1.2,0.9-2.1,2.1-2.1h82.3c1.1,0,2.1,0.9,2.1,2.1
	c0,0,0,0,0,0C1559.7,353.6,1558.8,354.5,1557.6,354.6C1557.6,354.6,1557.6,354.6,1557.6,354.6z"/>
<path class="st0" d="M1580.1,354.6h-11c-1.1,0-2.1-0.9-2.1-2.1c0,0,0,0,0,0c0-1.2,0.9-2.1,2.1-2.1h11c1.2,0,2.1,1,2.1,2.1
	C1582.3,353.6,1581.3,354.6,1580.1,354.6C1580.2,354.6,1580.2,354.6,1580.1,354.6z"/>
<path class="st1" d="M1636.2,694.3h-215.9c-8.9,0-16.2-7.3-16.2-16.2V571.5c0-8.9,7.2-16.2,16.2-16.2c0,0,0,0,0,0h215.7
	c9,0,16.2,7.3,16.2,16.2v106.6C1652.3,687,1645.1,694.2,1636.2,694.3z M1420.4,559.5c-6.6,0-12,5.4-12,12v106.6c0,6.6,5.4,12,12,12
	h215.7c6.6,0,12-5.4,12-12V571.5c0-6.6-5.4-12-12-12H1420.4z"/>
<path class="st1" d="M1406.4,682.1c-1.2,0-2.1-1-2.1-2.2c0-0.6,0.3-1.2,0.8-1.6l106.9-84.6c0.9-0.7,2.1-0.6,2.8,0.2l63.8,66.2
	c0.8,0.8,0.8,2.2,0,3c-0.8,0.8-2.1,0.8-2.9,0c0,0,0,0,0,0l-62.4-65l-105.4,83.4C1407.4,681.9,1406.9,682.1,1406.4,682.1z"/>
<path class="st1" d="M1650.3,660.9c-0.6,0-1.2-0.3-1.6-0.7l-35.4-40.1l-40.5,33.8c-0.9,0.7-2.2,0.6-2.9-0.3
	c-0.7-0.9-0.6-2.2,0.3-2.9l42-35.2c0.8-0.8,2.1-0.8,2.9,0l36.8,41.7c0.8,0.8,0.8,2.1,0,2.9c0,0,0,0,0,0
	C1651.5,660.6,1651,660.9,1650.3,660.9z"/>
<path class="st1" d="M1577.1,611.8c-9.1,0-16.4-7.3-16.5-16.4c0-9.1,7.3-16.4,16.4-16.5c9.1,0,16.4,7.3,16.5,16.4c0,0,0,0.1,0,0.1
	C1593.4,604.5,1586.1,611.8,1577.1,611.8z M1577.1,583.2c-6.7,0-12.2,5.4-12.3,12.2s5.4,12.2,12.2,12.3c6.7,0,12.2-5.4,12.3-12.2
	c0,0,0,0,0,0C1589.2,588.7,1583.8,583.2,1577.1,583.2L1577.1,583.2z"/>
<path class="st1" d="M1425.5,797.9h11.6c8.2,0,14.8,6.6,14.8,14.8v18.2c0,8.2-6.6,14.8-14.8,14.8h-11.6c-8.2,0-14.8-6.6-14.8-14.8
	v-18.2C1410.7,804.5,1417.3,797.9,1425.5,797.9z"/>
<path class="st1" d="M1490.2,797.9h11.6c8.2,0,14.8,6.6,14.8,14.8v18.2c0,8.2-6.6,14.8-14.8,14.8h-11.6c-8.2,0-14.8-6.6-14.8-14.8
	v-18.2C1475.4,804.5,1482,797.9,1490.2,797.9z"/>
<path class="st1" d="M1554.9,797.9h11.6c8.2,0,14.8,6.6,14.8,14.8v18.2c0,8.2-6.6,14.8-14.8,14.8h-11.6c-8.2,0-14.8-6.6-14.8-14.8
	v-18.2C1540.1,804.5,1546.7,797.9,1554.9,797.9z"/>
<path class="st1" d="M1619.6,797.9h11.6c8.2,0,14.8,6.6,14.8,14.8v18.2c0,8.2-6.6,14.8-14.8,14.8h-11.6c-8.2,0-14.8-6.6-14.8-14.8
	v-18.2C1604.8,804.5,1611.4,797.9,1619.6,797.9z"/>
<path class="st1" d="M1647.3,424.2h-237.8c-1.1,0-2.1-0.9-2.1-2c0,0,0,0,0,0c0-1.2,0.9-2.1,2.1-2.1h237.8c1.2,0,2.1,1,2.1,2.1
	C1649.4,423.3,1648.5,424.2,1647.3,424.2C1647.3,424.2,1647.3,424.2,1647.3,424.2z"/>
<path class="st1" d="M1647.3,457.8h-237.8c-1.2,0-2.2-1-2.2-2.2c0-1.2,1-2.2,2.2-2.2h237.8c1.2,0,2.2,1,2.2,2.2
	C1649.4,456.8,1648.5,457.8,1647.3,457.8z"/>
<path class="st1" d="M1647.3,491.3h-237.8c-1.2,0-2.1-1-2.1-2.1c0-1.1,0.9-2.1,2.1-2.1c0,0,0,0,0,0h237.8c1.1,0,2.1,0.9,2.1,2
	c0,0,0,0,0,0C1649.4,490.3,1648.4,491.3,1647.3,491.3z"/>
<path class="st1" d="M1647.3,524.8h-237.8c-1.2,0-2.2-1-2.2-2.2s1-2.2,2.2-2.2h237.8c1.2,0,2.2,1,2.2,2.2S1648.5,524.8,1647.3,524.8
	z"/>
<path class="st1" d="M1647.3,732.4h-237.8c-1.2,0-2.2-1-2.2-2.2c0-1.2,1-2.2,2.2-2.2h237.8c1.2,0,2.2,1,2.2,2.2
	C1649.4,731.4,1648.5,732.4,1647.3,732.4z"/>
<path class="st1" d="M1647.3,766h-237.8c-1.1,0-2.1-0.9-2.1-2c0,0,0,0,0,0c0-1.2,0.9-2.1,2.1-2.1h237.8c1.2,0,2.1,1,2.1,2.1
	C1649.4,765,1648.5,766,1647.3,766C1647.3,766,1647.3,766,1647.3,766z"/>
<path class="st1" d="M1603,98.4c0,0,5.3-22.7,0.4-35.6c-3-7.5-10.4-12.2-18.4-11.6c0,0-35.9-8-46.2-17.3l4.7,16.5
	c-6.2-0.4-12.3-2.1-17.9-4.9c-1.5,5.8,0.3,11.9,4.6,15.9c-5.2,2.5-11.3,2.5-16.5,0c0,0,9.8,24.1,32.7,21.7
	C1561.1,80.9,1587.5,103.4,1603,98.4z"/>
<path class="st2" d="M1597.9,101.3c-8.2,0-17.8-4.3-27.1-8.7s-18.1-8.7-24.4-7.8c-24.2,2.8-34.6-22.5-34.9-22.7
	c-0.4-1.1,0.1-2.3,1.2-2.7c0.6-0.2,1.3-0.2,1.8,0.1c3.6,1.9,7.8,2.3,11.7,1.1c-3.2-4.5-4.3-10.2-2.9-15.6c0.1-0.6,0.6-1.1,1.1-1.3
	c0.6-0.2,1.2-0.2,1.8,0c4.5,2.1,9.3,3.5,14.2,4.3l-3.9-13.6c-0.2-0.9,0.1-1.9,0.9-2.4c0.8-0.5,1.8-0.4,2.5,0.3
	c9.4,8.7,41.5,16,45,16.8c8.9-0.6,17.1,4.7,20.4,13c5.2,13.3,0,35.9-0.3,36.8c-0.1,0.7-0.7,1.3-1.3,1.5
	C1601.8,101,1599.9,101.3,1597.9,101.3z M1603,98.4L1603,98.4z M1547.8,80.4c7.1,0,15.7,4,24.7,8.2c10.3,4.9,21,9.8,28.6,8.1
	c1-4.8,4.3-22.6,0.2-33.1c-2.7-6.7-9.3-10.9-16.5-10.3h-0.6c-1.3-0.3-28.3-6.3-42.1-14.3l3.1,10.9c0.2,0.6,0,1.3-0.3,1.9
	c-0.4,0.5-1,0.8-1.7,0.8c-5.6-0.3-11.1-1.7-16.3-4c-0.5,4.3,1.1,8.5,4.3,11.3c0.5,0.5,0.8,1.2,0.7,1.9c-0.1,0.7-0.5,1.3-1.2,1.6
	c-4.1,1.8-8.6,2.4-13,1.7c4,6.5,13,17.3,28.1,15.5C1546.5,80.5,1547.2,80.4,1547.8,80.4z"/>
<path class="st3" d="M1633.2,288.3c0,0,31.3-68.4,27.5-113.2c-3.8-44.8-33.2-47.6-43.3-48.2c-10.1-0.6-64.1-7.8-83.8,16.3
	c-19.7,24.1-14.6,140.3-14.6,140.3L1633.2,288.3z"/>
<path class="st2" d="M1516.7,260.5c-23,10.5-45,23.2-65.6,37.8c-18.3,12.4-28.6,143.1-28.6,143.1s3.8,21,28.1,17.7l64-145.6
	C1514.5,313.5,1537.3,260,1516.7,260.5z"/>
<path class="st2" d="M1445.5,461.4c-12.1,0.3-22.6-8-25.2-19.8c0-0.2,0-0.3,0-0.5c1.1-13.5,11-132.1,29.5-144.7
	c20.8-14.6,42.9-27.3,66-37.8c0.2-0.1,0.5-0.1,0.7,0c3.3-0.2,6.5,1.3,8.4,4c8.1,11.9-6.8,47.6-8.7,52l-64,145.7
	c-0.3,0.7-0.9,1.1-1.6,1.2C1449,461.5,1447.3,461.5,1445.5,461.4z M1424.7,441.2c0.5,2.3,4.6,18,24.5,15.9l63.5-144.5
	c4.3-10.4,14.7-39.3,9-47.6c-1-1.4-2.6-2.2-4.3-2.2c-22.7,10.5-44.4,23-65,37.3C1438,309.6,1427.5,404.8,1424.7,441.2z"/>
<path class="st2" d="M1635.8,273.9c0,0-91.8,2.6-113.5-0.5c0,0-1.2,0.3-17.1,29.4c-15.8,29.2,6.9,162.6,6.9,162.6
	s20.9,22.1,37.4,18.9l19.5-152.1c0,0,33.3,1,52-12.3C1633.9,310.7,1633.3,290.8,1635.8,273.9z"/>
<path class="st2" d="M1546.2,486.8c-16.5,0-34.6-19.1-35.6-19.9c-0.3-0.3-0.5-0.7-0.5-1.1c-1-5.5-22.7-134.2-6.7-163.9
	s17.3-30.3,18.5-30.3h0.7c21.2,3.2,112.2,0.6,113.1,0.5c1.1-0.1,2.1,0.8,2.2,1.9c0,0.2,0,0.3,0,0.5c-0.4,3.1-0.8,6.4-1.2,9.6
	c-1.6,14.6-3.2,29.7-14.6,37.9c-16.5,11.8-43.7,12.6-51.1,12.6l-19.3,149.8c-0.1,0.9-0.8,1.6-1.7,1.8
	C1548.7,486.6,1547.5,486.8,1546.2,486.8z M1514.2,464.5c2.9,2.9,19.8,19.3,33.5,18.1L1567,332c0.1-1.1,1.1-1.9,2.2-1.8
	c0.3,0,32.8,0.8,50.5-11.9c9.8-7.1,11.3-21.2,13-34.9c0.3-2.4,0.5-4.9,0.8-7.3c-14.8,0.4-88.6,2.2-110.1-0.5
	c-1.3,1.8-5.1,7.9-16.2,28.2C1492.3,331.1,1512.5,454.4,1514.2,464.5L1514.2,464.5z"/>
<path class="st3" d="M1533.5,143.2c0,0-14.6,28-23.1,42.4c-8.2,12.3-17.3,24-27.2,35c0,0-66,23.5-66.4,24.7
	c-0.4,1.3,6.2,23.5,6.2,23.5s69.3-5,80.7-10.4c11.4-5.4,34.6-32,34.6-32L1533.5,143.2z"/>
<path class="st1" d="M1560.4,128.2l3.9,23.9c5.1,7.3,14.9,9.8,22.8,5.6c15.1-6.7,15.1-18.1,15.1-18.1l-8.1-44.2
	c0,0-13.9-5.4-21.2-32.6c0,0-34.6,2.6-32.3,15.6c0,0-0.4,24.4,3.2,36.2C1546.7,121.8,1552.9,126.9,1560.4,128.2z"/>
<path class="st2" d="M1578.6,161.8c-6.4-0.2-12.4-3.4-16.1-8.7c-0.1-0.2-0.2-0.5-0.3-0.8l-3.7-22.6c-7.7-1.5-14.1-7.1-16.6-14.6
	c-3.8-12.1-3.4-35.9-3.4-36.9c-0.3-2.4,0.4-4.8,1.9-6.7c6.8-8.7,29.7-10.7,32.3-10.9c1-0.1,1.9,0.6,2.2,1.6
	c6.8,25.6,19.8,31.1,19.9,31.2c0.7,0.3,1.2,0.8,1.3,1.6l8.1,44.2c0,0.9,0,13.4-16.2,20.4C1585.1,161,1581.9,161.7,1578.6,161.8z
	 M1566.3,151.3c4.6,6.3,13.1,8.2,20,4.5c13.4-5.9,13.8-15.8,13.8-16.2l-7.8-42.7c-3.6-1.9-14.5-9.4-20.9-31.8
	c-7.5,0.8-23.2,3.5-27.6,9.2c-0.9,1-1.2,2.4-1,3.8c0,0.6-0.3,24.6,3.2,36c2.3,6.4,7.9,10.9,14.6,12l0.9,0.3c0.6,0.3,1,0.9,1.1,1.5
	L1566.3,151.3z"/>
<path class="st1" d="M1584.9,96.3c0.2-2.2,1-4.4,2.5-6.1c1.4-1.5,3.1-2.8,5-3.8c1-0.6,2.1-1,3.2-1.2c0.8,0,1.6,0.1,2.4,0.4
	c1.8,0.6,3.3,1.7,4.3,3.2c0.7,1.3,1,2.8,1,4.3c0.1,1.7,0,3.3-0.3,5c-0.8,3.3-2.8,6.1-5.7,7.9c-2.9,1.7-6.3,2.3-9.6,1.5"/>
<path class="st2" d="M1590.7,110.3c-1.2,0-2.3-0.2-3.5-0.4c-1.1-0.3-1.8-1.4-1.6-2.6c0.3-1.1,1.4-1.8,2.5-1.5c0,0,0,0,0,0
	c2.7,0.6,5.6,0.2,8-1.3c2.4-1.5,4.1-3.9,4.7-6.6c0.3-1.4,0.4-2.9,0.3-4.3c0-1.2-0.2-2.4-0.7-3.5c-0.8-1.2-2-2-3.3-2.4
	c-0.5-0.2-1-0.3-1.6-0.3c-0.8,0.2-1.6,0.5-2.3,1c-1.6,0.8-3.1,1.9-4.3,3.2c-1.2,1.4-1.9,3.1-2,4.9c-0.1,1.2-1.1,2-2.3,2
	c-1.1-0.1-2-1.1-2-2.2c0,0,0,0,0-0.1c0.2-2.7,1.2-5.3,3-7.3c1.6-1.8,3.5-3.2,5.5-4.3c1.3-0.8,2.8-1.3,4.3-1.5c1.1,0,2.2,0.2,3.2,0.6
	c2.3,0.7,4.3,2.2,5.6,4.3c0.9,1.7,1.3,3.5,1.3,5.4c0.1,1.9,0,3.7-0.4,5.5c-1.6,6.7-7.5,11.4-14.4,11.4L1590.7,110.3z"/>
<path class="st1" d="M1563,89.9c0,0-6.5,13.5-4.3,15.4c2.2,1.9,7.6-0.3,7.6-0.3"/>
<path class="st2" d="M1561.4,108.1c-1.4,0.1-2.8-0.4-4-1.2c-0.9-0.7-3.6-2.9,3.7-17.9c0.5-1,1.7-1.5,2.8-1c1,0.5,1.5,1.7,1,2.8
	c0,0,0,0,0,0.1c-2.1,4.1-3.6,8.5-4.3,13c1.7,0.2,3.5-0.1,5.1-0.8c1.1-0.4,2.3,0.1,2.8,1.1c0.4,1.1-0.1,2.3-1.2,2.8c0,0,0,0,0,0
	C1565.4,107.6,1563.4,108,1561.4,108.1z"/>
<ellipse transform="matrix(0.9949 -0.1011 0.1011 0.9949 -0.6815 159.4439)" class="st2" cx="1573.4" cy="86.4" rx="2.1" ry="2.9"/>
<ellipse transform="matrix(0.9956 -9.410831e-02 9.410831e-02 0.9956 -1.521 146.8185)" class="st2" cx="1555.9" cy="89.5" rx="2.1" ry="2.9"/>
<path class="st2" d="M1564.9,118.7c-4-0.1-7.9-0.9-11.6-2.4c-1.1-0.4-1.6-1.7-1.1-2.7c0,0,0,0,0,0c0.5-1,1.7-1.5,2.8-1.1
	c0,0,9.8,4.3,16.5,0.6c3.5-2.3,5.8-6.1,6.1-10.3c0.2-1.2,1.3-2,2.5-1.8c1.2,0.2,2,1.3,1.8,2.5l0,0c-0.5,5.5-3.5,10.4-8.2,13.3
	C1571,118.1,1567.9,118.8,1564.9,118.7z"/>
<path class="st2" d="M1560.4,128.2c0,0,15.4,1,23.4-5.5c0,0-6.4,21.7-20.7,21.7L1560.4,128.2z"/>
<path class="st2" d="M1563.3,146.7c-1,0-1.9-0.8-2-1.8l-2.7-16.4c-0.1-0.6,0.1-1.3,0.5-1.8c0.4-0.5,1-0.7,1.7-0.7
	c0,0,14.7,0.8,21.9-5c0.9-0.7,2.3-0.5,3,0.4c0.4,0.5,0.5,1.2,0.4,1.9C1585.7,124.2,1579,146.5,1563.3,146.7L1563.3,146.7z
	 M1563.3,130.4l2,12c7.4-1.3,12.3-9.3,14.8-14.9c-5.5,2-11.3,3-17.2,2.9L1563.3,130.4z"/>
<path class="st3" d="M1646.1,138c12.3,2.2,62.3,117.6,45.2,130.8c-26.7,20.6-119.5,0-119.5,0l7.6-35.8c0,0,59.7,1.7,60.6-10.6
	c1-12.3-34.6-69-30.1-77.5C1614.4,136.5,1646.1,138,1646.1,138z"/>
<path class="st1" d="M1585.7,244.6c-9.9,0.6-19.9,0.2-29.7-1.4c-7.3-1.8-14.7-2.6-22.2-2.6c-9.8,0.5-19.5,2.7-28.6,6.5
	c-0.4,0.1-0.7,0.3-1,0.6c-0.9,1.2,1.2,2.4,2.7,2.5c3.9,0.1,7.9-0.4,11.6-1.5c-9.4,3.5-18.3,8.2-26.4,14c-1,0.6-1.9,1.7-1.5,2.7
	s2.3,0.9,3.6,0.3l21.3-9.7c-5.5,2.2-10.6,5.3-15.2,9.2c-0.6,0.6-1.3,1.3-1.1,2.1s2.4,1.2,3.8,0.5c6.5-3.2,12.7-7,18.5-11.3l-13,10.1
	c0,1,1,1.9,2.1,2c1.1-0.1,2.1-0.4,3-1l14.7-8.7l-9.1,6.4c-1.5,1-3.1,2.6-2.4,4.3c0.7,1.7,3.6,1.3,5.5,0.5c7.5-3.3,15.4-5.7,23.5-7.2
	c2.8-0.9,5.7-1.5,8.7-1.8c4.5,0.6,9,1.6,13.4,2.9c6.7,1.5,13.3,3,19.9,4.3"/>
<path class="st2" d="M1519,273.1c-0.6,0-1.3-0.1-1.9-0.3c-1-0.4-1.8-1.1-2.2-2.1c-0.2-0.4-0.3-0.9-0.3-1.3l0,0
	c-1.2,0.8-2.6,1.3-4.1,1.3c-1.2-0.1-2.3-0.6-3.1-1.5c-0.2-0.3-0.4-0.6-0.6-1c-0.9,0.5-1.9,1-2.8,1.5c-1.5,0.8-3.2,0.9-4.8,0.3
	c-0.9-0.4-1.5-1.2-1.7-2.2c-0.1-0.4-0.1-0.9,0-1.3l-2.3,1.1c-1.3,0.7-2.9,0.9-4.3,0.4c-0.8-0.3-1.5-0.9-1.8-1.7
	c-0.4-0.8-0.9-2.9,2.1-5.1c4.8-3.4,9.8-6.5,15.1-9.2c-1.6-0.2-2.9-1.1-3.8-2.4c-0.5-1-0.4-2.1,0.3-3c0.5-0.6,1.1-1,1.8-1.3
	c9.3-4,19.2-6.2,29.3-6.7c6.7-0.2,13.4,0.5,19.9,2.1l2.7,0.5c9.7,1.6,19.5,2,29.3,1.4l0,0c1,0,1.9,0.8,1.9,1.9c0,1.1-0.8,1.9-1.9,2
	c-10.1,0.6-20.1,0.1-30.1-1.5l-2.8-0.5c-6.2-1.5-12.6-2.1-19-2c-9.1,0.5-18.1,2.4-26.5,5.8c3.6,0.1,7.2-0.4,10.7-1.4
	c1-0.3,2.1,0.2,2.4,1.2c0.3,1-0.2,2.1-1.2,2.4c-9,3.3-17.6,7.8-25.4,13.3l15.9-7.3c1.6-0.8,3.3-1.6,5-2.3c1-0.4,2.1,0,2.5,1
	c0.4,1,0,2.1-1,2.5l-4.8,2.2c-3.2,1.7-6.3,3.7-9.1,6c6.3-3.2,12.4-6.9,18.1-11.1c0.8-0.6,2-0.5,2.7,0.4c0,0,0,0,0,0
	c0.6,0.8,0.5,2-0.3,2.7c0,0,0,0,0,0l-10.5,8h0.3l14.7-8.7c1-0.4,2.1,0,2.6,1c0.4,0.8,0.2,1.7-0.5,2.3l-9.2,6.4
	c-1.5,1-1.8,1.8-1.7,1.9c1,0.2,2.1,0,3-0.5c7.7-3.3,15.7-5.8,23.9-7.4l2.8-0.7c2.1-0.7,4.2-1,6.4-1c3.3,0.3,6.6,0.9,9.7,1.9
	c1.4,0.4,2.7,0.8,4,1l19.9,4.6c1,0.2,1.7,1.3,1.4,2.3c-0.2,1-1.3,1.7-2.3,1.4c-6.6-1.5-13.3-3.1-19.9-4.3c-1.3-0.3-2.7-0.7-4.3-1.1
	c-2.8-0.9-5.7-1.5-8.7-1.8c-1.8,0-3.6,0.4-5.3,1c-1,0.3-2,0.6-3,0.7c-8,1.6-15.7,4-23.1,7.2C1521.8,272.8,1520.4,273.1,1519,273.1z"
	/>
<path class="st1" d="M1539.9,153.3c-3.3,3.3-11.6,55.8-14.6,80.6"/>
<path class="st2" d="M1525.3,235.9h-0.3c-1-0.1-1.8-1.1-1.6-2.1c1.9-15.4,10.8-77.3,15.2-81.8c0.8-0.7,2.1-0.5,2.7,0.3
	c0.5,0.7,0.5,1.6,0,2.3c-2.8,3.9-10.8,52.2-14.1,79.5C1527.1,235.2,1526.3,235.9,1525.3,235.9z"/>
<polygon class="st1" points="1415.4,283.3 1416.8,293.2 1552.7,313 1550.4,302.9 "/>
<path class="st2" d="M1552.7,315.1h-0.3l-135.9-19.9c-0.9-0.1-1.6-0.9-1.8-1.8l-1.5-9.8c-0.1-0.7,0.1-1.3,0.6-1.8
	c0.5-0.5,1.2-0.7,1.8-0.6l135.1,19.6c0.9,0.1,1.5,0.8,1.7,1.6l2.1,10.2c0.2,0.7,0,1.4-0.5,1.9
	C1553.8,314.8,1553.3,315.1,1552.7,315.1z M1418.5,291.3l131.3,19.2l-1.3-5.8l-130.9-18.9L1418.5,291.3z"/>
<path class="st1" d="M1415.4,283.3c0,0,30.9-26.5,32-26.3c1,0.3,140,16.9,140,16.9l-37.1,28.9L1415.4,283.3z"/>
<path class="st2" d="M1550.3,305L1550.3,305l-135.2-19.7c-0.8-0.1-1.5-0.7-1.7-1.5c-0.2-0.8,0-1.6,0.6-2.2
	c31.8-27.3,32.5-27.1,33.8-26.8c2.1,0.3,92.4,11.2,139.8,16.8c0.9,0.1,1.6,0.7,1.8,1.6c0.3,0.8,0,1.7-0.7,2.2l-36.9,28.9
	C1551.3,304.8,1550.8,305,1550.3,305z M1420.4,281.9l129.6,18.8l32.2-25.2c-41.8-5-125-15-134.2-16.2
	C1444.8,261.2,1430.7,273,1420.4,281.9z"/>
<polygon class="st1" points="1552.7,313 1588.2,283.3 1587.3,273.9 1550.4,302.9 "/>
<path class="st2" d="M1552.7,315.1c-0.2,0-0.4,0-0.6,0c-0.7-0.2-1.2-0.8-1.4-1.5l-2.3-10.1c-0.2-0.8,0.1-1.6,0.7-2.1l36.9-29.1
	c0.9-0.7,2.3-0.6,3,0.4c0.3,0.3,0.4,0.7,0.4,1.1l0.8,9.4c0.1,0.7-0.2,1.4-0.7,1.8l-35.5,29.7C1553.7,315,1553.2,315.1,1552.7,315.1z
	 M1552.7,303.7l1.3,5.5l32-26.8l-0.4-4.3L1552.7,303.7z"/>
<polygon class="st1" points="1415.4,283.3 1389.3,195.8 1532.5,220.2 1550.4,302.9 "/>
<path class="st2" d="M1550.3,305L1550.3,305l-135.2-19.7c-0.8-0.1-1.5-0.7-1.7-1.5l-26-87.5c-0.3-1.1,0.3-2.3,1.4-2.6
	c0.3-0.1,0.6-0.1,0.9-0.1l143.2,24.6c0.8,0.1,1.5,0.8,1.7,1.6l17.8,82.8c0.2,0.7,0,1.4-0.5,1.9
	C1551.5,304.9,1550.9,305.1,1550.3,305z M1416.8,281.4l130.8,18.9l-16.8-78.3l-138.6-23.6L1416.8,281.4z"/>
<path class="st3" d="M1616.9,281.3h-0.3l-29-5c-1-0.2-1.7-1-1.8-2l-0.9-34.6c0-1.1,0.8-2.1,1.9-2.1l51.2-5.3l-22.8-78.3
	c-0.3-1.1,0.3-2.3,1.4-2.6c1.1-0.3,2.3,0.3,2.6,1.4c0,0,0,0,0,0l23.4,80.6c0.2,0.6,0.1,1.2-0.3,1.7c-0.3,0.5-0.9,0.9-1.5,1l-52,5.3
	l0.9,31l27.3,4.7c1.2,0.1,2.1,1.2,2,2.4c-0.1,1.2-1.2,2.1-2.4,2L1616.9,281.3z"/>
<path class="st1" d="M1426.8,418.1c-2.4-2.2-4.9-4.3-7.5-6.2c-5.6-4.3-17.7-10.4-21.2-0.5c-2.2,6.1,1.2,14.3,3.5,20
	c4.5,10.8,11.4,20.5,20.2,28.4c7.7,6.9,32.1,16.9,30.3-2.4c-0.5-3.5-1.6-6.9-3.3-10C1443.3,436.3,1435.9,426.4,1426.8,418.1z"/>
<path class="st2" d="M1443.1,470.5c-8.3-0.7-16.2-3.9-22.6-9.4c-9-8-16.1-17.9-20.7-29.1c-2.3-5.8-5.9-14.5-3.5-21.4
	c0.9-2.9,3.1-5.2,6-6.2c7.1-2.1,16.4,4.3,18.1,5.8c2.6,2,5.2,4.1,7.6,6.3l0,0c9.3,8.5,16.9,18.6,22.5,29.9c1.8,3.3,3,6.9,3.5,10.7
	c0.7,7.5-2.4,10.8-5.2,12.1C1447.1,470.1,1445.1,470.6,1443.1,470.5z M1405.4,407.9c-0.6,0-1.3,0.1-1.9,0.3c-1.7,0.6-3.1,2-3.5,3.8
	c-1.9,5.5,1.3,13.4,3.4,18.6c4.4,10.6,11.2,20,19.7,27.7c5.5,5,18.3,10.5,24.1,7.6c2.5-1.3,3.5-4,3.1-8.4c-0.5-3.3-1.5-6.4-3.1-9.3
	c-5.4-10.8-12.7-20.6-21.7-28.8c-2.3-2.2-4.8-4.3-7.3-6.1C1414.5,410.4,1410.1,408.5,1405.4,407.9z"/>
<path class="st1" d="M1509.3,428.8c-1.7-1.2-3.7-1.7-5.7-1.6c-1.3,0.3-2.4,0.9-3.4,1.9c-3.5,3.6-5.2,8.7-4.6,13.7
	c0.6,5,2.2,9.8,4.5,14.2c6.6,13.8,15.6,27.1,28.9,34.6c2.4,1.4,5,2.4,7.7,3c23.6,4.3,13.9-19.1,8.1-29.7
	C1536.6,449.8,1524.3,437.3,1509.3,428.8z"/>
<path class="st2" d="M1541.8,497c-1.8,0-3.6-0.2-5.4-0.5c-2.9-0.6-5.7-1.7-8.3-3.2c-11.7-6.6-21.4-18.1-29.7-35.4
	c-2.5-4.6-4.1-9.7-4.8-14.9c-0.7-5.6,1.2-11.3,5.2-15.3c1.2-1.2,2.7-2,4.3-2.3c2.5-0.2,4.9,0.4,7,1.8l0,0
	c15.3,8.6,27.8,21.3,36.3,36.7c4.3,7.7,10.5,21.7,5.3,29C1549.4,495.8,1545.6,497.3,1541.8,497z M1504.4,429.1h-0.5
	c-0.9,0.2-1.7,0.7-2.4,1.4c-3.1,3.2-4.6,7.7-4,12.1c0.6,4.7,2.1,9.3,4.3,13.5c7.9,16.5,17.3,27.5,28.1,33.7c2.2,1.3,4.6,2.3,7.1,2.8
	c5.9,1.1,9.8,0.3,11.6-2.1c3.4-4.7-0.6-15.9-5.5-24.9c-8.1-14.7-20.1-26.9-34.6-35.2C1507.2,429.7,1505.8,429.2,1504.4,429.1
	L1504.4,429.1z"/>
<path class="st1" d="M1499.8,354.6c-1.1,0-2-0.8-2.1-1.9c0-1-2.4-24.2,1.6-37.5c0.3-1.1,1.5-1.8,2.6-1.4c1.1,0.3,1.8,1.5,1.4,2.6
	c-3.7,12.5-1.5,35.7-1.5,35.9c0.1,1.2-0.7,2.2-1.9,2.3L1499.8,354.6z"/>
<path class="st1" d="M385.9,191.4h860.3c18.1,0,32.7,14.6,32.7,32.7v590.3c0,18.1-14.6,32.7-32.7,32.7H385.9
	c-18.1,0-32.7-14.6-32.7-32.7V224.1C353.2,206,367.9,191.4,385.9,191.4z"/>
<path class="st2" d="M1246.2,849.1H385.9c-19.1-0.1-34.5-15.6-34.6-34.6V224.1c0-19.1,15.5-34.6,34.6-34.6h860.3
	c19.1,0,34.6,15.5,34.6,34.6v590.3c0.1,19.1-15.4,34.7-34.5,34.8C1246.3,849.1,1246.2,849.1,1246.2,849.1z M385.9,193.5
	c-16.9,0-30.6,13.7-30.6,30.6v590.3c0,16.9,13.7,30.6,30.6,30.6h860.3c16.9,0,30.5-13.7,30.6-30.6V224.1c0-16.9-13.7-30.5-30.6-30.6
	H385.9z"/>
<rect x="387.4" y="276.1" class="st2" width="857.2" height="536.4"/>
<path class="st2" d="M1244.6,814.7H387.4c-1.2,0-2.2-1-2.2-2.2V276.1c0-1.2,1-2.2,2.2-2.2h857.4c1.2,0,2.2,1,2.2,2.2v536.4
	c0,1.2-1,2.2-2.2,2.2C1244.8,814.7,1244.7,814.7,1244.6,814.7z M389.7,810.4h853.1V278.3H389.7V810.4z"/>
<rect x="387.4" y="225.8" class="st3" width="857.2" height="50.3"/>
<path class="st3" d="M1244.6,278.3H387.4c-1.2,0-2.2-1-2.2-2.2v-50.3c0-1.2,1-2.2,2.2-2.2h857.4c1.2,0,2.2,1,2.2,2.2v50.3
	c0,1.2-1,2.2-2.2,2.2C1244.8,278.3,1244.7,278.3,1244.6,278.3z M389.7,274h853.1v-46H389.7V274z"/>
<path class="st1" d="M559.3,329.5h-73.6c-1.1,0-2.1-0.9-2.1-2c0,0,0,0,0,0c0-1.2,1-2.1,2.1-2.1h73.6c1.1,0,2.1,0.9,2.1,2.1
	c0,0,0,0,0,0C561.4,328.6,560.5,329.5,559.3,329.5C559.4,329.5,559.3,329.5,559.3,329.5z"/>
<path class="st4" d="M725.4,329.5H578.1c-1.1,0-2.1-0.9-2.1-2c0,0,0-0.1,0-0.1c0-1.1,0.9-2.1,2-2.1c0,0,0,0,0,0h147.2
	c1.2,0,2.1,1,2.1,2.1C727.5,328.6,726.6,329.5,725.4,329.5C725.4,329.5,725.4,329.5,725.4,329.5z"/>
<path class="st4" d="M776.3,360.4H629c-1.2,0-2.2-1-2.2-2.2c0-1.2,1-2.2,2.2-2.2l0,0h147.2c1.2,0,2.2,1,2.2,2.2
	C778.4,359.4,777.5,360.4,776.3,360.4z"/>
<path class="st1" d="M576.6,360.4H503c-1.2,0-2.2-1-2.2-2.2c0-1.2,1-2.2,2.2-2.2h73.6c1.2,0,2.2,1,2.2,2.2
	C578.7,359.4,577.8,360.4,576.6,360.4z"/>
<path class="st1" d="M593.9,391.2h-73.6c-1.2,0-2.1-1-2.1-2.1c0-1.1,0.9-2.1,2.1-2.1c0,0,0,0,0,0h73.6c1.1,0,2.1,0.9,2.1,2
	c0,0,0,0.1,0,0.1C596,390.2,595.1,391.1,593.9,391.2C593.9,391.2,593.9,391.2,593.9,391.2z"/>
<path class="st4" d="M802.5,391.2H618.5c-1.1,0-2.1-0.9-2.1-2.1c0,0,0,0,0,0c0-1.1,0.9-2.1,2-2.1c0,0,0.1,0,0.1,0h184.1
	c1.1,0,2.1,0.9,2.1,2c0,0,0,0,0,0C804.7,390.2,803.7,391.2,802.5,391.2L802.5,391.2z"/>
<path class="st1" d="M611.2,421.9h-73.6c-1.2,0-2.1-1-2.1-2.1c0-1.1,0.9-2.1,2.1-2.1h0h73.6c1.1,0,2.1,0.9,2.1,2c0,0,0,0,0,0
	C613.3,421,612.4,421.9,611.2,421.9z"/>
<path class="st4" d="M840.6,421.9H621.7c-1.2,0-2.1-1-2.1-2.1c0-1.1,0.9-2.1,2.1-2.1c0,0,0,0,0,0h218.9c1.1,0,2.1,0.9,2.1,2
	c0,0,0,0,0,0C842.7,421,841.8,421.9,840.6,421.9L840.6,421.9z"/>
<path class="st1" d="M591.7,452.7H518c-1.2,0-2.2-1-2.2-2.2s1-2.2,2.2-2.2h73.6c1.2,0,2.2,1,2.2,2.2S592.8,452.7,591.7,452.7z"/>
<path class="st4" d="M725.4,452.7H606.7c-1.2,0-2.2-1-2.2-2.2s1-2.2,2.2-2.2h118.7c1.2,0,2.2,1,2.2,2.2S726.6,452.7,725.4,452.7z"/>
<path class="st4" d="M889.4,452.7H770.8c-1.2,0-2.2-1-2.2-2.2s1-2.2,2.2-2.2h118.7c1.2,0,2.2,1,2.2,2.2S890.7,452.7,889.4,452.7
	L889.4,452.7z"/>
<path class="st1" d="M591.7,483.5H518c-1.2,0-2.2-1-2.2-2.2c0-1.2,1-2.2,2.2-2.2h73.6c1.2,0,2.2,1,2.2,2.2
	C593.8,482.6,592.8,483.5,591.7,483.5z"/>
<path class="st4" d="M725.4,483.5H621.7c-1.2,0-2.2-1-2.2-2.2c0-1.2,1-2.2,2.2-2.2h103.6c1.2,0,2.2,1,2.2,2.2
	C727.5,482.6,726.6,483.5,725.4,483.5L725.4,483.5z"/>
<path class="st4" d="M785.2,483.5h-42.4c-1.2,0-2.2-1-2.2-2.2c0-1.2,1-2.2,2.2-2.2h42.4c1.2,0,2.2,1,2.2,2.2
	C787.4,482.6,786.4,483.5,785.2,483.5z"/>
<path class="st1" d="M591.7,514.3H518c-1.1,0-2.1-0.9-2.1-2c0,0,0,0,0,0c0-1.2,0.9-2.1,2.1-2.1l0,0h73.6c1.1,0,2.1,0.9,2.1,2.1
	c0,0,0,0,0,0C593.8,513.4,592.9,514.3,591.7,514.3C591.7,514.3,591.7,514.3,591.7,514.3z"/>
<path class="st4" d="M762.6,514.3H611c-1.1,0-2.1-0.9-2.1-2.1c0-1.2,0.9-2.1,2.1-2.1h151.6c1.2,0,2.1,0.9,2.1,2.1c0,0,0,0,0,0
	C764.7,513.4,763.8,514.3,762.6,514.3C762.6,514.3,762.6,514.3,762.6,514.3z"/>
<path class="st4" d="M854.1,514.3h-73.6c-1.1,0-2.1-0.9-2.1-2c0,0,0,0,0,0c0-1.2,0.9-2.1,2.1-2.1c0,0,0,0,0,0h73.6
	c1.2,0,2.1,1,2.1,2.1C856.2,513.4,855.3,514.3,854.1,514.3z"/>
<path class="st1" d="M539.7,545.1h-39c-1.2,0-2.2-1-2.2-2.2s1-2.2,2.2-2.2h39c1.2,0,2.2,1,2.2,2.2S540.9,545.1,539.7,545.1
	L539.7,545.1z"/>
<path class="st4" d="M742.9,545.1H572.1c-1.2,0-2.2-1-2.2-2.2s1-2.2,2.2-2.2h170.8c1.2,0,2.2,1,2.2,2.2S744.1,545.1,742.9,545.1z"/>
<path class="st1" d="M574.3,575.9h-73.6c-1.2,0-2.2-1-2.2-2.2c0-1.2,1-2.2,2.2-2.2h73.6c1.2,0,2.2,1,2.2,2.2
	C576.5,575,575.5,575.9,574.3,575.9z"/>
<path class="st1" d="M658.6,606.7H511.4c-1.1,0-2.1-0.9-2.1-2.1c0,0,0,0,0,0c0-1.1,0.9-2.1,2-2.1c0,0,0.1,0,0.1,0h147.2
	c1.1,0,2.1,0.9,2.1,2c0,0,0,0,0,0C660.7,605.8,659.8,606.7,658.6,606.7L658.6,606.7z"/>
<path class="st4" d="M785.2,606.7H683c-1.1,0-2.1-0.9-2.1-2.1c0,0,0,0,0,0c0-1.1,0.9-2.1,2-2.1c0,0,0.1,0,0.1,0h102.2
	c1.1,0,2.1,0.9,2.1,2c0,0,0,0,0,0C787.3,605.8,786.4,606.7,785.2,606.7C785.2,606.7,785.2,606.7,785.2,606.7z"/>
<path class="st4" d="M926.4,606.7H799.9c-1.1,0-2.1-0.9-2.1-2.1c0,0,0,0,0,0c0-1.1,0.9-2.1,2-2.1c0,0,0.1,0,0.1,0h126.6
	c1.1,0,2.1,0.9,2.1,2.1C928.5,605.8,927.6,606.7,926.4,606.7z"/>
<path class="st1" d="M732.3,637.5H517.9c-1.2,0-2.1-0.9-2.1-2.1l0,0c0-1.1,0.9-2.1,2.1-2.1c0,0,0,0,0,0h214.4c1.1,0,2.1,0.9,2.1,2
	c0,0,0,0,0,0C734.4,636.6,733.5,637.5,732.3,637.5C732.3,637.5,732.3,637.5,732.3,637.5z"/>
<path class="st4" d="M843.4,637.5h-96.4c-1.2,0-2.1-0.9-2.1-2.1c0,0,0,0,0,0c0-1.1,0.9-2.1,2.1-2.1c0,0,0,0,0,0h96.4
	c1.1,0,2.1,0.9,2.1,2c0,0,0,0.1,0,0.1C845.5,636.5,844.6,637.5,843.4,637.5C843.4,637.5,843.4,637.5,843.4,637.5z"/>
<path class="st4" d="M1146.5,637.5H859.7c-1.2,0-2.1-1-2.1-2.1c0-1.1,0.9-2.1,2.1-2.1h286.8c1.1,0,2.1,0.9,2.1,2c0,0,0,0,0,0
	C1148.6,636.6,1147.6,637.5,1146.5,637.5C1146.5,637.5,1146.5,637.5,1146.5,637.5z"/>
<path class="st1" d="M618.5,668.3H517.1c-1.2,0-2.2-1-2.2-2.2s1-2.2,2.2-2.2h101.4c1.2,0,2.2,1,2.2,2.2S619.7,668.3,618.5,668.3z"/>
<path class="st4" d="M713.3,668.3h-74.7c-1.2,0-2.2-1-2.2-2.2s1-2.2,2.2-2.2h74.7c1.2,0,2.2,1,2.2,2.2S714.5,668.3,713.3,668.3z"/>
<path class="st4" d="M808,668.3h-74.7c-1.2,0-2.2-1-2.2-2.2s1-2.2,2.2-2.2H808c1.2,0,2.2,1,2.2,2.2S809.2,668.3,808,668.3z"/>
<path class="st1" d="M696.3,699.1H517.1c-1.1,0-2.1-0.9-2.1-2c0,0,0,0,0,0c0-1.2,0.9-2.1,2.1-2.1l0,0h179.2c1.2,0,2.1,1,2.1,2.1l0,0
	C698.4,698.2,697.5,699.1,696.3,699.1C696.3,699.1,696.3,699.1,696.3,699.1z"/>
<path class="st4" d="M808,699.1h-89.6c-1.1,0-2.1-0.9-2.1-2c0,0,0-0.1,0-0.1c0-1.1,0.9-2.1,2-2.1c0,0,0,0,0,0H808
	c1.1,0,2.1,0.9,2.1,2.1c0,0,0,0,0,0C810.1,698.1,809.3,699.1,808,699.1C808.1,699.1,808.1,699.1,808,699.1z"/>
<path class="st4" d="M966.5,699.1H830c-1.1,0-2.1-0.9-2.1-2c0,0,0-0.1,0-0.1c0-1.1,0.9-2.1,2-2.1c0,0,0,0,0,0h136.5
	c1.2,0,2.1,1,2.1,2.1c0,0,0,0,0,0C968.7,698.2,967.7,699.1,966.5,699.1C966.6,699.1,966.5,699.1,966.5,699.1z"/>
<path class="st4" d="M1117.2,699.1H980.9c-1.1,0-2.1-0.9-2.1-2c0,0,0,0,0,0c0-1.2,1-2.1,2.1-2.1c0,0,0,0,0,0h136.3
	c1.2,0,2.1,1,2.1,2.1c0,0,0,0,0,0C1119.4,698.2,1118.4,699.1,1117.2,699.1C1117.3,699.1,1117.2,699.1,1117.2,699.1z"/>
<path class="st1" d="M669.3,729.9H562.4c-1.1,0-2.1-0.9-2.1-2c0,0,0,0,0,0c0-1.2,1-2.1,2.1-2.1l0,0h106.9c1.1,0,2.1,0.9,2.1,2.1
	c0,0,0,0,0,0C671.4,728.9,670.5,729.9,669.3,729.9C669.4,729.9,669.4,729.9,669.3,729.9z"/>
<path class="st4" d="M796.3,729.9H689.4c-1.1,0-2.1-0.9-2.1-2c0,0,0-0.1,0-0.1c0-1.1,0.9-2.1,2-2.1c0,0,0,0,0,0h106.9
	c1.2,0,2.1,0.9,2.1,2.1c0,0,0,0,0,0C798.4,729,797.5,729.9,796.3,729.9C796.3,729.9,796.3,729.9,796.3,729.9z"/>
<path class="st4" d="M924.2,729.9H817.3c-1.1,0-2.1-0.9-2.1-2c0,0,0,0,0,0c0-1.2,0.9-2.1,2.1-2.1c0,0,0,0,0,0h106.9
	c1.1,0,2.1,0.9,2.1,2.1c0,0,0,0,0,0C926.3,728.9,925.4,729.9,924.2,729.9C924.2,729.9,924.2,729.9,924.2,729.9z"/>
<path class="st4" d="M1056.6,733.3h-107c-1.2,0-2.2-1-2.2-2.2s1-2.2,2.2-2.2h107c1.2,0,2.2,1,2.2,2.2S1057.8,733.3,1056.6,733.3z"/>
<path class="st1" d="M652,760.7h-73.6c-1.1,0-2.1-0.9-2.1-2c0,0,0-0.1,0-0.1c0-1.1,0.9-2.1,2-2.1c0,0,0,0,0,0H652
	c1.2,0,2.1,0.9,2.1,2.1l0,0C654.1,759.7,653.2,760.7,652,760.7C652,760.7,652,760.7,652,760.7z"/>
<path class="st4" d="M743,760.7h-73.6c-1.1,0-2.1-0.9-2.1-2c0,0,0,0,0,0c0-1.2,1-2.1,2.1-2.1l0,0H743c1.1,0,2.1,0.9,2.1,2.1
	c0,0,0,0,0,0C745.1,759.7,744.3,760.6,743,760.7C743.1,760.7,743.1,760.7,743,760.7z"/>
<path class="st4" d="M913.2,763.8L913.2,763.8l-152.2-3.1c-1.1,0-2.1-0.9-2.1-2.1c0,0,0,0,0,0c0-1.1,0.9-2.1,2-2.1
	c0.1,0,0.1,0,0.2,0l152.2,3.1c1.2,0,2.2,1,2.2,2.2s-1,2.2-2.2,2.2L913.2,763.8z"/>
<path class="st4" d="M970,421.9h-99.6c-1.1,0-2.1-0.9-2.1-2.1c0,0,0,0,0,0c0-1.1,0.9-2.1,2-2.1c0,0,0.1,0,0.1,0H970
	c1.1,0,2.1,0.9,2.1,2c0,0,0,0,0,0C972.1,421,971.2,421.9,970,421.9L970,421.9z"/>
<path class="st4" d="M1043.6,422.3c-19.5,0-34,0-34.6-0.4c-1.1-0.3-1.8-1.5-1.5-2.6c0.3-1.1,1.5-1.8,2.6-1.5c3.8,0.5,69.5,0.2,113,0
	l0,0c1.1,0,2.1,0.9,2.1,2c0,0,0,0,0,0c0,1.2-0.9,2.1-2.1,2.1l0,0C1099.9,422.1,1067.9,422.3,1043.6,422.3z"/>
<path class="st4" d="M954.1,360.4H809.5c-1.2,0-2.2-1-2.2-2.2c0-1.2,1-2.2,2.2-2.2h144.6c1.2,0,2.2,1,2.2,2.2
	C956.3,359.4,955.3,360.4,954.1,360.4L954.1,360.4z"/>
<path class="st4" d="M1127.1,360.4H983c-1.2,0-2.2-1-2.2-2.2c0-1.2,1-2.2,2.2-2.2l0,0h143.9c1.2,0,2.2,1,2.2,2.2
	c0,1.2-1,2.2-2.2,2.2H1127.1z"/>
<path class="st4" d="M818.4,329.7c-26.7,0-47.1,0-47.9,0c-1.1-0.2-1.9-1.3-1.7-2.4c0.2-1.1,1.2-1.9,2.3-1.7c3.7,0.3,110.5,0,166.5,0
	l0,0c1.2,0,2.1,0.9,2.1,2.1l0,0c0,1.1-0.9,2.1-2.1,2.1c0,0,0,0,0,0C914.1,329.6,858.9,329.7,818.4,329.7z"/>
<path class="st1" d="M976.7,329.7c-0.8,0-1.5-0.5-1.8-1.2c-0.4-1.1,0.1-2.4,1.1-2.9c1.7-0.8,35.3-0.9,99.9,0c1.1,0,2.1,1,2.1,2.1
	c0,1.1-0.9,2.1-2.1,2.1c0,0,0,0,0,0l0,0c-37.6-0.4-94.8-0.7-98.4,0C977.2,329.8,976.9,329.8,976.7,329.7z"/>
<path class="st4" d="M837.1,545.1h-74.6c-1.2,0-2.2-1-2.2-2.2s1-2.2,2.2-2.2h74.6c1.2,0,2.2,1,2.2,2.2S838.3,545.1,837.1,545.1z"/>
<path class="st4" d="M666,575.9h-54.9c-1.2,0-2.2-1-2.2-2.2c0-1.2,1-2.2,2.2-2.2H666c1.2,0,2.2,1,2.2,2.2
	C668.2,575,667.2,575.9,666,575.9z"/>
<path class="st1" d="M817.3,575.9H686.9c-1.2,0-2.2-1-2.2-2.2c0-1.2,1-2.2,2.2-2.2h130.4c1.2,0,2.2,1,2.2,2.2
	C819.4,575,818.5,575.9,817.3,575.9L817.3,575.9z"/>
<path class="st4" d="M1096,575.9H843.4c-1.2,0-2.2-1-2.2-2.2c0-1.2,1-2.2,2.2-2.2l0,0H1096c1.2,0,2.2,1,2.2,2.2
	C1098.1,575,1097.2,575.9,1096,575.9z"/>
<circle class="st2" cx="420" cy="251" r="7.4"/>
<circle class="st1" cx="445.8" cy="251" r="7.4"/>
<circle class="st1" cx="471.7" cy="251" r="7.4"/>
<polygon class="st1" points="953.8,941.9 678.3,941.9 709.4,847 922.6,847 "/>
<path class="st2" d="M953.8,944.1H678.3c-1.2,0-2.2-0.9-2.2-2c0-0.3,0-0.5,0.1-0.8l31.1-94.9c0.3-0.9,1.1-1.5,2.1-1.5h213.2
	c1,0,1.8,0.6,2.1,1.5l31.1,94.9c0.4,1.1-0.2,2.3-1.3,2.7C954.3,944.1,954,944.1,953.8,944.1z M681.3,939.8h269.5l-29.7-90.6H711
	L681.3,939.8z"/>
<path class="st1" d="M655.6,941.9h320.9c7.4,0,13.4,6,13.4,13.4v0c0,7.4-6,13.4-13.4,13.4H655.6c-7.4,0-13.4-6-13.4-13.4v0
	C642.2,947.9,648.2,941.9,655.6,941.9z"/>
<path class="st2" d="M976.5,970.9h-321c-8.6,0-15.5-7-15.5-15.6c0-8.6,7-15.5,15.5-15.5h321c8.6,0,15.5,7,15.5,15.6
	C992,963.9,985.1,970.9,976.5,970.9L976.5,970.9z M655.6,944.1c-6.2,0-11.2,5-11.2,11.2c0,6.2,5,11.2,11.2,11.2h321
	c6.2,0,11.2-5,11.2-11.2c0-6.2-5-11.2-11.2-11.2H655.6z"/>
<path class="st2" d="M686.6,916.8c4.3-2.3,242.9-45.9,242.9-45.9l-7.8-23.9H708.5L686.6,916.8z"/>
<path class="st2" d="M686.5,918.9c-0.5,0-1-0.2-1.3-0.5c-0.6-0.6-0.9-1.4-0.6-2.3l21.9-69.8c0.3-0.9,1.1-1.5,2-1.5h213.2
	c0.9,0,1.7,0.6,2,1.4l7.8,23.8c0.3,1.1-0.3,2.4-1.5,2.7c-0.1,0-0.1,0-0.2,0c-65.4,12-236.5,43.5-242.5,45.8
	C687.1,918.9,686.8,918.9,686.5,918.9z M710.2,849.1l-20.4,64.7c28.7-6.5,195.6-37.1,237-44.6l-6.6-20.1H710.2z"/>
</svg>
