<svg xmlns="http://www.w3.org/2000/svg" viewBox="0 0 1504 1280"><defs><style>.cls-1,.cls-3{fill:none;}.cls-1{stroke:#59d87a;stroke-miterlimit:10;stroke-width:2px;}.cls-2{fill:#d1d3d4;}.cls-3{stroke:#e6e7e8;stroke-linecap:round;stroke-linejoin:round;stroke-width:1.01px;}.cls-4{fill:#fff;}.cls-5{fill:#231f20;}.cls-6{fill:#68e1fd;}.cls-7{fill:#e6e7e8;}</style></defs><title>DataBanner</title><g id="Capa_1" data-name="Capa 1"><polygon class="cls-1" points="1284.72 99.98 63.5 68.09 169.5 716.09 116.5 1222.09 1440.72 1203.98 1290.72 917.98 1284.72 99.98"/><polygon class="cls-1" points="101.85 98.39 188.98 699.77 149.66 1188.09 1394.32 1174.99 1260.28 884.52 1238.43 121.44 101.85 98.39"/><polygon class="cls-1" points="140.2 128.69 208.46 683.46 182.81 1154.09 1347.91 1146 1229.84 851.06 1192.14 142.91 140.2 128.69"/><polygon class="cls-1" points="178.54 158.99 227.94 667.14 215.97 1120.09 1301.51 1117.01 1199.4 817.6 1145.86 164.37 178.54 158.99"/><polygon class="cls-1" points="216.89 189.29 247.41 650.83 249.12 1086.09 1255.11 1088.01 1168.96 784.14 1099.57 185.83 216.89 189.29"/><polygon class="cls-1" points="255.23 219.59 266.89 634.51 282.27 1052.09 1208.71 1059.02 1138.52 750.68 1053.29 207.29 255.23 219.59"/><polygon class="cls-1" points="293.58 249.9 286.37 618.19 315.43 1018.09 1162.31 1030.03 1108.08 717.22 1007 228.76 293.58 249.9"/><polygon class="cls-1" points="331.93 280.2 305.85 601.88 348.58 984.09 1115.91 1001.04 1077.64 683.76 960.72 250.22 331.93 280.2"/><polygon class="cls-1" points="370.27 310.5 325.33 585.56 381.74 950.09 1069.51 972.05 1047.2 650.3 914.43 271.68 370.27 310.5"/><polygon class="cls-1" points="408.62 340.8 344.81 569.24 414.89 916.09 1023.11 943.06 1016.76 616.84 868.14 293.15 408.62 340.8"/><polygon class="cls-1" points="446.96 371.1 364.28 552.93 448.04 882.09 976.71 914.07 986.32 583.38 821.86 314.61 446.96 371.1"/><polygon class="cls-1" points="485.31 401.4 383.76 536.61 481.2 848.09 930.31 885.07 955.88 549.92 775.57 336.07 485.31 401.4"/><polygon class="cls-1" points="523.65 431.7 403.24 520.29 514.35 814.09 883.9 856.08 925.44 516.46 729.29 357.54 523.65 431.7"/><polygon class="cls-1" points="562 462 422.72 503.98 547.5 780.09 837.5 827.09 895 483 683 379 562 462"/><g id="_517_information_flow_flatline" data-name=" 517 information flow flatline"><path class="cls-2" d="M557.41,480.71H508a1.17,1.17,0,0,1-1.17-1.17,1.15,1.15,0,0,1,1.12-1.17h49.46a1.17,1.17,0,0,1,1.17,1.17A1.19,1.19,0,0,1,557.41,480.71Z"/><path class="cls-2" d="M580.44,459.77H507.6a1.17,1.17,0,0,1-1.17-1.17,1.13,1.13,0,0,1,1.11-1.17h72.9a1.13,1.13,0,0,1,1.17,1.11v.06a1.17,1.17,0,0,1-1.17,1.17Z"/><path class="cls-2" d="M531.49,438.82H507.82a1.16,1.16,0,0,1-1.16-1.17,1.14,1.14,0,0,1,1.11-1.17h23.72a1.18,1.18,0,0,1,1.17,1.17A1.2,1.2,0,0,1,531.49,438.82Z"/><path class="cls-2" d="M588.22,439.56H546.1a1.18,1.18,0,0,1-1.17-1.17,1.2,1.2,0,0,1,1.17-1.17h42.12a1.19,1.19,0,0,1,1.17,1.17,1.17,1.17,0,0,1-1.17,1.17Z"/><path class="cls-3" d="M557.41,480.71H508a1.17,1.17,0,0,1-1.17-1.17,1.15,1.15,0,0,1,1.12-1.17h49.46a1.17,1.17,0,0,1,1.17,1.17A1.19,1.19,0,0,1,557.41,480.71Z"/><path class="cls-3" d="M580.44,459.77H507.6a1.17,1.17,0,0,1-1.17-1.17,1.13,1.13,0,0,1,1.11-1.17h72.9a1.13,1.13,0,0,1,1.17,1.11v.06a1.17,1.17,0,0,1-1.17,1.17Z"/><path class="cls-3" d="M531.49,438.82H507.82a1.16,1.16,0,0,1-1.16-1.17,1.14,1.14,0,0,1,1.11-1.17h23.72a1.18,1.18,0,0,1,1.17,1.17A1.2,1.2,0,0,1,531.49,438.82Z"/><path class="cls-3" d="M588.22,439.56H546.1a1.18,1.18,0,0,1-1.17-1.17,1.2,1.2,0,0,1,1.17-1.17h42.12a1.19,1.19,0,0,1,1.17,1.17,1.17,1.17,0,0,1-1.17,1.17Z"/><path class="cls-2" d="M972.36,541.66H922.87a1.17,1.17,0,0,1-1.17-1.17,1.2,1.2,0,0,1,1.17-1.17h49.49a1.21,1.21,0,0,1,1.17,1.17A1.17,1.17,0,0,1,972.36,541.66Z"/><path class="cls-2" d="M990.91,541.66h-9.38a1.13,1.13,0,0,1-1.16-1.12,0,0,0,0,1,0,0,1.17,1.17,0,0,1,1.16-1.17h9.38a1.17,1.17,0,0,1,1.17,1.17,1.14,1.14,0,0,1-1.12,1.17Z"/><path class="cls-2" d="M995.23,520.74H922.46a1.19,1.19,0,0,1,0-2.36h72.77a1.18,1.18,0,0,1,1,1.35A1.17,1.17,0,0,1,995.23,520.74Z"/><path class="cls-2" d="M946.38,499.8H922.72a1.17,1.17,0,0,1-1.17-1.17,1.14,1.14,0,0,1,1.12-1.17h23.71a1.17,1.17,0,0,1,1.17,1.17A1.2,1.2,0,0,1,946.38,499.8Z"/><path class="cls-2" d="M1003.11,500.54H961a1.17,1.17,0,0,1-1.17-1.17A1.16,1.16,0,0,1,961,498.2h42.12a1.17,1.17,0,1,1,0,2.34Z"/><path class="cls-3" d="M972.36,541.66H922.87a1.17,1.17,0,0,1-1.17-1.17,1.2,1.2,0,0,1,1.17-1.17h49.49a1.21,1.21,0,0,1,1.17,1.17A1.17,1.17,0,0,1,972.36,541.66Z"/><path class="cls-3" d="M990.91,541.66h-9.38a1.13,1.13,0,0,1-1.16-1.12,0,0,0,0,1,0,0,1.17,1.17,0,0,1,1.16-1.17h9.38a1.17,1.17,0,0,1,1.17,1.17,1.14,1.14,0,0,1-1.12,1.17Z"/><path class="cls-3" d="M995.23,520.74H922.46a1.19,1.19,0,0,1,0-2.36h72.77a1.18,1.18,0,0,1,1,1.35A1.17,1.17,0,0,1,995.23,520.74Z"/><path class="cls-3" d="M946.38,499.8H922.72a1.17,1.17,0,0,1-1.17-1.17,1.14,1.14,0,0,1,1.12-1.17h23.71a1.17,1.17,0,0,1,1.17,1.17A1.2,1.2,0,0,1,946.38,499.8Z"/><path class="cls-3" d="M1003.11,500.54H961a1.17,1.17,0,0,1-1.17-1.17A1.16,1.16,0,0,1,961,498.2h42.12a1.17,1.17,0,1,1,0,2.34Z"/><path class="cls-2" d="M547.22,776.83h0a1.24,1.24,0,0,1-1.12-.84l-23.2-64.61L497.48,761a1.35,1.35,0,0,1-1,.69,1.3,1.3,0,0,1-1.12-.51l-25.26-33-15.81,25.41a1.24,1.24,0,0,1-1.7.45h0l-14-8.32a1.28,1.28,0,1,1,1.31-2.19h0l12.71,7.62,16.11-25.85a1.32,1.32,0,0,1,1-.58,1.15,1.15,0,0,1,1.07.48L496,758.07l25.93-50.43a1.26,1.26,0,0,1,2.31.15l23.15,64.46,11-23.28a1.27,1.27,0,0,1,2.29,1.09l-12.3,26.05A1.27,1.27,0,0,1,547.22,776.83Z"/><circle class="cls-4" cx="453.02" cy="752.73" r="3.25"/><path class="cls-2" d="M453.05,757.25a4.52,4.52,0,1,1,4.5-4.55v0A4.52,4.52,0,0,1,453.05,757.25Zm0-6.48a2,2,0,0,0-2,1.93v0a2,2,0,0,0,3.94.45,3.38,3.38,0,0,0,0-.45,2,2,0,0,0-2-2Z"/><circle class="cls-4" cx="469.82" cy="725.91" r="3.25"/><path class="cls-2" d="M469.82,730.41a4.53,4.53,0,1,1,4.5-4.55v0A4.52,4.52,0,0,1,469.82,730.41Zm0-6.48a2,2,0,1,0,2,2,2,2,0,0,0-2-2Z"/><circle class="cls-4" cx="523.02" cy="708.2" r="3.25"/><path class="cls-2" d="M523,712.7a4.53,4.53,0,1,1,4.53-4.53v0a4.51,4.51,0,0,1-4.5,4.5Zm0-6.48a2,2,0,1,0,2,2h0A2,2,0,0,0,523,706.22Z"/><circle class="cls-4" cx="547.22" cy="775.56" r="3.25"/><path class="cls-2" d="M547.22,780.05a4.52,4.52,0,1,1,4.5-4.55v.06A4.52,4.52,0,0,1,547.22,780.05Zm0-6.48a2,2,0,0,0-.45,3.94,1.69,1.69,0,0,0,.45,0,2,2,0,0,0,0-3.94Z"/><circle class="cls-4" cx="496.21" cy="760.41" r="3.25"/><path class="cls-2" d="M496.21,764.91a4.53,4.53,0,1,1,4.5-4.55v0A4.54,4.54,0,0,1,496.21,764.91Zm0-6.49a2,2,0,1,0,2,2,2,2,0,0,0-2-2Z"/><path class="cls-4" d="M419.52,503.36s-3.17-34.77,59.73-34.77l-1.88,132.78L427,579.08Z"/><path class="cls-5" d="M477.48,602.64a1.63,1.63,0,0,1-.54,0l-50.33-22.29a1.31,1.31,0,0,1-.76-1.05l-7.62-75.71h0A27.64,27.64,0,0,1,426,483.91c10-10.93,28-16.47,53.38-16.47a1.26,1.26,0,0,1,.92.38,1.28,1.28,0,0,1,.35.89l-1.9,132.68a1.36,1.36,0,0,1-.59,1.05A1.26,1.26,0,0,1,477.48,602.64Zm-49.06-24.38,47.91,21.23,1.83-129.63c-23.94.17-40.67,5.41-50.1,15.58a25.38,25.38,0,0,0-7.16,17.79Z"/><path class="cls-5" d="M425.88,530h0a1.3,1.3,0,0,1-1.1-1.42c0-.33,4.45-32.69,47.46-35.06a1.28,1.28,0,0,1,1.35,1.19h0a1.25,1.25,0,0,1-1.14,1.34h-.06c-40.89,2.16-45,31.39-45.14,32.73A1.3,1.3,0,0,1,425.88,530Z"/><path class="cls-5" d="M428.09,554.73h0a1.29,1.29,0,0,1-1.25-1.3h0c0-.31.66-33,43.21-40.24a1.29,1.29,0,0,1,.41,2.55c-40.31,6.88-41,36.49-41,37.74a1.3,1.3,0,0,1-1.35,1.25Z"/><path class="cls-5" d="M428.42,570.15h0a1.28,1.28,0,0,1-1.27-1.27c0-.33.68-33,43.21-40.26a1.3,1.3,0,0,1,1.47,1,1.28,1.28,0,0,1-1,1.48h0c-40.39,6.91-41.05,37.44-41.05,37.74a1.28,1.28,0,0,1-1.27,1.28Z"/><path class="cls-2" d="M873.05,380.77a1.13,1.13,0,0,1-.91-.41s-1.25-1.25-3.66-3.35a1.26,1.26,0,0,1,0-1.77h0a1.29,1.29,0,0,1,1.8,0c2.54,2.18,3.76,3.45,3.81,3.5a1.27,1.27,0,0,1,0,1.8h0A1.24,1.24,0,0,1,873.05,380.77Z"/><path class="cls-2" d="M687.35,898.3a1.3,1.3,0,0,1-1.27-1.27,1.27,1.27,0,0,1,1.27-1.27l10.17-.13a1.2,1.2,0,0,1,1.29,1.09.75.75,0,0,1,0,.15,1.31,1.31,0,0,1-1.24,1.3l-10.17.13Zm-10.17,0h0c-3.48,0-6.91-.21-10.16-.38a1.28,1.28,0,1,1,.15-2.55c3.28.21,6.68.33,10.17.39a1.31,1.31,0,0,1,1.24,1.29,1.26,1.26,0,0,1-1.36,1.17h0Zm30.5-.31a1.3,1.3,0,0,1-1.27-1.24,1.28,1.28,0,0,1,1.22-1.3L717.8,895a1.28,1.28,0,0,1,1.32,1.22h0a1.27,1.27,0,0,1-1.22,1.33h0l-10.17.4Zm-50.83-.86h0c-3.48-.33-6.92-.76-10.17-1.27a1.3,1.3,0,0,1-1.07-1.45,1.28,1.28,0,0,1,1.45-1.07h0c3.23.48,6.59.92,10.17,1.27a1.27,1.27,0,1,1-.13,2.54Zm71.17,0a1.29,1.29,0,0,1-1.27-1.2,1.26,1.26,0,0,1,1.19-1.34h0q5.09-.32,10.17-.69a1.3,1.3,0,0,1,1.35,1.17,1.28,1.28,0,0,1-1.17,1.37h0c-3.38.26-6.76.48-10.17.69Zm20.33-1.53a1.27,1.27,0,1,1,0-2.54c3.36-.3,6.74-.63,10.17-1a1.28,1.28,0,1,1,.25,2.54c-3.35.36-6.73.69-10.16,1Zm-111.58-1.52h-.26c-3.43-.74-6.78-1.6-10-2.54a1.28,1.28,0,0,1-.84-1.58,1.25,1.25,0,0,1,1.53-.88l0,0c3.1.91,6.38,1.75,9.76,2.54a1.28,1.28,0,0,1-.28,2.54Zm131.81-.64a1.27,1.27,0,0,1-.15-2.54c3.38-.43,6.74-.86,10.17-1.35a1.3,1.3,0,0,1,1.42,1.1,1.24,1.24,0,0,1-1,1.42h0c-3.36.48-6.74.91-10.17,1.35Zm20.19-2.84a1.28,1.28,0,0,1-.21-2.55c3.36-.53,6.71-1.09,10-1.7a1.29,1.29,0,0,1,.46,2.54c-3.33.59-6.69,1.17-10.17,1.71ZM617.3,888.28a.9.9,0,0,1-.46,0,94,94,0,0,1-9.35-4.29,1.27,1.27,0,0,1-.54-1.72h0a1.27,1.27,0,0,1,1.73-.51h0a84.86,84.86,0,0,0,9.1,4.17,1.29,1.29,0,0,1,.71,1.65,1.27,1.27,0,0,1-1.19.56ZM808.82,887a1.24,1.24,0,0,1-1.24-1,1.27,1.27,0,0,1,1-1.5h0c3.33-.66,6.66-1.37,9.94-2.11a1.3,1.3,0,0,1,1.52,1,1.27,1.27,0,0,1-.95,1.52h0q-4.95,1.11-10,2.11Zm19.88-4.45a1.29,1.29,0,0,1-1.25-1,1.26,1.26,0,0,1,.94-1.52c3.31-.84,6.59-1.68,9.81-2.54a1.32,1.32,0,1,1,.69,2.54h0c-3.25.89-6.56,1.75-9.89,2.54Zm-229.24-3.89a1.39,1.39,0,0,1-.77-.23,61.87,61.87,0,0,1-7.85-6.79,1.25,1.25,0,0,1,0-1.76l0,0a1.28,1.28,0,0,1,1.8,0h0a60.57,60.57,0,0,0,7.63,6.49,1.26,1.26,0,0,1,.28,1.77h0a1.31,1.31,0,0,1-1.09.38Zm248.89-1.53a1.2,1.2,0,0,1-1.22-.89,1.27,1.27,0,0,1,.83-1.57c3.26-1,6.49-2,9.66-3.1a1.3,1.3,0,0,1,1.63.79,1.32,1.32,0,0,1-.81,1.62c-3.21,1.07-6.43,2.11-9.74,3.1a.88.88,0,0,1-.35-.1Zm19.29-6.55a1.32,1.32,0,0,1-1.2-.82,1.27,1.27,0,0,1,.74-1.62c3.18-1.2,6.35-2.55,9.46-3.71a1.27,1.27,0,0,1,1,2.33c-3.12,1.3-6.33,2.55-9.53,3.74A1.26,1.26,0,0,1,867.64,870.57ZM585.5,864.06a1.24,1.24,0,0,1-1-.56,48.76,48.76,0,0,1-4.78-9.28,1.28,1.28,0,0,1,2.39-.91,46.72,46.72,0,0,0,4.5,8.79,1.17,1.17,0,0,1-1.2,1.86Zm301.07-1.27a1.3,1.3,0,0,1-.53-2.54q4.65-2.14,9.13-4.43a1.25,1.25,0,0,1,1.68.52l0,0a1.27,1.27,0,0,1-.54,1.71c-3,1.52-6.1,3-9.22,4.44a1,1,0,0,1-.66.16Zm18.13-9.28a1.27,1.27,0,0,1-.61-2.36c2.95-1.71,5.87-3.46,8.64-5.26a1.23,1.23,0,0,1,1.72.36l0,0a1.27,1.27,0,0,1-.38,1.76c-2.82,1.8-5.77,3.58-8.77,5.28a1.11,1.11,0,0,1-.76.08Zm-326.62-8.36a1.25,1.25,0,0,1-1.25-1.07,53.75,53.75,0,0,1-.63-6.94v-.58a21.19,21.19,0,0,1,.18-3,1.27,1.27,0,0,1,1.42-1.11,1.28,1.28,0,0,1,1.12,1.42h0a21.51,21.51,0,0,0-.15,2.54v.51a45.89,45.89,0,0,0,.61,6.61,1.3,1.3,0,0,1-1.07,1.47Zm343.62-2.7a1.28,1.28,0,0,1-.76-2.31c2.74-2,5.44-4.07,8-6.18a1.3,1.3,0,0,1,1.8.16,1.32,1.32,0,0,1-.17,1.8c-2.55,2.14-5.32,4.25-8.11,6.28a1.29,1.29,0,0,1-.74.2Zm15.63-13a1.27,1.27,0,0,1-1.25-1.29,1.24,1.24,0,0,1,.39-.9c2.54-2.36,4.8-4.77,7-7.24a1.28,1.28,0,0,1,1.8,0h0a1.3,1.3,0,0,1,0,1.81,97.38,97.38,0,0,1-7.14,7.37,1.28,1.28,0,0,1-.79.2Zm-356.28-3.91a1.31,1.31,0,0,1-1.25-1.35,1.25,1.25,0,0,1,.19-.61,32.2,32.2,0,0,1,7-7.85,1.27,1.27,0,1,1,1.8,1.79,1.56,1.56,0,0,1-.2.16,30.55,30.55,0,0,0-6.45,7.25,1.35,1.35,0,0,1-1.1.56Zm369.81-11.26a1.26,1.26,0,0,1-.77-.26,1.29,1.29,0,0,1-.25-1.78c1.93-2.54,3.86-5.36,5.72-8.31a1.28,1.28,0,0,1,2.19,1.33l0,0c-1.91,3-3.87,5.85-5.85,8.47a1.2,1.2,0,0,1-1,.46ZM596.3,812.39a1.2,1.2,0,0,1-1.11-.69,1.24,1.24,0,0,1,.5-1.69h0a69.39,69.39,0,0,1,9.51-4.07,1.26,1.26,0,1,1,.85,2.38h0a66.29,66.29,0,0,0-9.17,3.94,1.47,1.47,0,0,1-.59.07Zm89.8-4.78h-.3c-3.25-.79-6.58-1.48-9.89-2.09a1.29,1.29,0,1,1,.46-2.54c3.35.61,6.71,1.32,10,2.11a1.27,1.27,0,0,1,.94,1.53,1.31,1.31,0,0,1-1.25.94Zm-70.66-2a1.28,1.28,0,0,1-.28-2.54c3.26-.74,6.66-1.35,10.17-1.83a1.28,1.28,0,1,1,.33,2.54c-3.4.46-6.73,1-9.91,1.78Zm50.66-1.68h-.18c-3.35-.43-6.73-.76-10.16-1a1.26,1.26,0,0,1-1.17-1.35,1.31,1.31,0,0,1,1.34-1.19c3.38.23,6.82.58,10.17,1A1.28,1.28,0,0,1,666,804Zm-30.5-1.12a1.27,1.27,0,0,1-1.27-1.19,1.32,1.32,0,0,1,1.19-1.35c3-.18,6-.25,9.1-.25h1.17a1.27,1.27,0,0,1,0,2.54h-1.17c-3,0-6,0-8.94.25Zm326.21-5.69a1.27,1.27,0,0,1-1.12-1.88c1.58-2.87,3.13-5.92,4.63-9a1.27,1.27,0,0,1,2.29,1.1h0c-1.5,3.13-3.08,6.21-4.68,9.13a1.33,1.33,0,0,1-1.12.61Zm8.79-18.38a1,1,0,0,1-.48,0,1.24,1.24,0,0,1-.7-1.61l0,0c1.29-3.1,2.54-6.28,3.66-9.43a1.27,1.27,0,0,1,2.4.82v0c-1.15,3.18-2.39,6.41-3.72,9.54a1.21,1.21,0,0,1-1.17.63Zm6.92-19.16a1.21,1.21,0,0,1-.38,0,1.27,1.27,0,0,1-.84-1.58c1-3.25,1.9-6.53,2.72-9.76a1.27,1.27,0,0,1,1.54-.92h0a1.24,1.24,0,0,1,.92,1.5v0c-.81,3.28-1.75,6.61-2.74,9.89a1.27,1.27,0,0,1-1.3.79Zm5.08-19.75h-.25a1.28,1.28,0,0,1-1-1.48c.66-3.35,1.22-6.71,1.68-10a1.27,1.27,0,0,1,1.42-1.09,1.29,1.29,0,0,1,1.09,1.45c-.45,3.3-1,6.71-1.67,10.17a1.28,1.28,0,0,1-1.32.89Zm2.72-20.16h0a1.27,1.27,0,0,1-1.17-1.36h0c.23-3.31.36-6.58.36-9.76v-.33a1.28,1.28,0,0,1,1.27-1.27,1.27,1.27,0,0,1,1.27,1.27v.3c0,3.26-.13,6.61-.38,10a1.26,1.26,0,0,1-1.33,1.16l-.12,0Zm0-20.33a1.25,1.25,0,0,1-1.27-1.15,92.72,92.72,0,0,0-1.35-10,1.3,1.3,0,0,1,1-1.5,1.26,1.26,0,0,1,1.47,1,96.54,96.54,0,0,1,1.4,10.16,1.28,1.28,0,0,1-1.16,1.38h0Zm-3.81-20a1.28,1.28,0,0,1-1.22-.91,77.36,77.36,0,0,0-3.58-9.33,1.27,1.27,0,1,1,2.16-1.34,1.59,1.59,0,0,1,.12.27,74.45,74.45,0,0,1,3.74,9.66,1.28,1.28,0,0,1-.84,1.58,1,1,0,0,1-.58,0ZM972.87,661a1.3,1.3,0,0,1-1.07-.56,59.51,59.51,0,0,0-6.2-7.77,1.28,1.28,0,0,1,0-1.8h0a1.25,1.25,0,0,1,1.76,0l0,0a61.77,61.77,0,0,1,6.48,8.11,1.25,1.25,0,0,1-.3,1.73l0,0a1.33,1.33,0,0,1-.87.21Zm-361.62-8h-4.91a1.27,1.27,0,0,1-1.24-1.3h0a1.25,1.25,0,0,1,1.24-1.25h10.2a1.28,1.28,0,0,1,.05,2.55h-5.34Zm15.58-.18a1.27,1.27,0,0,1-1.27-1.25,1.31,1.31,0,0,1,1.24-1.29c3.39,0,6.77-.16,10.17-.28a1.31,1.31,0,0,1,1.32,1.24,1.27,1.27,0,0,1-1.22,1.3c-3.43,0-6.83.23-10.16.28Zm-30.5,0h0c-3.46,0-6.84-.21-10.17-.33a1.27,1.27,0,0,1-1.19-1.35h0a1.24,1.24,0,0,1,1.29-1.2h0c3.33.12,6.73.25,10.17.33a1.26,1.26,0,0,1,1.24,1.29v0a1.26,1.26,0,0,1-1.37,1.16l-.15,0Zm50.83-.66a1.28,1.28,0,0,1-1.24-1.22,1.24,1.24,0,0,1,1-1.46l.1,0,10.17-.51a1.25,1.25,0,0,1,1.34,1.14s0,0,0,.06a1.3,1.3,0,0,1-1.2,1.35l-10.17.5ZM576,651.9h0c-3.45-.23-6.83-.49-10.16-.79a1.28,1.28,0,0,1-1.15-1.39h0a1.33,1.33,0,0,1,1.38-1.14c3.33.3,6.71.58,10.16.81a1.26,1.26,0,0,1,1.18,1.32v0a1.3,1.3,0,0,1-1.46,1.11l-.09,0Zm91.36-.94a1.29,1.29,0,0,1-1.27-1.2,1.25,1.25,0,0,1,1.19-1.34h0l10.17-.69a1.24,1.24,0,0,1,1.34,1.14v0a1.26,1.26,0,0,1-1.17,1.35l-10.16.69Zm-111.84-1h-.15c-3.44-.41-6.84-.89-10.17-1.4a1.28,1.28,0,1,1,.38-2.54c3.28.51,6.63,1,10.17,1.4a1.27,1.27,0,0,1,1.12,1.4v0a1.31,1.31,0,0,1-1.35,1.12Zm132.17-.41a1.27,1.27,0,0,1,0-2.54l10.17-.81a1.27,1.27,0,0,1,1.37,1.14,1.24,1.24,0,0,1-1.11,1.37h0l-10.17.81Zm20.33-1.7a1.28,1.28,0,0,1-1.27-1.17,1.3,1.3,0,0,1,1.15-1.37l10.16-.92a1.25,1.25,0,0,1,1.37,1.11v0a1.25,1.25,0,0,1-1.11,1.37h0l-10.16.94Zm-172.68-.94h-.16c-3.4-.69-6.76-1.45-10-2.24a1.29,1.29,0,0,1-.94-1.55,1.27,1.27,0,0,1,1.55-.91h0c3.18.79,6.51,1.52,9.89,2.21a1.25,1.25,0,0,1,1,1.45v0A1.29,1.29,0,0,1,535.33,646.89Zm423.4-.51a1.21,1.21,0,0,1-.76-.28,64.36,64.36,0,0,0-8.41-5.31,1.26,1.26,0,0,1-.54-1.71v0a1.29,1.29,0,0,1,1.72-.53,68.09,68.09,0,0,1,8.75,5.56,1.27,1.27,0,0,1-.77,2.29Zm-230.38-.46a1.26,1.26,0,0,1-1.27-1.14,1.33,1.33,0,0,1,1.14-1.4c3.41-.3,6.79-.66,10.17-1a1.28,1.28,0,1,1,.25,2.54l-10.16,1Zm20.33-2a1.23,1.23,0,0,1-1.24-1.14,1.26,1.26,0,0,1,1.12-1.4l10.16-1a1.22,1.22,0,0,1,1.39,1s0,.06,0,.1a1.27,1.27,0,0,1-1.13,1.39h0l-10.17,1.07Zm-233.1-2.08a1.21,1.21,0,0,1-.38,0c-3.38-1.07-6.66-2.21-9.69-3.41a1.27,1.27,0,0,1,.92-2.36c3,1.17,6.2,2.31,9.53,3.35a1.29,1.29,0,0,1,1.08,1.46,1.28,1.28,0,0,1-1.46,1.08Zm253.23,0a1.27,1.27,0,0,1,0-2.54l10.17-1.1a1.29,1.29,0,0,1,1.41,1.13,1.27,1.27,0,0,1-1.13,1.41l-10.17,1.1Zm20.49-2.19-.23-1.27v-1.27l10-1.07a1.28,1.28,0,0,1,.28,2.54Zm-.23-1.27Zm20.34-.86a1.25,1.25,0,0,1-1.25-1.15,1.28,1.28,0,0,1,1.12-1.4l10.17-1a1.28,1.28,0,0,1,.25,2.54l-10.17,1Zm131.43-.77h-.43a84.69,84.69,0,0,0-9.61-2.84,1.28,1.28,0,0,1-.94-1.53,1.24,1.24,0,0,1,1.48-1h0a84.8,84.8,0,0,1,9.88,2.92,1.29,1.29,0,1,1-.43,2.55ZM829.61,635.4a1.27,1.27,0,0,1-.12-2.54l10.16-1a1.33,1.33,0,0,1,1.38,1.17,1.31,1.31,0,0,1-1.15,1.38l-10.17,1Zm-333-1.09a1.06,1.06,0,0,1-.56,0,95.27,95.27,0,0,1-9-5.08,1.3,1.3,0,0,1-.38-1.78,1.25,1.25,0,0,1,1.72-.38l0,0A94.68,94.68,0,0,0,497.2,632a1.27,1.27,0,0,1-.56,2.42ZM850,633.55a1.28,1.28,0,0,1,0-2.55l10.16-.81a1.27,1.27,0,1,1,.21,2.54c-3.33.26-6.71.51-10.17.82ZM921.12,632h-.18c-3.2-.43-6.58-.74-10-.91a1.28,1.28,0,0,1-1.22-1.32h0a1.23,1.23,0,0,1,1.24-1.2h.11c3.51.15,6.94.46,10.17.89a1.27,1.27,0,0,1-.13,2.52Zm-50.84,0a1.27,1.27,0,0,1,0-2.54c3.48-.23,6.89-.41,10.17-.56a1.22,1.22,0,0,1,1.32,1.11v.08a1.26,1.26,0,0,1-1.17,1.33h0c-3.31.17-6.69.35-10.17.58Zm20.34-1a1.28,1.28,0,0,1-.06-2.55h10.2a1.27,1.27,0,0,1,1.27,1.27,1.31,1.31,0,0,1-1.27,1.28H890.62Zm-411-7.86a1.37,1.37,0,0,1-.84-.3,64.82,64.82,0,0,1-7.19-7.35,1.24,1.24,0,0,1,0-1.7,1.29,1.29,0,0,1,1.8.15,63.06,63.06,0,0,0,7,7,1.3,1.3,0,0,1,.15,1.81A1.34,1.34,0,0,1,479.66,623.2Zm-13.11-15.5a1.3,1.3,0,0,1-1.1-.64,46.28,46.28,0,0,1-2.54-5.08c-.74-1.76-1.24-2.85-1.83-4.3a1.29,1.29,0,0,1,.69-1.65,1.33,1.33,0,0,1,1.68.69c.55,1.42,1.16,2.82,1.77,4.22a40.7,40.7,0,0,0,2.55,4.82,1.25,1.25,0,0,1-.43,1.71l0,0A1.16,1.16,0,0,1,466.55,607.7Zm-7.63-18.76a1.25,1.25,0,0,1-1.19-.87c-1.05-3.2-2-6.53-2.88-9.86a1.31,1.31,0,1,1,2.55-.63c.83,3.3,1.77,6.55,2.82,9.71a1.3,1.3,0,0,1-.82,1.6Zm-5.08-19.73a1.25,1.25,0,0,1-1.25-1c-.63-3.31-1.17-6.71-1.62-10.17a1.28,1.28,0,1,1,2.54-.33c.43,3.38,1,6.74,1.57,10a1.29,1.29,0,0,1-1,1.5ZM451.3,549a1.28,1.28,0,0,1-1.28-1.17c-.25-3.35-.4-6.81-.48-10.16a1.27,1.27,0,0,1,1.25-1.3h0a1.4,1.4,0,0,1,1.29,1.25c0,3.38.23,6.78.49,10.16a1.28,1.28,0,0,1-1.17,1.37h0Zm-.46-20.33h0a1.24,1.24,0,0,1-1.22-1.27v0c0-3.38.25-6.81.51-10.17a1.27,1.27,0,1,1,2.54.18c-.26,3.38-.43,6.79-.51,10.17a1.26,1.26,0,0,1-1.42,1.1h-.05Zm1.47-20.34h-.15A1.26,1.26,0,0,1,451,507v0c.41-3.33.87-6.74,1.42-10.17a1.29,1.29,0,0,1,2.55.38h0c-.54,3.36-1,6.74-1.4,10.17a1.25,1.25,0,0,1-1.42,1.05h.12Zm3.23-20.1h-.25a1.25,1.25,0,0,1-1-1.45v-.05c.69-3.33,1.43-6.69,2.24-10a1.32,1.32,0,0,1,1.58-1,1.31,1.31,0,0,1,1,1.58c-.81,3.28-1.57,6.61-2.23,9.89a1.27,1.27,0,0,1-1.45,1Zm4.88-19.78a.73.73,0,0,1-.36,0,1.24,1.24,0,0,1-.87-1.52v0c.94-3.28,2-6.59,3.05-9.76a1.35,1.35,0,0,1,1.68-.87,1.33,1.33,0,0,1,.86,1.68c-1.07,3.15-2.08,6.41-3,9.66a1.24,1.24,0,0,1-1.5.86Zm6.48-19.29a.9.9,0,0,1-.46,0,1.27,1.27,0,0,1-.73-1.63c1.22-3.22,2.54-6.4,3.86-9.48a1.25,1.25,0,0,1,1.62-.68l.06,0a1.27,1.27,0,0,1,.66,1.67h0c-1.32,3-2.54,6.2-3.84,9.35a1.24,1.24,0,0,1-1.32.74ZM475,430.51a1.58,1.58,0,0,1-.56-.13,1.29,1.29,0,0,1-.58-1.7c1.52-3.13,3.12-6.18,4.75-9.1a1.29,1.29,0,0,1,1.73-.48,1.28,1.28,0,0,1,.51,1.72h0c-1.61,2.87-3.21,5.89-4.71,9a1.29,1.29,0,0,1-1.29.71ZM485,412.72a1.43,1.43,0,0,1-.69-.21,1.26,1.26,0,0,1-.38-1.75c1.88-3,3.84-5.82,5.8-8.49a1.27,1.27,0,0,1,1.78-.25,1.3,1.3,0,0,1,.28,1.78c-1.94,2.54-3.87,5.41-5.72,8.31a1.27,1.27,0,0,1-1.22.63Zm12.1-16.32a1.13,1.13,0,0,1-.84-.33,1.25,1.25,0,0,1,0-1.76l0,0c2.21-2.54,4.55-5.08,7-7.63a1.27,1.27,0,0,1,1.79,1.8h0c-2.36,2.54-4.67,4.93-6.86,7.45A1.3,1.3,0,0,1,497.05,396.4Zm14.18-14.62a1.23,1.23,0,0,1-.94-.4,1.28,1.28,0,0,1,0-1.8h0c2.54-2.29,5.08-4.57,7.63-6.78a1.23,1.23,0,0,1,1.75.1l0,0a1.3,1.3,0,0,1-.15,1.81c-2.54,2.18-5.08,4.45-7.62,6.73a1.25,1.25,0,0,1-.79.33ZM861.46,371a1.46,1.46,0,0,1-.76-.25c-2.54-2-5.39-3.92-8.29-5.82a1.27,1.27,0,0,1-.35-1.76,1.29,1.29,0,0,1,1.78-.35c2.89,1.93,5.71,3.91,8.38,5.87a1.27,1.27,0,0,1,.26,1.78h0a1.22,1.22,0,0,1-1.12.53Zm-334.72-2.39a1.27,1.27,0,0,1-.77-2.26c2.54-2.08,5.44-4.12,8.24-6.1a1.3,1.3,0,0,1,1.78.3,1.32,1.32,0,0,1-.31,1.78c-2.77,2-5.51,4-8.16,6a1.28,1.28,0,0,1-.89.25Zm317.72-8.87a1.19,1.19,0,0,1-.64-.18c-2.85-1.67-5.82-3.35-8.82-5.08a1.27,1.27,0,0,1-.54-1.71v0a1.29,1.29,0,0,1,1.73-.53c3,1.65,6,3.33,8.92,5.08a1.27,1.27,0,0,1,.44,1.74h0a1.28,1.28,0,0,1-1.17.64Zm-301.18-2.87a1.27,1.27,0,0,1-.68-2.34c2.87-1.83,5.82-3.63,8.74-5.34a1.27,1.27,0,0,1,1.27,2.19c-2.9,1.7-5.79,3.48-8.64,5.29A1.12,1.12,0,0,1,543.28,356.85Zm283.16-6.76a1.23,1.23,0,0,1-.54,0c-3-1.45-6.1-2.87-9.2-4.25a1.27,1.27,0,0,1-.66-1.67h0a1.27,1.27,0,0,1,1.67-.67h0c3.12,1.38,6.25,2.83,9.27,4.3a1.23,1.23,0,0,1,.49,1.69h0A1.21,1.21,0,0,1,826.44,350.09Zm-265.57-3.48a1.29,1.29,0,0,1-1.12-.69,1.25,1.25,0,0,1,.51-1.69h0c3-1.58,6.07-3.13,9.15-4.58a1.27,1.27,0,0,1,1.7.58h0a1.3,1.3,0,0,1-.61,1.7c-3,1.45-6.1,3-9.07,4.52A1.21,1.21,0,0,1,560.87,346.61Zm246.93-4.73a1.69,1.69,0,0,1-.45,0c-3.13-1.25-6.31-2.54-9.48-3.59a1.27,1.27,0,1,1,.63-2.46l.2.07c3.21,1.15,6.44,2.37,9.59,3.61a1.3,1.3,0,1,1-.49,2.55Zm-228.53-4a1.27,1.27,0,0,1-1.17-.79,1.3,1.3,0,0,1,.67-1.67c3.15-1.33,6.35-2.55,9.5-3.79a1.28,1.28,0,0,1,.89,2.39h0c-3.13,1.17-6.28,2.54-9.4,3.76a1.69,1.69,0,0,1-.49.13ZM788.64,335h-.38q-4.72-1.53-9.71-2.95a1.32,1.32,0,1,1,.71-2.54c3.36,1,6.61,2,9.79,3a1.27,1.27,0,0,1,1.06,1.47,1.29,1.29,0,0,1-1.47,1.07Zm-190.3-4.3a1.26,1.26,0,0,1-1.22-.86,1.32,1.32,0,0,1,.81-1.63c3.25-1.06,6.53-2.06,9.79-3a1.32,1.32,0,0,1,.68,2.55c-3.2.91-6.45,1.9-9.68,2.94a.83.83,0,0,1-.38,0ZM769,329.35a.91.91,0,0,1-.33,0c-3.21-.82-6.49-1.6-9.87-2.37a1.3,1.3,0,0,1,.56-2.54c3.41.76,6.71,1.58,9.94,2.54a1.25,1.25,0,0,1,.92,1.5v0A1.28,1.28,0,0,1,769,329.35Zm-151.19-4.22a1.26,1.26,0,0,1-.3-2.49c3.3-.82,6.68-1.55,10-2.21A1.29,1.29,0,1,1,628,323h0c-3.3.66-6.63,1.4-9.88,2.18Zm131.31-.28h-.23c-3.28-.66-6.58-1.27-10-1.86a1.26,1.26,0,0,1-1-1.46h0a1.25,1.25,0,0,1,1.43-1h0c3.41.59,6.77,1.2,10,1.86a1.21,1.21,0,0,1,1,1.4s0,.05,0,.07a1.26,1.26,0,0,1-1.17,1Zm-20-3.46h-.18c-3.31-.48-6.66-.91-10.17-1.35a1.28,1.28,0,1,1,.31-2.54c3.43.41,6.81.87,10.16,1.35a1.27,1.27,0,0,1-.18,2.54Zm-91.3-.25a1.27,1.27,0,1,1-.21-2.54c3.33-.54,6.74-1,10.17-1.43a1.28,1.28,0,0,1,1.42,1.12,1.27,1.27,0,0,1-1.12,1.42c-3.38.41-6.76.89-10.16,1.43ZM709,319h0c-3.4-.3-6.81-.56-10.16-.74a1.27,1.27,0,0,1-1.2-1.34h0a1.25,1.25,0,0,1,1.3-1.2h0c3.36.21,6.79.46,10.17.77a1.27,1.27,0,1,1,0,2.54Zm-50.83-.3a1.27,1.27,0,0,1,0-2.54c3.43-.28,6.86-.49,10.17-.67a1.26,1.26,0,0,1,1.32,1.17v0a1.24,1.24,0,0,1-1.17,1.32h0c-3.35.15-6.73.38-10.16.66Zm30.5-.87H678.45a1.27,1.27,0,1,1,0-2.54h10.17a1.25,1.25,0,0,1,1.25,1.25v0a1.27,1.27,0,0,1-1.27,1.24Z"/><path class="cls-2" d="M701.28,811.85h-.38l-4.83-1.5a1.32,1.32,0,1,1,.71-2.54l4.91,1.53a1.27,1.27,0,0,1,1.06,1.47,1.29,1.29,0,0,1-1.47,1.07Z"/><path class="cls-4" d="M556.86,410.94a38.9,38.9,0,0,0-34.78-69.6h0l17.39,34.8-34.8,17.39A38.9,38.9,0,0,0,556.84,411Z"/><path class="cls-5" d="M539.49,416.33a40.31,40.31,0,0,1-36-22.22,1.27,1.27,0,0,1,.56-1.7l33.63-16.83-16.78-33.7a1.26,1.26,0,0,1,0-1,1.23,1.23,0,0,1,.64-.74,40.19,40.19,0,1,1,18,76.26Zm-33-22.24a37.67,37.67,0,0,0,49.92,15.7h0a37.66,37.66,0,1,0-32.58-67.91l16.8,33.65a1.24,1.24,0,0,1-.52,1.68l0,0Z"/><path class="cls-4" d="M492.24,389.26,527,371.87l-17.28-34.8a38.9,38.9,0,0,0-17.55,52.13Z"/><path class="cls-5" d="M492.24,390.53a1.29,1.29,0,0,1-1.14-.69,40.21,40.21,0,0,1,18-53.91,1.29,1.29,0,0,1,1.7.58l17.38,34.8a1.26,1.26,0,0,1,0,1,1.28,1.28,0,0,1-.66.73L492.73,390.4A1.19,1.19,0,0,1,492.24,390.53ZM509.1,338.8a37.67,37.67,0,0,0-16.27,48.83l32.51-16.24Z"/><path class="cls-4" d="M885.94,457.12s6.78-24.32,7.39-27.75-1.24-17.14,2.55-19.22S902,420.47,902,429.37c0,0,15.4-33.61,19.72-28.68s4.93,15.41,3.08,20.95-26.18,53-26.18,53Z"/><path class="cls-5" d="M898.65,475.91a1.26,1.26,0,0,1-1-.51l-12.94-17.52a1.31,1.31,0,0,1-.2-1.09c0-.25,6.76-24.3,7.37-27.63a35.89,35.89,0,0,0,0-5.08c0-7.63,0-13.42,3-15.1a2.79,2.79,0,0,1,2.87,0c2.95,1.73,4.4,9.2,4.93,15.25,4.2-8.64,12.53-24.58,17.26-25.42a2.58,2.58,0,0,1,2.42.92c4.8,5.49,5.08,16.62,3.33,22.19s-25,51.24-26,53.17a1.21,1.21,0,0,1-1,.69Zm-11.54-19,11.33,15.25c4.45-8.77,23.29-46.21,24.89-51,1.83-5.52,1-15.25-2.85-19.7-2.21-.43-10.45,12.71-17.59,28.37a1.24,1.24,0,0,1-1.42.71,1.28,1.28,0,0,1-1-1.25c0-8-1.93-16.95-3.91-18.12a.3.3,0,0,0-.36,0c-1.93,1.09-1.78,8.72-1.7,12.71a33.55,33.55,0,0,1,0,5.49c-.59,3.46-6.2,23.69-7.27,27.53Z"/><path class="cls-5" d="M849.46,786.33s-15.83,36.15-10.9,38.61,55.11,18.89,54.67,15.61-27.8-22.39-27.8-22.39L878,786.33Z"/><path class="cls-5" d="M892.24,842.15c-9.63,0-53.81-15.86-54.24-16.06-2.24-1.15-3.89-7.86,10.29-40.27a1.25,1.25,0,0,1,1.17-.76H878a1.24,1.24,0,0,1,1,.56,1.15,1.15,0,0,1,.13,1.17L867,817.7c8.74,6.12,27.07,19.32,27.52,22.67a1.5,1.5,0,0,1-.66,1.47A3,3,0,0,1,892.24,842.15ZM850.35,787.6c-7.83,18-12.91,34.52-11.13,36.22,5.24,2.55,43.72,14.92,52.06,15.86-3.18-3.43-15.25-12.55-26.54-20.48a1.21,1.21,0,0,1-.43-1.5l11.87-30.1Z"/><path class="cls-5" d="M768.74,858c.61,1.86.61,32,0,39.42s25.26,49.39,33.32,41.31S795.88,895,795.88,895l2.55-40.67Z"/><path class="cls-5" d="M799.52,941a7.8,7.8,0,0,1-3.15-.76c-11-5.09-29.51-36-29-42.91.63-7.62.55-37,0-38.94a1.44,1.44,0,0,1,.17-1.07,1.32,1.32,0,0,1,.89-.58l29.72-3.69a1.22,1.22,0,0,1,1,.33,1.27,1.27,0,0,1,.41,1l-2.54,40.36c1.9,4.83,14,36.68,5.79,44.87A4.53,4.53,0,0,1,799.52,941Zm-29.44-81.9c.51,6.74.39,32.26-.12,38.46-.46,5.36,17.1,35.58,27.47,40.36,2.16,1,3.1.44,3.64,0,6.07-6.07-2.54-32.66-6.48-42.37a1.06,1.06,0,0,1,0-.56l2.54-39.14Z"/><path class="cls-6" d="M732.85,483.94c-23.21-6.61-64.08,6.58-89,29.61-19.78,18.38,17.79,105.53,36.55,150L793.6,629.73S756,490.57,732.85,483.94Z"/><path class="cls-5" d="M793.65,629.71s115.16,35,117.4,60-31.29,113.9-31.29,113.9l-38.94-6.71s33.4-93.21,17.59-100.25-79.89-19.22-79.89-19.22,6.61,53.05,18.28,88.84S804,865.92,804,865.92l-40.67,6.68s-1.52-82.2-18.65-119.74-64.23-89.45-64.23-89.45Z"/><path class="cls-5" d="M763.37,874a1.33,1.33,0,0,1-.81-.28,1.25,1.25,0,0,1-.46-1c0-.81-1.7-82.38-18.55-119.23s-63.55-88.61-64-89.14a1.18,1.18,0,0,1-.28-1.2,1.23,1.23,0,0,1,.84-.86l113.18-33.78a1.08,1.08,0,0,1,.71,0c4.76,1.42,115.91,35.58,118.32,61,2.37,25.06-30,110.85-31.39,114.38a1.25,1.25,0,0,1-1.4.79l-38.94-6.76a1.29,1.29,0,0,1-.89-.61,1.33,1.33,0,0,1,0-1.07c24.12-67.41,24.12-96,18.28-98.49-14.06-6.26-67.59-16.7-77.88-18.66,1.24,9.43,7.62,55.21,18,86.88,11.62,35.58,7.35,99.53,7.32,100.17a1.3,1.3,0,0,1-1.07,1.17L763.65,874ZM682.75,664.12c7.83,8.82,47.71,54.58,63.11,88.28,15.81,34.59,18.43,107.52,18.73,118.8l38.13-6.28c.51-8.28,3.43-65.5-7.24-98.21-11.57-35.59-18.25-88.56-18.33-89a1.27,1.27,0,0,1,.41-1.1,1.24,1.24,0,0,1,1.09-.3c2.54.48,64.41,12.12,80.17,19.16,7.32,3.26,6.61,21-2.16,54.27-5.42,20.56-12.36,40.67-14.24,46.16l36.4,6.33c3.66-9.79,33-89.29,30.86-112.37-.64-6.79-11.36-18.94-58.79-38.31-26.92-11-53.91-19.39-57.35-20.33Z"/><path class="cls-4" d="M641.7,428.45a6.33,6.33,0,0,1,4.3.71c-2.8-6.15,2.89-10.9,6.58-14.82a20.76,20.76,0,0,1,16.11-6.76,43.11,43.11,0,0,1,20.13,7.09c5.09,2.93,10.53,6.36,16.09,4.83A27.34,27.34,0,0,1,710,418c1.75-.15,3.84.91,3.86,2.69a4,4,0,0,1-1.12,2.54,17.53,17.53,0,0,1-6.63,5.09c1.27,2.06,4.17,2.11,6.58,1.93l7.63-.56c1.42,0,3.22,0,3.76,1.32a3.21,3.21,0,0,1-.23,2.26A26.77,26.77,0,0,1,713.91,446a16.05,16.05,0,0,0,11-1.47c.84,10.93-7.25,21-17.08,25.93a69.35,69.35,0,0,1-31.57,6.17c-8.09-.2-18.35,1.76-25.42-3.68A46.52,46.52,0,0,1,634,445.48,18.19,18.19,0,0,1,635.09,433,9.4,9.4,0,0,1,641.7,428.45Z"/><path class="cls-5" d="M665.92,478c-5.56,0-11.26-.61-15.76-4.12a47.9,47.9,0,0,1-17.33-28.21,19,19,0,0,1,1.24-13.32,10.72,10.72,0,0,1,7.43-5.08h0a8.32,8.32,0,0,1,2.54,0c-.79-5.09,3.28-9.26,6.33-12.41l1.24-1.27a22,22,0,0,1,17.06-7.17,45,45,0,0,1,20.74,7.27l.38.21c4.6,2.74,9.84,5.82,14.72,4.5.61-.18,1.17-.39,1.75-.61a12,12,0,0,1,3.53-1,5.43,5.43,0,0,1,4,1.3A3.58,3.58,0,0,1,715,420.7a5.19,5.19,0,0,1-1.4,3.38,19.37,19.37,0,0,1-5.36,4.47,9.15,9.15,0,0,0,4.22.36l7.62-.56c2.55-.2,4.38.51,5.09,2.13a4.37,4.37,0,0,1-.23,3.16A28,28,0,0,1,717,445.1a15.11,15.11,0,0,0,7.22-1.7,1.26,1.26,0,0,1,1.71.53,1.2,1.2,0,0,1,.14.48c.94,12.15-8.23,22.4-17.79,27.17a70.54,70.54,0,0,1-32.15,6.36h-5.6C668.64,477.94,667.52,478,665.92,478Zm-24-48.29a8.12,8.12,0,0,0-5.61,3.94,16.63,16.63,0,0,0-1,11.59A45.36,45.36,0,0,0,651.71,472c5.09,3.94,12.08,3.71,18.84,3.48h5.77a67.13,67.13,0,0,0,30.93-6.1c8.26-4.15,16.27-12.71,16.42-22.88a17.49,17.49,0,0,1-10.17.79,1.32,1.32,0,0,1-1-1,1.37,1.37,0,0,1,.53-1.29,25.78,25.78,0,0,0,9.51-12.15,2.74,2.74,0,0,0,.23-1.35c-.18-.43-1.12-.64-2.54-.53l-7.63.56c-2.74.2-6.13,0-7.62-2.55a1.31,1.31,0,0,1-.13-1,1.38,1.38,0,0,1,.71-.79,15.94,15.94,0,0,0,6.15-4.62,2.85,2.85,0,0,0,.84-1.68,1.07,1.07,0,0,0-.41-.81,3.05,3.05,0,0,0-2.08-.64,11.06,11.06,0,0,0-2.82.79c-.65.26-1.31.49-2,.69-5.94,1.62-11.66-1.76-16.69-4.76l-.39-.2A42.22,42.22,0,0,0,668.69,409a19.44,19.44,0,0,0-15.12,6.35l-1.27,1.32c-3.56,3.64-7.22,7.4-5.08,12.1a1.29,1.29,0,0,1-.31,1.47,1.22,1.22,0,0,1-1.47.16,5.36,5.36,0,0,0-3.49-.56Z"/><path class="cls-4" d="M700.39,486.76l8.82,20.1s-3.74,14.8-18.43,14.37-19.32-10.6-19.34-10.63l-6.13-22.34-3.78-13.73a14.72,14.72,0,0,1-1.17-4.22c.35-3.33,4.06-5.72,4.67-9.2a27.73,27.73,0,0,0-4.19-20c6.76,3.82,14.39,7.63,21.93,5.82a36.69,36.69,0,0,1-5.08-4.57l15.84,2.9a37.44,37.44,0,0,0,6.17.45c2.34,0,1.2-1.22,3.31,1.22,5.28,6.1,7.75,17.39,8.18,25.22C711.73,483.35,700.39,486.76,700.39,486.76Z"/><path class="cls-5" d="M691.29,522.55h-.66c-15.73-.46-20.49-11.44-20.51-11.54l-9.92-36.1a10.82,10.82,0,0,0-.38-1.09,8.53,8.53,0,0,1-.84-3.61,11.21,11.21,0,0,1,2.55-5.23,10.38,10.38,0,0,0,2.16-4.05,26.46,26.46,0,0,0-4-19.11,1.22,1.22,0,0,1,0-1.55,1.26,1.26,0,0,1,1.55-.25c5.57,3.17,11.92,6.38,18.25,6.07a30.19,30.19,0,0,1-2.92-2.85,1.21,1.21,0,0,1-.18-1.47,1.27,1.27,0,0,1,1.32-.64L693.6,444a37.56,37.56,0,0,0,5.8.43,2.61,2.61,0,0,0,1.17-.15c1.29-.46,1.78,0,3.1,1.63,5.72,6.61,8.21,18.17,8.64,26.15.51,9.64-7.24,14-10.45,15.41l8.31,18.91a1.5,1.5,0,0,1,0,.84C710.3,507.4,706.29,522.55,691.29,522.55ZM672.56,510.3S677,519.62,690.7,520h.59c11.87,0,15.78-10.71,16.47-13l-8.64-19.7a1.26,1.26,0,0,1,0-1,1.32,1.32,0,0,1,.79-.69c.43-.13,10.49-3.33,10-13.37-.43-8.16-3-18.89-7.88-24.43-.41-.48-.64-.78-.81-1a8.1,8.1,0,0,1-1.55.18,38.92,38.92,0,0,1-6.38-.49l-11.75-2.13,1.94,1.55a1.22,1.22,0,0,1,.48,1.27,1.3,1.3,0,0,1-.94,1c-6.61,1.53-13.12-.84-19-3.86a29,29,0,0,1,2.19,17.05,12.85,12.85,0,0,1-2.54,5.09,8.9,8.9,0,0,0-2.06,4,7.94,7.94,0,0,0,.66,2.54,10.68,10.68,0,0,1,.45,1.35l9.92,36Z"/><path class="cls-5" d="M704.91,497.38a15.39,15.39,0,0,1-14.33-1.22c-7.42-4.62-8-9.71-8-9.71a23.85,23.85,0,0,0,17.79.36Z"/><path class="cls-5" d="M698.89,499.87a16.73,16.73,0,0,1-9-2.54c-7.86-4.9-8.57-10.42-8.59-10.67a1.27,1.27,0,0,1,1.14-1.39,1.26,1.26,0,0,1,.66.12,22.74,22.74,0,0,0,16.65.33,1.26,1.26,0,0,1,1.65.66L706.08,497a1.25,1.25,0,0,1-.61,1.65A16.14,16.14,0,0,1,698.89,499.87Zm-14.18-11.31a17.79,17.79,0,0,0,6.55,6.54,14.19,14.19,0,0,0,12,1.57l-3.64-8.23A24.57,24.57,0,0,1,684.71,488.56Z"/><path class="cls-4" d="M689.71,456s10,9.05,8.72,11.39-6.4,2.26-6.4,2.26"/><path class="cls-5" d="M692.08,470.92h0a1.24,1.24,0,0,1-1.25-1.24v0a1.27,1.27,0,0,1,1.27-1.27h0c1.78,0,4.63-.51,5.24-1.6,0-1.07-3.92-5.69-8.47-9.84a1.26,1.26,0,0,1,0-1.79,1.28,1.28,0,0,1,1.69-.09c4.9,4.45,10.42,10.17,9,12.92S692.94,470.92,692.08,470.92Z"/><ellipse class="cls-5" cx="682.59" cy="457.15" rx="1.86" ry="2.62" transform="translate(-63.59 113.45) rotate(-9.08)"/><ellipse class="cls-5" cx="701.59" cy="453.32" rx="1.86" ry="2.62" transform="translate(-128.08 356.48) rotate(-26.21)"/><path class="cls-5" d="M692.1,479.51a17.78,17.78,0,0,1-8.21-2.21,1.27,1.27,0,0,1-.56-1.7A1.25,1.25,0,0,1,685,475l0,0c11.49,5.92,17.1-3.68,17.33-4.09a1.27,1.27,0,0,1,2.21,1.24A15.37,15.37,0,0,1,692.1,479.51Z"/><path class="cls-4" d="M666.05,467.54a9.14,9.14,0,0,0-6.84-1.42,6.26,6.26,0,0,0-4.8,4.75,7.89,7.89,0,0,0,3.25,7,14.76,14.76,0,0,0,11.52,3.23"/><path class="cls-5" d="M667,482.54a16.05,16.05,0,0,1-10.17-3.66,9,9,0,0,1-3.66-8.24,7.63,7.63,0,0,1,5.77-5.77,10.31,10.31,0,0,1,7.8,1.61,1.27,1.27,0,1,1-1.4,2.13,7.61,7.61,0,0,0-5.84-1.24,4.89,4.89,0,0,0-3.84,3.71,6.78,6.78,0,0,0,2.82,5.84,13.34,13.34,0,0,0,10.5,2.93,1.27,1.27,0,1,1,.4,2.51A14.59,14.59,0,0,1,667,482.54Z"/><path class="cls-5" d="M699.09,519.55,695,528.14l5.69,1.65s30.76,84.87,96.59,69.37l17.11-22.3-23.16-9s-11.33,9.55-33,4C732.62,565.35,704.81,529,704.81,529l1.2-7.19Z"/><path class="cls-5" d="M781.73,602.31c-52.62,0-79.18-64.46-81.9-71.48l-5.08-1.47a1.29,1.29,0,0,1-.82-.71,1.33,1.33,0,0,1,0-1.07L698,519a1.22,1.22,0,0,1,1.52-.66l7,2.29a1.27,1.27,0,0,1,.84,1.42l-1.09,6.61c3.22,4.1,29,36,52.36,42,20.66,5.26,31.74-3.71,31.85-3.79a1.3,1.3,0,0,1,1.27-.23l23.18,9a1.25,1.25,0,0,1,.73.84,1.22,1.22,0,0,1-.2,1.12L798.4,599.94a1.3,1.3,0,0,1-.71.46A69.8,69.8,0,0,1,781.73,602.31Zm-85-74.88,4.27,1.27a1.17,1.17,0,0,1,.84.76c.3.84,31,83.24,94.71,68.63l15.83-20.62-20.94-8.18c-2.7,2-14,8.82-33.5,3.86-25.7-6.55-52.92-41.81-54.07-43.21a1.26,1.26,0,0,1-.25-1l1-6.1-4.93-1.6Z"/><path class="cls-5" d="M682.6,469.22a10.65,10.65,0,1,1,10.62-10.67v.05A10.64,10.64,0,0,1,682.6,469.22Zm0-18.73a8.11,8.11,0,1,0,8.08,8.13v0A8.11,8.11,0,0,0,682.6,450.49Z"/><path class="cls-5" d="M699.55,463.25A10.65,10.65,0,1,1,710.2,452.6a10.65,10.65,0,0,1-10.65,10.65Zm0-18.74a8.11,8.11,0,1,0,8.11,8.11v0A8.12,8.12,0,0,0,699.55,444.51Z"/><path class="cls-5" d="M663.08,467.49a1.29,1.29,0,1,1-.41-2.54l10.17-3.41a1.33,1.33,0,0,1,.78,2.55l-10.16,3.38A1,1,0,0,1,663.08,467.49Z"/><path class="cls-5" d="M929.15,370.47s-1.4-1-3.48-2.28c0,0-2.34,4.62-2.39,4.44S929.15,370.47,929.15,370.47Z"/><path class="cls-5" d="M923.43,373.93h-.33A1.24,1.24,0,0,1,922,373c-.16-.59-.23-.92.35-1.32s1.32-2.54,2.14-4a1.22,1.22,0,0,1,.79-.66,1.16,1.16,0,0,1,1,.15c2.13,1.3,3.55,2.32,3.55,2.32a1.23,1.23,0,0,1,.36,1.72,1.19,1.19,0,0,1-.69.51c-2.21.77-4.67,1.63-5.44,2A.76.76,0,0,1,923.43,373.93Zm2.69-3.91v.15h.21Z"/><polygon class="cls-5" points="907.44 450.94 904.06 448.76 905.49 445.18 907.44 450.94"/><path class="cls-5" d="M907.47,452.22a1.26,1.26,0,0,1-.71-.21l-3.39-2.18a1.26,1.26,0,0,1-.48-1.53l1.43-3.58a1.37,1.37,0,0,1,1.22-.82,1.29,1.29,0,0,1,1.16.87l2,5.77a1.27,1.27,0,0,1-1.19,1.68Z"/><path class="cls-5" d="M909,451l32-10.48a2.86,2.86,0,0,0,1.93-3.22l-13.06-65.56a2,2,0,0,0-2.34-1.66,2.33,2.33,0,0,0-.53.16L895.27,382.8a3.06,3.06,0,0,0-1.78,3.28l12.71,63.31a2.06,2.06,0,0,0,2.34,1.73A3,3,0,0,0,909,451Z"/><path class="cls-5" d="M908.28,452.39a3.21,3.21,0,0,1-1.68-.45,3.42,3.42,0,0,1-1.6-2.29l-12.71-63.32a4.27,4.27,0,0,1,2.54-4.7l31.73-12.71a3.51,3.51,0,0,1,2.94.13,3.4,3.4,0,0,1,1.66,2.31l13.06,65.55a4.14,4.14,0,0,1-2.77,4.71l-32,10.47h0A3.21,3.21,0,0,1,908.28,452.39ZM909,451Zm18.89-79.66h-.43l-31.73,12.71a1.76,1.76,0,0,0-1,1.83l12.71,63.31a.82.82,0,0,0,.91.71l.18,0,32-10.47a1.65,1.65,0,0,0,1.07-1.78l-13.07-65.55a.75.75,0,0,0-.38-.59A.79.79,0,0,0,927.88,371.34Z"/><path class="cls-4" d="M905.46,448.76l32-10.47a2.9,2.9,0,0,0,1.9-3.23l-13-65.55a2,2,0,0,0-2.39-1.66,2,2,0,0,0-.51.16l-31.72,12.55a3,3,0,0,0-1.75,3.28l12.71,63.32a2.06,2.06,0,0,0,2.35,1.71A2,2,0,0,0,905.46,448.76Z"/><path class="cls-5" d="M904.75,450.16a3.18,3.18,0,0,1-1.65-.46,3.42,3.42,0,0,1-1.63-2.29L888.76,384.1a4.29,4.29,0,0,1,2.54-4.71L923,366.81a3.49,3.49,0,0,1,2.93,0,3.36,3.36,0,0,1,1.67,2.32l13,65.55a4.14,4.14,0,0,1-2.77,4.7l-32,10.47h0A3.18,3.18,0,0,1,904.75,450.16Zm.71-1.4Zm18.88-79.66a1.34,1.34,0,0,0-.4,0l-31.72,12.58a1.7,1.7,0,0,0-1,1.83l12.7,63.32a.93.93,0,0,0,.41.61.92.92,0,0,0,.69,0l32-10.47a1.63,1.63,0,0,0,1.07-1.78l-13-65.35a.88.88,0,0,0-.38-.59A.93.93,0,0,0,924.34,369.1Z"/><path class="cls-7" d="M918.19,439.86l6.23-2a1.78,1.78,0,0,0,1.17-2l-.51-2.54a1.3,1.3,0,0,0-1.48-1.09l-.25.07-6.25,2.08a1.76,1.76,0,0,0-1.12,2l.49,2.54a1.28,1.28,0,0,0,1.5,1.05A.9.9,0,0,0,918.19,439.86Z"/><path class="cls-7" d="M905.41,379.8a.33.33,0,0,1-.31-.2.35.35,0,0,1,.18-.41l9.28-3.66a.33.33,0,1,1,.25.61l-9.3,3.64Z"/><path class="cls-7" d="M902.87,380.79a.3.3,0,0,1-.31-.3.31.31,0,0,1,.31-.31l1.22-.48a.32.32,0,0,1,.4.18.27.27,0,0,1-.11.38l-.06,0-1.22.49Z"/><polygon class="cls-7" points="923.05 374.01 894.43 385.9 905.13 436.48 933.04 426.32 923.05 374.01"/><path class="cls-4" d="M601.26,657.06c-.31,1.52.3,16.62,0,19.39-.36,3.33,4.73,6.43,6.41,8.8,3.27,4.65,5.23,11.18,7.26,16.47.28.73.54,1.65,0,2.18a1.61,1.61,0,0,1-1,.41c-3.23.43-5.82-2.54-7.75-5.08l-5-6.59c1.25,1.73-1.63,14-2,16.6a58.31,58.31,0,0,1-2.54,13.09c-2.54,6.41-18.94,5.57-20.79-.33-2.26-7.17-5.9-21.73-1.17-35.81-.31-5.77-3.71-38.51-3.71-38.51Z"/><path class="cls-5" d="M586.57,728h-.79c-4.4-.18-9.94-1.76-11.18-5.67-4.27-13.62-4.71-25.85-1.25-36.35-.38-6.3-3.63-37.9-3.68-38.12a1.33,1.33,0,0,1,.48-1.12,1.35,1.35,0,0,1,1.17-.23L601.51,656a1.29,1.29,0,0,1,.87,1.47c-.13.66,0,5.08,0,8.77,0,4.65.15,9,0,10.52s2,3.64,3.66,5.26a18,18,0,0,1,2.54,2.55,57.57,57.57,0,0,1,6.15,13.24c.44,1.22.87,2.39,1.3,3.51a3.1,3.1,0,0,1-.33,3.53,2.74,2.74,0,0,1-1.68.76c-3.89.56-6.84-2.72-8.95-5.62l-2.54-3.33c-.25,2.24-.79,5.37-1.68,9.82-.23,1.27-.43,2.26-.53,2.82a23.93,23.93,0,0,1-.38,2.94,43.93,43.93,0,0,1-2.21,10.45C596.18,726.6,590.94,728,586.57,728Zm-14.16-78.52c.74,7.14,3.23,31.65,3.51,36.65a1.77,1.77,0,0,1,0,.46c-3.31,9.89-2.9,22,1.19,35,.66,2.08,4.37,3.71,8.82,3.89,4,.12,8.49-.92,9.59-3.64a42.36,42.36,0,0,0,2.05-9.83,20,20,0,0,1,.41-3,25.78,25.78,0,0,1,.53-3c.64-3.1,2.27-11.36,1.66-12.71a1.27,1.27,0,0,1,2.08-1.45h0l4.88,6.71c1.73,2.31,4,5,6.56,4.6h.25a2.16,2.16,0,0,0-.25-.81c-.46-1.12-.89-2.32-1.32-3.56a55.38,55.38,0,0,0-5.82-12.71,17.56,17.56,0,0,0-2.19-2.29c-2.24-2.08-4.75-4.47-4.45-7.37.16-1.32,0-6.05,0-10.17v-8.15Z"/><path class="cls-6" d="M661.75,500.23c-7.62,6.41-78.79,36.45-99.73,68.42-10.66,16.3,6.15,107.88,6.15,107.88l37.89-7.37.54-80.73c4.39-5.49,53.63-32.92,53.63-32.92Z"/><path class="cls-6" d="M732.85,483.94s94,12.2,104.77,8.59,52.72-55.11,52.72-55.11l20.84,22.24s-22.5,68.43-52.9,75.55-115.82,0-115.82,0Z"/><path class="cls-5" d="M606.6,589.65a1.31,1.31,0,0,1-1.07-.58,1.25,1.25,0,0,1,.36-1.73l.05,0,62.55-39.55a1.24,1.24,0,0,1,1.72.36l0,0a1.26,1.26,0,0,1-.38,1.75l-62.58,39.5A1.29,1.29,0,0,1,606.6,589.65Z"/><path class="cls-5" d="M775.12,569.9a1.26,1.26,0,0,1-1.22-.86c-.84-2.55-27.76-71.58-28-72.27a1.27,1.27,0,0,1,2.29-1.09,1.34,1.34,0,0,1,.07.18c1.12,2.85,27.22,69.82,28.09,72.36a1.27,1.27,0,0,1-.78,1.62h0A1.13,1.13,0,0,1,775.12,569.9Z"/><path class="cls-4" d="M778.42,305l-57-11.72a9.76,9.76,0,0,0-11.53,7.59v0l-5.74,28a9.74,9.74,0,0,0,7.56,11.5h.06l-2.24,14.9,13.58-12.56,45.75,9.41a9.76,9.76,0,0,0,11.53-7.59v0l5.74-28a9.74,9.74,0,0,0-7.56-11.5Z"/><path class="cls-5" d="M709.46,356.52a1.44,1.44,0,0,1-.61-.15,1.32,1.32,0,0,1-.66-1.3l2.09-13.78a11.08,11.08,0,0,1-7.35-12.71l5.75-27.95a11.07,11.07,0,0,1,4.75-7.05,10.81,10.81,0,0,1,8.28-1.57l57,11.74h0a11,11,0,0,1,8.58,12.94l0,.08-5.77,28a11,11,0,0,1-13,8.6l-45-9.28-13.09,12.12A1.27,1.27,0,0,1,709.46,356.52Zm10-62.2a8.25,8.25,0,0,0-4.65,1.4,8.35,8.35,0,0,0-3.66,5.49l-5.7,28a8.49,8.49,0,0,0,6.53,10,1.28,1.28,0,0,1,1,1.43l-1.71,11.33,10.93-10.16a1.32,1.32,0,0,1,1.12-.33l45.75,9.4a8.48,8.48,0,0,0,10.13-6.44,1,1,0,0,0,0-.17l5.74-28a8.46,8.46,0,0,0-6.56-10h0l-56.94-11.75a10.15,10.15,0,0,0-2-.2Z"/><path class="cls-2" d="M769.91,327.21h-.26L720,317.73a1.27,1.27,0,0,1-1-1.47,1.3,1.3,0,0,1,1.5-1l49.62,9.48a1.29,1.29,0,0,1,1,1.5A1.27,1.27,0,0,1,769.91,327.21Z"/><path class="cls-2" d="M752.44,336.79h-.22l-34.37-6.55a1.27,1.27,0,0,1-1-1.48v0a1.26,1.26,0,0,1,1.46-1h0l34.39,6.5a1.28,1.28,0,0,1-.26,2.54Z"/><path class="cls-4" d="M501.14,548.85s-64.71,4-81.62-45.49l10.17,129.12s13.47,26.51,74.07,32.3Z"/><path class="cls-5" d="M503.78,666.06h-.12c-60.6-5.8-74.53-31.88-75.09-33a1,1,0,0,1,0-.48L418.4,503.41a1.28,1.28,0,0,1,1-1.35,1.22,1.22,0,0,1,1.45.84c16.39,48,79.71,44.68,80.35,44.63a1.23,1.23,0,0,1,.94.36,1.29,1.29,0,0,1,.4.89l2.54,115.93a1.37,1.37,0,0,1-.4,1A1.44,1.44,0,0,1,503.78,666.06ZM431,632.12c1.4,2.39,16.42,25.62,71.5,31.27l-2.54-113.21c-8.85.17-59.53-.44-78.46-38.92Z"/><polygon class="cls-4" points="920.53 685.8 994.93 601.34 1077.05 658.81 981.89 760.23 920.53 685.8"/><path class="cls-5" d="M981.89,761.5h0A1.37,1.37,0,0,1,981,761l-61.36-74.45a1.27,1.27,0,0,1,0-1.62L994,600.5a1.33,1.33,0,0,1,1.7-.2l82.13,57.47a1.29,1.29,0,0,1,.53.91,1.2,1.2,0,0,1-.33,1L982.83,761.09A1.28,1.28,0,0,1,981.89,761.5Zm-59.68-75.67,59.73,72.47L1075.12,659l-80-55.91Z"/><path class="cls-6" d="M973.93,653.91l4.48-1.28c.76-.22,1.55-.4,2.34-.55a2.19,2.19,0,0,1,2.54,1.06c.56,1.07,1,2.16,1.55,3.26a10.2,10.2,0,0,0,.89,1.7,2.22,2.22,0,0,0,1.09.84c1.87.35,3.72.66,5.57.91a2,2,0,0,0,1.75-.73c1-1.07,2-2.16,3-3.23a5.67,5.67,0,0,1,1.3-1.09,1.52,1.52,0,0,1,1.19-.18,25.36,25.36,0,0,1,6.71,4,1.74,1.74,0,0,1,.56,2.09c-.48,1.45-.94,2.92-1.47,4.37a2.83,2.83,0,0,0,.43,3.07c1,1.22,1.93,2.55,2.87,3.74a1.78,1.78,0,0,0,1.53.69h5.54a1.78,1.78,0,0,1,1.85,1.34c.64,2.22,1.25,4.45,1.81,6.69a1.92,1.92,0,0,1-1,2.16c-1.07.58-2.22,1-3.31,1.58-.51.25-1,.5-1.5.78a2.32,2.32,0,0,0-1.22,1.73c-.23,1.58-.46,3.13-.74,4.68a2.56,2.56,0,0,0,.87,2.54c1.17,1.07,2.36,2.11,3.53,3.2a2.09,2.09,0,0,1,.48,2.85c-1,1.78-2,3.56-3.12,5.31a2.2,2.2,0,0,1-2.9,1.16l-.1,0c-1-.3-1.93-.69-2.9-1a21.35,21.35,0,0,0-2.11-.61,1.92,1.92,0,0,0-1.73.31c-1.32,1-2.54,1.93-3.91,2.92a2.52,2.52,0,0,0-1,2.31c0,1,.17,2.06.23,3.11,0,.63,0,1.27,0,1.9a1.91,1.91,0,0,1-1.5,1.93L991.37,719a3.86,3.86,0,0,1-1,0,1.7,1.7,0,0,1-1.73-1c-.64-1.27-1.25-2.54-1.86-3.86a1.31,1.31,0,0,1,0-.28,3.06,3.06,0,0,0-2.79-2,20.42,20.42,0,0,1-3.66-.56,3.06,3.06,0,0,0-3,1.12c-.94,1.07-1.86,2.14-2.85,3.15a2,2,0,0,1-2.81.62l-.19-.13c-1.85-1.05-3.66-2.14-5.46-3.28a1.93,1.93,0,0,1-.92-2.54c.33-1.17.76-2.32,1.17-3.46a3.76,3.76,0,0,0-.79-4.93c-.61-.82-1.27-1.6-1.88-2.42a2.9,2.9,0,0,0-2.54-1.17c-1.2,0-2.39.21-3.58.23a10,10,0,0,1-1.89-.12,1.42,1.42,0,0,1-1.27-1.07c-.53-2.14-1.09-4.25-1.62-6.38a3.54,3.54,0,0,1,0-.92,1.73,1.73,0,0,1,1-1.75l3.81-1.83a9.53,9.53,0,0,0,1.12-.64,2.17,2.17,0,0,0,1.14-1.65c.21-1.5.44-3,.64-4.52a2.41,2.41,0,0,0-.89-2.32l-3.15-2.84h-.13c-1.3-1.3-1.42-1.91-.53-3.49s2.11-3.48,3.2-5.08a1.88,1.88,0,0,1,2.51-.88l0,0c1.32.43,2.54.89,3.89,1.4a3.26,3.26,0,0,0,3.61-.51c1.14-.92,2.31-1.78,3.48-2.7a1.78,1.78,0,0,0,.76-1.57c0-1.45-.12-2.88-.17-4.32a4,4,0,0,1,.53-2.75Zm20,42.88a13.89,13.89,0,0,0,3.47-19.32l-.09-.13a14.1,14.1,0,0,0-19.27-3.25,13.93,13.93,0,0,0-3.45,19.24A13.72,13.72,0,0,0,993.66,697l.28-.19Z"/><path class="cls-6" d="M1031.18,650.42l2.23-.63a5.07,5.07,0,0,0,1.17-.31,1.12,1.12,0,0,1,1.25.56c.28.51.53,1.07.78,1.6a4.44,4.44,0,0,0,.44.87,1,1,0,0,0,.56.4c.91.21,1.85.36,2.77.49a1,1,0,0,0,.89-.38l1.5-1.61a2.38,2.38,0,0,1,.63-.55.72.72,0,0,1,.61,0,12.65,12.65,0,0,1,3.36,2,.87.87,0,0,1,.28,1c-.26.71-.49,1.45-.74,2.16a1.42,1.42,0,0,0,.2,1.55c.51.61,1,1.25,1.45,1.88a.93.93,0,0,0,.76.33h2.77a.91.91,0,0,1,.94.69c.31,1.09.61,2.21.89,3.33a.92.92,0,0,1-.53,1.07c-.51.3-1.09.53-1.63.78l-.76.41a1.2,1.2,0,0,0-.61.87c-.13.78-.23,1.55-.35,2.33a1.2,1.2,0,0,0,.43,1.25l1.75,1.6a1,1,0,0,1,.23,1.42h0a28.26,28.26,0,0,1-1.55,2.55,1.13,1.13,0,0,1-1.48.57l0,0-1.45-.5a7.74,7.74,0,0,0-1-.31.91.91,0,0,0-.87.15l-2,1.45a1.32,1.32,0,0,0-.54,1.17,6.09,6.09,0,0,0,.13,1.53,2.33,2.33,0,0,1,0,1,1,1,0,0,1-.76,1l-3,.79h-.48a.89.89,0,0,1-.86-.51c-.31-.64-.61-1.3-.94-1.93v-.16a1.49,1.49,0,0,0-1.4-1l-1.83-.28a1.51,1.51,0,0,0-1.48.56c-.45.54-.94,1-1.42,1.58a1,1,0,0,1-1.41.3l-.09-.07c-.91-.51-1.83-1.07-2.72-1.63a1,1,0,0,1-.48-1.25c.18-.58.4-1.16.61-1.72.43-1.25.4-1.45-.41-2.55L1026,673a1.42,1.42,0,0,0-1.27-.58H1023a4.92,4.92,0,0,1-.94,0,.77.77,0,0,1-.64-.56c-.25-1.07-.53-2.11-.81-3.18a3.38,3.38,0,0,1,0-.45.85.85,0,0,1,.48-.87l1.91-.94a3.76,3.76,0,0,0,.56-.3,1.15,1.15,0,0,0,.58-.84l.31-2.24a1.17,1.17,0,0,0-.46-1.17l-1.55-1.42h0c-.63-.64-.71-.94-.25-1.76s1-1.72,1.6-2.54a.94.94,0,0,1,1.25-.44h0c.64.23,1.3.43,1.93.71a1.73,1.73,0,0,0,1.81-.25l1.72-1.35a.9.9,0,0,0,.39-.79v-2.18a1.88,1.88,0,0,1,.25-1.35Zm10,21.43a7,7,0,0,0,1.73-9.7l0,0a7.08,7.08,0,0,0-9.64-1.61,6.94,6.94,0,0,0-1.72,9.61,6.86,6.86,0,0,0,9.53,1.82Z"/><path class="cls-2" d="M1019.51,637.21a1.2,1.2,0,0,1-.81-.31l-24.58-20.51a1.27,1.27,0,0,1-.18-1.78,1.31,1.31,0,0,1,1.8-.18L1020.32,635a1.25,1.25,0,0,1,.18,1.75l0,0A1.23,1.23,0,0,1,1019.51,637.21Z"/><path class="cls-2" d="M1004.92,640.84a1.25,1.25,0,0,1-.81-.3l-17.34-14.47a1.27,1.27,0,1,1,1.63-2l17.33,14.48a1.24,1.24,0,0,1,.2,1.75l0,0A1.23,1.23,0,0,1,1004.92,640.84Z"/><rect class="cls-4" x="598.9" y="767.56" width="109.21" height="72.45" transform="translate(-153.91 154.77) rotate(-12.09)"/><path class="cls-5" d="M608.89,848.68a1.27,1.27,0,0,1-1.25-1l-15.45-70.62a1.26,1.26,0,0,1,1-1.49L699.6,752.27a1.27,1.27,0,0,1,1.52,1h0l15.42,70.61a1.2,1.2,0,0,1-.15.94,1.24,1.24,0,0,1-.81.56L609.16,848.66ZM595,777.77l14.89,68.12,104-22.75L698.91,755Z"/><rect class="cls-4" x="671.46" y="778.11" width="11.41" height="40.06" transform="translate(-154.93 163.16) rotate(-12.34)"/><path class="cls-2" d="M675.86,820.21a1.28,1.28,0,0,1-1.24-1l-8.54-39.14a1.27,1.27,0,0,1,.15-1,1.37,1.37,0,0,1,.81-.56L678.2,776a1.25,1.25,0,0,1,1.49.94v0l8.56,39.14a1.28,1.28,0,0,1-1,1.53l-11.16,2.54Zm-7-39.44,8,36.65,8.69-1.88-8-36.66Z"/><rect class="cls-4" x="654.25" y="792.17" width="11.41" height="29.89" transform="translate(-157.24 159.69) rotate(-12.34)"/><path class="cls-2" d="M657.56,824.23a1.28,1.28,0,0,1-1.25-1L649.93,794a1.25,1.25,0,0,1,.94-1.49h0L662.06,790a1.27,1.27,0,0,1,1,.15,1.22,1.22,0,0,1,.53.81l6.33,29.31a1.38,1.38,0,0,1-.18,1,1.16,1.16,0,0,1-.79.53l-11.16,2.54Zm-4.88-29.51,5.85,26.71,8.66-1.9-5.84-26.72Z"/><rect class="cls-4" x="637.4" y="809.61" width="11.41" height="16.29" transform="translate(-159.91 156.33) rotate(-12.34)"/><path class="cls-2" d="M639.39,828.22a1.29,1.29,0,0,1-1.25-1l-3.48-15.91a1.26,1.26,0,0,1,1-1.52h0l11.16-2.54a1.32,1.32,0,0,1,1,.18,1.3,1.3,0,0,1,.56.79l3.48,15.91a1.31,1.31,0,0,1-1,1.52l-11.16,2.55Zm-2-16.22,3,13.45,8.67-1.91-2.92-13.42Z"/><path class="cls-2" d="M627.92,830.71a1.26,1.26,0,0,1-1.24-1l-10.63-48.54a1.26,1.26,0,0,1,.94-1.5h0a1.27,1.27,0,0,1,1.52,1h0l10.35,47.31,69.64-15.26a1.26,1.26,0,0,1,1.5.94v0a1.26,1.26,0,0,1-.95,1.52h0l-70.87,15.5Z"/><circle class="cls-4" cx="883.04" cy="623.12" r="22.09" transform="translate(126.51 1394.95) rotate(-80.78)"/><path class="cls-5" d="M883,646.48a23.36,23.36,0,1,1,23.36-23.36h0A23.36,23.36,0,0,1,883,646.48Zm0-44.15a20.82,20.82,0,1,0,20.82,20.82v0A20.82,20.82,0,0,0,883,602.33Z"/><path class="cls-2" d="M883,639.27a16.15,16.15,0,1,1,16.14-16.15h0A16.15,16.15,0,0,1,883,639.27Zm0-29.92a13.78,13.78,0,1,0,13.78,13.77h0A13.78,13.78,0,0,0,883,609.35Z"/><path class="cls-2" d="M883,632.2a9.08,9.08,0,1,1,9.07-9.08h0A9.07,9.07,0,0,1,883,632.2Zm0-15.81a6.74,6.74,0,1,0,6.74,6.73,6.73,6.73,0,0,0-6.74-6.73Z"/><path class="cls-2" d="M773.57,316h-.26l-49.61-9.46a1.3,1.3,0,0,1-1-1.5,1.27,1.27,0,0,1,1.48-1h0l49.62,9.48a1.25,1.25,0,0,1-.23,2.49Z"/><path class="cls-2" d="M825.11,411.85a11.95,11.95,0,1,1,11.92-12v.05A11.94,11.94,0,0,1,825.11,411.85Zm0-21.32a9.41,9.41,0,1,0,9.38,9.43v0A9.4,9.4,0,0,0,825.11,390.53Z"/><circle class="cls-2" cx="534.51" cy="541.43" r="7.47"/></g></g></svg>