<?xml version="1.0" encoding="utf-8"?>
<!-- Generator: Adobe Illustrator 24.0.1, SVG Export Plug-In . SVG Version: 6.00 Build 0)  -->
<svg version="1.1" id="Capa_1" xmlns="http://www.w3.org/2000/svg" xmlns:xlink="http://www.w3.org/1999/xlink" x="0px" y="0px"
	 viewBox="0 0 1175 736" style="enable-background:new 0 0 1175 736;" xml:space="preserve">
<style type="text/css">
	.st0{fill:#7B41A4;}
	.st1{filter:url(#Adobe_OpacityMaskFilter);}
	.st2{opacity:0.25;mask:url(#SVGID_1_);}
	.st3{fill:#61388E;}
	.st4{filter:url(#Adobe_OpacityMaskFilter_1_);}
	.st5{opacity:0.25;mask:url(#SVGID_2_);}
	.st6{fill:#381A64;}
	.st7{fill:url(#SVGID_3_);}
	.st8{fill:url(#SVGID_4_);}
	.st9{fill:url(#SVGID_5_);}
	.st10{fill:url(#SVGID_6_);}
	.st11{fill:url(#SVGID_7_);}
	.st12{fill:url(#SVGID_8_);}
	.st13{fill:url(#SVGID_9_);}
	.st14{fill:url(#SVGID_10_);}
	.st15{fill:url(#SVGID_11_);}
	.st16{fill:url(#SVGID_12_);}
	.st17{fill:url(#SVGID_13_);}
	.st18{fill:url(#SVGID_14_);}
	.st19{fill:url(#SVGID_15_);}
	.st20{fill:url(#SVGID_16_);}
	.st21{fill:url(#SVGID_17_);}
	.st22{fill:url(#SVGID_18_);}
	.st23{fill:url(#SVGID_19_);}
</style>
<g>
	<g>
		<path class="st0" d="M826,15.7C872.8-2.6,924.8-2.2,974.7,3.1c38.8,4.1,77.8,11.2,112.8,28.3s65.8,45.5,79.1,82.2
			c15.8,43.5,5.3,91.9-9.3,135.8c-14.6,43.9-33.4,87.6-34,133.9c-0.5,35.6,9.8,70.4,15.4,105.6c5.5,35.2,5.6,73.6-13.2,103.8
			c-26.6,42.6-82.6,56.4-132.8,55.6c-50.2-0.8-100.7-12.3-150.3-4.5c-95.5,15.1-175.6,99.7-272,91.8
			c-108.2-8.9-175.4-128.6-279.8-158.5c-53.9-15.4-112.7-5.2-166.2-21.9C67.8,537.7,22.2,488.5,8.8,430.7s5.9-122.1,48.9-162.9
			c46.7-44.3,115-58.8,179.3-56S363.8,232.6,427,245c63.1,12.5,129.6,19.3,191,0c49-15.4,107.4-56.3,117.8-110.3
			c4.8-25.3,2.9-43.4,19.4-65.8C772.9,44.9,798.3,26.6,826,15.7z"/>
	</g>
	<defs>
		<filter id="Adobe_OpacityMaskFilter" filterUnits="userSpaceOnUse" x="4.5" y="-0.1" width="1170.1" height="736.3">
			
				<feColorMatrix  type="matrix" values="-1 0 0 0 1  0 -1 0 0 1  0 0 -1 0 1  0 0 0 1 0" color-interpolation-filters="sRGB" result="source"/>
		</filter>
	</defs>
	<mask maskUnits="userSpaceOnUse" x="4.5" y="-0.1" width="1170.1" height="736.3" id="SVGID_1_">
		<g class="st1">
			<image style="overflow:visible;" width="1175" height="742" xlink:href="5739819B.jpg"  transform="matrix(1 0 0 1 2 -3)">
			</image>
		</g>
	</mask>
	<g class="st2">
		<path d="M826,15.7C872.8-2.6,924.8-2.2,974.7,3.1c38.8,4.1,77.8,11.2,112.8,28.3s65.8,45.5,79.1,82.2
			c15.8,43.5,5.3,91.9-9.3,135.8c-14.6,43.9-33.4,87.6-34,133.9c-0.5,35.6,9.8,70.4,15.4,105.6c5.5,35.2,5.6,73.6-13.2,103.8
			c-26.6,42.6-82.6,56.4-132.8,55.6c-50.2-0.8-100.7-12.3-150.3-4.5c-95.5,15.1-175.6,99.7-272,91.8
			c-108.2-8.9-175.4-128.6-279.8-158.5c-53.9-15.4-112.7-5.2-166.2-21.9C67.8,537.7,22.2,488.5,8.8,430.7s5.9-122.1,48.9-162.9
			c46.7-44.3,115-58.8,179.3-56S363.8,232.6,427,245c63.1,12.5,129.6,19.3,191,0c49-15.4,107.4-56.3,117.8-110.3
			c4.8-25.3,2.9-43.4,19.4-65.8C772.9,44.9,798.3,26.6,826,15.7z"/>
	</g>
</g>
<g>
	<g>
		<path class="st3" d="M594.3,705.2c-3.7,0-7.5-0.2-11.1-0.5c-52.9-4.3-96.3-39.4-142.3-76.6c-40.5-32.7-82.3-66.5-133.7-81.2
			c-28.5-8.1-57.5-9.6-85.7-11.1c-28.3-1.5-55.1-2.8-80.1-10.6c-24.5-7.6-47.1-22.1-65.4-41.8s-31-43.3-36.8-68.3
			c-5.8-25-4.8-51.8,3-77.5c7.7-25.8,21.7-48.7,40.3-66.3c18.1-17.2,41.1-30.3,68.1-38.9c24.8-7.9,52.5-11.9,82.2-11.9
			c4.7,0,9.6,0.1,14.4,0.3c45.4,2,89.4,11.7,136,22.1c16.6,3.7,33.8,7.5,50.9,10.9c42.9,8.5,77.9,12.4,110.1,12.4
			c33.3,0,63-4.2,90.8-12.9c56.9-17.8,119.6-63.6,131.4-125.7c1.3-6.7,2.1-13,2.9-18.5c2.1-15.9,3.6-26.3,13-39.1
			c14.8-20.1,36.8-36.6,62-46.5c24.8-9.7,53.3-14.4,87.2-14.4c15.7,0,32.7,1,52.2,3.1c31.1,3.3,71.2,9.3,106.1,26.4
			c33.5,16.4,58.7,42.3,69.2,71.1c14.5,39.9,2.6,86.5-9.4,122.7c-2.6,7.9-5.5,16-8.2,23.8c-12.9,36.9-26.3,75.1-26.8,116.1
			c-0.4,26.8,4.8,52.5,9.7,77.4c2.2,10.9,4.2,21.2,5.9,31.6c6.2,39.4,2.8,68.9-10.4,90.1c-26.1,41.8-86.9,46.3-111.9,46.3
			c-1.2,0-2.5,0-3.7,0c-17.2-0.3-34.3-1.8-52.3-3.5c-19.8-1.8-40.2-3.7-60.6-3.7c-14.8,0-28.1,1-40.7,3
			c-44.6,7-85.1,27.7-124.3,47.6C681.3,683.7,639,705.2,594.3,705.2z"/>
	</g>
	<defs>
		<filter id="Adobe_OpacityMaskFilter_1_" filterUnits="userSpaceOnUse" x="35.5" y="8.9" width="1130.1" height="696.3">
			
				<feColorMatrix  type="matrix" values="-1 0 0 0 1  0 -1 0 0 1  0 0 -1 0 1  0 0 0 1 0" color-interpolation-filters="sRGB" result="source"/>
		</filter>
	</defs>
	<mask maskUnits="userSpaceOnUse" x="35.5" y="8.9" width="1130.1" height="696.3" id="SVGID_2_">
		<g class="st4">
			<image style="overflow:visible;" width="1135" height="702" xlink:href="57398199.jpg"  transform="matrix(1 0 0 1 33 6)">
			</image>
		</g>
	</mask>
	<g class="st5">
		<path d="M594.3,705.2c-3.7,0-7.5-0.2-11.1-0.5c-52.9-4.3-96.3-39.4-142.3-76.6c-40.5-32.7-82.3-66.5-133.7-81.2
			c-28.5-8.1-57.5-9.6-85.7-11.1c-28.3-1.5-55.1-2.8-80.1-10.6c-24.5-7.6-47.1-22.1-65.4-41.8s-31-43.3-36.8-68.3
			c-5.8-25-4.8-51.8,3-77.5c7.7-25.8,21.7-48.7,40.3-66.3c18.1-17.2,41.1-30.3,68.1-38.9c24.8-7.9,52.5-11.9,82.2-11.9
			c4.7,0,9.6,0.1,14.4,0.3c45.4,2,89.4,11.7,136,22.1c16.6,3.7,33.8,7.5,50.9,10.9c42.9,8.5,77.9,12.4,110.1,12.4
			c33.3,0,63-4.2,90.8-12.9c56.9-17.8,119.6-63.6,131.4-125.7c1.3-6.7,2.1-13,2.9-18.5c2.1-15.9,3.6-26.3,13-39.1
			c14.8-20.1,36.8-36.6,62-46.5c24.8-9.7,53.3-14.4,87.2-14.4c15.7,0,32.7,1,52.2,3.1c31.1,3.3,71.2,9.3,106.1,26.4
			c33.5,16.4,58.7,42.3,69.2,71.1c14.5,39.9,2.6,86.5-9.4,122.7c-2.6,7.9-5.5,16-8.2,23.8c-12.9,36.9-26.3,75.1-26.8,116.1
			c-0.4,26.8,4.8,52.5,9.7,77.4c2.2,10.9,4.2,21.2,5.9,31.6c6.2,39.4,2.8,68.9-10.4,90.1c-26.1,41.8-86.9,46.3-111.9,46.3
			c-1.2,0-2.5,0-3.7,0c-17.2-0.3-34.3-1.8-52.3-3.5c-19.8-1.8-40.2-3.7-60.6-3.7c-14.8,0-28.1,1-40.7,3
			c-44.6,7-85.1,27.7-124.3,47.6C681.3,683.7,639,705.2,594.3,705.2z"/>
	</g>
</g>
<g>
	<path class="st6" d="M601.2,685.5c-3.1,0-6.3-0.1-9.5-0.4c-46.8-3.8-87.8-37-131.3-72.2c-42-34-85.5-69.1-140.7-84.9
		c-30.7-8.8-60.9-10.3-90.1-11.8c-27.1-1.4-52.6-2.7-75.2-9.8c-21.1-6.6-40.7-19.2-56.7-36.3s-27-37.6-32-59.2
		c-5-21.6-4.1-44.8,2.6-67.3c6.7-22.4,18.8-42.3,34.9-57.6c15.9-15.1,36.3-26.7,60.4-34.4c22.9-7.3,48.5-11,76.1-11
		c4.5,0,9,0.1,13.5,0.3c43.6,1.9,86.8,11.5,132.5,21.6c16.7,3.7,34,7.5,51.4,11c44.2,8.7,80.4,12.8,113.9,12.8
		c35.4,0,67.1-4.5,96.8-13.9c62.5-19.6,131.7-70.8,145.1-141c1.4-7.2,2.3-13.8,3.1-19.6c2-14.7,2.9-21.3,9.3-30
		c12.6-17.1,31.5-31.2,53.2-39.7c22.4-8.8,48.5-13.1,79.9-13.1c14.9,0,31.3,1,50.1,2.9c29.4,3.1,67.3,8.7,99.4,24.5
		c28.9,14.2,50.5,36,59.2,59.9c12.4,34.1,1.4,76.5-9.6,109.6c-2.6,7.7-5.4,15.7-8.1,23.4l0,0.1c-13.4,38.4-27.3,78.1-28,122.4
		c-0.4,28.9,4.9,55.7,10.1,81.6c2.1,10.7,4.2,20.8,5.7,30.8c5.4,34.5,2.9,59.5-7.7,76.4c-21.3,34.2-78,36.9-94.9,36.9
		c-1.1,0-2.3,0-3.4,0c-16.4-0.3-33.1-1.8-50.8-3.4c-20.2-1.9-41.1-3.8-62.5-3.8c-15.8,0-30.2,1-43.9,3.2
		c-47.8,7.5-89.7,28.9-130.3,49.6C681.4,665,641.2,685.5,601.2,685.5L601.2,685.5z"/>
</g>
<g>
	<radialGradient id="SVGID_3_" cx="653.2313" cy="355.4133" r="367.8618" gradientUnits="userSpaceOnUse">
		<stop  offset="0" style="stop-color:#000000;stop-opacity:0.25"/>
		<stop  offset="0.3378" style="stop-color:#010103;stop-opacity:0.5034"/>
		<stop  offset="0.5695" style="stop-color:#05030C;stop-opacity:0.6771"/>
		<stop  offset="0.7694" style="stop-color:#0D081B;stop-opacity:0.827"/>
		<stop  offset="0.9502" style="stop-color:#170E31;stop-opacity:0.9627"/>
		<stop  offset="1" style="stop-color:#1A1038"/>
	</radialGradient>
	<path class="st7" d="M601.2,685.5c-3.1,0-6.3-0.1-9.5-0.4c-46.8-3.8-87.8-37-131.3-72.2c-42-34-85.5-69.1-140.7-84.9
		c-30.7-8.8-60.9-10.3-90.1-11.8c-27.1-1.4-52.6-2.7-75.2-9.8c-21.1-6.6-40.7-19.2-56.7-36.3s-27-37.6-32-59.2
		c-5-21.6-4.1-44.8,2.6-67.3c6.7-22.4,18.8-42.3,34.9-57.6c15.9-15.1,36.3-26.7,60.4-34.4c22.9-7.3,48.5-11,76.1-11
		c4.5,0,9,0.1,13.5,0.3c43.6,1.9,86.8,11.5,132.5,21.6c16.7,3.7,34,7.5,51.4,11c44.2,8.7,80.4,12.8,113.9,12.8
		c35.4,0,67.1-4.5,96.8-13.9c62.5-19.6,131.7-70.8,145.1-141c1.4-7.2,2.3-13.8,3.1-19.6c2-14.7,2.9-21.3,9.3-30
		c12.6-17.1,31.5-31.2,53.2-39.7c22.4-8.8,48.5-13.1,79.9-13.1c14.9,0,31.3,1,50.1,2.9c29.4,3.1,67.3,8.7,99.4,24.5
		c28.9,14.2,50.5,36,59.2,59.9c12.4,34.1,1.4,76.5-9.6,109.6c-2.6,7.7-5.4,15.7-8.1,23.4l0,0.1c-13.4,38.4-27.3,78.1-28,122.4
		c-0.4,28.9,4.9,55.7,10.1,81.6c2.1,10.7,4.2,20.8,5.7,30.8c5.4,34.5,2.9,59.5-7.7,76.4c-21.3,34.2-78,36.9-94.9,36.9
		c-1.1,0-2.3,0-3.4,0c-16.4-0.3-33.1-1.8-50.8-3.4c-20.2-1.9-41.1-3.8-62.5-3.8c-15.8,0-30.2,1-43.9,3.2
		c-47.8,7.5-89.7,28.9-130.3,49.6C681.4,665,641.2,685.5,601.2,685.5L601.2,685.5z"/>
</g>
<radialGradient id="SVGID_4_" cx="602.8818" cy="474.7179" r="417.0054" gradientUnits="userSpaceOnUse">
	<stop  offset="1.397920e-03" style="stop-color:#FFFF00"/>
	<stop  offset="9.064381e-02" style="stop-color:#C6C600;stop-opacity:0.88"/>
	<stop  offset="0.1833" style="stop-color:#929200;stop-opacity:0.7555"/>
	<stop  offset="0.2776" style="stop-color:#656500;stop-opacity:0.6287"/>
	<stop  offset="0.3717" style="stop-color:#414100;stop-opacity:0.5022"/>
	<stop  offset="0.4656" style="stop-color:#242400;stop-opacity:0.376"/>
	<stop  offset="0.5592" style="stop-color:#101000;stop-opacity:0.2501"/>
	<stop  offset="0.6525" style="stop-color:#040400;stop-opacity:0.1247"/>
	<stop  offset="0.7453" style="stop-color:#000000;stop-opacity:0"/>
</radialGradient>
<rect x="-34.5" y="-31.5" class="st8" width="1248" height="892"/>
<linearGradient id="SVGID_5_" gradientUnits="userSpaceOnUse" x1="934.4489" y1="202.5511" x2="983.8242" y2="153.1758">
	<stop  offset="0.2586" style="stop-color:#E6FF55;stop-opacity:0"/>
	<stop  offset="0.5816" style="stop-color:#6B55FF;stop-opacity:0.34"/>
	<stop  offset="0.7997" style="stop-color:#D615FF;stop-opacity:0.53"/>
</linearGradient>
<circle class="st9" cx="962" cy="175" r="39.5"/>
<linearGradient id="SVGID_6_" gradientUnits="userSpaceOnUse" x1="830.4075" y1="302.5925" x2="834.1575" y2="298.8425">
	<stop  offset="1.723188e-02" style="stop-color:#6800D4;stop-opacity:0"/>
	<stop  offset="1" style="stop-color:#FF2A36;stop-opacity:0.34"/>
</linearGradient>
<circle class="st10" cx="832.5" cy="300.5" r="3"/>
<linearGradient id="SVGID_7_" gradientUnits="userSpaceOnUse" x1="830.7938" y1="427.2062" x2="852.6689" y2="405.3311">
	<stop  offset="1.723188e-02" style="stop-color:#6800D4;stop-opacity:0"/>
	<stop  offset="5.418995e-02" style="stop-color:#6D0ACD;stop-opacity:0"/>
	<stop  offset="1" style="stop-color:#F7FF15"/>
</linearGradient>
<circle class="st11" cx="843" cy="415" r="17.5"/>
<linearGradient id="SVGID_8_" gradientUnits="userSpaceOnUse" x1="1005.9701" y1="358.0299" x2="1040.9703" y2="323.0297">
	<stop  offset="1.723188e-02" style="stop-color:#6800D4;stop-opacity:0"/>
	<stop  offset="1" style="stop-color:#0049FF;stop-opacity:0.34"/>
</linearGradient>
<circle class="st12" cx="1025.5" cy="338.5" r="28"/>
<linearGradient id="SVGID_9_" gradientUnits="userSpaceOnUse" x1="973.0299" y1="427.278" x2="976.3216" y2="423.9863">
	<stop  offset="1.723188e-02" style="stop-color:#6800D4;stop-opacity:0"/>
	<stop  offset="1" style="stop-color:#0049FF;stop-opacity:0.34"/>
</linearGradient>
<circle class="st13" cx="974.9" cy="425.4" r="2.6"/>
<linearGradient id="SVGID_10_" gradientUnits="userSpaceOnUse" x1="210.2563" y1="290.7437" x2="213.3813" y2="287.6187">
	<stop  offset="1.723188e-02" style="stop-color:#6800D4;stop-opacity:0"/>
	<stop  offset="5.418995e-02" style="stop-color:#6D0ACD;stop-opacity:0"/>
	<stop  offset="1" style="stop-color:#F7FF15"/>
</linearGradient>
<circle class="st14" cx="212" cy="289" r="2.5"/>
<linearGradient id="SVGID_11_" gradientUnits="userSpaceOnUse" x1="850.4075" y1="213.5925" x2="854.1575" y2="209.8425">
	<stop  offset="1.723188e-02" style="stop-color:#6800D4;stop-opacity:0"/>
	<stop  offset="1" style="stop-color:#FF2A36;stop-opacity:0.34"/>
</linearGradient>
<circle class="st15" cx="852.5" cy="211.5" r="3"/>
<linearGradient id="SVGID_12_" gradientUnits="userSpaceOnUse" x1="1044.4075" y1="99.5925" x2="1048.1576" y2="95.8425">
	<stop  offset="1.723188e-02" style="stop-color:#6800D4;stop-opacity:0"/>
	<stop  offset="1" style="stop-color:#FF2A36;stop-opacity:0.34"/>
</linearGradient>
<circle class="st16" cx="1046.5" cy="97.5" r="3"/>
<linearGradient id="SVGID_13_" gradientUnits="userSpaceOnUse" x1="140.2563" y1="377.7437" x2="143.3813" y2="374.6187">
	<stop  offset="1.723188e-02" style="stop-color:#6800D4;stop-opacity:0"/>
	<stop  offset="5.418995e-02" style="stop-color:#6D0ACD;stop-opacity:0"/>
	<stop  offset="1" style="stop-color:#F7FF15"/>
</linearGradient>
<circle class="st17" cx="142" cy="376" r="2.5"/>
<linearGradient id="SVGID_14_" gradientUnits="userSpaceOnUse" x1="1057.2562" y1="259.7437" x2="1060.3812" y2="256.6187">
	<stop  offset="1.723188e-02" style="stop-color:#6800D4;stop-opacity:0"/>
	<stop  offset="5.418995e-02" style="stop-color:#6D0ACD;stop-opacity:0"/>
	<stop  offset="1" style="stop-color:#F7FF15"/>
</linearGradient>
<circle class="st18" cx="1059" cy="258" r="2.5"/>
<linearGradient id="SVGID_15_" gradientUnits="userSpaceOnUse" x1="863.1907" y1="535.2409" x2="866.4824" y2="531.9492">
	<stop  offset="1.723188e-02" style="stop-color:#6800D4;stop-opacity:0"/>
	<stop  offset="1" style="stop-color:#0049FF;stop-opacity:0.34"/>
</linearGradient>
<circle class="st19" cx="865" cy="533.4" r="2.6"/>
<linearGradient id="SVGID_16_" gradientUnits="userSpaceOnUse" x1="747.4358" y1="486.55" x2="750.7275" y2="483.2583">
	<stop  offset="1.723188e-02" style="stop-color:#6800D4;stop-opacity:0"/>
	<stop  offset="1" style="stop-color:#0049FF;stop-opacity:0.34"/>
</linearGradient>
<circle class="st20" cx="749.3" cy="484.7" r="2.6"/>
<linearGradient id="SVGID_17_" gradientUnits="userSpaceOnUse" x1="720.4358" y1="565.55" x2="723.7275" y2="562.2583">
	<stop  offset="1.723188e-02" style="stop-color:#6800D4;stop-opacity:0"/>
	<stop  offset="1" style="stop-color:#0049FF;stop-opacity:0.34"/>
</linearGradient>
<circle class="st21" cx="722.3" cy="563.7" r="2.6"/>
<linearGradient id="SVGID_18_" gradientUnits="userSpaceOnUse" x1="608.4358" y1="573.55" x2="611.7275" y2="570.2583">
	<stop  offset="1.723188e-02" style="stop-color:#6800D4;stop-opacity:0"/>
	<stop  offset="1" style="stop-color:#0049FF;stop-opacity:0.34"/>
</linearGradient>
<circle class="st22" cx="610.3" cy="571.7" r="2.6"/>
<linearGradient id="SVGID_19_" gradientUnits="userSpaceOnUse" x1="671.013" y1="626.1829" x2="674.3047" y2="622.8911">
	<stop  offset="1.723188e-02" style="stop-color:#6800D4;stop-opacity:0"/>
	<stop  offset="1" style="stop-color:#0049FF;stop-opacity:0.34"/>
</linearGradient>
<circle class="st23" cx="672.8" cy="624.3" r="2.6"/>
</svg>
