<svg id="_340_web_developer_flatline" data-name=" 340 web developer flatline" xmlns="http://www.w3.org/2000/svg" viewBox="0 0 1920 1080"><defs><style>.cls-1{fill:#d1d3d4;}.cls-2{fill:#fff;}.cls-3{fill:#231f20;}.cls-4{fill:#af63c5;}</style></defs><title>Icon 2</title><g id="_286_startup_flatline" data-name=" 286 startup flatline"><path class="cls-1" d="M1573.35,890.57H390.79a2.09,2.09,0,1,1-1.15-4,2,2,0,0,1,1.15,0H1573.55a2.09,2.09,0,0,1,0,4Z"/><rect class="cls-2" x="459.7" y="68.83" width="1044.73" height="610.21"/><path class="cls-1" d="M1504.48,681.13H459.7a2.09,2.09,0,0,1-2.09-2.09h0V68.83a2.1,2.1,0,0,1,2.09-2.09H1504.48a2.05,2.05,0,0,1,2,2.05V679A2.09,2.09,0,0,1,1504.48,681.13Zm-1042.69-4H1502.34V70.93H461.75Z"/><rect class="cls-2" x="459.7" y="39.87" width="1044.73" height="28.97"/><path class="cls-1" d="M1504.48,70.93H459.7a2.1,2.1,0,0,1-2.09-2.1v-29a2.09,2.09,0,0,1,2.09-2.09H1504.48a2,2,0,0,1,2,2v29A2.1,2.1,0,0,1,1504.48,70.93Zm-1042.69-4H1502.34v-25H461.75Z"/><rect class="cls-2" x="959.36" y="452.23" width="56.8" height="182.32"/><path class="cls-1" d="M1016.16,636.6h-56.8a2.05,2.05,0,0,1-2.09-2V452.23a2.09,2.09,0,0,1,2.09-2.1h56.8a2.1,2.1,0,0,1,2.1,2.1h0V634.55a2.05,2.05,0,0,1-2.06,2.05Zm-54.71-4h52.66V454.28H961.37Z"/><path class="cls-2" d="M742.6,679s12.43-69.19,59.18-88.18S873.91,611,873.91,611s12.07-64.36,86.33-64.36,91.41,50.6,91.41,50.6,15.24-30.57,48.76-28.48S1139,613,1139,613a76.46,76.46,0,0,1,62,0c32.18,15,45.74,66.26,45.74,66.26Z"/><path class="cls-1" d="M1246.72,681.13H742.6a2.1,2.1,0,0,1-1.61-.76,2.31,2.31,0,0,1-.44-1.69c.52-2.9,13.19-70.56,60.34-89.75a60.32,60.32,0,0,1,72,17.34c4.39-14.57,23.54-61.8,87.3-61.8,62.64,0,85.77,36.21,91.69,48.28,5.43-8.25,21.24-27.8,48.64-26,29.69,1.85,38.17,33.55,40.23,43.17A77.68,77.68,0,0,1,1202,611c32.7,15.17,46.26,65.46,46.82,67.59a2,2,0,0,1-.36,1.77A1.94,1.94,0,0,1,1246.72,681.13Zm-501.59-4H1244c-3.26-10.5-17-49.8-43.81-62.27a75.09,75.09,0,0,0-60.35,0,2,2,0,0,1-1.89,0,2.13,2.13,0,0,1-1.09-1.57c0-.41-5.31-40.23-36.69-42.29s-46.62,27-46.74,27.32a2.14,2.14,0,0,1-2,1.13,2,2,0,0,1-1.81-1.37c-.21-.52-17.79-49.24-89.48-49.24-30,0-53.3,10.5-69.23,31.22a84.44,84.44,0,0,0-15.09,31.42,2.06,2.06,0,0,1-1.61,1.65,2.11,2.11,0,0,1-2.17-.89A56.32,56.32,0,0,0,802.42,593c-40.07,16.17-54.51,71.65-57.29,84Z"/><polygon class="cls-2" points="1017.85 481.15 956.18 481.15 948.78 451.54 1025.26 451.54 1017.85 481.15"/><path class="cls-1" d="M1017.69,483.24H956.18a2,2,0,0,1-2-1.57l-7.4-29.61a2.07,2.07,0,0,1,.36-1.81,2.17,2.17,0,0,1,1.65-.76h76.44a2.18,2.18,0,0,1,1.65.76,2.25,2.25,0,0,1,.36,1.81l-7.41,29.61A2,2,0,0,1,1017.69,483.24Zm-60.06-4h58.45l6.36-25.47h-71Z"/><path class="cls-2" d="M917.88,359.05s-32.18,20.12-43.57,53.87,14.41,98.77,14.41,98.77L947.49,448Z"/><path class="cls-1" d="M888.72,513.78h-.41a2,2,0,0,1-1.53-1.29c-1.08-2.7-25.74-66.18-14.4-100.17s43-54.15,44.25-55a2,2,0,0,1,1.78,0,2.05,2.05,0,0,1,1.28,1.29l29.61,88.67a2.08,2.08,0,0,1-.44,2.09L890,513.09A1.91,1.91,0,0,1,888.72,513.78Zm28.16-151.47c-7.41,5.23-31.34,23.78-40.52,51.29-9.45,28.45,8.33,80.91,13.16,94.22l55.72-60.34Z"/><path class="cls-2" d="M1057.64,359.05s32.19,20.12,43.57,53.87-14.4,98.77-14.4,98.77L1028,448Z"/><path class="cls-1" d="M1086.85,513.78a2,2,0,0,1-1.53-.69l-58.82-63.72a2.08,2.08,0,0,1-.44-2.09l29.61-88.87a2,2,0,0,1,1.29-1.29,2,2,0,0,1,1.77,0c1.37.85,33.11,21,44.45,55s-13.35,97.47-14.4,100.17a2.13,2.13,0,0,1-1.57,1.29Zm-56.32-66.34,55.71,60.34c4.83-13.31,22.61-65.81,13.16-94.22-9.17-27.51-33.11-46.06-40.47-51.29Z"/><path class="cls-2" d="M1039.86,462.77C1056,424.31,1066,368.55,1066,306.55c0-93.93-51.82-143-71.53-158.3a12.06,12.06,0,0,0-14.93,0C959.84,163.41,908,212.37,908,306.39c0,62,10.13,117.76,26.19,156.22,0,0,16.09,8,52.82,8S1039.86,462.77,1039.86,462.77Z"/><path class="cls-1" d="M987,472.9c-36.85,0-53.07-8-53.75-8.28a2,2,0,0,1-1-1.05c-16.77-40.23-26.35-97.32-26.35-156.9,0-93.81,50.61-143,72.42-159.79a14.32,14.32,0,0,1,17.5,0c21.72,16.78,72.41,65.94,72.41,159.79,0,59.75-9.61,117-26.35,156.9a2.28,2.28,0,0,1-1,1.05C1040.1,464.94,1023.89,472.9,987,472.9Zm-51.22-11.7c3.38,1.45,19.56,7.56,51.22,7.56s47.87-6.11,51.25-7.56c16.33-39.51,25.71-95.83,25.71-154.65,0-92-49.49-140.12-70.73-156.53a10.34,10.34,0,0,0-12.43,0c-21.24,16.45-70.72,64.37-70.72,156.53C910.08,365.49,919.45,421.81,935.78,461.2Zm104,1.57"/><path class="cls-2" d="M979.55,148.25a183.31,183.31,0,0,0-54.95,72.81h124.71a183.24,183.24,0,0,0-54.83-72.81A12.06,12.06,0,0,0,979.55,148.25Z"/><path class="cls-1" d="M1049.43,223.32H924.72a2.07,2.07,0,0,1-1.73-.93,2.12,2.12,0,0,1-.2-2,184.68,184.68,0,0,1,55.48-73.66h0a14.32,14.32,0,0,1,17.5,0,184.85,184.85,0,0,1,55.6,73.66,2.12,2.12,0,0,1-.21,2A2.09,2.09,0,0,1,1049.43,223.32Zm-121.69-4h118.52a179.86,179.86,0,0,0-53-69.15,10.34,10.34,0,0,0-12.43,0h0a180.28,180.28,0,0,0-53.06,69Z"/><circle class="cls-2" cx="990.09" cy="291.1" r="48.2"/><path class="cls-1" d="M990.09,341.35a50.29,50.29,0,1,1,50.29-50.29h0A50.32,50.32,0,0,1,990.09,341.35Zm0-96.55a46.15,46.15,0,1,0,46.15,46.14v0A46.14,46.14,0,0,0,990.09,245Z"/><circle class="cls-2" cx="990.09" cy="291.1" r="29.73"/><path class="cls-1" d="M990.09,322.93a31.83,31.83,0,1,1,31.83-31.83,31.83,31.83,0,0,1-31.83,31.83Zm0-59.46a27.68,27.68,0,1,0,27.68,27.67v0A27.67,27.67,0,0,0,990.09,263.47Z"/><path class="cls-1" d="M1013.67,290.38a2.06,2.06,0,0,1-2-1.73,20.52,20.52,0,0,0-21.44-19.27,2,2,0,1,1-.29-4,24.82,24.82,0,0,1,25.71,22.73,2,2,0,0,1-1.69,2.25Z"/><path class="cls-1" d="M979.64,272.24a2,2,0,0,1-1.61-.77,2,2,0,0,1,.36-2.81,13.29,13.29,0,0,1,5.87-2.46,2,2,0,0,1,2.25,1.74v0a2.06,2.06,0,0,1-1.73,2.26,9.38,9.38,0,0,0-4,1.6A1.86,1.86,0,0,1,979.64,272.24Z"/><path class="cls-2" d="M1034,450.54a1.78,1.78,0,0,1-.65,0,2,2,0,0,1-1.28-2.54,689.13,689.13,0,0,0,20.11-80.46,2,2,0,0,1,2.27-1.62h.06a2,2,0,0,1,1.61,2.34,691.93,691.93,0,0,1-20.11,81.1A2,2,0,0,1,1034,450.54Z"/><path class="cls-1" d="M994.64,525.4a2,2,0,0,1-2-2V485.21a2,2,0,1,1,4,0v38.18A2,2,0,0,1,994.64,525.4Z"/><path class="cls-1" d="M974,545.4a2,2,0,0,1-2-2V503.44a2,2,0,0,1,2-2,2,2,0,0,1,2,2v39.95A2,2,0,0,1,974,545.4Z"/><path class="cls-1" d="M851.18,643.8h-.36a2,2,0,0,1-1.62-2.34v0c0-.81,4-20.56,21.52-29.69,12.67-6.64,28.89-5.76,48.28,2.65a2,2,0,0,1-1.21,3.84,1.59,1.59,0,0,1-.4-.18c-18.14-8-33.19-8.81-44.74-2.77-15.61,8-19.43,26.75-19.47,27A2,2,0,0,1,851.18,643.8Z"/><path class="cls-1" d="M1079.69,619.86a2,2,0,0,1-1.49-.68c-28.6-31.62-50.25-18.75-50.45-18.63A2,2,0,0,1,1025,600a.35.35,0,0,0,0-.08,2.06,2.06,0,0,1,.69-2.78c1-.6,24.7-14.72,55.52,19.35a2,2,0,0,1,0,2.85h0A2.21,2.21,0,0,1,1079.69,619.86Z"/><path class="cls-1" d="M1218,215.39H1104a2,2,0,1,1,0-4h114a2,2,0,0,1,0,4Z"/><path class="cls-1" d="M1218,241.26H1104a2,2,0,0,1-2-2,2.06,2.06,0,0,1,2-2h114a2,2,0,0,1,0,4Z"/><path class="cls-1" d="M1218,267.17H1104a2.06,2.06,0,0,1-2-2,2,2,0,0,1,2-2h114a2,2,0,0,1,0,4Z"/><path class="cls-1" d="M1177.61,293.08H1104a2,2,0,1,1,0-4h73.58a2,2,0,0,1,0,4Z"/><path class="cls-1" d="M1006.39,540.25a2,2,0,0,1-2-2V521.62a2,2,0,0,1,4,0v16.62A2,2,0,0,1,1006.39,540.25Z"/><path class="cls-1" d="M878.74,254.21H716.25a2,2,0,0,1-2-2V156.9a2,2,0,0,1,2-2,2,2,0,0,1,2,2v93.29H878.74a2,2,0,0,1,0,4Z"/><path class="cls-1" d="M733.91,239.53a1.32,1.32,0,0,1-.56,0A2,2,0,0,1,732,237h0c.44-1.41,10.78-34.56,35.2-41,13.64-3.62,17.3,3.18,20.84,9.7s6.4,11.82,17.46,12.31h.72c22.93,0,41-50.81,41.12-51.34a2,2,0,0,1,3.82,1.33c-.8,2.25-19.19,54-45,54h-.84c-13.36-.6-17.5-8-20.84-14.4s-5.71-10.54-16.09-7.77c-22.29,5.88-32.19,38-32.39,38.3A2,2,0,0,1,733.91,239.53Z"/><path class="cls-1" d="M1150.73,549.38A35.24,35.24,0,1,1,1186,514.14h0A35.28,35.28,0,0,1,1150.73,549.38Zm0-66.46A31.22,31.22,0,1,0,1182,514.14h0A31.26,31.26,0,0,0,1150.73,482.92Z"/><path class="cls-1" d="M1178.13,534.94a2,2,0,0,1-1.13-.36l-27.39-18.79a1.93,1.93,0,0,1-.89-1.65V480.91a2,2,0,0,1,2-2,2,2,0,0,1,2,2v32.18l26.56,18.19a2,2,0,0,1,.5,2.8,2,2,0,0,1-1.67.86Z"/><path class="cls-1" d="M1119.6,523.23a2,2,0,0,1-2-1.57,2,2,0,0,1,1.48-2.36h.05l31.14-7.12a2.06,2.06,0,0,1,.89,4L1120,523.27Z"/><path class="cls-1" d="M835.45,519.69H787.9a2,2,0,1,1,0-4h47.55a2,2,0,1,1,0,4Z"/><path class="cls-1" d="M818.11,540.25H787.9a2,2,0,1,1,0-4h30.21a2,2,0,0,1,2,2A2,2,0,0,1,818.11,540.25Z"/><path class="cls-2" d="M1300.43,252.44a17.69,17.69,0,0,1-7.12-16.09,14.6,14.6,0,0,1-16.09-7.56,29.51,29.51,0,0,1-2.22-18.87,27.76,27.76,0,0,1,2.46-51,5.91,5.91,0,0,1-3.38-4.31c-3.62-12.06,3.54-25.58,14.56-31.58a44.24,44.24,0,0,1,36.45-1.08,8.57,8.57,0,0,1,3.3-8.61,21.32,21.32,0,0,1,8.93-3.7,86.35,86.35,0,0,1,48.52,3.5c7.36,2.77,15.45,8.36,14.84,16.09a24.13,24.13,0,0,1,23,38.74,28,28,0,0,1-12.87,47.39c.52-1.81,3.3-.2,4,1.53,4.79,12.07-4,26.19-15.24,33s-27.56,8-36.93-1.37a13.86,13.86,0,0,1-10.46,13.64,37.51,37.51,0,0,1-18.47-.52c-6-1.25-11.43-4.51-17.26-5.84S1305.7,256.23,1300.43,252.44Z"/><path class="cls-3" d="M1345,264.91a56.56,56.56,0,0,1-21.2-4.62,55.18,55.18,0,0,0-8-2.74,31,31,0,0,0-5.43-.56,18.59,18.59,0,0,1-11.07-2.94h0a19.75,19.75,0,0,1-8-15.37,17,17,0,0,1-15.81-9.05,29.71,29.71,0,0,1-2.7-18.7,29.78,29.78,0,0,1,.85-52.67,10.92,10.92,0,0,1-1.49-3.21c-3.7-12.07,3.1-27.12,15.53-33.92a45,45,0,0,1,35.2-2.21,12.08,12.08,0,0,1,4.22-7.28,22.37,22.37,0,0,1,9.78-4,88.38,88.38,0,0,1,49.64,3.54c9.54,3.58,15.37,9.41,16.09,15.89a26.23,26.23,0,0,1,23.66,40.75,29.92,29.92,0,0,1-9.94,47.79,3.71,3.71,0,0,1,.28.61c5.31,13.55-4.3,28.36-16.09,35.36-10.62,6.35-25.79,8.37-36.21,1a17.09,17.09,0,0,1-11.62,11.51A25.35,25.35,0,0,1,1345,264.91Zm-51.73-30.85a1.79,1.79,0,0,1,1.25.44,2,2,0,0,1,.72,1.77,15.82,15.82,0,0,0,6.32,14.36h0a14.91,14.91,0,0,0,9,2.34,31.38,31.38,0,0,1,6.19.68,55.65,55.65,0,0,1,8.53,2.9,52.6,52.6,0,0,0,8.65,2.89,35.84,35.84,0,0,0,17.46.57,11.83,11.83,0,0,0,9-11.19,2,2,0,0,1,1.13-2,2,2,0,0,1,2.29.4c8.89,8.89,24.14,7.24,34.52,1.05s18.71-19.39,14.36-30.5a2,2,0,0,0-.44-.6l-1.17.32a2,2,0,0,1-1.93-.56,2.09,2.09,0,0,1-.48-2,3.05,3.05,0,0,1,2.81-2.25,3.32,3.32,0,0,1,1.09,0,26.89,26.89,0,0,0,16.62-17.75,26.6,26.6,0,0,0-7.12-25.54,2.09,2.09,0,0,1-.21-2.7,22.21,22.21,0,0,0-21.08-35.48,2,2,0,0,1-2.31-1.75,1.62,1.62,0,0,1,0-.38c.48-6.52-6.68-11.63-13.56-14.2a84.4,84.4,0,0,0-47.35-3.42,19.21,19.21,0,0,0-8,3.3,6.7,6.7,0,0,0-2.62,6.47,2,2,0,0,1-.56,2,2,2,0,0,1-2.05.45,42.26,42.26,0,0,0-34.8.92c-10.82,5.92-16.78,18.79-13.6,29.25.28,1,1,2.65,2,3a2,2,0,0,1,1.45,1.85,2.09,2.09,0,0,1-1.33,2,25.75,25.75,0,0,0-2.25,47.31,1.93,1.93,0,0,1,1.09,2.13,26.93,26.93,0,0,0,2,17.58,12.58,12.58,0,0,0,13.8,6.6,1.5,1.5,0,0,1,.56,0Z"/><path class="cls-4" d="M1276,299.75S1207.3,423,1198.08,444.58s31.58,71.65,47.35,59.5S1276,299.75,1276,299.75Z"/><path class="cls-2" d="M1407.68,942.63s2.7,18.1-1.37,25.06a76.12,76.12,0,0,0-9.49,32.19,34.94,34.94,0,0,0,25.75,12.07c16.29,0,32.54-12.56,34.35-18.59s-13.11-70.12-13.11-70.12Z"/><path class="cls-3" d="M1422.57,1013.68a36.49,36.49,0,0,1-27.2-12.8,1.7,1.7,0,0,1-.36-1.32,76.46,76.46,0,0,1,9.74-32.79c3-5.23,1.85-19,1.12-23.86a1.78,1.78,0,0,1,.93-1.89l36.2-19.51a1.84,1.84,0,0,1,1.65,0,2,2,0,0,1,1,1.25c2.49,10.82,14.93,64.89,13.07,71.08S1439.71,1013.68,1422.57,1013.68Zm-23.82-14.53a33.07,33.07,0,0,0,23.82,10.82c15.57,0,31.1-12.06,32.58-17.25,1-3.54-5.59-36.61-12.59-66.87l-32.91,17.79c.57,4.38,2,18.58-1.77,25A73.12,73.12,0,0,0,1398.75,999.15Z"/><path class="cls-3" d="M1295.68,503.28,1374,525.57l18.14-232.78s-64.85-15.81-80.46-8.36S1295.68,503.28,1295.68,503.28Z"/><path class="cls-3" d="M1374,527.58h-.56l-78.17-22.37a2,2,0,0,1-1.49-1.93c0-35.53,1.13-213.22,17.1-220.66s79.17,7.56,81.87,8a2.06,2.06,0,0,1,1.53,2.13l-18.15,232.78a2.05,2.05,0,0,1-.84,1.48A2.12,2.12,0,0,1,1374,527.58Zm-76.44-25.83,74.51,21.2,17.82-228.63c-19.07-4.5-65.57-13.76-77.52-8-9.05,4.42-14.49,114-14.69,215.47Z"/><path class="cls-2" d="M1321.79,900.75v54.47l-25.3,7.44.6-11.14-11.43,11.79s-68,12.55-67.62,3.22,7.24-14.41,15.81-19c9.21-5,33.43-19,33.43-19l3.62-40"/><path class="cls-3" d="M1230.63,971.76a23.52,23.52,0,0,1-13.07-2.34,3.6,3.6,0,0,1-1.37-2.93c.4-10.34,8.33-16.1,16.77-20.6s28.16-16.09,32.59-18.55l3.5-39a1.89,1.89,0,0,1,2-1.65,1.81,1.81,0,0,1,1.66,2v.06l-3.58,40a1.89,1.89,0,0,1-.92,1.41c-.25,0-24.14,14.12-33.48,19.07s-14.56,9.49-14.84,17.5c1.93,3.38,31.58,1.08,64.85-5l11-11.35a1.93,1.93,0,0,1,2.09-.4,1.84,1.84,0,0,1,1.09,1.77l-.48,8.57,21.52-6.32v-53.1a1.81,1.81,0,0,1,1.77-1.85h0a1.85,1.85,0,0,1,1.85,1.85V955.3a1.8,1.8,0,0,1-1.33,1.77l-25.3,7.44a1.88,1.88,0,0,1-1.65-.32,1.74,1.74,0,0,1-.68-1.53l.32-6.27-8,8.25a1.77,1.77,0,0,1-1,.52A384,384,0,0,1,1230.63,971.76Z"/><path class="cls-3" d="M1443.29,525.24l21,413.65s-2,15.12-34,17-28.72-5.84-28.72-5.84l-50-303.41L1331.12,916.2l-68.79,4.46L1276,495.84Z"/><path class="cls-3" d="M1420.92,958.2c-11.51,0-18.31-1.65-20.64-5a4.41,4.41,0,0,1-.84-3.26l-47-286.44-19.19,252.77a2,2,0,0,1-1.89,1.85l-68.92,4.38a2,2,0,0,1-2.13-2L1274,495.67a2,2,0,0,1,2.06-2,1.63,1.63,0,0,1,.31,0l167.28,29.53a2,2,0,0,1,1.65,1.89l20.84,413.65c0,1-2.62,17.14-35.81,19.07C1426.91,958.08,1423.77,958.2,1420.92,958.2Zm-17.5-7.4.36.36c1.25,1.21,6.32,4,26.31,2.73,29.57-1.73,32.18-15.12,32.18-15.28l-20.79-411.68-163.54-28.68-13.56,420.28,65-4,20.36-267.77a2,2,0,0,1,1.93-1.85,2,2,0,0,1,2,1.65L1403.5,950a2.17,2.17,0,0,1,0,1.13Z"/><path class="cls-4" d="M1378,270.55s-26.83,280.92-14.8,297,86.25,28.84,91.8-2.38c9.14-51.33,4-235.75-6.67-253.09C1405.15,273.68,1378,270.55,1378,270.55Z"/><path class="cls-4" d="M1276,299.75s-38.38,255.14-31.14,262.55,46.59,17.41,57.45,10S1328,271.87,1328,271.87A108.71,108.71,0,0,0,1276,299.75Z"/><path class="cls-2" d="M1330.12,266.81l-3.3,27.23a22.49,22.49,0,0,0,26.83,14.73c20.76-4.39,21-16.42,21-16.42s2.82-61.39,2.82-61.55a17.78,17.78,0,0,0-2-4c-3.1-7-7.52-16.62-6.2-24.38a29.52,29.52,0,0,1,9.1-16.66,17.51,17.51,0,0,1-23.11-8.87,17.19,17.19,0,0,1-1.31-4.48c0,2.77-2.46,4.82-4.79,6.35a19.18,19.18,0,0,1-12.07,4c-5.71-.65-10-5.52-15.33-7.61a8.37,8.37,0,0,1-3.14,10.5,15.39,15.39,0,0,1-11.58,1.69c2.61.52.4,29.61.36,32.19a210.26,210.26,0,0,0,.64,27C1310,262.62,1330.12,266.81,1330.12,266.81Z"/><path class="cls-3" d="M1347.58,311.42c-17.26,0-22.73-16.57-22.77-16.78a2,2,0,0,1,0-.84l3.06-25.47c-5.27-1.52-20.12-7.08-21.89-22a194.94,194.94,0,0,1-.68-25.23v-5.23c1.16-19.51.8-25.62.24-27.23a2,2,0,0,1,1.49-3.56l.12,0h0a14,14,0,0,0,10.1-1.37,6.48,6.48,0,0,0,2.49-8.05,2,2,0,0,1,.77-2.73,2,2,0,0,1,1.72-.12,35.11,35.11,0,0,1,6.44,3.62,20.56,20.56,0,0,0,8.41,4,17.49,17.49,0,0,0,10.74-3.58c2.62-1.69,4-3.22,4-4.66a2.07,2.07,0,0,1,1.89-2,2,2,0,0,1,2.14,1.69,15.48,15.48,0,0,0,21.6,12.07,2,2,0,0,1,2.49.73,2,2,0,0,1-.32,2.57,27.28,27.28,0,0,0-8.49,15.53c-1.16,6.88,2.82,16.09,5.72,22.45l.36.76a8.83,8.83,0,0,0,.56,1,8.58,8.58,0,0,1,1.61,4l-2.82,61.67c0,.53-.52,13.68-22.6,18.27A31.18,31.18,0,0,1,1347.58,311.42Zm-18.83-17.62a20.12,20.12,0,0,0,24.14,13c18.75-4,19.39-14.08,19.43-14.52s2.78-60.67,2.82-61.55l-1-1.77a10.37,10.37,0,0,1-.84-1.49l-.33-.72c-3.09-7.08-7.36-16.7-6-24.79a30.62,30.62,0,0,1,5.35-12.87,20.39,20.39,0,0,1-10.78-2.33,20.16,20.16,0,0,1-8.33-9.05,18.49,18.49,0,0,1-3.3,2.61,21.07,21.07,0,0,1-13.35,4,23.89,23.89,0,0,1-10.14-4.5l-2.17-1.41a11.2,11.2,0,0,1-4.83,8.45,15.64,15.64,0,0,1-9.74,2.41,174.6,174.6,0,0,1-.44,26.67v5a194.73,194.73,0,0,0,.68,24.75c1.73,14.84,20.12,18.86,20.48,18.9a2.06,2.06,0,0,1,1.57,2.22Zm-22.29-104.6"/><path class="cls-2" d="M1326.34,216.84s-12.07,15.73-9.54,18.79,9.66,1.69,9.66,1.69"/><path class="cls-3" d="M1322.92,239.61a9.56,9.56,0,0,1-7.53-2.86c-2.73-3.54,3.71-13.47,9.54-21.2a2,2,0,0,1,2.82-.4h0a2,2,0,0,1,.45,2.75l0,.07c-5.35,7.12-9.78,14.84-9.46,16.57,1,1.17,5.11,1.17,7.57.73a2,2,0,0,1,2.37,1.56h0a2,2,0,0,1-1.58,2.37h0A22.52,22.52,0,0,1,1322.92,239.61Z"/><path class="cls-3" d="M1330.12,266.81s16.09,0,23.45-4.35c0,0-6.27,18.79-23.65,23.41Z"/><path class="cls-3" d="M1329.92,287.89a2.08,2.08,0,0,1-1.25-.41,1.91,1.91,0,0,1-.76-1.61l.2-19.06a2,2,0,0,1,2-2h0c.84,0,15.65,0,22.41-4a2,2,0,0,1,2.29,0,2.08,2.08,0,0,1,.64,2.21c-.28.81-6.84,19.84-25.06,24.75Zm2.17-19.07v14.32a35.31,35.31,0,0,0,17.74-16.82,72.88,72.88,0,0,1-17.74,2.62Z"/><path class="cls-3" d="M1464.65,497.61h-.2c-2.62-.33-63.77-7.41-83.2-18.31a2,2,0,0,1-.8-2.67l0-.07a2,2,0,0,1,2.73-.76c18.71,10.5,81.07,17.7,81.67,17.78a2,2,0,0,1-.24,4Z"/><path class="cls-4" d="M1448.36,312.1s121.33,173,69.35,217.73c-47.63,40.91-152.87-27-152.87-27l6.35-57.44s83.32,46.38,84.69,24.78c2-31.78-38.86-75.19-38.86-75.19a59.26,59.26,0,0,1-3.71-46.07A54,54,0,0,1,1448.36,312.1Z"/><path class="cls-3" d="M1259.07,451.54h0a2,2,0,0,1-1.69-2.29h0c3.74-25.1,21.73-121,21.93-121.94a2,2,0,1,1,3.94.77c-.2,1-18.18,96.55-21.88,121.77A2.05,2.05,0,0,1,1259.07,451.54Z"/><path class="cls-2" d="M1242.14,527.38h121a15.21,15.21,0,0,0,14.56-18.51L1352,384.52a16.07,16.07,0,0,0-15.4-12.83H1217.35a16.06,16.06,0,0,0-15.44,19.59l25.66,124A15,15,0,0,0,1242.14,527.38Z"/><path class="cls-3" d="M1363.11,529.19h-121a17,17,0,0,1-16.38-13.6l-25.62-124a18.26,18.26,0,0,1,3.7-15.33,17.46,17.46,0,0,1,13.51-6.48h119.21a17.82,17.82,0,0,1,17.21,14.33l25.71,124.31A17.37,17.37,0,0,1,1376,523,16.66,16.66,0,0,1,1363.11,529.19ZM1217.35,373.54a13.66,13.66,0,0,0-10.66,5.11,14.64,14.64,0,0,0-3,12.06l25.66,124a13.2,13.2,0,0,0,12.76,10.66h121a13,13,0,0,0,10-4.82,13.67,13.67,0,0,0,2.77-11.47l-25.75-124.35a14.08,14.08,0,0,0-13.59-11.35Z"/><path class="cls-2" d="M1388,464.94a28.08,28.08,0,0,0-1-13,25.91,25.91,0,0,0-5.35-7.56,127.56,127.56,0,0,0-12.06-11.3c-4-3.14-8.57-6.2-13.4-5.15a30.13,30.13,0,0,0,11.46,18,15.4,15.4,0,0,0-7.36-4.87c-1.93-.6-4.54-.52-5.35,1.41a4.8,4.8,0,0,0,.44,3.74,33,33,0,0,0,10.06,12.63l-4.67-3a9.57,9.57,0,0,0-4-1.73,3.38,3.38,0,0,0-3.58,1.85,4.65,4.65,0,0,0,.32,3.26,16.81,16.81,0,0,0,5.8,7.2,13.06,13.06,0,0,0-5.88-2.86,4.64,4.64,0,0,0-5.11,3.22,6,6,0,0,0,.73,3.5c3.46,6.88,11.7,7.64,15.73,13.44,3,4.3,1.61,8.93,7.72,11.54C1387.81,501.63,1387.17,474.11,1388,464.94Z"/><path class="cls-3" d="M1377,498.25a12.45,12.45,0,0,1-5-1.13,11.28,11.28,0,0,1-6.8-8,15.71,15.71,0,0,0-1.81-4,20.26,20.26,0,0,0-6.64-5.23,21.32,21.32,0,0,1-9.21-8.4,7.35,7.35,0,0,1-.93-4.83,6.48,6.48,0,0,1,6-4.83,13.14,13.14,0,0,1-.73-1.57,6.46,6.46,0,0,1-.36-4.75,5.27,5.27,0,0,1,5-3.17,33.71,33.71,0,0,1-2.78-5.07,6.43,6.43,0,0,1-.48-5.35,5.23,5.23,0,0,1,5.19-2.94,32.41,32.41,0,0,1-4-10.3,2,2,0,0,1,1-2.7l.19-.08c5.76-1.2,11.07,2.34,15.05,5.56a122.83,122.83,0,0,1,12.31,11.5,27.31,27.31,0,0,1,5.75,8.05,28.93,28.93,0,0,1,1.09,13.88h0a24.42,24.42,0,0,1-.28,4.26c-.48,9.26-1.29,23.21-8,27.52A8.48,8.48,0,0,1,1377,498.25Zm-23.82-32.71a2.65,2.65,0,0,0-2.61,1.61,4,4,0,0,0,.56,2.25,17.86,17.86,0,0,0,7.64,6.76,22.71,22.71,0,0,1,8,6.4,18.41,18.41,0,0,1,2.33,5.15,7.31,7.31,0,0,0,4.55,5.71,6,6,0,0,0,5.83,0c5.15-3.22,5.92-16.94,6.36-24.14a20.6,20.6,0,0,1,.28-4.42,26,26,0,0,0-.85-12.07,23.1,23.1,0,0,0-4.94-7,125.49,125.49,0,0,0-12.07-11.1,19.08,19.08,0,0,0-9.54-4.91,28.52,28.52,0,0,0,6.6,11.34,16.89,16.89,0,0,1,4,3.42,2,2,0,0,1,0,2.7,2,2,0,0,1-2.65.24,32.29,32.29,0,0,1-3.78-3.22,13.47,13.47,0,0,0-3-1.37c-1.29-.36-2.7-.24-2.9.28a3.1,3.1,0,0,0,.45,2.14,30.22,30.22,0,0,0,9.41,11.86,1.94,1.94,0,0,1,.48,2.69l0,.05a2,2,0,0,1-2.73.56l-4.67-2.93a7.79,7.79,0,0,0-3.06-1.45,1.44,1.44,0,0,0-1.49.56,2.93,2.93,0,0,0,.32,1.77,14.21,14.21,0,0,0,4.63,6l.48.36a2,2,0,0,1,.51,2.74l0,0a2,2,0,0,1-2.78.53l-.52-.37a10.32,10.32,0,0,0-4.43-2.13ZM1388,465"/><path class="cls-2" d="M1203.8,456.29c.6-8.33,3.09-17.54,10.13-21.73a15,15,0,0,1,14.37-.28,3,3,0,0,1,1.73,1.85c.28,1.33-.93,2.42-2,3.1a27.24,27.24,0,0,1-7.53,3.26,10.46,10.46,0,0,1,10.42,6.2,16.45,16.45,0,0,1-10.3,5.63,6.82,6.82,0,0,1,7.28,2.57c2.62,3.78.53,4.83-2.33,7.08a6.3,6.3,0,0,1,3.74.36,3.29,3.29,0,0,1,1.93,3.14c-.2,2.42-3.13,3.18-5.19,4.39a8.33,8.33,0,0,0-3.54,4.38,16.35,16.35,0,0,1-1,3.06c-4,7.2-13,1.21-15.17-4A42.8,42.8,0,0,1,1203.8,456.29Z"/><path class="cls-3" d="M1216.27,484.65h-.48a14.63,14.63,0,0,1-11.27-8.37,45.76,45.76,0,0,1-2.73-20.11h0c.56-8.05,2.93-18.47,11.14-23.34a16.9,16.9,0,0,1,16.29-.32,4.89,4.89,0,0,1,2.78,3.22c.24,1.13,0,3.26-2.9,5.19l-1.77,1.05a12.33,12.33,0,0,1,5.43,5.91,2,2,0,0,1-.32,2.09,18,18,0,0,1-4.63,4,7.43,7.43,0,0,1,1.73,1.85c2.18,3.09,1.81,5.19.65,6.76h0a5.3,5.3,0,0,1,3.06,5.1c-.25,3-2.9,4.31-4.79,5.23l-1.37.73a6,6,0,0,0-2.66,3.3,7.49,7.49,0,0,0-.28.92,9.76,9.76,0,0,1-.88,2.46A8.05,8.05,0,0,1,1216.27,484.65Zm-10.46-28.16a41.82,41.82,0,0,0,2.37,18.22,10.78,10.78,0,0,0,7.85,5.92,4,4,0,0,0,3.74-2.29,8.63,8.63,0,0,0,.52-1.53,4.16,4.16,0,0,1,.32-1.17,10,10,0,0,1,4.43-5.47l1.61-.89c1.53-.72,2.53-1.28,2.61-2s-.36-.88-.84-1.12a4.59,4.59,0,0,0-2.54-.21,2,2,0,0,1-2.27-1.7,2,2,0,0,1,.7-1.84l.77-.6c2.45-1.89,2.45-1.89,1.17-3.74s-2.62-2.09-5.36-1.73a2,2,0,0,1-2.24-1.66s0-.07,0-.11a2,2,0,0,1,1.73-2.25,14.1,14.1,0,0,0,8.05-4,8.05,8.05,0,0,0-7.73-4,2,2,0,0,1-.76-3.94,25.64,25.64,0,0,0,7-3c.8-.48,1.08-.88,1.13-1l-.73-.44a12.71,12.71,0,0,0-12.35.24c-6.72,4-8.69,13.16-9.17,20.12Z"/><path class="cls-3" d="M1308.6,224.24a14.89,14.89,0,1,1,14.88-14.88A14.89,14.89,0,0,1,1308.6,224.24Zm0-25.75a10.87,10.87,0,1,0,10.86,10.87A10.88,10.88,0,0,0,1308.6,198.49Z"/><path class="cls-3" d="M1341.75,224.24a14.89,14.89,0,1,1,14.88-14.88,14.88,14.88,0,0,1-14.88,14.88Zm0-25.75a10.87,10.87,0,1,0,10.86,10.87,10.88,10.88,0,0,0-10.86-10.87Z"/><path class="cls-3" d="M1328.43,248.82a34.25,34.25,0,0,1-14.81-3.7,2,2,0,0,1-.76-2.73,2,2,0,0,1,2.74-.77c.76.4,18.66,10.22,29.61-6.35a2,2,0,1,1,3.37,2.21A23.22,23.22,0,0,1,1328.43,248.82Z"/><path class="cls-3" d="M1328.87,211.37h-7.4a2,2,0,1,1,0-4h7.4a2,2,0,0,1,2,2A2,2,0,0,1,1328.87,211.37Z"/><path class="cls-3" d="M1384.31,219.41a1.14,1.14,0,0,1-.52,0l-29.69-8a2.08,2.08,0,1,1,1-4l29.69,8a2,2,0,0,1,1.41,2.46A2,2,0,0,1,1384.31,219.41Z"/><path class="cls-2" d="M1367.69,222.23a14,14,0,0,1,4.83-7.24,16.35,16.35,0,0,1,13-3.66,11.06,11.06,0,0,1,6.59,12.07,18.68,18.68,0,0,1-11.34,15.37,16.11,16.11,0,0,1-12.55-.73"/><path class="cls-3" d="M1375.46,241.7a18.14,18.14,0,0,1-8-1.89,2,2,0,0,1-.91-2.63l0-.06a2,2,0,0,1,2.69-.93h0a14.27,14.27,0,0,0,11,.68,16.88,16.88,0,0,0,10-13.71,9.12,9.12,0,0,0-5.19-9.9,14.71,14.71,0,0,0-11.26,3.34,11.82,11.82,0,0,0-4,6.15,2.09,2.09,0,0,1-4-1.08,15.76,15.76,0,0,1,5.51-8,18.28,18.28,0,0,1,14.85-4,13,13,0,0,1,8.05,14.16,20.61,20.61,0,0,1-12.6,17A17.57,17.57,0,0,1,1375.46,241.7Z"/><path class="cls-3" d="M1443.45,476.56c-18.55,0-45.7-15-49.61-17.21a2,2,0,0,1-.74-2.76,2,2,0,0,1,2.75-.74c13,7.4,48.88,24.13,58.34,13s-18.87-66.3-30.62-86.57a2,2,0,0,1,1-2.67,2,2,0,0,1,2.45.65c4.47,7.73,43.41,75.68,30.26,91.17A17.4,17.4,0,0,1,1443.45,476.56Z"/><path class="cls-3" d="M1457.61,545h-.28c-29.73-4.47-68.39-28.17-70.08-29.05a2,2,0,0,1-.65-2.77h0a2,2,0,0,1,2.7-.69l.08,0c.36.2,39.62,24.14,68.39,28.52a2,2,0,0,1,1.71,2.14s0,.08,0,.12A2,2,0,0,1,1457.61,545Z"/><rect class="cls-2" x="405.93" y="600.1" width="118.08" height="143.58" transform="translate(-295.56 970.62) rotate(-76.76)"/><path class="cls-3" d="M521.37,747.68h-.44L381.17,714.77a1.82,1.82,0,0,1-1.38-2.16l0-.06,27-114.93a1.85,1.85,0,0,1,2.21-1.37l139.76,32.91a1.86,1.86,0,0,1,1.17.8,1.88,1.88,0,0,1,.2,1.41l-27,114.94a1.92,1.92,0,0,1-.81,1.12A1.83,1.83,0,0,1,521.37,747.68ZM383.79,711.47,520,743.65,546.2,632.3,410,600.11Z"/><path class="cls-2" d="M493.58,575.81s-2.34,59.34-8.49,55.8c-8-4.71-4.71-18.38-4.71-18.38l-27.28-5.76s11.59-39.38,12.36-40.71S493.58,575.81,493.58,575.81Z"/><path class="cls-3" d="M485.61,633.58a2.85,2.85,0,0,1-1.45-.4c-7.4-4.26-6.64-14.32-6-18.51l-25.47-5.39a1.92,1.92,0,0,1-1.2-.88,2,2,0,0,1,0-1.45c4.34-14.8,11.78-39.79,12.55-41.11s1.53-2.7,30.33,8.28a1.77,1.77,0,0,1,1.21,1.77c-.65,16.09-2.74,54.19-8.45,57.33A2.68,2.68,0,0,1,485.61,633.58Zm-30.17-27.51,25.3,5.35a2,2,0,0,1,1.21.84,1.91,1.91,0,0,1,0,1.41s-2.86,11.75,3.34,16.09c2.65-4,5.23-29.61,6.19-52.62-10.34-4-21.48-7.76-24.94-8.49C465.21,573.12,459.54,592.19,455.44,606.07Z"/><path class="cls-2" d="M535.7,909.28s-2.26,37.17-2.14,51.25,0,27.32,16.54,24.14c9-1.65,58.49-14.16,53.95-23.37s-36.69-11.59-36.69-11.59l2.89-42.48"/><path class="cls-3" d="M545.71,987.08a12.5,12.5,0,0,1-8.32-2.65c-5.47-4.51-5.56-13.64-5.64-23.29v-.57c0-14,2.1-51,2.1-51.41a1.8,1.8,0,0,1,1.92-1.69h0a1.77,1.77,0,0,1,1.73,1.8v.13c0,.36-2.22,37.25-2.09,51.13v.57c0,8.77,0,17.09,4.3,20.51A12.07,12.07,0,0,0,549.78,983c11.66-2.17,49-12.55,52.54-19.67a1.07,1.07,0,0,0,0-1.09c-3-6-23.13-9.65-35.16-10.54a1.84,1.84,0,0,1-1.69-2l2.89-42.48a1.83,1.83,0,1,1,3.66.24l-2.77,40.67c7.44.69,32.18,3.62,36.21,12.47a4.77,4.77,0,0,1,0,4.35c-5.52,10.94-54.72,21.52-55.2,21.6A24.83,24.83,0,0,1,545.71,987.08Z"/><path class="cls-2" d="M651.32,913.7s-2.25,37.18-2.13,51.26,0,27.31,16.53,24.14c9-1.65,62.4-10.18,57.85-19.4S683,954.14,683,954.14l2.9-42.49"/><path class="cls-3" d="M661.34,991.51a12.53,12.53,0,0,1-8.33-2.66c-5.47-4.5-5.55-13.63-5.63-23.29v-.64c0-14,2.09-51,2.09-51.38a1.85,1.85,0,0,1,1.93-1.73,1.78,1.78,0,0,1,1.74,1.81.49.49,0,0,0,0,.12c0,.37-2.21,37.3-2.09,51.14v.56c0,8.77,0,17.1,4.3,20.52a12.1,12.1,0,0,0,10.06,1.41l2.81-.53c41.56-7.28,52.3-12.47,53.67-15.57v-.68c-3-6.07-25.67-12.07-39.26-14.56a1.78,1.78,0,0,1-1.49-1.93L684,911.61a1.84,1.84,0,1,1,3.67.24l-2.74,41c7.72,1.45,35.89,7.32,40.23,16.09a4.27,4.27,0,0,1,0,4c-2.94,5.84-20.11,11.23-56.32,17.54l-2.78.53A29,29,0,0,1,661.34,991.51Z"/><path class="cls-3" d="M530.91,489.68s-11.43,396-5.39,429.9c0,0,23.21,26.19,53.3,13.11l38.1-321.19L637,932.41s19.27,19.15,59.66-12.67V475.68Z"/><path class="cls-3" d="M654.54,940.22a27.21,27.21,0,0,1-18.95-6.4,1.94,1.94,0,0,1-.61-1.29L616.36,633.82,580.92,932.93a2.1,2.1,0,0,1-1.21,1.61c-31.1,13.48-55.4-13.35-55.64-13.63a2.15,2.15,0,0,1-.48-1c-6-33.67,4.95-414.13,5.39-430.46a2,2,0,0,1,1.85-1.93l165.67-14a2,2,0,0,1,2.16,1.84,1,1,0,0,1,0,.17V919.74a2.06,2.06,0,0,1-.77,1.61C679.12,936.11,664.71,940.22,654.54,940.22ZM639,931.45c3.26,2.65,21,14.24,55.68-12.68V477.85L533,491.53c-.8,28.89-11,391.52-5.47,427.12,3.1,3.3,23.37,23.26,49.56,12.63l37.94-320a1.85,1.85,0,0,1,1.92-1.78H617a2,2,0,0,1,2,1.86Z"/><path class="cls-2" d="M868.4,318.78s22.05-12.47,23.65-13.84,9.3-21.76,10.54-23.09,4.35-3.74,5.4-.92-1.21,18.46-1.21,18.46,27.11-21.2,29-20.11,3.3,3.54-1,9.49a57.49,57.49,0,0,1-13.48,11.79s9.54,10.7,8,14.36-37.66,27.92-37.66,27.92"/><path class="cls-3" d="M891.89,344.77a1.78,1.78,0,0,1-1.53-.8,1.87,1.87,0,0,1,.48-2.58h0c17.14-11.46,35.64-24.74,37-27.11.44-1.33-3.3-7.28-8.05-12.43a1.85,1.85,0,0,1-.44-1.49,1.76,1.76,0,0,1,.85-1.29,55.72,55.72,0,0,0,12.95-11.26c2.41-3.42,2.57-5.07,2.41-5.76a1.37,1.37,0,0,0-.44-.76,253.29,253.29,0,0,0-27.4,19.55,1.79,1.79,0,0,1-2,0,1.88,1.88,0,0,1-.92-1.85,80.57,80.57,0,0,0,1.32-17.54A5,5,0,0,0,903.8,283c-1,1-2.45,5.39-4,9.21-4,9.9-5.59,13.12-6.68,14S873,318.3,869,320.27a1.85,1.85,0,0,1-1.81-3.22c8.45-4.74,22.25-12.67,23.42-13.68a127.78,127.78,0,0,0,5.63-12.59,57.52,57.52,0,0,1,4.75-10.3c.72-.76,3.29-3.21,5.79-2.77a3.65,3.65,0,0,1,2.65,2.45,52.34,52.34,0,0,1-.52,14.89C933.61,276,935.26,277,936.43,277.67a5.15,5.15,0,0,1,2.57,3.5,11.6,11.6,0,0,1-3,8.65A53.8,53.8,0,0,1,924,300.88c3.38,4,8.49,10.94,7.16,14.6s-27.32,21.45-38.38,28.85A1.93,1.93,0,0,1,891.89,344.77Z"/><path class="cls-4" d="M677.63,296.46s-39.07-12.8-141.93,7c-17.87,3.42-26.07,170-12.6,270.15l180.2-1.49S733,310.33,677.63,296.46Z"/><path class="cls-4" d="M528.9,279.32s-39,124.71-41.48,135.77S458.5,573,458.5,573l40.95,13.75s59.38-137.26,55.6-175.8S528.9,279.32,528.9,279.32Z"/><path class="cls-4" d="M674.25,296.54c31.34,3,96.55,78.65,101.86,76.43s101.94-68.39,101.94-68.39l30.58,33.47S815,446.67,796,458.18C766.7,475.68,642.35,396,642.35,396S642.91,293.52,674.25,296.54Z"/><path class="cls-2" d="M480.5,613.83s-12.67-6.88-7.08-18.55"/><path class="cls-3" d="M480.5,615.68a1.82,1.82,0,0,1-.88-.24c-4.91-2.66-12.88-10.46-8.05-21a1.85,1.85,0,1,1,3.34,1.61c-4.79,10,5.83,16.09,6.28,16.09a1.85,1.85,0,0,1-.89,3.46Z"/><path class="cls-3" d="M769.39,460.55H769c-19.67-4-58.17-26.79-108.62-64.36l-2.29-1.73a1.86,1.86,0,0,1-.53-2.54,1.81,1.81,0,0,1,2.46-.56,29.78,29.78,0,0,1,2.57,1.89c49.89,37.29,87.86,60,107,63.76a1.86,1.86,0,0,1,1.45,2.18A1.88,1.88,0,0,1,769.39,460.55Z"/><path class="cls-3" d="M664.39,219.5a13.24,13.24,0,1,1,13.24-13.24,13.23,13.23,0,0,1-13.24,13.24Zm0-22.45a9.21,9.21,0,1,0,9.22,9.21,9.21,9.21,0,0,0-9.22-9.21Z"/><path class="cls-2" d="M659,215s13.08,21.56,10.06,25.79-12.47,1-12.47,1"/><path class="cls-3" d="M663.39,244.8a26.11,26.11,0,0,1-7.49-1.29,2.12,2.12,0,0,1,1.33-4c2.62.92,8.53,2,10.18-.24,1.05-1.93-3.66-13-10.1-23.58a2,2,0,0,1,.62-2.72h0a2,2,0,0,1,2.77.64h0c4,6.84,13.4,23.21,9.94,28.16A8.48,8.48,0,0,1,663.39,244.8Z"/><path class="cls-2" d="M657.11,187.15c8.57,7.52,5.43,22.69,4.95,32.59q-1,20.91-2.9,41.8c-.8,8.81-23.69,8-27.64,5.31l4.83,22.08-50-7.32,3.09-28.8s-3.21-40.23,6.44-57.77a31.19,31.19,0,0,1,28.64-16.1S648.74,179.75,657.11,187.15Z"/><path class="cls-3" d="M636.35,290.94h-.28l-50-7.32a2,2,0,0,1-1.68-2.21l3-28.81c0-1.28-3.14-40.55,6.68-58.53A32.83,32.83,0,0,1,624.69,177c.92,0,25,.89,33.75,8.65,8,7,6.84,19.11,6,28.89,0,1.89-.32,3.7-.4,5.35-.64,13.92-1.61,28.16-2.9,41.84a8,8,0,0,1-5.55,6.71,39.24,39.24,0,0,1-21.36,1.53l4,18.59a2,2,0,0,1-.48,1.77A2,2,0,0,1,636.35,290.94Zm-47.79-11,45.22,6.6-4-19.23a2,2,0,0,1,.85-2.09,2,2,0,0,1,2.29,0,33.77,33.77,0,0,0,21.24-.45c2-.92,3.1-2.09,3.22-3.46,1.29-13.79,2.26-27.79,2.9-41.67,0-1.69.24-3.54.4-5.48.77-8.89,1.69-20.11-4.67-25.54h0c-7.72-6.8-31.09-7.65-31.29-7.65a28.91,28.91,0,0,0-26.84,15c-9.25,16.94-6.23,56.32-6.19,56.64Z"/><path class="cls-2" d="M576.53,288.41l4.71-15.25,61.39,5.92,3.5,14A81.79,81.79,0,0,1,576.53,288.41Z"/><path class="cls-3" d="M616.92,300.76a87.6,87.6,0,0,1-41.32-10.58,2,2,0,0,1-1-2.37l4.55-15.25a2.05,2.05,0,0,1,2.13-1.41L642.83,277a2,2,0,0,1,1.73,1.49l3.54,14a2,2,0,0,1-1.09,2.3A74.56,74.56,0,0,1,616.92,300.76ZM579.19,287.4A81.22,81.22,0,0,0,644,291.91L641.22,281l-58.33-5.68Z"/><path class="cls-2" d="M606.58,256.43c0,23.69,23.82,71.61,3.38,90.43-19.19,17.7-52.3,22.33-77.08,19.6-36.21-4-55.24-29.09-40.23-64.37,7.28-17.22,20.12-31.42,30.78-46.79A226.27,226.27,0,0,0,546.92,212c5.31-12.91,9.25-28.16,16.41-40.23,15.86-26.71,43.86-37.17,73.3-28.56,12.64,3.7,36.94,18.91,31,35.36-1.45,4-6.4,10.1-10.34,8.41-1.12,7.8-6.15,11.55-12.27,16.53a216.23,216.23,0,0,1-20,13.12,41.49,41.49,0,0,0-12.07,10.86,42.92,42.92,0,0,0-6,19.67A81.8,81.8,0,0,0,606.58,256.43Z"/><path class="cls-3" d="M546.2,369.19a129.84,129.84,0,0,1-13.52-.72c-19.55-2.1-34.4-10.3-41.92-23s-7.16-27.4,0-44.26a168.21,168.21,0,0,1,21.93-34.8c3-4,6.11-8,9-12.35A227.52,227.52,0,0,0,545,211.13c1.73-4.27,3.3-8.65,5-13.32a155.75,155.75,0,0,1,11.58-27,63.76,63.76,0,0,1,75.6-29.45c9.41,2.73,25.3,11.79,31.09,23.21a18,18,0,0,1,1.21,14.77,17.74,17.74,0,0,1-8,9.41,7.65,7.65,0,0,1-2.58.6c-1.69,6.92-6.4,10.74-11.79,15.13l-.84.68A107,107,0,0,1,633,214.06c-2.25,1.37-4.5,2.74-6.72,4a40.46,40.46,0,0,0-11.54,10.62A41.22,41.22,0,0,0,609,247.45a72.15,72.15,0,0,0-.45,9.06h0A137.78,137.78,0,0,0,613.74,285c5.76,23.37,12.07,49.88-2.41,63.4C594.47,363.88,568.08,369.19,546.2,369.19Zm70.56-226.74A59.45,59.45,0,0,0,564.9,173a154.23,154.23,0,0,0-11.26,26.31c-1.57,4.51-3.26,9.33-5,13.36a227.31,227.31,0,0,1-23.69,43.69c-2.94,4-6,8.36-9.18,12.47a166.71,166.71,0,0,0-21.4,34c-6.52,15.53-6.56,29.57,0,40.55,6.84,11.63,20.64,19.11,38.86,21.08,22.65,2.46,56-1.08,75.51-19.11,12.92-12.06,6.72-37.21,1.25-59.5a138.21,138.21,0,0,1-5.27-29.44h0a74.75,74.75,0,0,1,.48-9.46,44.28,44.28,0,0,1,6.2-20.48A42.64,42.64,0,0,1,623.88,215c2.25-1.49,4.55-2.9,6.84-4.27a109.57,109.57,0,0,0,12.83-8.6l.85-.65c5.67-4.62,9.73-8,10.74-14.64a2,2,0,0,1,2.31-1.67,2.54,2.54,0,0,1,.47.14,2.36,2.36,0,0,0,1.77,0,13.77,13.77,0,0,0,5.87-7.08,14.09,14.09,0,0,0-1-11.59c-5.19-10.26-20.11-18.7-28.64-21.16A68.75,68.75,0,0,0,616.76,142.45Z"/><path class="cls-2" d="M659.24,251.12s-11.06,6.23-16.41-5.19"/><path class="cls-3" d="M652.57,254.82a11.93,11.93,0,0,1-3.75-.57,13.06,13.06,0,0,1-7.8-7.44,2,2,0,0,1,3.66-1.73h0a9.24,9.24,0,0,0,5.31,5.35,11.87,11.87,0,0,0,8.25-1.08,2,2,0,0,1,2.73.79h0a1.94,1.94,0,0,1-.67,2.65l-.09,0A16.85,16.85,0,0,1,652.57,254.82Z"/><path class="cls-3" d="M601.51,223.24a1.51,1.51,0,0,1-.52,0,2,2,0,0,1-1.41-2.46c2.17-7.52,3.78-7.64,4.75-7.72s47.07-5.75,71-8.69a2,2,0,0,1,2.25,1.73,2.05,2.05,0,0,1-1.77,2.25c-6.76.85-63.57,8.05-70.57,8.65a25.69,25.69,0,0,0-1.81,4.87A2.05,2.05,0,0,1,601.51,223.24Zm3.18-6.24"/><path class="cls-2" d="M631.93,222.91a19.25,19.25,0,0,0-3.54-9.73,27.79,27.79,0,0,0-4.83-6.52,9.15,9.15,0,0,0-7.4-2.57,8.58,8.58,0,0,0-5.68,4,16.92,16.92,0,0,0-2,6.84,30,30,0,0,0,12.8,27.11l-.73-.88"/><path class="cls-3" d="M621.27,244.16a2.06,2.06,0,0,1-1.13-.37,32.19,32.19,0,0,1-13.64-28.92,18,18,0,0,1,2.29-7.73,10.33,10.33,0,0,1,7-5,11.1,11.1,0,0,1,9.14,3,29.19,29.19,0,0,1,5.19,7,21,21,0,0,1,4,10.78,2.14,2.14,0,0,1-2,2,2,2,0,0,1-2-2.05h0a17.33,17.33,0,0,0-3.26-8.65,25.84,25.84,0,0,0-4.43-6.07,7.32,7.32,0,0,0-5.75-2.09,6.51,6.51,0,0,0-4.26,3.18,14,14,0,0,0-1.73,6A28.15,28.15,0,0,0,621,239.37a1.85,1.85,0,0,1,1.29.68l.73.85a2,2,0,0,1,0,2.65A2.12,2.12,0,0,1,621.27,244.16Z"/><ellipse class="cls-3" cx="655.34" cy="203.99" rx="1.97" ry="4.99" transform="translate(-3.12 10.32) rotate(-0.9)"/><path class="cls-3" d="M520.25,549.54a1.77,1.77,0,0,1-1.81-1.69c-3.5-47,3.5-173,3.58-174.23a1.81,1.81,0,0,1,1.88-1.74H524a1.88,1.88,0,0,1,1.73,2c0,1.24-7.08,126.92-3.58,173.71a1.84,1.84,0,0,1-1.69,2Z"/><path class="cls-3" d="M537.19,553.53a1.86,1.86,0,0,1,0-3.67l160.92-8A1.8,1.8,0,0,1,700,543.5s0,.06,0,.09a1.9,1.9,0,0,1-1.77,1.93l-160.92,8.05Z"/></g></svg>