<svg id="_340_web_developer_flatline" data-name=" 340 web developer flatline" xmlns="http://www.w3.org/2000/svg" viewBox="0 0 1920 1080"><defs><style>.cls-1{fill:#e6e7e8;}.cls-2{fill:#fff;}.cls-3{fill:#d1d3d4;}.cls-4{fill:#231f20;}.cls-5{fill:#af63c5;}</style></defs><title>Icon 1</title><ellipse class="cls-1" cx="815.1" cy="946.8" rx="356.9" ry="29.1"/><rect class="cls-2" x="1156.7" y="673.3" width="253.8" height="206.7"/><path class="cls-3" d="M1410.4,882.1H1156.6a2,2,0,0,1-2-2V673.3a2,2,0,0,1,2-2h253.8a2,2,0,0,1,2,2V880.1A2,2,0,0,1,1410.4,882.1Zm-251.7-4h249.7V675.3H1158.7Z"/><path class="cls-3" d="M1410.4,701.9H1156.6a2,2,0,0,1,0-4h253.8a2,2,0,0,1,0,4Z"/><path class="cls-2" d="M711.3,287a28.05,28.05,0,0,1-23.5-45.9c-15.3-7.1-23.4-25.2-22.3-42s10-32.1,21-45c9.1-10.5,20.5-20,34.2-22.6a24.68,24.68,0,0,0,7.5-2.1,19.5,19.5,0,0,0,4.7-4.8c10-12.7,22.3-24.4,37.7-29.6s34.2-2.2,44.5,10.3A33.72,33.72,0,0,1,870.6,135a58.2,58.2,0,0,1,47,40.4c5.7,21.1-4,45.8-23.4,55.8-2.2,1.2-4.9,2.7-4.8,5.2a7.48,7.48,0,0,0,1.9,4c6.3,8.9,3.1,21.9-4,30s-17.8,12.4-28.1,16.5a15.72,15.72,0,0,1,3.1,17.8A33,33,0,0,1,849,318.6c-22.3,14.4-49.9,9.9-74.8,10.4-23,.5-45.9-14.2-61.2-30.9C709.9,295,707.5,289.3,711.3,287Z"/><path class="cls-4" d="M801.7,331.4H790c-5.2,0-10.7-.2-15.8,0-20.9.4-44.1-11.4-62.8-31.5a13.64,13.64,0,0,1-4-10.1v-.4A29.87,29.87,0,0,1,679,258.1a30.21,30.21,0,0,1,5.7-16.2c-13.8-7.6-22.4-24.8-21.2-42.8,1-15.3,8.3-30.9,21.5-46.2,11.5-13.3,23.1-20.9,35.3-23.3l1.4-.2a11.69,11.69,0,0,0,9.5-5.7c12.6-16,25.2-25.9,38.8-30.4,16.7-5.6,35-1.7,45.4,9.4a35.64,35.64,0,0,1,57.4,30.9A59.92,59.92,0,0,1,919.5,175c6.1,22.4-4.7,48.1-24.5,58.1-2,1-3.8,2.1-3.8,3.3a4.77,4.77,0,0,0,1.2,2.2l.4.5c7.1,10.1,3.1,24.2-4.3,32.4a68.32,68.32,0,0,1-25.9,16,18.63,18.63,0,0,1,1.5,18,34.6,34.6,0,0,1-13.9,14.7C835.3,330,818.5,331.4,801.7,331.4Zm-23.1-4.3H790c20,.4,40.7.8,57.8-10.2a30.39,30.39,0,0,0,12.5-13.1,13.72,13.72,0,0,0-2.6-15.6,2,2,0,0,1,.5-3.4c9.4-3.8,20-8,27.1-16,6.4-7,9.9-19,4-27.5l-.4-.4a7.59,7.59,0,0,1-1.9-4.5c0-4,3.8-5.9,5.9-7,18.2-9.4,28.1-32.9,22.4-53.5a56.1,56.1,0,0,0-45.4-38.6,2.06,2.06,0,0,1-1.7-2.2,31.71,31.71,0,0,0-52.1-28,2,2,0,0,1-1.5.5,2.1,2.1,0,0,1-1.4-.7c-9-11-26.4-15-42.3-9.7-12.8,4.2-24.8,13.7-36.7,28.9a19.78,19.78,0,0,1-5.2,5.2,20,20,0,0,1-6.8,2.1l-1.3.2c-11.3,2.2-22.2,9.4-33.1,22-12.7,14.6-19.6,29.4-20.5,43.8-1.2,17.3,7.5,33.7,21.1,40.1a1.93,1.93,0,0,1,1.1,1.4,2.09,2.09,0,0,1-.4,1.7,25.86,25.86,0,0,0,3,36.5,26.23,26.23,0,0,0,18.8,6.1,2,2,0,0,1,2.1,1.4,2,2,0,0,1-.9,2.3,1.94,1.94,0,0,0-.9,1.4,9.72,9.72,0,0,0,3,6.8c17.7,19.3,40.1,30.6,59.7,30.2Z"/><path class="cls-2" d="M997.5,873.9c9.2,0,77.6,7.4,109.6,23.3s39,17.2,32.5,38.6-62.9,26.8-105.8,18.7a289.83,289.83,0,0,1-79.1-28.8Z"/><path class="cls-4" d="M1074.2,960.3a223,223,0,0,1-40.8-4,293.94,293.94,0,0,1-79.7-28.9,1.76,1.76,0,0,1-.9-1.3,2,2,0,0,1,.4-1.5l42.9-51.9a1.75,1.75,0,0,1,1.4-.7h.4c11.2,0,78,7.6,110,23.5l7.2,3.6c25.7,12.6,32.6,16,26.2,37.3C1137.3,949.9,1110.9,960.3,1074.2,960.3ZM957.4,925.2a289.27,289.27,0,0,0,76.7,27.5c43.1,8,97.7,2.3,103.7-17.4,5.5-18.3,1.5-20.2-24.3-32.9l-7.2-3.6c-30.6-15.2-96-22.9-108-23.2Z"/><path class="cls-2" d="M1006.7,873.7a24.72,24.72,0,0,1,18.5,28.1c-3,22.8-51.2,23.8-54,24S1006.7,873.7,1006.7,873.7Z"/><path class="cls-4" d="M971.1,927.1a2.23,2.23,0,0,1-1.8-1c-.6-1.2-1.6-3,35.8-53.6a1.76,1.76,0,0,1,1.9-.7c.2,0,23,5.7,20,29.9-3,23.2-47,25.2-55.7,25.4Zm36.1-51.4c-11.7,16-29.2,40.1-33.6,47.7,11-.5,47.1-3.6,49.5-22.2a22.5,22.5,0,0,0-15.8-25.4Z"/><path class="cls-2" d="M649.3,925.9c-1.4.7-14.5,17.8-71.7,24.6s-78.3,19.1-91.1-10.9-4-49.4,24-58,105.8-15.7,121-1.3C646.9,894.6,649.3,925.9,649.3,925.9Z"/><path class="cls-4" d="M514.8,960.7c-14.1,0-23.2-4.7-29.9-20.4s-7.7-29.1-2.8-39.4c4.5-9.6,13.9-16.7,28.1-21,26.4-8,106.5-16.3,122.7-.9,15.6,14.7,18.1,45.5,18.2,46.8a2,2,0,0,1-.9,1.7l-.6.5c-16.5,15-48.1,21.5-71.8,24.3-12.3,1.5-22.9,3.2-32.1,4.7A212,212,0,0,1,514.8,960.7Zm74-86.8c-27.5,0-60.7,4.4-77.5,9.5-13.1,4-21.9,10.4-25.9,19.1-4.4,9.4-3.4,21.6,2.8,36.4,9.4,22.2,23.3,20,56.8,14.5,9.4-1.5,20-3.2,32.4-4.7,23.2-2.8,54.1-9.1,69.8-23.4h0c-.6-5.2-4-31.2-17-43.5C624.6,876,608.1,873.9,588.8,873.9Z"/><path class="cls-2" d="M667.6,913.7s-25.9,21.6-43.2,19.1-41.2-12-31.5-30.7,71.5-29.9,71.5-29.9Z"/><path class="cls-4" d="M627.3,934.8c-1.1,0-2.2-.1-3.2-.2-12.9-1.9-28.6-7.5-33.6-17.3a16.57,16.57,0,0,1,.7-16c9.9-19.3,70.3-30.3,72.9-30.8a1.49,1.49,0,0,1,1.4.4,1.71,1.71,0,0,1,.7,1.3l3.2,41.4a2.27,2.27,0,0,1-.6,1.6C667.7,915.9,644.9,934.8,627.3,934.8Zm35.4-60.4c-10.6,2.1-60.1,12.6-68.1,28.5a13.06,13.06,0,0,0-.7,12.7c4.4,8.5,18.8,13.5,30.9,15.3,14.7,2.2,36.8-14.7,41-18.1Z"/><path class="cls-4" d="M979,731.9s-27.3,106.6-127.1,127-151.4,15-186.7-52.3-12-108.5-12-108.5L968,691.8Z"/><path class="cls-4" d="M769.7,871.3c-48.1,0-81.5-16.8-106.2-63.9-35.4-67.5-12.9-108.7-12-110.4a2.06,2.06,0,0,1,1.7-1L968,689.7a2,2,0,0,1,2,1.5l10.9,40.1a1.7,1.7,0,0,1,0,1c-.3,1.1-28.8,108.2-128.6,128.4C820.7,867.3,793.4,871.3,769.7,871.3ZM654.6,700c-3.1,6.6-18.9,45.8,12.5,105.6,35.9,68.1,88.2,71,184.3,51.3,93.9-19.2,123.2-117.1,125.4-125l-10.4-38.1Z"/><path class="cls-5" d="M629.7,732.9s-51.6-166.7-44.8-271.2,45.6-108.2,98.6-114.1c23.5-2.6,148.8-21.2,195.8,34s129.5,313.9,129.5,313.9Z"/><path class="cls-2" d="M815.9,347.9l-8,55.8s-17.6,28.8-52.7,14.2-35.8-41.5-35.8-41.5L736,273.3s37.1-33.3,52.7-96.8c0,0,31.1,54.2,76.1,66.4,0,0-3,45-11.1,72.9C845.8,342.7,816.5,347.5,815.9,347.9Z"/><path class="cls-4" d="M774,424a52.08,52.08,0,0,1-19.8-4.2c-36.1-14.9-37-42.1-37.1-43.3L733.9,273a2.28,2.28,0,0,1,.6-1.2c.4-.3,36.8-33.6,52.1-95.8a2,2,0,0,1,3.7-.5c.3.6,31.2,53.6,74.9,65.4a2,2,0,0,1,1.5,2.1c0,.4-3.1,45.6-11.1,73.3-6.6,22.9-28.1,30.7-37.8,33.1l-8,54.5a2.35,2.35,0,0,1-.2.8A44.56,44.56,0,0,1,774,424ZM738,274.3,721.4,376.7c0,.6,1.2,25.4,34.6,39.3,31.2,12.9,48.1-10.1,50-13.1l8-55.3a1.87,1.87,0,0,1,1-1.4,2.84,2.84,0,0,1,1.2-.4c8.6-2,29.4-9.1,35.5-30.5,7.1-24.4,10.3-62.6,10.9-70.9-37.7-11.1-65-49.9-73.2-62.8C774.2,238,742.3,269.9,738,274.3Zm69.9,129.3"/><path class="cls-2" d="M757.6,274.9a24.39,24.39,0,0,0-6.1-14,41.3,41.3,0,0,0-11.8-8.5,18.17,18.17,0,0,0-7.5-2.6,15,15,0,0,0-5.5,1.1,19.1,19.1,0,0,0-10.3,8,21.82,21.82,0,0,0-2.1,10.4,44,44,0,0,0,1,11.5,29.26,29.26,0,0,0,35.5,21.3c.2-.1.4-.1.6-.2"/><path class="cls-4" d="M743.9,304.8a31.35,31.35,0,0,1-30.4-23.6,44,44,0,0,1-1.1-12,24.47,24.47,0,0,1,2.4-11.3A21,21,0,0,1,726,249a16.81,16.81,0,0,1,6.3-1.2,20.9,20.9,0,0,1,8.4,2.8,43,43,0,0,1,12.3,8.9,26.21,26.21,0,0,1,6.6,15.2,2,2,0,0,1-1.8,2.2,2.26,2.26,0,0,1-2.2-1.8,22.09,22.09,0,0,0-5.5-12.9,40.71,40.71,0,0,0-11.3-8,16,16,0,0,0-6.6-2.4,11,11,0,0,0-4.7,1,17.19,17.19,0,0,0-9.2,6.9,19.45,19.45,0,0,0-1.8,9.5,37,37,0,0,0,1,11A27.27,27.27,0,0,0,750.6,300c.1,0,.3-.1.4-.1a1.86,1.86,0,0,1,2.4,1.4,1.93,1.93,0,0,1-1.4,2.4h0A32.86,32.86,0,0,1,743.9,304.8Z"/><path class="cls-2" d="M808,259s15.7,31.1,10.6,35.5-17.6-.4-17.6-.4"/><path class="cls-4" d="M812.1,298.4a37.68,37.68,0,0,1-12-2.4,2,2,0,0,1-1.1-2.6h0a2,2,0,0,1,2.6-1.1c2.9,1.1,12,3.7,15.5.8,2.1-1.8-3.2-17.6-11-33.1a2.09,2.09,0,0,1,.8-2.7h.1a2,2,0,0,1,2.7.9c4.9,9.8,15.8,33,10.1,38A13.83,13.83,0,0,1,812.1,298.4Z"/><ellipse class="cls-4" cx="783.67" cy="251.61" rx="6.7" ry="4.8" transform="translate(469.23 1012.25) rotate(-85.34)"/><ellipse class="cls-4" cx="833.32" cy="258.49" rx="6.7" ry="4.8" transform="translate(513.65 1070.3) rotate(-85.74)"/><path class="cls-4" d="M803.9,323.2a38.87,38.87,0,0,1-17.7-4c-9.6-5-15.7-14.6-18.2-28.5a2,2,0,0,1,1.6-2.3h0a2,2,0,0,1,2.3,1.6c2.2,12.6,7.7,21.2,16,25.6,16.8,8.8,40.5-1.8,40.8-2a1.9,1.9,0,0,1,2.6,1,1.94,1.94,0,0,1-.9,2.6h-.1A66.94,66.94,0,0,1,803.9,323.2Z"/><path class="cls-4" d="M815.9,347.9s-36.1,3-54.7-11.7c0,0,15.8,50.1,49.1,49.9Z"/><path class="cls-4" d="M810.1,388.1c-34.2,0-50.2-49.3-50.9-51.3a2.07,2.07,0,0,1,3.2-2.2c17.9,14,52.9,11.3,53.3,11.3a2,2,0,0,1,2.1,1.9v.4l-5.6,38.3A2.16,2.16,0,0,1,810.1,388.1Zm-44.9-46.9c5.1,12.5,19.5,41.6,43.3,42.8l4.9-34c-7.6.3-31.4.6-48.2-8.8Z"/><path class="cls-5" d="M643.8,356.9c-74-9.2-143.5,305-103.1,334.9,63,46.6,255.3-17,255.3-17l-19.2-82.9S638,598.5,635.5,570,713,407.9,701.8,388.5C690.5,368.9,643.8,356.9,643.8,356.9Z"/><path class="cls-4" d="M902.3,594.1a1.83,1.83,0,0,1-1.8-1.6c-9.5-67-30.5-179.2-37.2-185.8a1.79,1.79,0,0,1,.1-2.6,1.75,1.75,0,0,1,2.5,0c8.7,8.5,31.1,137.2,38.3,187.9a2,2,0,0,1-1.6,2.1Z"/><polygon class="cls-2" points="831.4 752.7 703.7 716.9 938.3 672.8 1065.3 726 831.4 752.7"/><path class="cls-4" d="M831.4,754.8h-.5L703.1,718.7a2,2,0,0,1,0-4l234.6-44.1a2,2,0,0,1,1.1,0l127,53.2a2.09,2.09,0,0,1,1.2,2.1,1.93,1.93,0,0,1-1.8,1.7L831.5,754.7h-.1ZM712.5,717.4l119.1,33.4L1057.5,725,938.1,675Z"/><path class="cls-2" d="M756.1,620.5c28.1,3.1,54.1,5.1,80.1,16a197.78,197.78,0,0,1,41.9,24,137.51,137.51,0,0,1,18.4,15.7c4.5,4.9,3,9.7-4.5,7.3a89.18,89.18,0,0,1-24.6-12A260.73,260.73,0,0,1,915,722.3c1.5,2.2,3,5.2,1.2,7.2s-5.8,0-8-2l-39.6-37.6A127.43,127.43,0,0,1,895,721.6c1,1.7,2,4,.9,5.6-1.8,2.9-6.3.7-8.7-1.7a286.21,286.21,0,0,1-32.3-38.9l21.4,32.1a4.61,4.61,0,0,1-6,2.9h0a14.15,14.15,0,0,1-5.9-4.6l-25.9-29.8,15.3,21.1c2.4,3.3,4.8,8,2,11.1s-9,0-12.5-3.1a264.75,264.75,0,0,0-46.4-33.8c-6.1-3.6-11.2-8.4-17.9-10.5-9.6-3-21.6-2.6-31.7-3.7"/><path class="cls-4" d="M914.3,732.2a11.88,11.88,0,0,1-7.1-3.4l-12.8-12c.8,1.3,1.7,2.7,2.4,4a7.26,7.26,0,0,1,.9,7.5,4.2,4.2,0,0,1-3.4,2.2,10.9,10.9,0,0,1-8-3.6c-2.6-2.6-5.2-5.3-7.7-8v.4a5.29,5.29,0,0,1-2.6,3.6,7.83,7.83,0,0,1-5.8.8,15.65,15.65,0,0,1-6.7-5.2l-4.7-5.4a7.51,7.51,0,0,1-1.1,8,6.22,6.22,0,0,1-4.6,2.1,17.39,17.39,0,0,1-10.9-5.5,249.11,249.11,0,0,0-46.1-33.5c-2-1.2-4-2.6-5.9-4a42.39,42.39,0,0,0-11.6-6.4,96.72,96.72,0,0,0-21.4-2.9c-3.4-.2-6.8-.4-10-.7a1.81,1.81,0,0,1,.4-3.6h0c3.1.3,6.4.5,9.8.7a97.3,97.3,0,0,1,22.2,3,49.79,49.79,0,0,1,12.6,6.9c1.8,1.3,3.7,2.6,5.7,3.8a255.37,255.37,0,0,1,46.8,34,14.85,14.85,0,0,0,8,4.2,2.88,2.88,0,0,0,2-.9c2.2-2.4-.8-7-2.2-8.9l-15.3-21a1.76,1.76,0,0,1,.3-2.5h0a1.75,1.75,0,0,1,2.5,0l26,29.8a11.45,11.45,0,0,0,5,4,3.4,3.4,0,0,0,2.8-.4.9.9,0,0,0,.6-.6l-20.9-31.4a1.8,1.8,0,0,1,3-2,289.61,289.61,0,0,0,32.1,38.6,8.69,8.69,0,0,0,5,2.6,1,1,0,0,0,.8-.5c.4-.7,0-2-.9-3.7a119.67,119.67,0,0,0-17.2-22.8l-8.9-8.5a1.79,1.79,0,0,1,.2-2.6,2,2,0,0,1,2.3-.1,123.3,123.3,0,0,1,9.1,8.6L909.6,726a7.53,7.53,0,0,0,4.6,2.5.91.91,0,0,0,.8-.4c.9-1,0-3.1-1.3-4.9a259.35,259.35,0,0,0-47.2-50.4,1.88,1.88,0,0,1-.1-2.6,1.81,1.81,0,0,1,2.3-.3,90.83,90.83,0,0,0,24,11.8c2.8.9,4.3.5,4.6,0s0-2.3-2-4.4a128.49,128.49,0,0,0-18.2-15.5A194.15,194.15,0,0,0,835.6,638c-23.5-9.8-47-12.3-72.1-15l-7.8-.9a1.81,1.81,0,0,1-1.6-2h0a1.81,1.81,0,0,1,2-1.6h0l8,.8c25.2,2.7,49,5.3,73,15.3a196.34,196.34,0,0,1,42.3,24,142.35,142.35,0,0,1,18.7,16c2.9,3.1,3.8,6.5,2.3,8.8-.8,1.3-3.1,3.2-8.7,1.4a78.87,78.87,0,0,1-9.6-3.6,265.43,265.43,0,0,1,34.6,39.5c2.8,4,3.1,7.3,1.1,9.5a5,5,0,0,1-3.4,1.6Z"/><polygon class="cls-2" points="1065.3 726 1123.8 569.5 885 574.2 831.4 752.7 1065.3 726"/><path class="cls-4" d="M831.4,754.8a2,2,0,0,1-1.5-.7,2,2,0,0,1-.4-1.8L883,573.8a2,2,0,0,1,1.9-1.4l238.8-4.7a2.14,2.14,0,0,1,1.7.8,1.91,1.91,0,0,1,.2,1.8l-58.5,156.3a2.1,2.1,0,0,1-1.7,1.3L831.6,754.8Zm55.1-178.5L834.4,750.5,1064,724.3l57-152.6Zm178.8,149.8"/><path class="cls-4" d="M1052.6,727.4s64.8,52.6,42,100.9S657.8,931.7,657.8,931.7l-18.6-63.1S964,702.7,1052.6,727.4Z"/><path class="cls-4" d="M657.8,933.7a2,2,0,0,1-1.9-1.4l-18.6-63.1a1.86,1.86,0,0,1,1-2.3c.8-.4,82.3-41.9,173.6-79.9,122.8-51.1,204-71.8,241.2-61.4a3,3,0,0,1,.8.4,175.06,175.06,0,0,1,29.9,32.7c17.9,25.7,22.2,50.1,12.5,70.5C1073,877.8,675,931.4,658.1,933.6Zm-16.3-64.1,17.7,59.8c28.9-4,411.8-56.8,433.3-102,21.2-44.6-36.1-94.1-41-98.2-84.2-22.5-385.7,128.4-409.7,140.5Z"/><path class="cls-4" d="M617.7,703.2s321.5,130,401.2,164.3l-46.3,71.6s-296.9-5.8-382-80.4S511.2,660,617.7,703.2Z"/><path class="cls-4" d="M972.6,941.2h0c-.7,0-75.3-1.6-159.3-12.2-113-14.4-188.4-37.5-224-68.7-44.6-39-75.8-107.6-51.3-147.4,8-13.2,29.4-32.3,80.5-11.6h0c3.2,1.3,322.4,130.4,401.3,164.3a1.87,1.87,0,0,1,1.1,1.2,2,2,0,0,1-.2,1.7l-46.3,71.7A2,2,0,0,1,972.6,941.2ZM578.3,696.3c-16.5,0-29.1,6.3-36.8,18.8-18.9,30.7-3.2,95.3,50.5,142.3,81,71,359.6,79.4,379.6,79.9l44.5-68.7c-82.3-35.3-395.8-162.1-399-163.3h0A100.93,100.93,0,0,0,578.3,696.3Z"/><path class="cls-2" d="M1066.6,663.5a10.44,10.44,0,0,0,2.3,5l6.3,9.3a6.8,6.8,0,0,0-8.2-5,3.58,3.58,0,0,0-1.1.4,11,11,0,0,0-5.7,9.9,31.85,31.85,0,0,0,2.8,11.7c4.4,11.5,14.5,28.4,29.1,19.7,9.9-5.9,12.6-26.9,14-37.3,2.8-20.5-3.5-46.9-29.9-42.9A51.15,51.15,0,0,0,1087,662C1082.6,657.8,1065.2,651.4,1066.6,663.5Z"/><path class="cls-4" d="M1083.9,718.7a15,15,0,0,1-4.7-.8c-9.5-3.2-15.4-15.5-18.1-22.5a35.11,35.11,0,0,1-2.9-12.3,12.51,12.51,0,0,1,6.9-11.5,8.24,8.24,0,0,1,3.1-.7l-.9-1.3a12.08,12.08,0,0,1-2.6-5.9,7.19,7.19,0,0,1,4-8,17.17,17.17,0,0,1,12.4.9,50,50,0,0,1-6.7-22,1.86,1.86,0,0,1,1.6-2,25.29,25.29,0,0,1,22.7,6.3c9.4,9.3,11,26,9.3,38.7-1.6,11.5-4.4,32.3-14.9,38.6A18.68,18.68,0,0,1,1083.9,718.7Zm-15.5-44.1a4.33,4.33,0,0,0-1.9.4,9,9,0,0,0-4.6,8.3,32.17,32.17,0,0,0,2.6,11c2,5.1,7.5,17.4,16,20.3A11.89,11.89,0,0,0,1091,713c9-5.4,11.7-25.8,13.1-35.5,1.6-12,.3-27.7-8-36.1a21.38,21.38,0,0,0-17.9-5.5,49,49,0,0,0,10.3,25,1.86,1.86,0,0,1-.2,2.5,1.75,1.75,0,0,1-2.5,0c-2.7-2.6-11.5-6.4-15.5-4.5-.9.4-2,1.3-1.7,4.4h0a9.62,9.62,0,0,0,2,4.2l3.4,5a7.12,7.12,0,0,1,3.2,5.2,1.83,1.83,0,0,1-1.2,1.9,1.72,1.72,0,0,1-2.1-.7l-2.5-3.7A8,8,0,0,0,1068.4,674.6Z"/><path class="cls-2" d="M976.3,852.7h-.8c-7-2.7-172.8-66.9-210.1-89.8a2,2,0,0,1,2.1-3.5h0c37,22.7,207.7,88.8,209.4,89.4a2.07,2.07,0,0,1,1.2,2.7A1.65,1.65,0,0,1,976.3,852.7Z"/><ellipse class="cls-4" cx="783" cy="528.4" rx="66.2" ry="62.6"/><path class="cls-4" d="M783,593c-37.6,0-68.1-29-68.1-64.6s30.6-64.6,68.1-64.6,68.1,29,68.1,64.6S820.5,593,783,593Zm0-125.2c-35.4,0-64.1,27.2-64.1,60.6S747.6,589,783,589s64.1-27.2,64.1-60.6S818.3,467.8,783,467.8Z"/><path class="cls-2" d="M748,548.8l-16-9.4V527l16-9.4c5.3-3.1,10.7-6.2,16-9.4v15c-2.8,1.8-5.7,3.5-8.5,5.1s-5.7,3.3-8.5,5.1l8.5,4.7,8.5,4.8V558Z"/><path class="cls-2" d="M768.6,562.1l18.9-71.8,9.9,4.4-19,71.7Z"/><path class="cls-2" d="M818.1,517.6l16,9.4v12.4l-16,9.4-16,9.4V543l8.5-4.8,8.5-4.7c-2.8-1.8-5.7-3.5-8.5-5.1s-5.7-3.4-8.5-5.1v-15Z"/><path class="cls-4" d="M645.8,702.7a2,2,0,0,1-2.1-1.9,2,2,0,0,1,1.9-2.1L741.8,687l15.3-77L633.9,599.6a1.9,1.9,0,0,1-1.5-.8,1.75,1.75,0,0,1-.3-1.7l50.7-188.6a2.06,2.06,0,1,1,4,1L636.7,595.8,759.5,606a2.19,2.19,0,0,1,1.4.8,2.28,2.28,0,0,1,.4,1.6l-16,80.6a2.14,2.14,0,0,1-1.7,1.6l-97.7,11.8v.3Z"/><rect class="cls-1" x="975.6" y="158.5" width="199.8" height="20.7"/><rect class="cls-1" x="1198.6" y="158.5" width="199.8" height="20.7"/><rect class="cls-5" x="1058.1" y="193.9" width="117.3" height="20.7"/><rect class="cls-1" x="1198.6" y="193.9" width="177.5" height="20.7"/><rect class="cls-1" x="1027.6" y="229.4" width="147.8" height="20.7"/><rect class="cls-1" x="1198.6" y="229.4" width="83.4" height="20.7"/><rect class="cls-1" x="1089.2" y="264.8" width="86.2" height="20.7"/><rect class="cls-5" x="1198.6" y="264.8" width="163.3" height="20.7"/><rect class="cls-5" x="1148" y="300.3" width="27.5" height="20.7"/><rect class="cls-1" x="1198.6" y="300.3" width="109.7" height="20.7"/><rect class="cls-5" x="988.3" y="446" width="183.6" height="23.7"/><rect class="cls-1" x="1201.5" y="446" width="112.8" height="23.7"/><rect class="cls-1" x="1022.8" y="486.5" width="149.1" height="23.7"/><rect class="cls-1" x="1201.5" y="486.5" width="164.2" height="23.7"/><rect class="cls-1" x="1097.4" y="527.1" width="74.5" height="23.7"/><rect class="cls-1" x="1201.5" y="527.1" width="195.2" height="23.7"/><rect class="cls-1" x="1144" y="567.7" width="27.9" height="23.7"/><rect class="cls-5" x="1201.5" y="567.7" width="207.5" height="23.7"/><rect class="cls-1" x="1201.5" y="608.3" width="139.4" height="23.7"/><path class="cls-1" d="M1272.1,394.6l-15.1-6v-8l15.1-6,15.1-6v9.5c-2.7,1.2-5.4,2.2-8,3.3s-5.4,2.1-8,3.3l8,3,8,3v9.7Z"/><path class="cls-1" d="M1291.6,403.1l17.9-46,9.4,2.8-18,46.2Z"/><path class="cls-1" d="M1338.4,374.7c5,2,10.1,4,15.1,6v8l-15.1,6-15.1,6v-9.8l8-3,8-3c-2.7-1.2-5.4-2.2-8-3.3s-5.4-2.1-8-3.3v-9.6Z"/><path class="cls-1" d="M980.8,109.2a6.6,6.6,0,0,1,.6-2.7,6,6,0,0,1,1.6-2.2,6.78,6.78,0,0,1,2.3-1.4,7.06,7.06,0,0,1,2.8-.6,6.6,6.6,0,0,1,2.7.6,6.36,6.36,0,0,1,2.2,1.4,6.62,6.62,0,0,1,1.5,2.2,6.37,6.37,0,0,1,0,5.4A8,8,0,0,1,993,114a7,7,0,0,1-4.9,2,8.31,8.31,0,0,1-5.1-2,6.52,6.52,0,0,1-1.6-2.1A6.26,6.26,0,0,1,980.8,109.2Zm0,23.5a6.6,6.6,0,0,1,2.2-4.9,9.13,9.13,0,0,1,2.3-1.5,6.92,6.92,0,0,1,2.8-.5,8.57,8.57,0,0,1,2.7.5,5.41,5.41,0,0,1,2.2,1.5,6.62,6.62,0,0,1,1.5,2.2,7.21,7.21,0,0,1,0,5.4,10.71,10.71,0,0,1-1.5,2.2,7.44,7.44,0,0,1-2.2,1.4,8.57,8.57,0,0,1-2.7.5,8.68,8.68,0,0,1-2.8-.5,7.89,7.89,0,0,1-2.3-1.4,6,6,0,0,1-1.6-2.2A6.6,6.6,0,0,1,980.8,132.7Z"/><path class="cls-1" d="M1214.8,783.5a6.74,6.74,0,0,0,4.4-1.3c1.1-.8,1.6-2.6,1.6-5.3V764.5a24.89,24.89,0,0,1,.8-6.1,13.51,13.51,0,0,1,2.5-5.1,12.1,12.1,0,0,1,4.3-3.5,14.13,14.13,0,0,1,6.4-1.3h9v12.9h-3.2a3.9,3.9,0,0,0-3.7,1.8,7.92,7.92,0,0,0-1,4v12.7a10.53,10.53,0,0,1-2.8,7.8,8.32,8.32,0,0,1-2.6,1.9,7.32,7.32,0,0,1-2.5.8h0a10.43,10.43,0,0,1,2.5.8,6.77,6.77,0,0,1,2.6,1.8,11,11,0,0,1,2.8,7.8v12.7a7,7,0,0,0,1,4,4.1,4.1,0,0,0,3.7,1.8h3.2V832h-9a14.13,14.13,0,0,1-6.4-1.3,11.29,11.29,0,0,1-4.3-3.5,16.16,16.16,0,0,1-2.5-5.1,25.54,25.54,0,0,1-.8-6.1V803.6a6.41,6.41,0,0,0-1.6-5.3,7.1,7.1,0,0,0-4.4-1.3Z"/><path class="cls-1" d="M1353.3,796.8a7.2,7.2,0,0,0-4.5,1.3,6.41,6.41,0,0,0-1.6,5.3v12.4a24.89,24.89,0,0,1-.8,6.1,13.51,13.51,0,0,1-2.5,5.1,11.29,11.29,0,0,1-4.3,3.5,14.13,14.13,0,0,1-6.4,1.3h-9v-13h3.2a4.1,4.1,0,0,0,3.7-1.8,7,7,0,0,0,1-4V800.3a11.73,11.73,0,0,1,.8-4.6,13.24,13.24,0,0,1,2-3.2,6.77,6.77,0,0,1,2.6-1.8,11.22,11.22,0,0,1,2.6-.8h0a7.86,7.86,0,0,1-2.6-.8,9.66,9.66,0,0,1-2.6-1.9,8.68,8.68,0,0,1-2-3.1,10.85,10.85,0,0,1-.8-4.7V766.7a7.92,7.92,0,0,0-1-4,4.1,4.1,0,0,0-3.7-1.8h-3.2V748.2h9a14.13,14.13,0,0,1,6.4,1.3,11.29,11.29,0,0,1,4.3,3.5,14.28,14.28,0,0,1,2.5,5.1,24.89,24.89,0,0,1,.8,6.1v12.4a6.41,6.41,0,0,0,1.6,5.3,7.2,7.2,0,0,0,4.5,1.3Z"/></svg>