<svg id="_340_web_developer_flatline" data-name=" 340 web developer flatline" xmlns="http://www.w3.org/2000/svg" viewBox="0 0 1920 1080"><defs><style>.cls-1{fill:#231f20;}.cls-2{fill:#fff;}.cls-3{fill:#e6e7e8;}.cls-4{fill:#d1d3d4;}.cls-5{fill:none;}.cls-6{fill:#af63c5;}</style></defs><title>Icon 3</title><g id="_513_smart_phone_data_flatline" data-name=" 513 smart phone data flatline"><path class="cls-1" d="M1421.49,181.33s-9.42-17.52-24.48-41.3c0,0-47.92,35.78-47.48,33.76S1421.49,181.33,1421.49,181.33Z"/><path class="cls-1" d="M1421.49,183.51h-.31c-25.18-3.32-66.3-8.32-70.77-7.7-1.27.48-1.62,0-2.06,0a2.23,2.23,0,0,1-1-2.32c0-.66.22-1.27,1.62-1.58h0c2.84-1.14,30.13-21.15,46.68-33.5a2.18,2.18,0,0,1,1.71-.4,2.09,2.09,0,0,1,1.44,1c14.94,23.73,24.49,41.25,24.57,41.43a2.12,2.12,0,0,1,0,2.27A2.17,2.17,0,0,1,1421.49,183.51Zm-64.21-11.91c9,.53,26.28,2.46,60.18,6.88-3.42-6.13-10.91-19.18-21.07-35.34C1375.24,159,1363.72,167.22,1357.28,171.6Z"/><polygon class="cls-1" points="787.09 903.75 763.18 863.89 796.24 833.98 787.09 903.75"/><path class="cls-1" d="M787.05,905.94a2.12,2.12,0,0,1-1.89-1.1L761.25,865a2.23,2.23,0,0,1,.4-2.76l33.1-29.91a2.12,2.12,0,0,1,2.46-.3,2.24,2.24,0,0,1,1.18,2.23L789.19,904a2.23,2.23,0,0,1-1.71,1.88Zm-21.11-41.65,19.75,32.93,7.58-57.63Z"/><path class="cls-1" d="M802.59,912.11l384.69,54.83a33.5,33.5,0,0,0,36.43-23.6L1422.84,198.4a23.54,23.54,0,0,0-22.11-30.34l-392.35-31.49a34.64,34.64,0,0,0-35,24.79l-190.67,720a24,24,0,0,0,16,29.91A24.72,24.72,0,0,0,802.59,912.11Z"/><path class="cls-1" d="M1191.66,969.44a35,35,0,0,1-4.69-.31L802.29,914.26a26.31,26.31,0,0,1-18.62-11.43,26.82,26.82,0,0,1-3.32-21.9l191-720.28a37,37,0,0,1,37.23-26.27L1400.9,166a27.13,27.13,0,0,1,20.54,11.08A26,26,0,0,1,1425,199L1225.86,943.86A35.88,35.88,0,0,1,1191.66,969.44ZM1006,138.54a32.54,32.54,0,0,0-30.66,23.25L784.59,881.94a22.48,22.48,0,0,0,2.72,18.43,21.9,21.9,0,0,0,15.59,9.55h0l384.68,54.87a31.34,31.34,0,0,0,34-21.89l199.13-745a21.89,21.89,0,0,0-3.06-18.39,22.94,22.94,0,0,0-17.52-9.24l-392-31.62A17.58,17.58,0,0,0,1006,138.54Z"/><path class="cls-2" d="M777.54,871l384.69,54.83a33.49,33.49,0,0,0,36.43-23.61l199.13-744.93a23.58,23.58,0,0,0-21.89-30.35L983.55,95.31a34.66,34.66,0,0,0-35,24.79L757.57,840.25a24,24,0,0,0,15.95,29.88A24.19,24.19,0,0,0,777.54,871Z"/><path class="cls-1" d="M1166.61,928.31a33.38,33.38,0,0,1-4.69-.3L777.24,873.13a26.28,26.28,0,0,1-18.62-11.43,26.91,26.91,0,0,1-3.32-21.89l191-720.28a36.92,36.92,0,0,1,37.23-26.27l392.34,31.66A27,27,0,0,1,1396.39,136a25.85,25.85,0,0,1,3.51,21.9L1200.81,903A35.87,35.87,0,0,1,1166.61,928.31ZM981,97.42a32.57,32.57,0,0,0-30.66,23.25L759.37,840.81a22.66,22.66,0,0,0,2.71,18.49,21.94,21.94,0,0,0,15.59,9.5h0l384.69,54.87a31.4,31.4,0,0,0,34-21.89l199.39-745a21.92,21.92,0,0,0-2.89-18.4,23,23,0,0,0-17.3-9.24L983.24,97.5Z"/><polygon class="cls-3" points="1359.78 206.33 958.11 171.51 803.95 752.57 1199.76 805.25 1359.78 206.33"/><path class="cls-4" d="M1199.76,805.91h0L804,753.36a.7.7,0,0,1-.58-.8.22.22,0,0,1,0-.08l154.16-581a.65.65,0,0,1,.7-.53l401.67,34.82a.66.66,0,0,1,.53.3.53.53,0,0,1,0,.57l-160,598.84A.62.62,0,0,1,1199.76,805.91ZM804.83,752l394.4,52.55L1358.9,206.94,958.63,172.26Z"/><path class="cls-2" d="M936.56,866.7l75.06,10.55a20.28,20.28,0,0,0,21.9-14.41l7.49-28a15.07,15.07,0,0,0-10.25-18.68,15.67,15.67,0,0,0-2.89-.54l-75.2-10.2A20.18,20.18,0,0,0,931,819.79l-7.4,27.77a15,15,0,0,0,10.14,18.6A16.26,16.26,0,0,0,936.56,866.7Z"/><path class="cls-3" d="M1014.16,879.62a22.58,22.58,0,0,1-2.85,0l-75.06-10.56a17.16,17.16,0,0,1-14.54-21.9l7.36-27.76a22.47,22.47,0,0,1,24.09-16l75.19,10.16a17.88,17.88,0,0,1,12.57,7.62,17.57,17.57,0,0,1,2.19,14.37l-7.45,28A22.68,22.68,0,0,1,1014.16,879.62ZM950.4,807.4a18,18,0,0,0-17.08,13.14l-7.4,27.76A13.14,13.14,0,0,0,927.54,859a12.88,12.88,0,0,0,9.32,5.65h0l75.07,10.56a18,18,0,0,0,19.49-12.79l7.44-28A12.82,12.82,0,0,0,1027.74,818l-75.2-10.2A17,17,0,0,0,950.4,807.4Z"/><path class="cls-3" d="M1241,156.49h0l-114.74-9.59a2.15,2.15,0,0,1-2-2.3s0,0,0-.06a2.18,2.18,0,0,1,2.36-2l114.74,9.59a2.19,2.19,0,1,1,0,4.38Z"/><path class="cls-3" d="M1110.29,145.59h-.22l-15.2-1.27a2.19,2.19,0,0,1-2-2.35v0a2.28,2.28,0,0,1,2.36-2l15.24,1.27a2.18,2.18,0,0,1,2,2.37A2.14,2.14,0,0,1,1110.29,145.59Z"/><path class="cls-2" d="M1068.51,711.14a2.17,2.17,0,0,1-1.8-1L957.23,553.05a2.19,2.19,0,1,1,3.46-2.69,2.14,2.14,0,0,1,.13.19L1070.3,707.68a2.23,2.23,0,0,1-.57,3.07A2,2,0,0,1,1068.51,711.14Z"/><line class="cls-5" x1="867.63" y1="626.75" x2="1008.47" y2="639.06"/><path class="cls-1" d="M1008.47,641.25h0L867.63,628.94a2.19,2.19,0,0,1-2-2.35h0a2.24,2.24,0,0,1,2.37-2l140.88,12.31a2.22,2.22,0,0,1,2,2.36,2.19,2.19,0,0,1-2.35,2Z"/><line class="cls-5" x1="858.47" y1="652.02" x2="971.94" y2="662.27"/><path class="cls-1" d="M971.94,664.46h-.22L858.3,654.25a2.19,2.19,0,0,1-2-2.35h0a2.19,2.19,0,0,1,2.39-2h0l113.43,10.2a2.19,2.19,0,0,1,2,2.35v0A2.24,2.24,0,0,1,971.94,664.46Z"/><line class="cls-5" x1="1140.02" y1="385.71" x2="1280.86" y2="398.02"/><path class="cls-1" d="M1280.86,400.21h0L1140,387.9a2.2,2.2,0,0,1,.39-4.38l140.84,12.31a2.23,2.23,0,0,1,2,2.36,2.19,2.19,0,0,1-2.35,2Z"/><line class="cls-5" x1="1130.87" y1="411.02" x2="1244.34" y2="421.23"/><path class="cls-1" d="M1244.34,423.42h-.22l-113.47-10.21a2.19,2.19,0,0,1-2-2.36,2.15,2.15,0,0,1,2.3-2h.07l113.47,10.2a2.14,2.14,0,0,1,2,2.3v.07A2.2,2.2,0,0,1,1244.34,423.42Z"/><path class="cls-2" d="M961.21,308.85l130,8.45a12.31,12.31,0,0,1,11.58,13,12,12,0,0,1-.28,2l-20.76,78.83a16.36,16.36,0,0,1-17.12,12.83L935.9,415.18a12.13,12.13,0,0,1-11.21-13,12.71,12.71,0,0,1,.39-2.3l19.32-78.83A16.3,16.3,0,0,1,961.21,308.85Z"/><path class="cls-1" d="M1066,426.09h-1.58l-128.66-8.76a14.21,14.21,0,0,1-10.47-5.78,15,15,0,0,1-2.45-12.22l19.31-78.83a18.6,18.6,0,0,1,19.14-14L1091.19,315a14.45,14.45,0,0,1,13.44,15.4,12.73,12.73,0,0,1-.3,2.12l-20.8,78.83A18.58,18.58,0,0,1,1066,426.09ZM960,311a14.23,14.23,0,0,0-13.49,10.73l-19.27,78.83a10.42,10.42,0,0,0,1.58,8.76,10,10,0,0,0,7.27,4l128.71,8.76a14.11,14.11,0,0,0,14.8-11.08l20.76-78.83a10.14,10.14,0,0,0-1.75-8.14,10.33,10.33,0,0,0-7.58-4.08l-129.94-8.49H960Z"/><path class="cls-4" d="M1002.77,403.45c2-1.54,4-3.07,5.92-4.38,5.51-4.12,11.08-8.15,16.59-12.22,3.68-2.67,7.32-5.39,10.73-8.41a37.58,37.58,0,0,0,7.8-9.15,33.17,33.17,0,0,0,3.06-7.36,44.61,44.61,0,0,0,1.36-6.79A16.12,16.12,0,0,0,1038,337.62a21.41,21.41,0,0,0-21.89,4.38,26.69,26.69,0,0,0-4.38,4.38l-.26.31v-.44a19,19,0,0,0-7.67-8.49,18.13,18.13,0,0,0-10.16-2.37,22.22,22.22,0,0,0-19.92,15,27.51,27.51,0,0,0-1.27,6.79,28.53,28.53,0,0,0,0,7.27,23.55,23.55,0,0,0,3.81,10,61.36,61.36,0,0,0,7,8.54c3.81,4,7.71,8,11.56,12,2.58,2.76,5.12,5.61,7.71,8.46Z"/><path class="cls-2" d="M921,490l98.58,10.81a9.38,9.38,0,0,1,8.33,10.31,9.06,9.06,0,0,1-.27,1.47l-18.44,59.17a12.38,12.38,0,0,1-13.4,9.15l-97.62-10.81a9.27,9.27,0,0,1-7.71-12l17.3-59.21A12.47,12.47,0,0,1,921,490Z"/><path class="cls-1" d="M997.26,583.26a10.82,10.82,0,0,1-1.8,0l-97.57-10.9a11.34,11.34,0,0,1-8.15-5,11.65,11.65,0,0,1-1.4-9.73l17.52-59.25A14.8,14.8,0,0,1,921.45,488L1020,498.79a11.8,11.8,0,0,1,8.36,5,11.62,11.62,0,0,1,1.62,9.5l-18.48,59.3A14.71,14.71,0,0,1,997.26,583.26Zm-77.74-91.13a10.29,10.29,0,0,0-9.68,7.31L892.55,558.7a7.41,7.41,0,0,0,.83,6.13,7.16,7.16,0,0,0,5,3.06l97.58,11a10.25,10.25,0,0,0,11.08-7.53l18.43-59.29a7,7,0,0,0-1-5.83,7.24,7.24,0,0,0-5.26-3.11L920.75,492.3h0A5.61,5.61,0,0,0,919.52,492.13Z"/><path class="cls-2" d="M1121.5,451.88l136.55,13.84a9.1,9.1,0,0,1,9,9.23,9.38,9.38,0,0,1-.22,1.9l-22.6,84.08a13.15,13.15,0,0,1-14.23,8.76l-136.47-17.52a8.75,8.75,0,0,1-8.3-9.19,9,9,0,0,1,.29-1.85l22.42-80.66A12.8,12.8,0,0,1,1121.5,451.88Z"/><path class="cls-1" d="M1231.82,571.75a16.35,16.35,0,0,1-2,0l-136.41-17.52a11.78,11.78,0,0,1-8.76-5,10.37,10.37,0,0,1-1.32-8.76l22.43-80.66a14.75,14.75,0,0,1,15.72-10l136.55,13.79a12.77,12.77,0,0,1,9.37,5.17,10.36,10.36,0,0,1,1.44,8.76l-22.37,83.91A15.09,15.09,0,0,1,1231.82,571.75ZM1120.27,454a10.58,10.58,0,0,0-10.07,6.92l-22.42,80.67a6.39,6.39,0,0,0,.74,5.13,7.52,7.52,0,0,0,5.48,3.11l136.41,17.51a10.81,10.81,0,0,0,11.87-7l22.56-84.08a5.91,5.91,0,0,0-.84-5.08,8.21,8.21,0,0,0-6.17-3.29l-136.55-13.84h-1Z"/><polygon class="cls-4" points="1192.05 544.68 1208.25 546.7 1219.68 504.44 1203.48 502.64 1192.05 544.68"/><path class="cls-4" d="M1208.25,547.4h0l-16.2-2a.7.7,0,0,1-.58-.8.22.22,0,0,1,0-.08l11.43-42a.67.67,0,0,1,.75-.53l16.2,1.84a.57.57,0,0,1,.48.83l-11.43,42.26A.71.71,0,0,1,1208.25,547.4Zm-15.32-3.29,14.8,1.84,11.08-40.9-14.8-1.67Z"/><path class="cls-4" d="M1196.43,505.44s-13.14-4.81-16.64-13.14-1.18-21.59-3.15-22.51a9.3,9.3,0,0,0-10.12,3.42c-3.15,4-5,16.38-2.37,24.83,0,0-17.51-2.14-25.4-3s-11.16,5.74-7.35,9c0,0-6.44,0-5.65,5.78s3,6.22,6.43,6.66c0,0-4.37.48-4.37,4.73s5.34,5.91,5.34,5.91a4.77,4.77,0,0,0-3.56,5.74,4.42,4.42,0,0,0,.36,1c2.37,5,10.77,5.57,30.66,6.79s26.75-2.36,26.75-2.36Z"/><path class="cls-4" d="M1168.75,541.79c-2.41,0-5.08,0-8.1-.26-19.75-1.23-28.77-1.8-31.36-7.18A5.32,5.32,0,0,1,1129,530a5.9,5.9,0,0,1,2.45-2.59,7.35,7.35,0,0,1-4.38-5.91,4.73,4.73,0,0,1,2.37-4.38c-2.37-.7-3.85-2.19-4.38-6.79a5.39,5.39,0,0,1,1.14-4.38,6.31,6.31,0,0,1,3.81-2,5,5,0,0,1-.44-4.95,8.49,8.49,0,0,1,9.28-4.37c6.71.74,20.5,2.4,24.4,2.89-2.28-8.76-.48-20.37,2.76-24.48a10,10,0,0,1,10.77-3.64c1.18.57,1.23,2.67,1.31,7.27a42.1,42.1,0,0,0,2.15,15.59c3.5,7.8,16.16,12.57,16.29,12.61a.72.72,0,0,1,.4.84l-8.76,33a.7.7,0,0,1-.31.39C1187.54,539.16,1182.64,541.79,1168.75,541.79Zm-31.35-46.11a6.7,6.7,0,0,0-6.53,3.5,3.64,3.64,0,0,0,1,4.38.6.6,0,0,1,0,.74.66.66,0,0,1-.62.44,6.27,6.27,0,0,0-4.16,1.67,4.09,4.09,0,0,0-.83,3.37c.7,5.43,2.67,5.65,5.87,6a.7.7,0,0,1,.61.7.65.65,0,0,1-.61.66s-3.9.52-3.77,4.07,4.82,5.26,4.87,5.26a.85.85,0,0,1,.48.65.71.71,0,0,1-.48.66,5.47,5.47,0,0,0-3.07,2.54,3.76,3.76,0,0,0,.26,3.24c2.24,4.69,11,5.21,30.18,6.44,17.51,1.09,24.74-1.62,26.27-2.19l8.76-32.14c-2.63-1.06-13.14-5.7-16.46-13.14a42.66,42.66,0,0,1-2.28-16.12,19.23,19.23,0,0,0-.53-6.09,8.77,8.77,0,0,0-9.24,3.24c-3.11,3.95-4.77,16.16-2.28,24.27a.59.59,0,0,1,0,.65.69.69,0,0,1-.61.22s-17.52-2.14-25.35-3Z"/><path class="cls-2" d="M1027.43,742.72l148.9,17.16a23.64,23.64,0,0,0,24.52-17.51L1224.28,654a17.51,17.51,0,0,0-11.31-22,17.32,17.32,0,0,0-2.74-.65l-149.3-19a23.78,23.78,0,0,0-25.18,17.82l-22.9,90.13a17.51,17.51,0,0,0,11.62,21.87A17.75,17.75,0,0,0,1027.43,742.72Z"/><path class="cls-1" d="M1178.39,762.2h-2.5L1027,745h0a19.11,19.11,0,0,1-13.88-8.19,20.75,20.75,0,0,1-2.76-17l22.9-90.12a26.28,26.28,0,0,1,27.59-19.45l149.3,19a19,19,0,0,1,13.4,8.19,21.36,21.36,0,0,1,2.49,17.26l-23.43,88.42A26.25,26.25,0,0,1,1178.39,762.2Zm-150.74-21.63,148.9,17.17a21.55,21.55,0,0,0,22.16-15.94L1222,653.33a16.32,16.32,0,0,0-1.93-13.66,14.39,14.39,0,0,0-10.29-6.26l-149.29-19a21.64,21.64,0,0,0-22.77,16.2l-22.91,90.13a16.48,16.48,0,0,0,2.11,13.49A14.93,14.93,0,0,0,1027.65,740.57Z"/><path class="cls-4" d="M1075.69,684.47l52.55,42.74a7.53,7.53,0,0,0,10.4-2.33,7.34,7.34,0,0,0,1-2.4L1158,652.41a6,6,0,0,0-8.32-7.27l-71,27.46a7.27,7.27,0,0,0-2.94,11.87Z"/><path class="cls-2" d="M1128.64,340.78l157.3,16.38a12.09,12.09,0,0,0,12.18-9.46l25.57-105.11a8.43,8.43,0,0,0-7.13-11.12l-157-13.14a12,12,0,0,0-11.65,9.29L1122.11,329.7a8.28,8.28,0,0,0,4.86,10.65A8.72,8.72,0,0,0,1128.64,340.78Z"/><path class="cls-1" d="M1158.72,218.29h.57l157,13.14a8.46,8.46,0,0,1,7.14,11.12l-25.58,105.1a12.26,12.26,0,0,1-11.25,9.51h-.92l-157-16.38a8.29,8.29,0,0,1-7-9.42,8.81,8.81,0,0,1,.43-1.66L1148,227.62a12.11,12.11,0,0,1,11-9.33m0-4.38a16.55,16.55,0,0,0-15.2,12.61L1117.86,328.6a14.1,14.1,0,0,0,1.84,11.56,11.54,11.54,0,0,0,8.5,4.95l157.26,16.38a8.18,8.18,0,0,0,1.4,0,16.64,16.64,0,0,0,15.51-12.87l25.57-105.11a14,14,0,0,0-2-11.52,12.17,12.17,0,0,0-9-5.08l-157-13.13Z"/><path class="cls-4" d="M1216.22,310.69a2.24,2.24,0,0,1-1.79-.87l-63.9-88a2.23,2.23,0,0,1,.49-3.06,2.18,2.18,0,0,1,3,.51h0l62.32,86.19L1321,232.91a2.24,2.24,0,0,1,3.07.57,2.19,2.19,0,0,1-.55,3.05l0,0-106.2,73.75A2.24,2.24,0,0,1,1216.22,310.69Z"/><path class="cls-4" d="M1123,339.64a2.18,2.18,0,0,1-1.84-1,2.24,2.24,0,0,1,.61-3.07l77.6-50.14a2.2,2.2,0,0,1,3,.61,2.24,2.24,0,0,1-.62,3.07l-77.51,50.14A2.13,2.13,0,0,1,1123,339.64Z"/><path class="cls-4" d="M1292.91,357.24a2.12,2.12,0,0,1-1.71-.83l-51.5-64.16a2.18,2.18,0,0,1,.35-3.06,2.15,2.15,0,0,1,3,.29l0,.06,51.51,64.16a2.14,2.14,0,0,1-.26,3l0,0A2.46,2.46,0,0,1,1292.91,357.24Z"/><path class="cls-2" d="M815.25,551.78a188.14,188.14,0,0,1,43.31-56.41c28.73-24.83,45.94-42.87,36.92-47.78s-38.89,16.29-38.89,16.29l22.6-82.77s-49.79,32.8-63.94,60.7-42,86.76-42,86.76Z"/><path class="cls-1" d="M815.25,554a2.13,2.13,0,0,1-1-.27l-42-23.25a2.19,2.19,0,0,1-.92-2.85c.26-.57,28.07-59.16,42.08-86.75S875.9,380.63,878,379.27a2.19,2.19,0,0,1,3.33,2.41l-21,77c9.59-6.3,28.38-17.51,36.26-13.13a6.25,6.25,0,0,1,3.5,5c.84,7.62-10.77,21-40,46.34a186.59,186.59,0,0,0-42.75,55.66,2.16,2.16,0,0,1-1.31,1.18A2.13,2.13,0,0,1,815.25,554Zm-39.2-26.28,38.24,21.11a194,194,0,0,1,42.83-55.09c9.76-8.41,39.41-34.12,38.58-42.53a2.07,2.07,0,0,0-1.27-1.66c-5.43-3-24.66,7.66-36.57,16.16a2.24,2.24,0,0,1-3.1-.62,2.21,2.21,0,0,1-.31-1.75l21-77c-12.79,9-47.13,34.56-58.25,56.5-12.66,24.78-36.3,74.75-41.17,84.83Z"/><line class="cls-5" x1="977.55" y1="213.91" x2="1118.43" y2="226.21"/><path class="cls-1" d="M1118.43,228.53h0l-140.84-12.3a2.23,2.23,0,0,1-2-2.37,2.19,2.19,0,0,1,2.35-2h0l140.67,12.31a2.19,2.19,0,1,1,0,4.37Z"/><line class="cls-5" x1="968.4" y1="239.18" x2="1081.87" y2="249.38"/><path class="cls-1" d="M1081.87,251.57h0L968.4,241.37a2.14,2.14,0,0,1-2-2.31.13.13,0,0,1,0-.06,2.18,2.18,0,0,1,2.35-2h0l113.47,10.24a2.19,2.19,0,1,1-.22,4.38Z"/><path class="cls-2" d="M774.22,247.59s29.64,48.87,22.77,58.5-28.34,2.24-28.34,2.24"/><path class="cls-1" d="M784.16,313.23a56.57,56.57,0,0,1-16.21-2.8,2.31,2.31,0,0,1,1.45-4.38c5.52,1.88,20.93,5.34,25.79-1.45,4.38-5.82-10.86-36.3-22.86-56.1a2.19,2.19,0,0,1,.73-3h0a2.23,2.23,0,0,1,3,.75c5.08,8.36,30,50.62,22.64,60.91A17.16,17.16,0,0,1,784.16,313.23Z"/><path class="cls-2" d="M603.11,337.49c-21.89.4-40.94-7.35-64.72-21.89-6.75-4.08-14.46-10.56-12.31-18.09A33.07,33.07,0,0,0,528.8,290c0-4.38-4.38-7.36-7.93-10a39,39,0,0,1,13.84-69,47,47,0,0,1,28.16-80.1c-6.27.66,6.74-35,8.76-38.36a65.24,65.24,0,0,1,33.54-26.28,66.34,66.34,0,0,1,55.44,6c3.81-9.63,14.63-15,25-15.46a77,77,0,0,1,30.08,6.79c11.52,4.38,24,10,29,21.2a22.73,22.73,0,0,0,3.51,6.79,19,19,0,0,0,8.76,4c34.68,10.82,41.6,63,17.78,85.23-4.38,3.89-8.76,2-12.27,6.79-2.27,3.19-2.58,12-3.81,16.11a154.49,154.49,0,0,1-12.17,28.51A277.24,277.24,0,0,1,707,284.85a167.69,167.69,0,0,1-67.53,45.94A115.93,115.93,0,0,1,603.11,337.49Z"/><path class="cls-1" d="M601.45,339.68c-19.66,0-38.41-6.48-64.11-22.16-13.49-8.19-14.68-15.72-13.14-20.58a20.38,20.38,0,0,1,1.35-3.28,9.51,9.51,0,0,0,1.27-3.73c0-2.93-3.06-5.25-6.13-7.49l-.87-.65a41.17,41.17,0,0,1,11-72,49.24,49.24,0,0,1,28.47-80.67c-1.1-9.41,9.33-35.91,10.55-37.88A67.48,67.48,0,0,1,604.6,64a68.5,68.5,0,0,1,55.18,5,31,31,0,0,1,25.84-14.54,78.19,78.19,0,0,1,31,6.92c11.78,4.38,24.79,10.29,30.18,22.38l.78,1.79a13.89,13.89,0,0,0,2.33,4.38,14.09,14.09,0,0,0,6.35,3l1.4.39c15.68,4.9,27.54,18.79,31.75,37.18,4.38,19.8-.62,40.12-13.14,51.76a15.39,15.39,0,0,1-6.83,3.42,8,8,0,0,0-5.21,3,29,29,0,0,0-2.28,9.29,51.64,51.64,0,0,1-1.18,6.17,154.7,154.7,0,0,1-12.53,28.77,280.7,280.7,0,0,1-39.89,52.56A169.78,169.78,0,0,1,639.9,332a118.44,118.44,0,0,1-36.66,7.31h-1.79ZM563.09,132.93a44.89,44.89,0,0,0-26.85,76.38,2.19,2.19,0,0,1,.57,2.15,2.24,2.24,0,0,1-1.58,1.53,36.83,36.83,0,0,0-13.14,65.29l.88.62c3.59,2.67,8.1,6,7.93,11.21a13.55,13.55,0,0,1-1.71,5.43,22.46,22.46,0,0,0-1.1,2.58c-1.75,6.18,5.22,11.91,11.35,15.68,25.7,15.64,44.14,21.9,63.54,21.5h0a113.37,113.37,0,0,0,35.3-7.09,164.4,164.4,0,0,0,66.61-45.33A278.67,278.67,0,0,0,744.3,231a150.64,150.64,0,0,0,12.09-28.12,52.37,52.37,0,0,0,1.05-5.56,29.06,29.06,0,0,1,3.07-11.17,12.27,12.27,0,0,1,7.57-4.73,10.62,10.62,0,0,0,5-2.41c11.38-10.55,16-29.25,11.86-47.51-3.89-17.13-14.4-29.52-28.81-34l-1.32-.43a17.06,17.06,0,0,1-8.27-4.38A16.59,16.59,0,0,1,743.3,87a4.32,4.32,0,0,0-.7-1.62c-4.69-10.55-16.78-15.9-27.77-20.06a74.39,74.39,0,0,0-29.21-6.65c-8.76.39-19.36,4.9-23,14.1A2.29,2.29,0,0,1,661.23,74a2.54,2.54,0,0,1-1.84,0,63.64,63.64,0,0,0-53.56-5.83,62.78,62.78,0,0,0-32.41,25.45c-2,3.19-11.21,30-10,35a2.19,2.19,0,0,1-.3,4.29Z"/><path class="cls-2" d="M769.53,182a14.39,14.39,0,0,1,4.12,3.41A43.11,43.11,0,0,1,782.4,207c2.54,16.07-.48,32.41-1.22,48.52Q779,303,774.61,350.33c-1.84,20-53.82,18.43-62.76,12.08L717,442,609.42,395.91l7-65.38s35.34,1.62,57.19-38.49a143.09,143.09,0,0,0,13.14-38.46c2.5-11.38,7.88-27.63,7.58-39.15A53.06,53.06,0,0,0,691,199.32a19.09,19.09,0,0,0,14.24,1.36,12.81,12.81,0,0,0,6.57-8.76,38.76,38.76,0,0,0,.35-11.43,19.3,19.3,0,0,0,26.54-6.42c.25-.41.48-.82.7-1.24,1.18,5,7.27,6.7,12.35,7.49C758.93,181.37,764.36,179.22,769.53,182Z"/><path class="cls-1" d="M717,444.17a1.87,1.87,0,0,1-.88,0L608.54,398.1a2.27,2.27,0,0,1-1.31-2.27l7-65.34a2.22,2.22,0,0,1,2.27-2c1.36,0,34.29,1,55.18-37.36a142.26,142.26,0,0,0,12.84-37.84c.7-3.11,1.57-6.57,2.49-10.16a117.49,117.49,0,0,0,5-28.51,49.19,49.19,0,0,0-3.29-14.45,2.19,2.19,0,0,1,2.85-2.76,17.53,17.53,0,0,0,12.57,1.45,10.55,10.55,0,0,0,5.34-7.45,35.11,35.11,0,0,0,.31-10.73,2.15,2.15,0,0,1,1.09-2.06,2.25,2.25,0,0,1,2.32,0,17.16,17.16,0,0,0,23.48-6.17c.17-.29.33-.58.48-.88a2.25,2.25,0,0,1,2.19-1.27,2.16,2.16,0,0,1,1.93,1.67c.7,2.93,4.11,4.81,10.55,5.87a43.63,43.63,0,0,0,7.75.3,20.84,20.84,0,0,1,11,1.75h0a16.64,16.64,0,0,1,4.73,3.9,44.07,44.07,0,0,1,9.16,22.82,144.56,144.56,0,0,1,0,35c-.4,4.65-.79,9.29-1,13.89-1.45,31.57-3.68,63.5-6.57,94.9-.35,3.89-2.63,9.37-11.25,13.13-14.37,6.62-40.16,6-51.29,2.15l4.86,75.89a2.64,2.64,0,0,1-2.27,2.54ZM611.87,394.51l102.61,44.23-4.86-76a2.28,2.28,0,0,1,1.14-2.06,2.25,2.25,0,0,1,2.32,0c5.87,4.38,35.3,6.26,50.62-.74,5.39-2.5,8.33-5.78,8.76-9.77,2.89-31.36,5.13-63.19,6.57-94.68,0-4.69.62-9.42,1.05-14.1a140,140,0,0,0,0-34,40.15,40.15,0,0,0-8.14-20.49,13.7,13.7,0,0,0-3.46-2.89,16.85,16.85,0,0,0-8.76-1.23,45.17,45.17,0,0,1-8.54-.35,20.84,20.84,0,0,1-12.09-5.3,21.9,21.9,0,0,1-24.74,7,32.66,32.66,0,0,1-.61,8.19,15.09,15.09,0,0,1-7.8,10.42,16.6,16.6,0,0,1-11.74,0,42.61,42.61,0,0,1,2.15,11.56A117.86,117.86,0,0,1,691.18,244c-.92,3.55-1.79,7-2.45,10a147,147,0,0,1-13.14,39c-19.18,35-49.09,39.42-57.15,39.42Z"/><path class="cls-2" d="M712.6,262.69c0-7.92-4-15.24-8.06-21.89A60.72,60.72,0,0,0,693.63,226a20.84,20.84,0,0,0-16.72-6.21,19.5,19.5,0,0,0-12.79,9.32,37.18,37.18,0,0,0-4.38,15.55,67.9,67.9,0,0,0,29,61.31l-1.66-2"/><path class="cls-1" d="M688.55,308.5a2.23,2.23,0,0,1-1.22-.39,70.53,70.53,0,0,1-30-63.46,39,39,0,0,1,4.86-16.51,21.21,21.21,0,0,1,14.33-10.33,22.7,22.7,0,0,1,18.52,6.35,62,62,0,0,1,11.3,15.28c3.81,6.44,8.54,14.45,8.36,23.25a2.23,2.23,0,0,1-2.23,2.15,2.19,2.19,0,0,1-2.15-2.23h0c0-7.58-4.38-15-7.75-20.94a59.35,59.35,0,0,0-10.46-14.27,18.77,18.77,0,0,0-15-5.35,17.16,17.16,0,0,0-11.29,8.32A34,34,0,0,0,661.45,245a66,66,0,0,0,24.87,56.93,2.18,2.18,0,0,1,1.93.75l1.66,2a2.18,2.18,0,0,1,0,2.89A2.27,2.27,0,0,1,688.55,308.5Z"/><path class="cls-2" d="M586.52,414.61,597.2,380l139.26,13.44,8,31.8S671.69,459.85,586.52,414.61Z"/><path class="cls-1" d="M677.83,439.93a195.34,195.34,0,0,1-92.23-23.39,2.19,2.19,0,0,1-1.06-2.58l10.65-34.6a2.18,2.18,0,0,1,2.27-1.53l139.31,13.49a2.19,2.19,0,0,1,1.93,1.62l8,31.79a2.17,2.17,0,0,1-1.18,2.5A173.5,173.5,0,0,1,677.83,439.93Zm-88.69-26.28A186,186,0,0,0,741.9,424.12l-7.19-28.47-136-13.14Z"/><ellipse class="cls-1" cx="765.85" cy="228.51" rx="4.47" ry="11.34" transform="translate(-3.49 12.06) rotate(-0.9)"/><path class="cls-6" d="M533,986.17S466.26,540.52,524.81,458c32.93-46.42,86-48.17,134.58-45.89,37.7,1.66,71.12-1.18,100.24,21.89,66.52,53.21,163.7,526.36,163.7,526.36S779.73,1060.61,533,986.17Z"/><path class="cls-2" d="M977.31,380.8l16.43-5.4h0l20.16,61.38a8.16,8.16,0,0,1-5.2,10.28h0l-1,.31a8.14,8.14,0,0,1-10.28-5.2h0L977.31,380.8Z"/><path class="cls-1" d="M1005.23,449.91a10.34,10.34,0,0,1-9.86-7.14l-20.14-61.31a2.19,2.19,0,0,1,1.4-2.76l16.25-5.65a2,2,0,0,1,2.76,1.27l20.14,61.32a10.24,10.24,0,0,1-.57,7.88,10.46,10.46,0,0,1-6,5.17l-1,.3A10.26,10.26,0,0,1,1005.23,449.91Zm-25.18-67.79,19.48,59.3a6,6,0,0,0,7.54,3.81l1-.31h0a6.27,6.27,0,0,0,3.46-3,5.93,5.93,0,0,0,.31-4.38l-19.45-59.29Z"/><rect class="cls-2" x="963.4" y="321.66" width="27.94" height="63.19" transform="translate(-61.43 322.58) rotate(-18.18)"/><path class="cls-1" d="M974,389.74a2.46,2.46,0,0,1-1,0,2.2,2.2,0,0,1-1.09-1.27l-19.71-60a2.18,2.18,0,0,1,1.4-2.76l26.54-8.76a2,2,0,0,1,1.66,0,2.07,2.07,0,0,1,1.1,1.27l19.71,60a2,2,0,0,1-1.27,2.76l-26.54,8.76Zm-17-60.83,18.35,55.88,22.38-7.36-18.4-55.88Z"/><rect class="cls-2" x="1002.79" y="424" width="27.92" height="109.8" rx="9.85" transform="translate(-98.4 339.04) rotate(-18.07)"/><path class="cls-1" d="M1028.17,533.16a12.09,12.09,0,0,1-11.43-8.27L988.5,439.23A12.08,12.08,0,0,1,996.16,424l7.8-2.54a12,12,0,0,1,15.19,7.66l28.16,85.7a12,12,0,0,1-7.66,15.2l-7.84,2.54A11,11,0,0,1,1028.17,533.16Zm-20.32-107.95a7.55,7.55,0,0,0-2.4.4l-7.8,2.54a7.65,7.65,0,0,0-4.86,9.67l28.11,85.71a7.71,7.71,0,0,0,3.86,4.38,7.51,7.51,0,0,0,5.82.44l7.8-2.54h0a7.64,7.64,0,0,0,4.38-3.86,7.51,7.51,0,0,0,.44-5.82L1015,430.47A7.67,7.67,0,0,0,1007.85,425.21Z"/><circle class="cls-2" cx="962.44" cy="307.85" r="74.14"/><path class="cls-1" d="M962.53,384.18a76.34,76.34,0,1,1,23.73-3.81A76.33,76.33,0,0,1,962.53,384.18Zm0-148.29A72,72,0,1,0,1031,285.4,71.46,71.46,0,0,0,962.53,235.89Z"/><circle class="cls-2" cx="962.44" cy="307.85" r="60.22"/><path class="cls-1" d="M962.48,370.25a62.41,62.41,0,1,1,59.26-81.89h0a62.41,62.41,0,0,1-59.26,81.89Zm0-120.48a58.08,58.08,0,1,0,55.1,40.08h0a58.14,58.14,0,0,0-55.36-40.08Z"/><path class="cls-2" d="M952.19,560.75l2.94-21.89c0-.92,1.49-68.5,7.31-73.71s81.41-60,86.71-52.55-5.3,21.59-5.3,21.59,17.74-1.8,15.94,8.76-12.39,21.28-12.39,21.28,10.86-8,12.53,3.55a19.1,19.1,0,0,1-7.23,17.78s16-7.09,12.44,6.17-42.44,47-42.44,47l-4.69,28.9Z"/><path class="cls-1" d="M1018,570.13h-.21l-65.69-7h-.4c-1.79-.53-1.79-.53.88-20.28l.52-3.9c0-.39,1.14-68.84,8.06-75.1,4.38-4,72.39-53.87,86.49-53.87h.57a3.94,3.94,0,0,1,2.89,1.58c4.38,6.17,0,15.41-2.93,20.54a17.79,17.79,0,0,1,12,4.07,8.78,8.78,0,0,1,2,7.45,40.24,40.24,0,0,1-7.62,16.07,8,8,0,0,1,3,.52,8.75,8.75,0,0,1,4.77,7.58,20.72,20.72,0,0,1-2.89,14.06,7.29,7.29,0,0,1,8,10.77c-3.46,13.14-37.35,43.09-42.52,47.6l-4.38,28.12A2.24,2.24,0,0,1,1018,570.13ZM954.65,559l61.57,6.53,4.38-26.85a2,2,0,0,1,.7-1.31c10.68-9.24,39-35.52,41.78-45.9.61-2.41.57-4.16,0-4.82-1.53-1.27-6.35,0-9.24,1.14a2.15,2.15,0,0,1-2.81-.92,2.1,2.1,0,0,1,.66-2.84,16.83,16.83,0,0,0,6.31-15.64c-.26-1.62-.79-3.59-2.15-4.16-2.14-.92-5.82,1.23-7,2.06a2.2,2.2,0,0,1-2.94-.35,2.25,2.25,0,0,1,0-3s10.21-10.29,11.83-20.1a4,4,0,0,0-.88-3.72c-2.71-2.89-10.11-2.85-12.7-2.63a2.22,2.22,0,0,1-2.14-1.09,2.09,2.09,0,0,1,0-2.37c2.67-3.59,8.76-14,5.3-19-7.45-2.23-75.85,46.12-83.47,53-4.38,4.37-6.62,61-6.62,72.08a22.89,22.89,0,0,1-.57,4.38c-.52,3.9-1.57,11.6-2.05,15.33Z"/><path class="cls-6" d="M759.54,434s42.57,25.76,74.45,84.75,79.27,204.86,79.27,204.86l27.28-185.81,93.07,21s8,332.84-74.45,370.28S666,734.79,666,734.79Z"/><path class="cls-1" d="M932.31,935h-.61c-.44,0-46.38-13.88-99.59-63.15-49-45.37-114.43-131-148.24-281.59a2.24,2.24,0,0,1,4.38-1c64.16,285.84,243,341,244.76,341.59a2.21,2.21,0,0,1-.61,4.38Z"/><path class="cls-6" d="M956.44,335.83c1.45-1.1,2.85-2.23,4.38-3.29l12-8.75c2.67-2,5.3-3.9,7.8-6.13a29.12,29.12,0,0,0,5.65-6.62,24.59,24.59,0,0,0,2.19-5.34,27.84,27.84,0,0,0,1-4.95,11.59,11.59,0,0,0-7.4-12.61,15.63,15.63,0,0,0-15.85,3.06,20.86,20.86,0,0,0-3.07,3.16h0v-.31a14,14,0,0,0-5.56-6.17,13.11,13.11,0,0,0-7.4-1.71A16,16,0,0,0,935.77,297a21.52,21.52,0,0,0-.92,4.9,23.48,23.48,0,0,0,0,5.3,17.51,17.51,0,0,0,2.8,7.23,45.68,45.68,0,0,0,5,6.22c2.76,2.89,5.6,5.78,8.36,8.76,1.93,2,3.77,4.07,5.61,6.13Z"/><path class="cls-2" d="M768.35,330l-23.87-13.84s-7.27,28.69,5.69,36.09S768.35,330,768.35,330Z"/><path class="cls-1" d="M754.2,355.54a10.16,10.16,0,0,1-5.12-1.49c-14.24-8.1-7.05-37.27-6.75-38.5a2.31,2.31,0,0,1,1.27-1.49,2.27,2.27,0,0,1,2,0l24,14a2.23,2.23,0,0,1,1.05,2.28c-.39,2.05-3.85,20.23-12.61,24.34A8.79,8.79,0,0,1,754.2,355.54ZM746,319.49c-1.75,8.76-3.11,26,5.3,30.66a5,5,0,0,0,4.81.44c5.22-2.45,8.76-13.88,9.81-19.62Z"/><path class="cls-1" d="M711.81,362.41s-34.73-9.28-46.29-20.41a242.15,242.15,0,0,0,47.08,42.53Z"/><path class="cls-1" d="M712.6,386.72a2,2,0,0,1-1.19-.35,245.86,245.86,0,0,1-47.73-43,2.19,2.19,0,0,1,3.2-3c11,10.6,45,19.79,45.37,19.88a2.14,2.14,0,0,1,1.62,2l.92,21.9a2.2,2.2,0,0,1-1.1,2A2.55,2.55,0,0,1,712.6,386.72ZM678,352.56a224.36,224.36,0,0,0,32.23,27.76l-.7-16.24a215,215,0,0,1-31.4-11.52Z"/></g></svg>