<svg xmlns="http://www.w3.org/2000/svg" viewBox="0 0 1504 1280"><defs><style>.cls-1{fill:none;stroke:#68e1fd;stroke-miterlimit:10;stroke-width:2px;}.cls-2{fill:#ffbc0e;}.cls-3{fill:#093f68;}.cls-4{fill:#68e1fd;}.cls-5{fill:#f56132;}.cls-6{fill:#fff;}.cls-7{fill:#70cc40;}</style></defs><title>JavaBanner</title><g id="Capa_2" data-name="Capa 2"><polygon class="cls-1" points="713 16 118 62 224 710 171 1216 1478 1092 1332 197 713 16"/><polygon class="cls-1" points="715.15 55.08 164.14 104.67 253.08 714.92 226.46 1185.62 1428.47 1057.23 1292.24 226.75 715.15 55.08"/><polygon class="cls-1" points="717.31 94.15 210.27 147.34 282.15 719.85 281.92 1155.23 1378.95 1022.45 1252.48 256.5 717.31 94.15"/><polygon class="cls-1" points="719.46 133.23 256.41 190.01 311.23 724.77 337.38 1124.85 1329.42 987.68 1212.72 286.25 719.46 133.23"/><polygon class="cls-1" points="721.62 172.31 302.55 232.68 340.31 729.69 392.85 1094.46 1279.9 952.91 1172.96 316 721.62 172.31"/><polygon class="cls-1" points="723.77 211.38 348.68 275.35 369.38 734.62 448.31 1064.08 1230.37 918.13 1133.2 345.75 723.77 211.38"/><polygon class="cls-1" points="725.92 250.46 394.82 318.02 398.46 739.54 503.77 1033.69 1180.85 883.36 1093.44 375.5 725.92 250.46"/><polygon class="cls-1" points="728.08 289.54 440.96 360.69 427.54 744.46 559.23 1003.31 1131.32 848.59 1053.68 405.25 728.08 289.54"/><polygon class="cls-1" points="730.23 328.62 487.1 403.36 456.62 749.38 614.69 972.92 1081.79 813.81 1013.93 434.99 730.23 328.62"/><polygon class="cls-1" points="732.38 367.69 533.23 446.03 485.69 754.31 670.15 942.54 1032.27 779.04 974.17 464.74 732.38 367.69"/><polygon class="cls-1" points="734.54 406.77 579.37 488.7 514.77 759.23 725.62 912.15 982.74 744.27 934.41 494.49 734.54 406.77"/><polygon class="cls-1" points="736.69 445.85 625.5 531.37 543.85 764.15 781.08 881.77 933.22 709.49 894.65 524.24 736.69 445.85"/><polygon class="cls-1" points="738.85 484.92 671.64 574.04 572.92 769.08 836.54 851.38 883.69 674.72 854.89 553.99 738.85 484.92"/><polygon class="cls-1" points="741 524 717.78 616.71 602 774 892 821 834.16 639.95 815.13 583.74 741 524"/></g><g id="Capa_1" data-name="Capa 1"><g id="_183_java_outline" data-name=" 183 java outline"><path class="cls-2" d="M980.29,705.06a5.1,5.1,0,0,1-4.85-3.49,5,5,0,0,1,3.22-6.28l.07,0c25-7.93,54.07-26.69,58.59-49,1-4.86.94-11.72-4.91-16.62-15.83-13.25-36.75,7.76-37.63,8.66a5.16,5.16,0,0,1-7.19.14,5,5,0,0,1-.22-7l.06-.06c9.75-10,33.05-24.84,51.57-9.36,7.51,6.3,10.47,15.6,8.21,26.23-5.36,26.47-36.75,47.49-65.47,56.58A5.13,5.13,0,0,1,980.29,705.06Z"/><path class="cls-3" d="M980.29,707.11a7.1,7.1,0,0,1-6.8-4.89,6.87,6.87,0,0,1,.43-5.35,7,7,0,0,1,4.11-3.53c24.49-7.76,52.84-25.91,57.19-47.47.88-4.33.86-10.38-4.21-14.63-14.37-12-34,7.67-34.9,8.52a7.17,7.17,0,0,1-10.05.18,6.86,6.86,0,0,1-2.2-5,7,7,0,0,1,2-5c10.27-10.47,34.67-25.94,54.34-9.48,8.21,6.79,11.31,16.79,9,28.21-5.52,27.28-37.56,48.85-66.86,58.11A6.89,6.89,0,0,1,980.29,707.11Zm40.36-83.88a19.81,19.81,0,0,1,13.07,4.85c6.63,5.54,6.72,13.17,5.63,18.59-4.7,23.18-34.41,42.46-60,50.55a2.87,2.87,0,0,0-1.76,1.49,2.78,2.78,0,0,0-.19,2.22,3.06,3.06,0,0,0,3.84,1.91c28.19-8.83,59-29.36,64.07-55,2-9.85-.72-18.47-7.62-24.24-17.36-14.51-39.49-.33-48.77,9.22a2.9,2.9,0,0,0,0,4.1,3.11,3.11,0,0,0,4.33,0C994,636.14,1007,623.23,1020.65,623.23Z"/><path class="cls-2" d="M857.24,603.07h154.35l-12.6,87a52,52,0,0,1-51.47,44.65H921.29a52.06,52.06,0,0,1-51.47-44.65Z"/><path class="cls-3" d="M947.52,736.79H921.29a54.39,54.39,0,0,1-53.52-46.41l-12.58-87a2.06,2.06,0,0,1,1.72-2.34l.33,0h154.35a2,2,0,0,1,2.08,2c0,.11,0,.22,0,.33l-12.61,87A54.34,54.34,0,0,1,947.52,736.79Zm-88-131.67,12.32,84.79a50.26,50.26,0,0,0,49.43,42.88h26.23A50.28,50.28,0,0,0,997,689.91l12.31-84.68Z"/><path class="cls-4" d="M918.29,538.26v213.5c0,9.4-6.67,17-14.88,17H595.68c-8.21,0-14.88-7.62-14.88-17V538.26c0-9.38,6.65-17,14.88-17H903.41C911.62,521.24,918.29,528.88,918.29,538.26Z"/><path class="cls-3" d="M903.41,770.81H595.68c-9.34,0-16.93-8.56-16.93-19.07V538.24c0-10.51,7.59-19.07,16.93-19.07H903.41c9.34,0,17,8.56,17,19.07v213.5C920.36,762.25,912.75,770.81,903.41,770.81ZM595.68,523.3c-7.08,0-12.83,6.71-12.83,15v213.5c0,8.21,5.75,15,12.83,15H903.41c7.08,0,12.85-6.72,12.85-15V538.26c0-8.21-5.77-15-12.85-15Z"/><path class="cls-3" d="M704.85,601.2H633.5a6.16,6.16,0,1,1,0-12.31h71.35a6.16,6.16,0,1,1,0,12.31Z"/><path class="cls-3" d="M725.69,607.51a3.38,3.38,0,0,1-1.58-3V597.8a1.9,1.9,0,0,0-.68-1.73,4.76,4.76,0,0,0-2.54-.47v-3.26a4.84,4.84,0,0,0,2.54-.46,2,2,0,0,0,.68-1.72v-6.71a3.37,3.37,0,0,1,1.58-3,7.4,7.4,0,0,1,4.11-1h2.85v3.27h-.82a3,3,0,0,0-2.05.57,2.51,2.51,0,0,0-.66,2v5.46c0,1.71-1,2.78-3.12,3.21h0c2,.45,3.12,1.52,3.12,3.2v5.46a2.5,2.5,0,0,0,.66,2.05,3.1,3.1,0,0,0,2.05.56h.82v3.28H729.8A7.4,7.4,0,0,1,725.69,607.51Z"/><path class="cls-3" d="M632.8,649.82H630v-3.27h.82a3,3,0,0,0,2.05-.57,2.56,2.56,0,0,0,.68-2.06v-5.33c0-1.71,1-2.78,3.12-3.21h0c-2.06-.43-3.12-1.5-3.12-3.2v-5.44a2.54,2.54,0,0,0-.68-2,3.12,3.12,0,0,0-2.05-.56H630v-3.28h2.85a7.28,7.28,0,0,1,4.1,1,3.35,3.35,0,0,1,1.61,3v6.7a1.87,1.87,0,0,0,.65,1.72,4.86,4.86,0,0,0,2.55.45v3.29a4.76,4.76,0,0,0-2.55.45,1.92,1.92,0,0,0-.65,1.72v6.72a3.35,3.35,0,0,1-1.61,3A7.4,7.4,0,0,1,632.8,649.82Z"/><path class="cls-3" d="M632.8,732.69H630V729.4h.82a3.06,3.06,0,0,0,2.05-.55,2.54,2.54,0,0,0,.68-2.05v-5.46c0-1.69,1-2.75,3.12-3.21h0c-2.06-.43-3.12-1.49-3.12-3.2v-5.46a2.53,2.53,0,0,0-.68-2.05,3,3,0,0,0-2.05-.58H630v-3.28h2.85a7.28,7.28,0,0,1,4.1,1,3.35,3.35,0,0,1,1.61,3v6.7a2,2,0,0,0,.65,1.74,5.1,5.1,0,0,0,2.55.45v3.27a4.77,4.77,0,0,0-2.55.47,1.87,1.87,0,0,0-.65,1.72v6.69a3.35,3.35,0,0,1-1.61,3A7.36,7.36,0,0,1,632.8,732.69Z"/><path class="cls-3" d="M845.19,648.85a3.36,3.36,0,0,1-1.58-3v-6.71a1.91,1.91,0,0,0-.66-1.72,4.86,4.86,0,0,0-2.55-.46v-3.28a5,5,0,0,0,2.55-.45,1.93,1.93,0,0,0,.66-1.73v-6.69a3.36,3.36,0,0,1,1.58-3,7.45,7.45,0,0,1,4.1-1h2.88V624h-.82a3.21,3.21,0,0,0-2.06.56,2.59,2.59,0,0,0-.65,2v5.44c0,1.7-1,2.77-3.12,3.2h0c2.05.43,3.12,1.5,3.12,3.2v5.46a2.55,2.55,0,0,0,.65,2.06,3.1,3.1,0,0,0,2.06.57h.82v3.27h-2.88A7.45,7.45,0,0,1,845.19,648.85Z"/><path class="cls-3" d="M854.71,646.55h.82a3,3,0,0,0,2.06-.57,2.52,2.52,0,0,0,.67-2.06v-5.33q0-2.57,3.1-3.21h0c-2.05-.43-3.1-1.5-3.1-3.2v-5.44a2.5,2.5,0,0,0-.67-2,3.15,3.15,0,0,0-2.06-.56h-.82v-3.28h2.8a7.4,7.4,0,0,1,4.1,1,3.3,3.3,0,0,1,1.58,3v6.7a1.92,1.92,0,0,0,.68,1.72,4.84,4.84,0,0,0,2.54.45v3.29a4.74,4.74,0,0,0-2.54.45,2,2,0,0,0-.68,1.72v6.72a3.32,3.32,0,0,1-1.58,2.91,7.38,7.38,0,0,1-4.1,1h-2.86Z"/><path class="cls-3" d="M887.17,649.82h-2.85a7.57,7.57,0,0,1-4.11-1,3.33,3.33,0,0,1-1.58-3v-6.71a2.07,2.07,0,0,0-.68-1.73,4.94,4.94,0,0,0-2.54-.45v-3.28a4.94,4.94,0,0,0,2.54-.45,2,2,0,0,0,.68-1.73v-6.69a3.33,3.33,0,0,1,1.58-3,7.4,7.4,0,0,1,4.11-1h2.85V624h-.82a3.14,3.14,0,0,0-2.06.55,2.52,2.52,0,0,0-.67,2.06V632q0,2.55-3.1,3.2h0c2.05.43,3.1,1.5,3.1,3.2v5.46a2.52,2.52,0,0,0,.67,2.06,3,3,0,0,0,2.06.57h.82Z"/><path class="cls-3" d="M819.36,641.42H664.11a6.16,6.16,0,1,1,0-12.32H819.36a6.16,6.16,0,1,1,0,12.32Z"/><path class="cls-3" d="M632.8,689.39H630v-3.26h.82a3.06,3.06,0,0,0,2.05-.57,2.56,2.56,0,0,0,.68-2.06V678c0-1.7,1-2.77,3.12-3.2h0c-2.06-.43-3.12-1.5-3.12-3.2v-5.46a2.55,2.55,0,0,0-.68-2.06,3.06,3.06,0,0,0-2.05-.57H630v-3.27h2.85a7.28,7.28,0,0,1,4.1,1,3.37,3.37,0,0,1,1.61,3V671a2,2,0,0,0,.65,1.73,5,5,0,0,0,2.55.45v3.28a5,5,0,0,0-2.55.45,2,2,0,0,0-.65,1.73v6.69a3.41,3.41,0,0,1-1.61,3A7.27,7.27,0,0,1,632.8,689.39Z"/><path class="cls-3" d="M829.81,688.39a3.44,3.44,0,0,1-1.58-3v-6.69a2.05,2.05,0,0,0-.66-1.73,5,5,0,0,0-2.56-.45V673.2a5,5,0,0,0,2.56-.45,2.05,2.05,0,0,0,.66-1.73v-6.69a3.38,3.38,0,0,1,1.58-3,7.33,7.33,0,0,1,4.11-1h2.85v3.27H836a3.17,3.17,0,0,0-2.05.57,2.52,2.52,0,0,0-.66,2.06v5.46c0,1.7-1,2.77-3.12,3.2h0c2,.43,3.12,1.5,3.12,3.2v5.46a2.52,2.52,0,0,0,.66,2.06,3.17,3.17,0,0,0,2.05.57h.82v3.26H833.9A7.43,7.43,0,0,1,829.81,688.39Z"/><path class="cls-3" d="M839.32,686.13h.8a3.19,3.19,0,0,0,2-.57,2.6,2.6,0,0,0,.66-2.06V678q0-2.55,3.12-3.2h0c-2.06-.43-3.12-1.5-3.12-3.2v-5.46a2.6,2.6,0,0,0-.66-2.06,3.19,3.19,0,0,0-2-.57h-.8v-3.27h2.85a7.33,7.33,0,0,1,4.11,1,3.38,3.38,0,0,1,1.58,3V671a2,2,0,0,0,.65,1.73,5.05,5.05,0,0,0,2.57.45v3.28a5.05,5.05,0,0,0-2.57.45,2,2,0,0,0-.65,1.73v6.69a3.44,3.44,0,0,1-1.58,3,7.49,7.49,0,0,1-4.11,1h-2.85Z"/><path class="cls-3" d="M871.88,689.39H869a7.44,7.44,0,0,1-4.1-1,3.43,3.43,0,0,1-1.59-3v-6.69a1.93,1.93,0,0,0-.65-1.73,5,5,0,0,0-2.55-.45V673.2a5,5,0,0,0,2.55-.45,1.93,1.93,0,0,0,.65-1.73v-6.69a3.39,3.39,0,0,1,1.59-3,7.28,7.28,0,0,1,4.1-1h2.88v3.27h-.83a3.19,3.19,0,0,0-2,.57,2.6,2.6,0,0,0-.66,2.06v5.46q0,2.55-3.12,3.2h0c2.06.43,3.12,1.5,3.12,3.2v5.46a2.6,2.6,0,0,0,.66,2.06,3.19,3.19,0,0,0,2,.57h.83Z"/><path class="cls-3" d="M803.33,681h-70.7a6.16,6.16,0,0,1,0-12.32h70.7a6.16,6.16,0,0,1,0,12.32Z"/><path class="cls-3" d="M710,681H664.11a6.16,6.16,0,1,1,0-12.32H710A6.16,6.16,0,0,1,710,681Z"/><path class="cls-5" d="M934,500.06c-1.31-10.27,4.54-19.91,10.12-28.6-10.51,8.81-21.24,19.73-21.8,33.42-.39,9.8,4.72,19.2,11.87,25.89,3.9,3.65,8.37,6.67,12,10.57,9.5,10.27,9.07,22,7.39,34.78,8.46-10.7,12.6-27.37,5.52-39.5C951.69,524,935.94,515.58,934,500.06Z"/><path class="cls-3" d="M953.54,578.17a2.15,2.15,0,0,1-.8-.16,2.06,2.06,0,0,1-1.23-2.16c1.56-11.84,2.23-23.3-6.86-33.11a67,67,0,0,0-6.78-6.16c-1.7-1.4-3.46-2.85-5.13-4.41-8.35-7.85-12.91-17.84-12.52-27.47.62-14.76,12.32-26.4,22.58-34.9a2,2,0,0,1,3,2.65c-5.83,9.07-11,18-9.81,27.22h0c1.15,9,7.33,15.5,13.85,22.35a75.34,75.34,0,0,1,11,13.43c8,13.69,2.64,31.27-5.69,41.82A2,2,0,0,1,953.54,578.17Zm-18-95.93c-6.15,6.55-10.81,14-11.16,22.73s3.75,17.28,11.23,24.3c1.56,1.48,3.26,2.88,4.92,4.23a72.1,72.1,0,0,1,7.19,6.45c7.86,8.49,9.28,18.1,8.78,27.69,4.58-9.34,6.16-21,.82-30A69.91,69.91,0,0,0,946.89,525c-6.7-7-13.63-14.37-14.95-24.63h0A32.23,32.23,0,0,1,935.51,482.24Z"/><path class="cls-5" d="M974.19,556.25c1.87-3.72,3.45-7.54,2.94-11.29-1-6.92-9.06-10.72-11.85-16.84a18.74,18.74,0,0,1-.25-13.55,37.34,37.34,0,0,1,7.15-11.82c-3.2,3.73-3,9.46-.88,13.94s5.66,8,9,11.66,6.4,7.78,7.24,12.64c1.17,6.92-3.82,14.37-7.8,19.75a82,82,0,0,0-5,6.59A17.73,17.73,0,0,0,973,581c-4.29-3.55-4.68-10.12-3.08-15.45A64.76,64.76,0,0,1,974.19,556.25Z"/><path class="cls-3" d="M973,583.16a2.13,2.13,0,0,1-1.3-.47c-5.33-4.42-5.35-12.32-3.75-17.62a45.53,45.53,0,0,1,3.32-7.49c.39-.72.76-1.46,1.13-2.18h0c1.69-3.36,3.16-6.89,2.73-10.1s-3-5.91-5.77-8.68a28.2,28.2,0,0,1-5.91-7.57,20.59,20.59,0,0,1-.33-15.07,39,39,0,0,1,7.33-12.32,1.51,1.51,0,0,1,.21-.23,2.05,2.05,0,0,1,3.33,2.4,1.27,1.27,0,0,1-.21.25l-.15.19c-2.56,3.16-2.05,8.07-.45,11.56a39.77,39.77,0,0,0,7.09,9.46l1.53,1.7c3.31,3.72,6.82,8.21,7.74,13.67,1.28,7.37-3.4,14.93-8.21,21.31-.61.84-1.27,1.65-1.93,2.43a36.08,36.08,0,0,0-3,4.1,15.55,15.55,0,0,0-1.52,12.09,2.06,2.06,0,0,1-2.06,2.63ZM976,557.23l-1.15,2.24a42,42,0,0,0-3.06,6.77,19.5,19.5,0,0,0-.74,4.36,18.68,18.68,0,0,1,1.85-4.25,39.37,39.37,0,0,1,3.3-4.5c.62-.76,1.23-1.5,1.81-2.28,4.23-5.71,8.42-12.32,7.41-18.19-.76-4.41-3.84-8.33-6.75-11.6-.5-.57-1-1.12-1.52-1.68a42.66,42.66,0,0,1-7.76-10.49,19.52,19.52,0,0,1-1.5-4.72,22.59,22.59,0,0,0-.95,2.4,16.75,16.75,0,0,0,.17,12.05,24.6,24.6,0,0,0,5.09,6.39c3.08,3.14,6.28,6.36,6.92,11C979.75,549.06,978,553.29,976,557.23Z"/><rect class="cls-6" x="725.42" y="716.74" width="244.29" height="71.81" rx="7.53"/><path class="cls-3" d="M962.2,790.6H733a9.61,9.61,0,0,1-9.59-9.61V724.27a9.6,9.6,0,0,1,9.59-9.58H962.2a9.6,9.6,0,0,1,9.59,9.58V781A9.61,9.61,0,0,1,962.2,790.6ZM733,718.75a5.5,5.5,0,0,0-5.48,5.48V781a5.5,5.5,0,0,0,5.48,5.5H962.2a5.5,5.5,0,0,0,5.48-5.5V724.27a5.5,5.5,0,0,0-5.48-5.48Z"/><path class="cls-3" d="M803.62,760.87a13.77,13.77,0,0,1-.74,4.46,10.87,10.87,0,0,1-2.22,3.8,10.28,10.28,0,0,1-3.67,2.58,14.68,14.68,0,0,1-12.73-1.08,10.63,10.63,0,0,1-3.88-6.84l6.51-1.56a5.36,5.36,0,0,0,1.58,3.1,4.25,4.25,0,0,0,3.06,1.15,4.1,4.1,0,0,0,4.1-2.05,11.8,11.8,0,0,0,1.07-5.55V732.59h7Z"/><path class="cls-3" d="M824.66,732.59h6.16l16.83,39.1h-7.94l-3.66-9H819.12l-3.55,9h-7.79Zm8.83,24.2-6-15.91-6.16,15.91Z"/><path class="cls-3" d="M844,732.59h8l10.66,29.54,11-29.54h7.49l-15.78,39.1h-6Z"/><path class="cls-3" d="M895,732.59h6l16.84,39.1h-7.95l-3.65-9H889.26l-3.55,9H878Zm8.83,24.2-6-15.91-6.16,15.91Z"/><path class="cls-6" d="M903.41,521.24h-153l-9.34-15.17A17,17,0,0,0,726.59,498H626.35a17,17,0,0,0-17,17v6.16H595.68c-8.21,0-14.88,7.64-14.88,17v17.74H918.29V538.18C918.29,528.88,911.62,521.24,903.41,521.24Z"/><path class="cls-3" d="M918.31,558.05H580.8a2.05,2.05,0,0,1-2-2V538.26c0-10.51,7.59-19.07,16.93-19.07H607.3v-4.1A19.07,19.07,0,0,1,626.35,496H726.59a18.9,18.9,0,0,1,16.22,9l8.75,14.18H903.47c9.34,0,17,8.56,17,19.07v17.74A2.05,2.05,0,0,1,918.31,558.05ZM582.85,554H916.26V538.26c0-8.21-5.77-15-12.85-15h-153a2.07,2.07,0,0,1-1.75-1l-9.34-15.11a14.84,14.84,0,0,0-12.73-7.1H626.35A15,15,0,0,0,611.41,515v6.16a2.05,2.05,0,0,1-2,2.06H595.68c-7.08,0-12.83,6.71-12.83,15Z"/><circle class="cls-5" cx="645.59" cy="527.01" r="7.94"/><path class="cls-3" d="M645.59,537a10,10,0,1,1,10-10A10,10,0,0,1,645.59,537Zm0-15.89a5.89,5.89,0,1,0,5.89,5.89,5.89,5.89,0,0,0-5.89-5.89Z"/><circle class="cls-2" cx="677.67" cy="527.01" r="7.94"/><path class="cls-3" d="M677.67,537a10,10,0,1,1,10-10h0A10,10,0,0,1,677.67,537Zm0-15.89a5.89,5.89,0,1,0,5.9,5.89h0A5.9,5.9,0,0,0,677.67,521.12Z"/><circle class="cls-7" cx="709.76" cy="527.01" r="7.94"/><path class="cls-3" d="M709.7,537a10,10,0,1,1,10-10h0A10,10,0,0,1,709.7,537Zm0-15.89a5.89,5.89,0,1,0,5.89,5.89h0A5.89,5.89,0,0,0,709.7,521.12Z"/></g></g></svg>