<svg xmlns="http://www.w3.org/2000/svg" viewBox="0 0 1504 1280"><defs><style>.cls-1,.cls-10,.cls-11,.cls-12,.cls-13,.cls-14,.cls-2,.cls-3,.cls-4,.cls-5,.cls-6,.cls-7,.cls-8,.cls-9{fill:none;stroke-miterlimit:10;stroke-width:2px;}.cls-1{stroke:#6bfce3;}.cls-2{stroke:#6bfae5;}.cls-3{stroke:#6bf8e7;}.cls-4{stroke:#6af6e9;}.cls-5{stroke:#6af4eb;}.cls-6{stroke:#6af2ed;}.cls-7{stroke:#6af0ef;}.cls-8{stroke:#69edf1;}.cls-9{stroke:#69ebf3;}.cls-10{stroke:#69e9f5;}.cls-11{stroke:#69e7f7;}.cls-12{stroke:#68e5f9;}.cls-13{stroke:#68e3fb;}.cls-14{stroke:#68e1fd;}.cls-15{fill:#68e1fd;}.cls-16{fill:#093f68;}.cls-17{fill:#fff;}</style></defs><title>NetBanner</title><g id="Capa_1" data-name="Capa 1"><polygon class="cls-1" points="693.79 17.11 98.79 63.11 204.79 711.11 151.79 1217.11 1458.79 1093.11 1312.79 198.11 693.79 17.11"/><polygon class="cls-2" points="695.94 56.19 144.93 105.78 233.87 716.03 207.25 1186.73 1409.26 1058.34 1273.03 227.86 695.94 56.19"/><polygon class="cls-3" points="698.1 95.27 191.06 148.45 262.94 720.96 262.71 1156.34 1359.74 1023.57 1233.27 257.61 698.1 95.27"/><polygon class="cls-4" points="700.25 134.34 237.2 191.12 292.02 725.88 318.17 1125.96 1310.21 988.79 1193.51 287.36 700.25 134.34"/><polygon class="cls-5" points="702.4 173.42 283.33 233.79 321.1 730.8 373.63 1095.57 1260.68 954.02 1153.75 317.11 702.4 173.42"/><polygon class="cls-6" points="704.56 212.5 329.47 276.46 350.17 735.73 429.1 1065.19 1211.16 919.25 1113.99 346.86 704.56 212.5"/><polygon class="cls-7" points="706.71 251.57 375.61 319.13 379.25 740.65 484.56 1034.8 1161.63 884.47 1074.23 376.61 706.71 251.57"/><polygon class="cls-8" points="708.87 290.65 421.75 361.8 408.33 745.57 540.02 1004.42 1112.11 849.7 1034.47 406.36 708.87 290.65"/><polygon class="cls-9" points="711.02 329.73 467.88 404.47 437.4 750.5 595.48 974.03 1062.58 814.92 994.71 436.11 711.02 329.73"/><polygon class="cls-10" points="713.17 368.8 514.02 447.14 466.48 755.42 650.94 943.65 1013.05 780.15 954.96 465.86 713.17 368.8"/><polygon class="cls-11" points="715.33 407.88 560.16 489.81 495.56 760.34 706.4 913.26 963.53 745.38 915.2 495.6 715.33 407.88"/><polygon class="cls-12" points="717.48 446.96 606.29 532.48 524.63 765.26 761.87 882.88 914 710.6 875.44 525.35 717.48 446.96"/><polygon class="cls-13" points="719.63 486.04 652.43 575.15 553.71 770.19 817.33 852.5 864.48 675.83 835.68 555.1 719.63 486.04"/><polygon class="cls-14" points="721.79 525.11 698.57 617.82 582.79 775.11 872.79 822.11 814.95 641.06 795.92 584.85 721.79 525.11"/><g id="_155_network_outline" data-name=" 155 network outline"><rect class="cls-15" x="657.4" y="376.88" width="181.27" height="137.51" rx="9.26"/><path class="cls-16" d="M829.38,517H666.66a11.88,11.88,0,0,1-11.83-11.84v-119a11.87,11.87,0,0,1,11.83-11.83H829.38a11.87,11.87,0,0,1,11.83,11.83v119A11.88,11.88,0,0,1,829.38,517ZM666.66,379.45a6.69,6.69,0,0,0-6.69,6.69v119a6.69,6.69,0,0,0,6.69,6.7H829.38a6.69,6.69,0,0,0,6.69-6.7h0v-119a6.69,6.69,0,0,0-6.69-6.69H666.66Z"/><rect class="cls-16" x="722.97" y="514.39" width="56.03" height="20.04"/><path class="cls-16" d="M779,537H723a2.56,2.56,0,0,1-2.56-2.57v-20a2.56,2.56,0,0,1,2.56-2.57h56a2.57,2.57,0,0,1,2.56,2.57v20A2.57,2.57,0,0,1,779,537Zm-53.46-5.13h50.89V517H725.54Z"/><rect class="cls-15" x="704.96" y="532.84" width="89.31" height="11.83" rx="5.62"/><path class="cls-16" d="M788.65,547.24h-78a8.22,8.22,0,0,1-8.21-8.21v-.57a8.21,8.21,0,0,1,8.21-8.18h78a8.18,8.18,0,0,1,8.18,8.18h0V539a8.18,8.18,0,0,1-8.16,8.21Zm-78-11.83a3.05,3.05,0,0,0-3.08,3V539a3.08,3.08,0,0,0,3.08,3.08h78A3.08,3.08,0,0,0,791.7,539v-.57a3.06,3.06,0,0,0-3.05-3.05h-78Z"/><rect class="cls-17" x="667.87" y="389.15" width="160.3" height="97.34"/><path class="cls-16" d="M828.17,489H667.87a2.57,2.57,0,0,1-2.57-2.56V389.15a2.57,2.57,0,0,1,2.57-2.57h160.3a2.57,2.57,0,0,1,2.57,2.57v97.32a2.57,2.57,0,0,1-2.57,2.56ZM670.44,483.9H825.6V391.71H670.44Z"/><rect class="cls-15" x="518.61" y="658.32" width="181.27" height="137.51" rx="9.26"/><path class="cls-16" d="M690.58,798.39H527.87A11.83,11.83,0,0,1,516,786.56h0v-119a11.83,11.83,0,0,1,11.83-11.83H690.58a11.85,11.85,0,0,1,11.83,11.83v119A11.85,11.85,0,0,1,690.58,798.39ZM527.87,660.88a6.7,6.7,0,0,0-6.7,6.7h0v119a6.7,6.7,0,0,0,6.7,6.7H690.58a6.7,6.7,0,0,0,6.7-6.7h0v-119a6.7,6.7,0,0,0-6.7-6.7H527.87Z"/><rect class="cls-16" x="584.18" y="795.82" width="56.03" height="20.04"/><path class="cls-16" d="M640.23,818.43H584.18a2.56,2.56,0,0,1-2.57-2.56v-20a2.57,2.57,0,0,1,2.57-2.56h56.05a2.57,2.57,0,0,1,2.57,2.56v20A2.56,2.56,0,0,1,640.23,818.43ZM586.8,813.3h50.86V798.39H586.75Z"/><rect class="cls-15" x="566.16" y="814.28" width="89.31" height="11.83" rx="5.62"/><path class="cls-16" d="M649.83,828.67H571.78a8.18,8.18,0,0,1-8.18-8.18h0v-.59a8.19,8.19,0,0,1,8.18-8.19h78.05A8.21,8.21,0,0,1,658,819.9v.59A8.21,8.21,0,0,1,649.83,828.67Zm-78.05-11.83a3.06,3.06,0,0,0-3,3.06h0v.59a3.06,3.06,0,0,0,3,3h78.05a3.05,3.05,0,0,0,3.08-3v-.61a3.06,3.06,0,0,0-3.06-3.06H571.78Z"/><rect class="cls-17" x="529.08" y="670.58" width="160.3" height="97.34"/><path class="cls-16" d="M689.38,770.49H529.08a2.57,2.57,0,0,1-2.57-2.56V670.58a2.57,2.57,0,0,1,2.57-2.56h160.3a2.56,2.56,0,0,1,2.56,2.56v97.35A2.56,2.56,0,0,1,689.38,770.49Zm-157.74-5.13H686.81V673.15H531.64Z"/><rect class="cls-15" x="796.19" y="658.32" width="181.27" height="137.51" rx="9.26"/><path class="cls-16" d="M968.17,798.39H805.46a11.85,11.85,0,0,1-11.83-11.83v-119a11.85,11.85,0,0,1,11.83-11.83H968.17A11.83,11.83,0,0,1,980,667.58v119A11.83,11.83,0,0,1,968.17,798.39ZM805.46,660.88a6.7,6.7,0,0,0-6.7,6.7h0v119a6.7,6.7,0,0,0,6.7,6.7H968.17a6.7,6.7,0,0,0,6.7-6.7v-119a6.7,6.7,0,0,0-6.7-6.7Z"/><rect class="cls-16" x="861.76" y="795.82" width="56.03" height="20.04"/><path class="cls-16" d="M917.79,818.43h-56a2.56,2.56,0,0,1-2.56-2.56v-20a2.56,2.56,0,0,1,2.56-2.56h56a2.57,2.57,0,0,1,2.57,2.56v20A2.56,2.56,0,0,1,917.79,818.43Zm-53.46-5.13h50.89V798.39H864.33Z"/><rect class="cls-15" x="843.75" y="814.28" width="89.31" height="11.83" rx="5.62"/><path class="cls-16" d="M927.44,828.67H849.39a8.22,8.22,0,0,1-8.21-8.18v-.59a8.22,8.22,0,0,1,8.21-8.19h78.05a8.19,8.19,0,0,1,8.19,8.19h0v.59a8.19,8.19,0,0,1-8.19,8.18Zm-78.05-11.83a3.07,3.07,0,0,0-3.08,3v.62a3.06,3.06,0,0,0,3.06,3h78.07a3,3,0,0,0,3-3h0v-.59a3.05,3.05,0,0,0-3-3.06H849.39Z"/><rect class="cls-17" x="806.66" y="670.58" width="160.3" height="97.34"/><path class="cls-16" d="M967,770.49H806.66a2.56,2.56,0,0,1-2.56-2.56V670.58a2.56,2.56,0,0,1,2.56-2.56H967a2.57,2.57,0,0,1,2.57,2.56v97.35A2.57,2.57,0,0,1,967,770.49Zm-157.73-5.13H964.4V673.15H809.23Z"/><path class="cls-16" d="M889.79,644.69a2.57,2.57,0,0,1-2.57-2.57V620.41c0-8.44-9-15.4-20-15.4H628.84c-11,0-20,6.88-20,15.4v21.71a2.57,2.57,0,0,1-5.14,0V620.41c0-11.29,11.3-20.53,25.16-20.53H867.21c13.85,0,25.15,9.16,25.15,20.53v21.71A2.57,2.57,0,0,1,889.79,644.69Z"/><circle class="cls-16" cx="748.02" cy="602.5" r="14.81"/><path class="cls-16" d="M748,619.87a17.38,17.38,0,1,1,17.37-17.37v0A17.36,17.36,0,0,1,748,619.87Zm0-29.59a12.24,12.24,0,1,0,12.24,12.24A12.24,12.24,0,0,0,748,590.28Z"/><path class="cls-16" d="M747.76,590.28h0a2.57,2.57,0,0,1-2.56-2.57c.46-13.11.69-27.69.36-30.92a2.56,2.56,0,0,1,.38-3.13,2.76,2.76,0,0,1,2.93-.57c1.92.85,2.56,1.16,1.46,34.8A2.57,2.57,0,0,1,747.76,590.28Z"/></g></g></svg>