<?xml version="1.0" encoding="utf-8"?>
<!-- Generator: Adobe Illustrator 24.0.1, SVG Export Plug-In . SVG Version: 6.00 Build 0)  -->
<svg version="1.1" id="Capa_2" xmlns="http://www.w3.org/2000/svg" xmlns:xlink="http://www.w3.org/1999/xlink" x="0px" y="0px"
	 viewBox="0 0 1920 1080" style="enable-background:new 0 0 1920 1080;" xml:space="preserve">
<style type="text/css">
	.st0{fill:none;stroke:#9E9E9E;stroke-miterlimit:10;}
	.st1{fill:none;stroke:#9E9E9E;stroke-width:2;stroke-miterlimit:10;}
	.st2{fill:none;stroke:#9E9E9E;stroke-width:1.9231;stroke-miterlimit:10;}
	.st3{fill:none;stroke:#9E9E9E;stroke-width:1.8462;stroke-miterlimit:10;}
	.st4{fill:none;stroke:#9E9E9E;stroke-width:1.7692;stroke-miterlimit:10;}
	.st5{fill:none;stroke:#9E9E9E;stroke-width:1.6923;stroke-miterlimit:10;}
	.st6{fill:none;stroke:#9E9E9E;stroke-width:1.6154;stroke-miterlimit:10;}
	.st7{fill:none;stroke:#9E9E9E;stroke-width:1.5385;stroke-miterlimit:10;}
	.st8{fill:none;stroke:#9E9E9E;stroke-width:1.4615;stroke-miterlimit:10;}
	.st9{fill:none;stroke:#9E9E9E;stroke-width:1.3846;stroke-miterlimit:10;}
	.st10{fill:none;stroke:#9E9E9E;stroke-width:1.3077;stroke-miterlimit:10;}
	.st11{fill:none;stroke:#9E9E9E;stroke-width:1.2308;stroke-miterlimit:10;}
	.st12{fill:none;stroke:#9E9E9E;stroke-width:1.1538;stroke-miterlimit:10;}
	.st13{fill:none;stroke:#9E9E9E;stroke-width:1.0769;stroke-miterlimit:10;}
</style>
<g>
	<path class="st0" d="M980.5,7.1"/>
</g>
<g>
	<path class="st0" d="M1203.8,937.4"/>
</g>
<g>
	<path class="st0" d="M620.2,1074.6"/>
	<path class="st0" d="M587.1,1090.9"/>
	<path class="st0" d="M554,1107.2"/>
	<path class="st0" d="M521,1123.6"/>
	<path class="st0" d="M487.9,1139.9"/>
	<path class="st0" d="M454.8,1156.2"/>
	<path class="st0" d="M421.7,1172.5"/>
	<path class="st0" d="M388.7,1188.9"/>
	<path class="st0" d="M355.6,1205.2"/>
	<path class="st0" d="M322.5,1221.5"/>
</g>
<g>
	<polygon class="st1" points="555.5,300.5 238.5,385.4 196.5,32.4 721.5,7.5 	"/>
	<polygon class="st2" points="512.9,281.6 212.5,362.1 172.7,27.5 669.2,5.6 	"/>
	<polygon class="st3" points="470.2,262.7 186.4,338.7 148.8,22.7 616.9,3.7 	"/>
	<polygon class="st4" points="427.6,243.8 160.4,315.4 125,17.8 564.7,1.9 	"/>
	<polygon class="st5" points="385,224.9 134.3,292 101.1,12.9 512.4,0 	"/>
	<polygon class="st6" points="342.3,206 108.3,268.7 77.3,8 460.1,-1.9 	"/>
	<polygon class="st7" points="299.7,187.1 82.2,245.3 53.4,3.1 407.8,-3.8 	"/>
	<polygon class="st8" points="257.1,168.2 56.2,222 29.6,-1.7 355.6,-5.6 	"/>
	<polygon class="st9" points="214.4,149.3 30.1,198.7 5.7,-6.6 303.3,-7.5 	"/>
	<polygon class="st10" points="171.8,130.4 4.1,175.3 -18.1,-11.5 251,-9.4 	"/>
	<polygon class="st11" points="129.2,111.5 -22,152 -42,-16.4 198.7,-11.3 	"/>
	<polygon class="st12" points="86.6,92.6 -48,128.6 -65.8,-21.2 146.5,-13.1 	"/>
	<polygon class="st13" points="43.9,73.7 -74.1,105.3 -89.7,-26.1 94.2,-15 	"/>
	<polygon class="st0" points="1.3,54.8 -100.1,81.9 -113.6,-31 41.9,-16.9 	"/>
</g>
<g>
	<path class="st0" d="M1591.2-550.7"/>
</g>
<g>
	<path class="st0" d="M1752.5,452.1"/>
	<path class="st0" d="M1743.9,469.7"/>
	<path class="st0" d="M1735.3,487.3"/>
	<path class="st0" d="M1726.6,504.9"/>
	<path class="st0" d="M1718,522.5"/>
	<path class="st0" d="M1709.4,540.1"/>
	<path class="st0" d="M1700.8,557.7"/>
	<path class="st0" d="M1692.2,575.3"/>
	<path class="st0" d="M1683.5,592.9"/>
	<path class="st0" d="M1674.9,610.5"/>
	<path class="st0" d="M1666.3,628.1"/>
	<path class="st0" d="M1657.7,645.7"/>
	<path class="st0" d="M1649.1,663.3"/>
	<path class="st0" d="M1640.4,680.9"/>
</g>
<path class="st0" d="M441.8,306.1"/>
<g>
	<polygon class="st1" points="1369.8,296.4 1686.8,381.3 1728.8,28.3 1203.8,3.4 	"/>
	<polygon class="st2" points="1412.4,277.5 1712.8,358 1752.6,23.4 1256.1,1.5 	"/>
	<polygon class="st3" points="1455.1,258.6 1738.9,334.6 1776.5,18.6 1308.3,-0.3 	"/>
	<polygon class="st4" points="1497.7,239.7 1764.9,311.3 1800.3,13.7 1360.6,-2.2 	"/>
	<polygon class="st5" points="1540.3,220.8 1791,287.9 1824.2,8.8 1412.9,-4.1 	"/>
	<polygon class="st6" points="1583,201.9 1817,264.6 1848,3.9 1465.2,-6 	"/>
	<polygon class="st7" points="1625.6,183 1843.1,241.3 1871.9,-0.9 1517.4,-7.8 	"/>
	<polygon class="st8" points="1668.2,164.1 1869.1,217.9 1895.7,-5.8 1569.7,-9.7 	"/>
	<polygon class="st9" points="1710.8,145.2 1895.2,194.6 1919.6,-10.7 1622,-11.6 	"/>
	<polygon class="st10" points="1753.5,126.3 1921.2,171.2 1943.4,-15.6 1674.3,-13.5 	"/>
	<polygon class="st11" points="1796.1,107.4 1947.3,147.9 1967.3,-20.5 1726.5,-15.3 	"/>
	<polygon class="st12" points="1838.7,88.5 1973.3,124.5 1991.1,-25.3 1778.8,-17.2 	"/>
	<polygon class="st13" points="1881.4,69.6 1999.4,101.2 2015,-30.2 1831.1,-19.1 	"/>
	<polygon class="st0" points="1924,50.7 2025.4,77.9 2038.8,-35.1 1883.4,-21 	"/>
</g>
</svg>
