<?xml version="1.0" encoding="utf-8"?>
<!-- Generator: Adobe Illustrator 24.0.1, SVG Export Plug-In . SVG Version: 6.00 Build 0)  -->
<svg version="1.1" id="Capa_2" xmlns="http://www.w3.org/2000/svg" xmlns:xlink="http://www.w3.org/1999/xlink" x="0px" y="0px"
	 viewBox="0 0 1920 1080" style="enable-background:new 0 0 1920 1080;" xml:space="preserve">
<style type="text/css">
	.st0{fill:none;stroke:#9E9E9E;stroke-miterlimit:10;}
</style>
<g>
	<path class="st0" d="M1906,35.5"/>
</g>
<g>
	<path class="st0" d="M1310.2-31.3"/>
	<path class="st0" d="M1273.5-27.1"/>
	<path class="st0" d="M1236.9-22.8"/>
	<path class="st0" d="M1200.3-18.5"/>
	<path class="st0" d="M1163.6-14.2"/>
	<path class="st0" d="M1127-10"/>
	<path class="st0" d="M1090.4-5.7"/>
	<path class="st0" d="M1053.7-1.4"/>
	<path class="st0" d="M1017.1,2.9"/>
	<path class="st0" d="M980.5,7.1"/>
</g>
<g>
	<path class="st0" d="M1203.8,937.4"/>
</g>
<g>
	<path class="st0" d="M620.2,1074.6"/>
	<path class="st0" d="M587.1,1090.9"/>
	<path class="st0" d="M554,1107.2"/>
	<path class="st0" d="M521,1123.6"/>
	<path class="st0" d="M487.9,1139.9"/>
	<path class="st0" d="M454.8,1156.2"/>
	<path class="st0" d="M421.7,1172.5"/>
	<path class="st0" d="M388.7,1188.9"/>
	<path class="st0" d="M355.6,1205.2"/>
	<path class="st0" d="M322.5,1221.5"/>
</g>
<g>
	<polygon class="st0" points="351.5,143.5 34.5,228.4 -7.5,-124.6 478.5,-80.5 	"/>
	<polygon class="st0" points="343.2,134.8 42.8,215.2 3,-119.3 463.5,-77.5 	"/>
	<polygon class="st0" points="334.9,126 51.1,202 13.5,-114 448.6,-74.6 	"/>
	<polygon class="st0" points="326.5,117.3 59.3,188.8 23.9,-108.8 433.6,-71.6 	"/>
	<polygon class="st0" points="318.2,108.5 67.6,175.6 34.4,-103.5 418.6,-68.6 	"/>
	<polygon class="st0" points="309.9,99.8 75.8,162.5 44.8,-98.2 403.7,-65.7 	"/>
	<polygon class="st0" points="301.6,91 84.1,149.3 55.3,-92.9 388.7,-62.7 	"/>
	<polygon class="st0" points="293.2,82.3 92.3,136.1 65.7,-87.7 373.7,-59.7 	"/>
	<polygon class="st0" points="284.9,73.5 100.6,122.9 76.2,-82.4 358.8,-56.7 	"/>
	<polygon class="st0" points="276.6,64.8 108.9,109.7 86.6,-77.1 343.8,-53.8 	"/>
	<polygon class="st0" points="268.3,56 117.1,96.5 97.1,-71.8 328.8,-50.8 	"/>
	<polygon class="st0" points="259.9,47.3 125.4,83.3 107.5,-66.6 313.9,-47.8 	"/>
	<polygon class="st0" points="251.6,38.5 133.6,70.1 118,-61.3 298.9,-44.9 	"/>
	<polygon class="st0" points="243.3,29.8 141.9,56.9 128.4,-56 283.9,-41.9 	"/>
</g>
<g>
	<polygon class="st0" points="1928.7,388.3 1421.8,346.5 1543.2,-187.7 2230.1,129.3 	"/>
	<polygon class="st0" points="1921.1,371.3 1440.7,331.6 1555.7,-174.6 2206.7,125.9 	"/>
	<polygon class="st0" points="1913.5,354.3 1459.6,316.8 1568.3,-161.5 2183.4,122.4 	"/>
	<polygon class="st0" points="1905.8,337.2 1478.5,302 1580.8,-148.4 2160,118.9 	"/>
	<polygon class="st0" points="1898.2,320.2 1497.4,287.1 1593.3,-135.3 2136.6,115.4 	"/>
	<polygon class="st0" points="1890.6,303.2 1516.3,272.3 1605.9,-122.2 2113.2,111.9 	"/>
	<polygon class="st0" points="1883,286.1 1535.2,257.4 1618.4,-109.1 2089.8,108.4 	"/>
	<polygon class="st0" points="1875.3,269.1 1554.1,242.6 1631,-96 2066.4,105 	"/>
	<polygon class="st0" points="1867.7,252.1 1572.9,227.7 1643.5,-82.9 2043,101.5 	"/>
	<polygon class="st0" points="1860.1,235 1591.8,212.9 1656,-69.8 2019.6,98 	"/>
	<polygon class="st0" points="1852.4,218 1610.7,198 1668.6,-56.7 1996.2,94.5 	"/>
	<polygon class="st0" points="1844.8,201 1629.6,183.2 1681.1,-43.6 1972.8,91 	"/>
	<polygon class="st0" points="1837.2,183.9 1648.5,168.4 1693.7,-30.5 1949.4,87.5 	"/>
	<polygon class="st0" points="1829.5,166.9 1667.4,153.5 1706.2,-17.4 1926,84 	"/>
</g>
<g>
	<polygon class="st0" points="2037.4,946.7 1861.4,1238.9 1640.4,680.9 1752.5,452.1 	"/>
	<polygon class="st0" points="2026.2,938.1 1855.9,1210 1650.9,686.2 1766.3,476.1 	"/>
	<polygon class="st0" points="2014.9,929.5 1850.4,1181 1661.4,691.5 1780.1,500 	"/>
	<polygon class="st0" points="2003.7,921 1844.9,1152.1 1671.8,696.8 1793.9,524 	"/>
	<polygon class="st0" points="1992.4,912.4 1839.4,1123.1 1682.3,702 1807.7,548 	"/>
	<polygon class="st0" points="1981.2,903.8 1833.9,1094.1 1692.7,707.3 1821.5,571.9 	"/>
	<polygon class="st0" points="1969.9,895.3 1828.4,1065.2 1703.2,712.6 1835.3,595.9 	"/>
	<polygon class="st0" points="1958.7,886.7 1822.9,1036.2 1713.6,717.9 1849.1,619.9 	"/>
	<polygon class="st0" points="1947.4,878.1 1817.4,1007.3 1724.1,723.1 1862.9,643.8 	"/>
	<polygon class="st0" points="1936.2,869.6 1811.8,978.3 1734.5,728.4 1876.7,667.8 	"/>
	<polygon class="st0" points="1924.9,861 1806.3,949.3 1745,733.7 1890.4,691.7 	"/>
	<polygon class="st0" points="1913.7,852.4 1800.8,920.4 1755.4,739 1904.2,715.7 	"/>
	<polygon class="st0" points="1902.4,843.9 1795.3,891.4 1765.9,744.3 1918,739.7 	"/>
	<polygon class="st0" points="1891.2,835.3 1789.8,862.5 1776.4,749.5 1931.8,763.6 	"/>
</g>
</svg>
