<?xml version="1.0" encoding="utf-8"?>
<!-- Generator: Adobe Illustrator 24.0.1, SVG Export Plug-In . SVG Version: 6.00 Build 0)  -->
<svg version="1.1" id="Capa_2" xmlns="http://www.w3.org/2000/svg" xmlns:xlink="http://www.w3.org/1999/xlink" x="0px" y="0px"
	 viewBox="0 0 1920 1080" style="enable-background:new 0 0 1920 1080;" xml:space="preserve">
<style type="text/css">
	.st0{fill:#9E9E9E;}
	.st1{fill:none;stroke:#9E9E9E;stroke-miterlimit:10;}
</style>
<g>
	<g>
		<path class="st0" d="M-117.6-154.7l155.7,45.8L196-62.4L509.8,30L308.5,168L106.4,306.5L-5.8,75.4L-117.6-154.7 M-119.5-156.3
			L-6.7,75.8L106,308l203-139.2l203-139.2l-315.8-93L38.4-109.8L-119.5-156.3L-119.5-156.3z"/>
	</g>
	<g>
		<path class="st0" d="M61.3-144.8l143.1,44.4l144.4,44.8l286.6,89L472.9,169.7L201.5,292.4L10.4,86.5l25.5-116L61.3-144.8
			 M60.4-146.4L34.7-29.8L9,86.9l192.1,207l272.4-123.1L637.9,32.9L349.1-56.7l-144.4-44.8L60.4-146.4L60.4-146.4z"/>
	</g>
	<g>
		<path class="st0" d="M240.6-134.8l130,42.9l130.9,43.2l259.6,85.7L637.3,171.4L296.6,278.1L27,97.6L133.5-18.3L240.6-134.8
			 M240.2-136.5L132.5-19.3L24.8,97.9l271.6,181.8l341.8-107.1L763.7,36.2L502-50.1L371.1-93.3L240.2-136.5L240.2-136.5z"/>
	</g>
	<g>
		<path class="st0" d="M420.2-124.7l116.6,41.3l117.4,41.5L887,40.4L801.7,173l-410,90.7L44.1,108.7L231.2-7.4L420.2-124.7
			 M420-126.5L230.3-8.8L40.5,108.9l351,156.6l411.2-91l86.9-135L654.8-43.5L537.4-85L420-126.5L420-126.5z"/>
	</g>
	<g>
		<path class="st0" d="M599.9-114.6L703.1-75l103.9,39.9L1013,44l-47.1,130.8l-479,74.7L61.7,119.6L328.8,3.4L599.9-114.6
			 M599.9-116.6L328.1,1.6L56.3,119.9l430.4,131.4l480.6-74.9l48.1-133.6L807.6-36.9L703.7-76.8L599.9-116.6L599.9-116.6z"/>
	</g>
	<g>
		<path class="st0" d="M779.6-104.4l89.6,37.9l90.4,38.2L1139,47.6l-9.2,128.9L581.9,235L80.1,130.5L426.5,14.1L779.6-104.4
			 M779.7-106.7L425.8,12.1L72,130.9l509.8,106.2l550-58.8l9.4-132.1L960.4-30.2l-90.4-38.2L779.7-106.7L779.7-106.7z"/>
	</g>
	<g>
		<path class="st0" d="M959.3-94.3l76.1,36.2l76.9,36.6L1265,51.1l28.5,127l-616.4,42.5L99.4,141.2L524.3,24.8L959.3-94.3
			 M959.5-96.8L523.6,22.6L87.8,141.9L677,223l619.3-42.7L1267,49.5l-153.8-73.2l-76.9-36.6L959.5-96.8L959.5-96.8z"/>
	</g>
	<g>
		<path class="st0" d="M1139-84.1l62.5,34.4l63.4,34.9l126.1,69.5l65.8,125.1l-684.5,26.5L120,151.8L622,35.5L1139-84.1
			 M1139.3-86.8L621.4,33.1L103.5,153l668.7,55.9l688.7-26.7l-68-129.3L1266.1-17l-63.4-34.9L1139.3-86.8L1139.3-86.8z"/>
	</g>
	<g>
		<path class="st0" d="M1318.6-74l48.9,32.6l49.9,33.3l99.4,66.3l102.8,123.1l-752.2,10.5l-724.9-29.7L719.8,46.3L1318.6-74
			 M1319.2-76.9l-600,120.5L119.3,164l748.1,30.7l758.1-10.6L1518.7,56.2l-99.8-66.5L1369-43.7L1319.2-76.9L1319.2-76.9z"/>
	</g>
	<g>
		<path class="st0" d="M1498.1-63.8l144.4,125.6l139.4,121.2l-819.4-5.4l-794.7-5.3L817.5,57L1498.1-63.8 M1499-67L817,54L135,175
			l827.5,5.5L1790,186L1644.5,59.5L1499-67L1499-67z"/>
	</g>
</g>
<g>
	<path class="st1" d="M1860.2-66.6"/>
</g>
<g>
	<path class="st1" d="M1276.5,70.6"/>
	<path class="st1" d="M1243.4,86.9"/>
	<path class="st1" d="M1210.4,103.2"/>
	<path class="st1" d="M1177.3,119.6"/>
	<path class="st1" d="M1144.2,135.9"/>
	<path class="st1" d="M1111.2,152.2"/>
	<path class="st1" d="M1078.1,168.5"/>
	<path class="st1" d="M1045,184.9"/>
	<path class="st1" d="M1011.9,201.2"/>
	<path class="st1" d="M978.9,217.5"/>
</g>
<g>
	<g>
		<path class="st0" d="M1278.1,892.3l155.7,45.8l157.9,46.5l313.7,92.4l-201.3,138l-202.1,138.6l-112.2-231.1L1278.1,892.3
			 M1276.2,890.7l112.7,232.2l112.7,232.2l203-139.2l203-139.2l-315.8-93l-157.9-46.5L1276.2,890.7L1276.2,890.7z"/>
	</g>
	<g>
		<path class="st0" d="M1456.9,902.2l143.1,44.4l144.4,44.8l286.6,89l-162.5,136.2l-271.5,122.7L1406,1133.5l25.5-116L1456.9,902.2
			 M1456,900.6l-25.7,116.6l-25.7,116.6l192.1,207l272.4-123.1l164.3-137.8l-288.8-89.7l-144.4-44.8L1456,900.6L1456,900.6z"/>
	</g>
	<g>
		<path class="st0" d="M1636.3,912.2l130,42.9l130.9,43.2l259.6,85.7L2033,1218.4l-340.8,106.7l-269.6-180.5l106.6-115.9
			L1636.3,912.2 M1635.9,910.5l-107.7,117.2l-107.7,117.2l271.6,181.8l341.8-107.1l125.6-136.4l-261.8-86.4l-130.9-43.2
			L1635.9,910.5L1635.9,910.5z"/>
	</g>
	<g>
		<path class="st0" d="M1815.9,922.3l116.6,41.3l117.4,41.5l232.8,82.4l-85.3,132.6l-410,90.7l-347.6-155.1l187.1-116.1
			L1815.9,922.3 M1815.7,920.5l-189.8,117.7l-189.8,117.7l351,156.6l411.2-91l86.9-135l-234.8-83.1L1933.1,962L1815.7,920.5
			L1815.7,920.5z"/>
	</g>
	<g>
		<path class="st0" d="M1995.6,932.4l103.2,39.6l103.9,39.9l206,79.1l-47.1,130.8l-479,74.7l-425.1-129.8l267.1-116.2L1995.6,932.4
			 M1995.5,930.4l-271.8,118.3l-271.8,118.3l430.4,131.4l480.6-74.9l48.1-133.6l-207.8-79.8l-103.9-39.9L1995.5,930.4L1995.5,930.4z
			"/>
	</g>
	<g>
		<path class="st0" d="M2175.3,942.6l89.6,37.9l90.4,38.2l179.4,75.9l-9.2,128.9l-547.9,58.6l-501.9-104.6l346.5-116.3L2175.3,942.6
			 M2175.4,940.3l-353.8,118.8l-353.8,118.8l509.8,106.2l550-58.8l9.4-132.1l-180.8-76.5l-90.4-38.2L2175.4,940.3L2175.4,940.3z"/>
	</g>
	<g>
		<path class="st0" d="M2355,952.7l76.1,36.2l76.9,36.6l152.7,72.7l28.5,127l-616.4,42.5l-577.7-79.5l424.9-116.4L2355,952.7
			 M2355.2,950.2l-435.9,119.4l-435.9,119.4l589.2,81.1l619.3-42.7l-29.3-130.7l-153.8-73.2l-76.9-36.6L2355.2,950.2L2355.2,950.2z"
			/>
	</g>
	<g>
		<path class="st0" d="M2534.6,962.9l62.5,34.4l63.4,34.9l126.1,69.5l65.8,125.1l-684.5,26.5l-652.3-54.5l502-116.2L2534.6,962.9
			 M2535,960.2l-517.9,119.9L1499.2,1200l668.7,55.9l688.7-26.7l-68-129.3l-126.8-69.9l-63.4-34.9L2535,960.2L2535,960.2z"/>
	</g>
	<g>
		<path class="st0" d="M2714.3,973l48.9,32.6l49.9,33.3l99.4,66.3l102.8,123.1l-752.2,10.5l-724.9-29.7l577.3-115.9L2714.3,973
			 M2714.8,970.1l-600,120.5l-600,120.5l748.1,30.7l758.1-10.6l-106.8-127.9l-99.8-66.6l-49.9-33.3L2714.8,970.1L2714.8,970.1z"/>
	</g>
	<g>
		<path class="st0" d="M2893.8,983.2l144.4,125.6l139.4,121.2l-819.4-5.4l-794.7-5.3l649.7-115.3L2893.8,983.2 M2894.7,980l-682,121
			l-682,121l827.5,5.5l827.5,5.5l-145.5-126.5L2894.7,980L2894.7,980z"/>
	</g>
</g>
<g>
	<path class="st1" d="M1203.8,937.4"/>
</g>
<g>
	<path class="st1" d="M620.2,1074.6"/>
	<path class="st1" d="M587.1,1090.9"/>
	<path class="st1" d="M554,1107.2"/>
	<path class="st1" d="M521,1123.6"/>
	<path class="st1" d="M487.9,1139.9"/>
	<path class="st1" d="M454.8,1156.2"/>
	<path class="st1" d="M421.7,1172.5"/>
	<path class="st1" d="M388.7,1188.9"/>
	<path class="st1" d="M355.6,1205.2"/>
	<path class="st1" d="M322.5,1221.5"/>
</g>
</svg>
