<?xml version="1.0" encoding="utf-8"?>
<!-- Generator: Adobe Illustrator 24.0.1, SVG Export Plug-In . SVG Version: 6.00 Build 0)  -->
<svg version="1.1" id="Capa_1" xmlns="http://www.w3.org/2000/svg" xmlns:xlink="http://www.w3.org/1999/xlink" x="0px" y="0px"
	 viewBox="0 0 848 642" style="enable-background:new 0 0 848 642;" xml:space="preserve">
<style type="text/css">
	.st0{fill:#F09F43;}
	.st1{fill:#FFA76C;}
	.st2{fill:url(#SVGID_1_);}
	.st3{fill:url(#SVGID_2_);}
	.st4{fill:url(#SVGID_3_);}
	.st5{clip-path:url(#SVGID_5_);fill:#F09F43;}
	.st6{fill:url(#SVGID_6_);}
	.st7{fill:url(#SVGID_7_);}
	.st8{filter:url(#Adobe_OpacityMaskFilter);}
	.st9{mask:url(#SVGID_8_);}
	.st10{fill:none;stroke:#12D2E5;stroke-miterlimit:10;}
	.st11{fill:#12D2E5;}
</style>
<g>
	<image style="overflow:visible;" width="381" height="389" xlink:href="3D2195D3.png"  transform="matrix(1 0 0 1 310 189)">
	</image>
</g>
<ellipse class="st0" cx="422.4" cy="309.6" rx="226.4" ry="231.7"/>
<path class="st1" d="M422.4,77.9c-57.6,0-110.2,22.1-150.2,58.4c35.6-23.8,78.1-37.7,123.8-37.7c125,0,226.4,103.7,226.4,231.7
	c0,69-29.5,130.9-76.2,173.3c61.7-41.4,102.5-112.8,102.5-194C648.7,181.6,547.4,77.9,422.4,77.9z"/>
<radialGradient id="SVGID_1_" cx="673.5032" cy="3.7229" r="609.9233" gradientTransform="matrix(1.2057 0 0 1.2342 34.7936 -13.6522)" gradientUnits="userSpaceOnUse">
	<stop  offset="0" style="stop-color:#FAF3B9"/>
	<stop  offset="1" style="stop-color:#FFFFFF;stop-opacity:0"/>
</radialGradient>
<ellipse class="st2" cx="422.4" cy="309.6" rx="226.4" ry="231.7"/>
<radialGradient id="SVGID_2_" cx="128.3893" cy="449.2313" r="582.8329" gradientTransform="matrix(1.2057 0 0 1.2342 34.7936 -13.6522)" gradientUnits="userSpaceOnUse">
	<stop  offset="4.469445e-03" style="stop-color:#E28140"/>
	<stop  offset="1" style="stop-color:#FFFFFF;stop-opacity:0"/>
</radialGradient>
<ellipse class="st3" cx="422.4" cy="309.6" rx="226.4" ry="231.7"/>
<radialGradient id="SVGID_3_" cx="754.9987" cy="-3.5212" r="597.8198" gradientTransform="matrix(1.2057 0 0 1.2342 34.7936 -13.6522)" gradientUnits="userSpaceOnUse">
	<stop  offset="4.469546e-03" style="stop-color:#E0FF2A"/>
	<stop  offset="1" style="stop-color:#FFFFFF;stop-opacity:0"/>
</radialGradient>
<ellipse class="st4" cx="422.4" cy="309.6" rx="226.4" ry="231.7"/>
<g>
	<defs>
		<path id="SVGID_4_" d="M402.8,21.4c26.5-8,60.6-12.6,76.8,10.3c11.7,16.5,7.2,40.7-5.1,56.8s-30.6,25.9-48.3,35.4
			c-69.2,37-137.9,75-206,114.1c-18.4,10.6-37.7,22-48.6,40.5c-10.9,18.5-9.9,46.3,7.8,58.2c17.5,11.7,40.8,2.9,59.6-6.5
			c60.8-30.2,119.9-64.1,182.6-89.9s129.9-43.4,197.3-39.3c25.4,1.6,56.4,12.2,59.2,38c1.5,14.3-7.2,28-18.6,36.4
			c-11.4,8.3-25.2,12.3-38.7,16.3c-97.9,28.9-193.8,64.9-286.8,107.8c-19.9,9.2-40.4,19.3-53.4,37.2c-13,17.9-15.5,45.8,0.3,61.1
			c15.8,15.2,40.8,11.6,62.1,6.9c56.6-12.4,113.3-24.7,169.9-37.1c31.5-6.9,71-10.8,89.4,16.2c11.9,17.5,9.1,42.2-2,60.3
			c-11.1,18-28.9,30.5-47,41.1c-112.3,65.8-254.5,75.1-374,24.5c-41.2-17.4-81-42.8-104.9-81.3c-24.6-39.5-29.9-88.5-28.6-135.3
			c1.3-47.6,9-95.6,28.3-138.9s51-81.8,92.5-103.3c22-11.4,42.6-18.9,58.3-39.1c10.5-13.5,15-24.7,29.6-34.2
			C296.6,50.1,355.1,35.8,402.8,21.4z"/>
	</defs>
	<clipPath id="SVGID_5_">
		<use xlink:href="#SVGID_4_"  style="overflow:visible;"/>
	</clipPath>
	<ellipse class="st5" cx="422.4" cy="309.6" rx="226.4" ry="231.7"/>
</g>
<radialGradient id="SVGID_6_" cx="318.6484" cy="260.9616" r="188.3534" gradientTransform="matrix(1.2057 0 0 1.2342 34.7936 -13.6522)" gradientUnits="userSpaceOnUse">
	<stop  offset="0" style="stop-color:#FFFFFF;stop-opacity:0"/>
	<stop  offset="0.3726" style="stop-color:#FFFDFF;stop-opacity:0.3726"/>
	<stop  offset="0.5069" style="stop-color:#FFF6FF;stop-opacity:0.5069"/>
	<stop  offset="0.6026" style="stop-color:#FFEBFF;stop-opacity:0.6026"/>
	<stop  offset="0.68" style="stop-color:#FFDAFF;stop-opacity:0.68"/>
	<stop  offset="0.7463" style="stop-color:#FFC4FF;stop-opacity:0.7463"/>
	<stop  offset="0.805" style="stop-color:#FFA8FF;stop-opacity:0.805"/>
	<stop  offset="0.8581" style="stop-color:#FF88FF;stop-opacity:0.8581"/>
	<stop  offset="0.9069" style="stop-color:#FF62FF;stop-opacity:0.9069"/>
	<stop  offset="0.9523" style="stop-color:#FF37FF;stop-opacity:0.9523"/>
	<stop  offset="0.9926" style="stop-color:#FF09FF;stop-opacity:0.9926"/>
	<stop  offset="1" style="stop-color:#FF00FF"/>
</radialGradient>
<ellipse class="st6" cx="422.4" cy="309.6" rx="226.4" ry="231.7"/>
<linearGradient id="SVGID_7_" gradientUnits="userSpaceOnUse" x1="768.3807" y1="55.644" x2="321.4189" y2="383.7095">
	<stop  offset="0.348" style="stop-color:#E6FF55"/>
	<stop  offset="0.7997" style="stop-color:#D615FF;stop-opacity:0.53"/>
</linearGradient>
<ellipse class="st7" cx="422.4" cy="309.6" rx="226.4" ry="231.7"/>
<defs>
	<filter id="Adobe_OpacityMaskFilter" filterUnits="userSpaceOnUse" x="18.4" y="180.9" width="817.9" height="292.8">
		<feFlood  style="flood-color:white;flood-opacity:1" result="back"/>
		<feBlend  in="SourceGraphic" in2="back" mode="normal"/>
	</filter>
</defs>
<mask maskUnits="userSpaceOnUse" x="18.4" y="180.9" width="817.9" height="292.8" id="SVGID_8_">
	<g class="st8">
		<path d="M205.8,377.1c-6.3-21.3-9.7-44-9.7-67.4c0-128,101.3-231.7,226.4-231.7c108.4,0,198.9,78,221.1,182.1"/>
		<path d="M205.8,377.1"/>
		<path d="M217.7,408.7c-0.7-1.6-1.4-3.2-2.1-4.7"/>
		<path d="M217.7,408.7"/>
		<path d="M413.9,541.2c-58.4-2.2-111.1-27-150.1-66.2"/>
		<path d="M422.4,541.3c-2.8,0-5.7-0.1-8.5-0.2"/>
		<path d="M645.1,351.1c-0.9,5.3-2.1,10.6-3.4,15.8"/>
		<path d="M648.7,309.6c0,4.7-0.1,9.4-0.4,14.1"/>
		<path d="M643.5,260c1.3,6,2.3,12.2,3.2,18.4"/>
	</g>
</mask>
<g class="st9">
	
		<ellipse transform="matrix(0.963 -0.2695 0.2695 0.963 -70.0003 125.4653)" class="st10" cx="421.9" cy="317.7" rx="295.5" ry="65.1"/>
	<g>
		<path class="st11" d="M728.4,233.8c0.4,1.8,0.7,3.6,0.6,5.4c-0.1,1.8-0.4,3.6-1,5.3c-1,3.4-2.8,6.6-4.7,9.5
			c-4,5.9-9,10.9-14.2,15.6c-10.5,9.3-22.2,17.2-34.1,24.5c-12,7.3-24.3,13.9-36.8,20.2c-12.5,6.2-25.2,12.1-38,17.7
			c-25.7,11.1-51.8,21.1-78.2,30.3c-26.4,9.1-53.1,17.4-80.1,25c-26.9,7.5-54.1,14.3-81.4,20.2c-27.3,5.9-54.9,10.9-82.6,14.7
			c-13.9,1.9-27.8,3.5-41.7,4.6c-13.9,1.1-27.9,1.9-41.9,1.8c-14-0.1-28-0.7-41.9-3.2c-6.9-1.3-13.8-3-20.2-5.9
			c-3.2-1.5-6.3-3.3-9-5.7c-1.4-1.2-2.5-2.6-3.6-4c-1-1.5-1.8-3.2-2.3-4.9c-0.4-1.8-0.7-3.6-0.6-5.4c0.1-1.8,0.4-3.6,1-5.3
			c1-3.4,2.8-6.6,4.7-9.5c4-5.9,9-10.9,14.2-15.6c10.5-9.3,22.2-17.2,34.1-24.5c12-7.3,24.3-13.9,36.8-20.2
			c12.5-6.2,25.2-12.1,38-17.7c25.7-11.1,51.8-21.1,78.2-30.3c26.4-9.2,53.1-17.4,80.1-25c26.9-7.5,54.1-14.3,81.4-20.2
			c27.3-5.9,54.9-10.9,82.6-14.8c13.9-1.9,27.8-3.5,41.7-4.6c13.9-1.1,27.9-1.9,41.9-1.9c14,0.1,28,0.7,41.9,3.2
			c6.9,1.3,13.8,3,20.2,5.9c3.2,1.5,6.3,3.3,9,5.7c1.4,1.2,2.5,2.6,3.6,4C727.1,230.3,727.8,232,728.4,233.8z M727,234.1
			c-0.5-1.6-1.2-3.1-2.1-4.5c-1-1.4-2.1-2.7-3.4-3.8c-2.5-2.3-5.5-4-8.7-5.5c-6.3-2.9-13.1-4.5-19.9-5.8
			c-13.7-2.5-27.7-3.1-41.6-3.2c-13.9,0-27.9,0.7-41.8,1.8c-13.9,1.2-27.8,2.7-41.6,4.6c-27.7,3.8-55.2,8.8-82.5,14.7
			c-27.3,5.9-54.4,12.7-81.3,20.2c-26.9,7.5-53.6,15.8-80,25c-26.4,9.1-52.5,19.1-78.1,30.2c-12.8,5.5-25.5,11.4-38,17.6
			c-12.5,6.2-24.8,12.9-36.7,20.1c-11.9,7.3-23.5,15.1-33.9,24.3c-5.2,4.6-10.1,9.6-14,15.3c-1.9,2.8-3.6,5.9-4.6,9.2
			c-0.5,1.6-0.8,3.3-0.9,5c-0.1,1.7,0.1,3.4,0.5,5c0.5,1.6,1.2,3.1,2.1,4.5c1,1.4,2.1,2.7,3.4,3.8c2.5,2.3,5.5,4,8.7,5.5
			c6.3,2.9,13.1,4.5,19.9,5.8c13.7,2.5,27.7,3.1,41.6,3.2c14,0,27.9-0.7,41.8-1.8c13.9-1.2,27.8-2.7,41.6-4.6
			c27.7-3.8,55.2-8.8,82.5-14.7c27.3-5.9,54.4-12.7,81.3-20.2c26.9-7.5,53.6-15.8,80-25c26.4-9.1,52.5-19.1,78.1-30.2
			c12.8-5.6,25.5-11.4,38-17.7c12.5-6.2,24.8-12.9,36.7-20.1c11.9-7.3,23.5-15.1,33.9-24.3c5.1-4.6,10.1-9.6,14-15.3
			c1.9-2.8,3.6-5.9,4.6-9.2c0.5-1.6,0.8-3.3,0.9-5C727.6,237.4,727.4,235.8,727,234.1z"/>
	</g>
	<g>
		<path class="st11" d="M749.8,229.6c0.5,1.9,0.7,3.9,0.6,5.8c-0.1,1.9-0.4,3.9-1,5.7c-1.1,3.7-3,7.1-5.1,10.2
			c-4.3,6.3-9.6,11.6-15.2,16.7c-11.3,9.9-23.7,18.3-36.4,26.1c-12.8,7.8-25.9,14.9-39.3,21.5c-13.4,6.7-26.9,12.9-40.6,18.9
			c-27.4,11.9-55.3,22.5-83.5,32.3c-28.2,9.8-56.7,18.6-85.4,26.6c-28.7,8-57.7,15.3-86.8,21.5c-29.2,6.3-58.5,11.7-88.1,15.7
			c-14.8,2-29.6,3.7-44.5,4.9c-14.9,1.2-29.8,2-44.7,2c-14.9-0.1-29.9-0.8-44.7-3.4c-7.4-1.4-14.7-3.2-21.6-6.4
			c-3.4-1.6-6.8-3.5-9.6-6.1c-1.5-1.2-2.7-2.7-3.8-4.3c-1.1-1.6-1.9-3.4-2.5-5.3c-0.5-1.9-0.7-3.9-0.6-5.8c0.1-1.9,0.4-3.9,1-5.7
			c1.1-3.7,3-7.1,5.1-10.2c4.3-6.3,9.6-11.6,15.2-16.6c11.2-9.9,23.7-18.3,36.4-26.1c12.8-7.8,25.9-14.9,39.3-21.5
			c13.4-6.7,26.9-12.9,40.6-18.9c27.4-11.9,55.3-22.5,83.5-32.3c28.2-9.8,56.7-18.6,85.4-26.7c28.7-8,57.7-15.3,86.8-21.6
			c29.2-6.3,58.5-11.7,88.1-15.7c14.8-2,29.6-3.7,44.5-5c14.9-1.2,29.8-2,44.7-2c14.9,0.1,29.9,0.8,44.7,3.4
			c7.4,1.4,14.7,3.2,21.6,6.4c3.4,1.6,6.8,3.5,9.6,6.1c1.5,1.2,2.7,2.7,3.9,4.3C748.4,226,749.2,227.8,749.8,229.6z M748,230.1
			c-0.5-1.7-1.2-3.3-2.2-4.8c-1-1.4-2.2-2.8-3.6-4c-2.7-2.4-5.9-4.3-9.2-5.8c-6.7-3.1-13.9-4.8-21.2-6.2
			c-14.6-2.6-29.5-3.3-44.4-3.4c-14.9,0-29.8,0.7-44.6,2c-14.8,1.2-29.6,2.9-44.4,4.9c-29.5,4.1-58.8,9.4-88,15.7
			c-29.1,6.3-58,13.5-86.7,21.5c-28.7,8-57.2,16.9-85.3,26.6c-28.2,9.7-56,20.4-83.3,32.2c-13.7,5.9-27.2,12.2-40.5,18.8
			c-13.3,6.7-26.4,13.7-39.1,21.5c-12.7,7.8-25.1,16.1-36.2,25.9c-5.5,5-10.8,10.2-14.9,16.3c-2.1,3-3.8,6.3-4.9,9.7
			c-0.6,1.7-0.8,3.5-1,5.3c-0.1,1.8,0.1,3.6,0.6,5.3c0.5,1.7,1.3,3.3,2.3,4.8c1,1.5,2.2,2.8,3.6,4c2.7,2.4,5.9,4.3,9.2,5.8
			c6.7,3.1,13.9,4.8,21.2,6.2c14.6,2.6,29.5,3.3,44.4,3.4c14.9,0,29.8-0.8,44.6-2c14.8-1.2,29.6-2.9,44.4-4.9
			c29.5-4.1,58.8-9.4,88-15.7c29.1-6.3,58-13.5,86.7-21.5c28.7-8.1,57.2-16.9,85.3-26.6c28.1-9.8,56-20.4,83.3-32.2
			c13.7-5.9,27.2-12.2,40.5-18.8c13.3-6.7,26.4-13.7,39.1-21.5c12.7-7.8,25-16.1,36.2-25.9c5.5-5,10.8-10.2,14.9-16.3
			c2.1-3,3.8-6.3,4.8-9.7c0.6-1.7,0.8-3.5,1-5.3C748.6,233.6,748.4,231.8,748,230.1z"/>
	</g>
	<g>
		<path class="st11" d="M771.2,225.5c0.5,2,0.8,4.1,0.7,6.2c-0.1,2.1-0.5,4.2-1.1,6.1c-1.2,3.9-3.2,7.6-5.4,10.9
			c-4.5,6.7-10.2,12.4-16.2,17.7c-12,10.6-25.2,19.5-38.7,27.8c-13.6,8.3-27.5,15.8-41.7,22.9c-14.2,7.1-28.6,13.7-43.1,20
			c-29.1,12.6-58.7,23.9-88.7,34.3c-30,10.4-60.3,19.7-90.8,28.3c-30.5,8.5-61.3,16.2-92.3,22.9c-31,6.7-62.2,12.4-93.6,16.7
			c-15.7,2.2-31.5,3.9-47.3,5.2c-15.8,1.3-31.7,2.1-47.5,2.1c-15.9-0.1-31.8-0.8-47.5-3.6c-7.8-1.5-15.6-3.4-23-6.8
			c-3.7-1.7-7.2-3.7-10.2-6.5c-1.6-1.3-2.9-2.9-4.1-4.6c-1.2-1.7-2-3.6-2.6-5.6c-0.5-2-0.8-4.1-0.7-6.2c0.1-2.1,0.5-4.1,1.1-6.1
			c1.2-3.9,3.1-7.5,5.4-10.9c4.5-6.7,10.2-12.4,16.1-17.7c12-10.6,25.2-19.5,38.7-27.8c13.6-8.3,27.5-15.8,41.7-22.9
			c14.2-7.1,28.6-13.8,43.1-20.1c29.1-12.6,58.7-23.9,88.7-34.3c30-10.4,60.2-19.8,90.8-28.3c30.5-8.5,61.3-16.2,92.3-22.9
			c31-6.7,62.2-12.4,93.6-16.7c15.7-2.2,31.5-4,47.3-5.3c15.8-1.3,31.7-2.1,47.5-2.1c15.9,0.1,31.8,0.8,47.5,3.6
			c7.8,1.5,15.7,3.4,23,6.8c3.7,1.7,7.2,3.8,10.3,6.5c1.6,1.3,2.9,2.9,4.1,4.6C769.7,221.6,770.6,223.5,771.2,225.5z M769,226.1
			c-0.6-1.8-1.3-3.5-2.4-5c-1.1-1.5-2.3-3-3.7-4.2c-2.8-2.5-6.2-4.5-9.7-6.1c-7.1-3.2-14.8-5.1-22.5-6.6
			c-15.5-2.8-31.3-3.5-47.1-3.6c-15.8,0-31.6,0.8-47.4,2.1c-15.8,1.3-31.5,3.1-47.2,5.2c-31.4,4.3-62.5,10-93.5,16.7
			c-30.9,6.7-61.7,14.4-92.2,22.9c-30.5,8.5-60.7,17.9-90.7,28.3c-29.9,10.4-59.5,21.6-88.5,34.2c-14.5,6.3-28.9,12.9-43,20
			c-14.1,7.1-28.1,14.6-41.6,22.8c-13.5,8.2-26.6,17.1-38.4,27.5c-5.8,5.3-11.4,10.9-15.8,17.3c-2.2,3.2-4,6.7-5.2,10.3
			c-0.6,1.8-0.9,3.7-1,5.6c-0.1,1.9,0.1,3.8,0.6,5.6c0.6,1.8,1.3,3.5,2.4,5.1c1.1,1.5,2.3,3,3.8,4.2c2.9,2.6,6.2,4.5,9.8,6.2
			c7.1,3.2,14.8,5.1,22.5,6.6c15.5,2.8,31.4,3.5,47.1,3.6c15.8,0,31.6-0.8,47.4-2.1c15.8-1.3,31.5-3.1,47.2-5.3
			c31.4-4.3,62.5-10,93.4-16.7c30.9-6.7,61.7-14.4,92.2-22.9c30.5-8.6,60.7-17.9,90.6-28.3c29.9-10.4,59.5-21.7,88.5-34.3
			c14.5-6.3,28.9-12.9,43-20c14.1-7.1,28.1-14.6,41.6-22.8c13.5-8.3,26.6-17.1,38.4-27.5c5.8-5.3,11.4-10.9,15.8-17.3
			c2.2-3.2,4-6.6,5.1-10.3c0.6-1.8,0.9-3.7,1-5.5C769.7,229.8,769.4,227.9,769,226.1z"/>
	</g>
	<g>
		<path class="st11" d="M792.6,221.4c0.6,2.2,0.8,4.4,0.7,6.7c-0.2,2.2-0.5,4.4-1.2,6.5c-1.3,4.2-3.4,8-5.8,11.6
			c-4.8,7.1-10.9,13.1-17.1,18.8c-12.7,11.2-26.7,20.6-41,29.4c-14.4,8.7-29.2,16.7-44.2,24.2c-15,7.5-30.3,14.5-45.7,21.2
			c-30.8,13.3-62.2,25.3-93.9,36.3c-31.7,11-63.8,20.9-96.1,30c-32.3,9-64.9,17.2-97.7,24.2c-32.8,7.1-65.9,13.1-99.1,17.7
			c-16.6,2.3-33.3,4.2-50.1,5.6c-16.7,1.4-33.5,2.2-50.3,2.2c-16.8-0.1-33.7-0.9-50.3-3.9c-8.3-1.6-16.6-3.6-24.3-7.2
			c-3.9-1.8-7.6-4-10.9-6.9c-1.7-1.4-3.1-3.1-4.3-4.9c-1.2-1.8-2.2-3.9-2.8-6c-0.5-2.1-0.8-4.4-0.7-6.6c0.2-2.2,0.5-4.4,1.2-6.4
			c1.3-4.2,3.3-8,5.7-11.5c4.8-7.1,10.8-13.1,17.1-18.8c12.7-11.2,26.7-20.6,41-29.4c14.4-8.7,29.2-16.7,44.2-24.2
			c15-7.5,30.3-14.6,45.7-21.2c30.8-13.4,62.2-25.4,93.9-36.4c31.7-11,63.8-20.9,96.1-30c32.3-9,64.9-17.2,97.7-24.3
			c32.8-7.1,65.9-13.2,99.1-17.7c16.6-2.3,33.3-4.2,50.1-5.6c16.7-1.4,33.5-2.3,50.4-2.2c16.8,0.1,33.7,0.9,50.3,3.8
			c8.3,1.6,16.6,3.6,24.4,7.2c3.9,1.8,7.7,4,10.9,6.9c1.7,1.4,3.1,3.1,4.4,4.9C791,217.2,792,219.3,792.6,221.4z M790,222.1
			c-0.6-1.9-1.4-3.6-2.5-5.3c-1.1-1.6-2.4-3.1-3.9-4.4c-3-2.7-6.5-4.8-10.3-6.5c-7.5-3.4-15.6-5.4-23.8-7
			c-16.4-2.9-33.2-3.7-49.9-3.8c-16.7,0-33.5,0.8-50.1,2.2c-16.7,1.4-33.3,3.3-49.9,5.5c-33.2,4.6-66.2,10.6-98.9,17.6
			c-32.8,7.1-65.3,15.2-97.6,24.2c-32.3,9-64.3,19-96,29.9c-31.7,11-63,22.9-93.8,36.2c-15.4,6.7-30.6,13.7-45.6,21.2
			c-15,7.5-29.7,15.4-44,24.1c-14.3,8.7-28.2,18.1-40.7,29.1c-6.2,5.6-12.1,11.5-16.7,18.3c-2.3,3.4-4.3,7.1-5.4,10.9
			c-0.6,1.9-0.9,3.9-1.1,5.9c-0.1,2,0.2,4,0.6,5.9c0.6,1.9,1.4,3.7,2.5,5.4c1.2,1.6,2.4,3.2,4,4.5c3,2.7,6.6,4.8,10.3,6.5
			c7.5,3.4,15.7,5.4,23.8,7c16.4,2.9,33.2,3.7,49.9,3.8c16.7,0,33.5-0.9,50.2-2.2c16.7-1.4,33.3-3.3,49.9-5.6
			c33.2-4.6,66.2-10.6,98.9-17.7c32.8-7.1,65.3-15.2,97.6-24.3c32.3-9.1,64.3-19,96-30c31.7-11,63-22.9,93.7-36.3
			c15.4-6.7,30.6-13.7,45.6-21.2c15-7.5,29.7-15.4,44-24.1c14.2-8.7,28.2-18.1,40.6-29.1c6.2-5.6,12.1-11.5,16.7-18.3
			c2.3-3.4,4.2-7,5.4-10.9c0.6-1.9,0.9-3.9,1.1-5.8C790.7,226,790.5,224,790,222.1z"/>
	</g>
	<g>
		<path class="st11" d="M814,217.3c0.6,2.3,0.9,4.7,0.8,7.1c-0.2,2.4-0.5,4.7-1.3,6.9c-1.4,4.4-3.6,8.5-6.1,12.3
			c-5.1,7.5-11.5,13.9-18.1,19.9c-6.7,5.9-13.8,11.4-21,16.5c-7.3,5.1-14.7,10-22.3,14.6c-15.2,9.2-30.8,17.6-46.7,25.6
			c-15.9,7.9-32,15.4-48.2,22.4c-32.5,14.1-65.7,26.7-99.2,38.3c-33.5,11.6-67.4,22.1-101.5,31.6c-34.1,9.5-68.5,18.1-103.2,25.6
			c-34.6,7.5-69.5,13.8-104.6,18.6c-17.6,2.4-35.2,4.4-52.9,5.9c-17.7,1.4-35.4,2.4-53.1,2.3c-8.9,0-17.8-0.3-26.6-0.9
			c-8.9-0.6-17.7-1.6-26.5-3.2c-8.7-1.7-17.5-3.8-25.7-7.6c-4.1-1.9-8-4.2-11.5-7.3c-1.7-1.5-3.3-3.3-4.6-5.2
			c-1.3-1.9-2.3-4.1-3-6.3c-0.6-2.3-0.9-4.6-0.8-6.9c0.2-2.3,0.5-4.6,1.2-6.8c1.3-4.4,3.5-8.4,6-12.2c5.1-7.5,11.4-13.8,18-19.8
			c6.7-5.9,13.7-11.4,21-16.5c7.3-5.1,14.7-10,22.3-14.6c15.2-9.2,30.8-17.7,46.6-25.6c15.9-7.9,32-15.4,48.2-22.4
			c32.5-14.1,65.6-26.8,99.1-38.4c33.5-11.6,67.3-22.1,101.4-31.7c34.1-9.5,68.5-18.2,103.1-25.7c34.6-7.5,69.5-13.9,104.6-18.7
			c17.6-2.4,35.2-4.4,52.9-5.9c17.7-1.5,35.4-2.4,53.2-2.4c8.9,0,17.8,0.3,26.6,0.9c8.9,0.6,17.7,1.6,26.5,3.2
			c8.8,1.7,17.5,3.8,25.8,7.6c4.1,1.9,8.1,4.2,11.6,7.3c1.8,1.5,3.3,3.3,4.7,5.2C812.3,212.8,813.3,215,814,217.3z M811,218.1
			c-0.6-1.9-1.4-3.8-2.6-5.5c-1.2-1.7-2.5-3.3-4.1-4.7c-3.1-2.8-6.9-5-10.8-6.8c-7.9-3.6-16.4-5.7-25-7.4
			c-8.6-1.6-17.4-2.6-26.2-3.1c-8.8-0.6-17.6-0.9-26.4-0.9c-17.6,0-35.3,0.9-52.9,2.3c-17.6,1.5-35.2,3.4-52.7,5.8
			c-35,4.8-69.9,11.2-104.4,18.6c-34.6,7.4-68.9,16-103,25.5c-34.1,9.5-67.9,20-101.3,31.6c-33.4,11.6-66.5,24.2-99,38.2
			c-16.2,7-32.3,14.4-48.1,22.3c-15.8,7.9-31.4,16.3-46.5,25.5c-7.5,4.6-15,9.4-22.2,14.5c-7.2,5.1-14.2,10.5-20.8,16.3
			c-6.5,5.9-12.8,12.1-17.7,19.3c-2.4,3.6-4.5,7.4-5.7,11.5c-0.7,2-1,4.1-1.1,6.2c-0.1,2.1,0.2,4.2,0.7,6.2c0.6,2,1.5,3.9,2.7,5.6
			c1.2,1.7,2.6,3.3,4.2,4.7c3.2,2.8,6.9,5.1,10.9,6.9c7.9,3.6,16.5,5.7,25.1,7.4c8.7,1.5,17.4,2.5,26.2,3.1
			c8.8,0.6,17.6,0.9,26.5,0.9c17.7,0,35.3-0.9,52.9-2.4c17.6-1.5,35.2-3.5,52.7-5.9c35-4.8,69.9-11.2,104.4-18.7
			c34.6-7.5,68.9-16.1,103-25.6c34.1-9.6,67.9-20.1,101.3-31.7c33.4-11.6,66.5-24.2,98.9-38.3c16.2-7,32.3-14.5,48.1-22.4
			c15.8-7.9,31.4-16.3,46.4-25.5c7.5-4.6,14.9-9.4,22.1-14.5c7.2-5.1,14.2-10.5,20.7-16.3c6.5-5.9,12.7-12.1,17.6-19.3
			c2.4-3.6,4.5-7.4,5.7-11.4c0.7-2,1-4.1,1.1-6.1C811.8,222.1,811.5,220.1,811,218.1z"/>
	</g>
	<g>
		<path class="st11" d="M835.4,213.2c0.6,2.5,0.9,5,0.8,7.5c-0.2,2.5-0.6,5-1.3,7.3c-1.4,4.7-3.8,9-6.4,12.9
			c-5.4,7.9-12.1,14.6-19.1,20.9c-7.1,6.2-14.5,12-22.1,17.4c-7.7,5.4-15.5,10.5-23.5,15.3c-16,9.7-32.4,18.6-49.1,26.9
			c-16.7,8.3-33.7,16.2-50.8,23.6c-34.3,14.8-69.1,28.1-104.4,40.3c-35.3,12.2-70.9,23.2-106.8,33.3c-35.9,10-72.1,19.1-108.6,26.9
			c-36.5,7.8-73.2,14.5-110.2,19.6c-18.5,2.5-37,4.6-55.6,6.2c-18.6,1.5-37.3,2.5-56,2.4c-9.3,0-18.7-0.3-28-0.9
			c-9.3-0.6-18.6-1.7-27.9-3.4c-9.2-1.8-18.4-4-27.1-8c-4.3-2-8.5-4.4-12.1-7.6c-1.8-1.6-3.4-3.4-4.8-5.4c-1.4-2-2.4-4.3-3.1-6.7
			c-0.6-2.4-0.9-4.9-0.8-7.3c0.2-2.4,0.5-4.9,1.3-7.2c1.4-4.6,3.7-8.9,6.4-12.8c5.3-7.9,12-14.6,19-20.9c7-6.2,14.4-12,22.1-17.3
			c7.6-5.4,15.5-10.5,23.5-15.4c16-9.7,32.4-18.6,49.1-27c16.7-8.3,33.6-16.2,50.7-23.6c34.2-14.9,69.1-28.2,104.3-40.4
			c35.2-12.2,70.9-23.3,106.8-33.4c35.9-10.1,72.1-19.1,108.6-27c36.5-7.9,73.2-14.6,110.2-19.7c18.5-2.6,37-4.7,55.6-6.2
			c18.6-1.5,37.3-2.5,56-2.5c9.3,0,18.7,0.3,28.1,0.9c9.3,0.6,18.7,1.7,27.9,3.3c9.2,1.8,18.5,4,27.2,8c4.3,2,8.6,4.4,12.2,7.7
			c1.9,1.6,3.5,3.5,4.9,5.5C833.6,208.4,834.7,210.7,835.4,213.2z M832,214.1c-0.6-2-1.5-4-2.7-5.8c-1.2-1.8-2.6-3.4-4.3-4.9
			c-3.3-2.9-7.2-5.3-11.3-7.1c-8.3-3.8-17.3-6-26.3-7.7c-9.1-1.6-18.3-2.7-27.5-3.3c-9.2-0.6-18.5-0.9-27.8-0.9
			c-18.6,0-37.2,0.9-55.7,2.4c-18.5,1.5-37,3.6-55.5,6.1c-36.9,5-73.5,11.7-109.9,19.6c-36.4,7.8-72.6,16.9-108.4,26.9
			c-35.9,10-71.5,21-106.7,33.2c-35.2,12.2-70,25.4-104.2,40.2c-17.1,7.4-34,15.2-50.6,23.5c-16.6,8.3-33,17.1-48.9,26.8
			c-7.9,4.8-15.7,9.9-23.3,15.2c-7.6,5.3-14.9,11-21.9,17.1c-6.9,6.2-13.4,12.8-18.6,20.4c-2.6,3.8-4.7,7.8-6.1,12.1
			c-0.7,2.1-1,4.3-1.2,6.5c-0.1,2.2,0.2,4.4,0.7,6.5c0.7,2.1,1.6,4.1,2.8,5.9c1.3,1.8,2.7,3.5,4.4,5c3.3,3,7.3,5.3,11.5,7.2
			c8.3,3.8,17.4,6,26.5,7.8c9.1,1.6,18.3,2.7,27.6,3.3c9.3,0.6,18.6,0.9,27.8,0.9c18.6,0,37.2-1,55.7-2.5c18.5-1.5,37-3.6,55.5-6.2
			c36.9-5.1,73.5-11.8,109.9-19.7c36.4-7.9,72.5-16.9,108.4-27c35.9-10.1,71.4-21.1,106.6-33.3c35.2-12.2,70-25.5,104.1-40.3
			c17.1-7.4,34-15.2,50.6-23.5c16.6-8.3,33-17.2,48.9-26.8c7.9-4.8,15.7-9.9,23.3-15.2c7.6-5.3,14.9-11,21.8-17.1
			c6.8-6.2,13.4-12.8,18.5-20.3c2.5-3.8,4.7-7.8,6-12c0.7-2.1,1-4.3,1.2-6.4C832.8,218.3,832.5,216.2,832,214.1z"/>
	</g>
</g>
</svg>
