<?xml version="1.0" encoding="utf-8"?>
<!-- Generator: Adobe Illustrator 24.0.1, SVG Export Plug-In . SVG Version: 6.00 Build 0)  -->
<svg version="1.1" id="Capa_1" xmlns="http://www.w3.org/2000/svg" xmlns:xlink="http://www.w3.org/1999/xlink" x="0px" y="0px"
	 viewBox="0 0 1326 768" style="enable-background:new 0 0 1326 768;" xml:space="preserve">
<g>
	<image style="overflow:visible;" width="79" height="79" xlink:href="BB5D0A25.png"  transform="matrix(1 0 0 1 1030 226)">
	</image>
</g>
<g>
	<image style="overflow:visible;" width="78" height="78" xlink:href="BB5D0A27.png"  transform="matrix(1 0 0 1 1173 351)">
	</image>
</g>
<g>
	<image style="overflow:visible;" width="79" height="79" xlink:href="BB5D0A22.png"  transform="matrix(1 0 0 1 1050 137)">
	</image>
</g>
<g>
	<image style="overflow:visible;" width="79" height="79" xlink:href="BB5D0A23.png"  transform="matrix(1 0 0 1 1244 23)">
	</image>
</g>
<g>
	<image style="overflow:visible;" width="78" height="78" xlink:href="BB5D0A2D.png"  transform="matrix(1 0 0 1 1257 184)">
	</image>
</g>
<g>
	<image style="overflow:visible;" width="78" height="78" xlink:href="BB5D0A2F.png"  transform="matrix(1 0 0 1 1063 459)">
	</image>
</g>
<g>
	<image style="overflow:visible;" width="78" height="79" xlink:href="BB5D0A20.png"  transform="matrix(1 0 0 1 947 410)">
	</image>
</g>
<g>
	<image style="overflow:visible;" width="78" height="79" xlink:href="BB5D0A21.png"  transform="matrix(1 0 0 1 751 2)">
	</image>
</g>
<g>
	<image style="overflow:visible;" width="78" height="78" xlink:href="BB5D0A26.png"  transform="matrix(1 0 0 1 608 33)">
	</image>
</g>
<g>
	<image style="overflow:visible;" width="78" height="78" xlink:href="1472776E.png"  transform="matrix(1 0 0 1 559 93)">
	</image>
</g>
<g>
	<image style="overflow:visible;" width="78" height="79" xlink:href="14727769.png"  transform="matrix(1 0 0 1 971 174)">
	</image>
</g>
<g>
	<image style="overflow:visible;" width="78" height="78" xlink:href="1472776A.png"  transform="matrix(1 0 0 1 855 126)">
	</image>
</g>
<g>
	<image style="overflow:visible;" width="78" height="78" xlink:href="14727768.png"  transform="matrix(1 0 0 1 828 205)">
	</image>
</g>
<g>
	<image style="overflow:visible;" width="78" height="78" xlink:href="14727766.png"  transform="matrix(1 0 0 1 716 213)">
	</image>
</g>
<g>
	<image style="overflow:visible;" width="78" height="78" xlink:href="14727779.png"  transform="matrix(1 0 0 1 779 265)">
	</image>
</g>
<g>
	<image style="overflow:visible;" width="78" height="78" xlink:href="1472777A.png"  transform="matrix(1 0 0 1 460 377)">
	</image>
</g>
<g>
	<image style="overflow:visible;" width="78" height="78" xlink:href="14727778.png"  transform="matrix(1 0 0 1 848 410)">
	</image>
</g>
<g>
	<image style="overflow:visible;" width="78" height="78" xlink:href="1472777E.png"  transform="matrix(1 0 0 1 85 274)">
	</image>
</g>
<g>
	<image style="overflow:visible;" width="79" height="79" xlink:href="1472777B.png"  transform="matrix(1 0 0 1 725 196)">
	</image>
</g>
<g>
	<image style="overflow:visible;" width="79" height="79" xlink:href="1472779D.png"  transform="matrix(1 0 0 1 919 82)">
	</image>
</g>
<g>
	<image style="overflow:visible;" width="78" height="78" xlink:href="1472779F.png"  transform="matrix(1 0 0 1 15 361)">
	</image>
</g>
<g>
	<image style="overflow:visible;" width="78" height="78" xlink:href="1472779C.png"  transform="matrix(1 0 0 1 932 243)">
	</image>
</g>
<g>
	<image style="overflow:visible;" width="78" height="78" xlink:href="1472779B.png"  transform="matrix(1 0 0 1 738 518)">
	</image>
</g>
<g>
	<image style="overflow:visible;" width="78" height="79" xlink:href="14727795.png"  transform="matrix(1 0 0 1 622 469)">
	</image>
</g>
<g>
	<image style="overflow:visible;" width="78" height="79" xlink:href="14727797.png"  transform="matrix(1 0 0 1 595 548)">
	</image>
</g>
<g>
	<image style="overflow:visible;" width="78" height="79" xlink:href="14727794.png"  transform="matrix(1 0 0 1 483 556)">
	</image>
</g>
<g>
	<image style="overflow:visible;" width="78" height="78" xlink:href="1472778B.png"  transform="matrix(1 0 0 1 546 609)">
	</image>
</g>
<g>
	<image style="overflow:visible;" width="78" height="79" xlink:href="1472778D.png"  transform="matrix(1 0 0 1 426 61)">
	</image>
</g>
<g>
	<image style="overflow:visible;" width="78" height="78" xlink:href="1472778F.png"  transform="matrix(1 0 0 1 310 13)">
	</image>
</g>
<g>
	<image style="overflow:visible;" width="78" height="78" xlink:href="147277B0.png"  transform="matrix(1 0 0 1 283 92)">
	</image>
</g>
<g>
	<image style="overflow:visible;" width="78" height="78" xlink:href="1472778E.png"  transform="matrix(1 0 0 1 171 100)">
	</image>
</g>
<g>
	<image style="overflow:visible;" width="78" height="78" xlink:href="14727790.png"  transform="matrix(1 0 0 1 234 152)">
	</image>
</g>
<g>
	<image style="overflow:visible;" width="78" height="79" xlink:href="14727793.png"  transform="matrix(1 0 0 1 646 233)">
	</image>
</g>
<g>
	<image style="overflow:visible;" width="78" height="78" xlink:href="14727791.png"  transform="matrix(1 0 0 1 530 185)">
	</image>
</g>
<g>
	<image style="overflow:visible;" width="78" height="78" xlink:href="14727796.png"  transform="matrix(1 0 0 1 503 264)">
	</image>
</g>
<g>
	<image style="overflow:visible;" width="78" height="78" xlink:href="14727792.png"  transform="matrix(1 0 0 1 391 272)">
	</image>
</g>
<g>
	<image style="overflow:visible;" width="78" height="78" xlink:href="1472779E.png"  transform="matrix(1 0 0 1 454 324)">
	</image>
</g>
<g>
	<image style="overflow:visible;" width="79" height="79" xlink:href="1472779A.png"  transform="matrix(1 0 0 1 826 362)">
	</image>
</g>
<g>
	<image style="overflow:visible;" width="79" height="78" xlink:href="14727799.png"  transform="matrix(1 0 0 1 968 488)">
	</image>
</g>
<g>
	<image style="overflow:visible;" width="79" height="79" xlink:href="147277FB.png"  transform="matrix(1 0 0 1 846 273)">
	</image>
</g>
<g>
	<image style="overflow:visible;" width="79" height="79" xlink:href="147277FD.png"  transform="matrix(1 0 0 1 1040 159)">
	</image>
</g>
<g>
	<image style="overflow:visible;" width="78" height="78" xlink:href="147277FF.png"  transform="matrix(1 0 0 1 1053 320)">
	</image>
</g>
<g>
	<image style="overflow:visible;" width="78" height="78" xlink:href="147277FA.png"  transform="matrix(1 0 0 1 859 596)">
	</image>
</g>
<g>
	<image style="overflow:visible;" width="78" height="78" xlink:href="147277F9.png"  transform="matrix(1 0 0 1 743 547)">
	</image>
</g>
<g>
	<image style="overflow:visible;" width="79" height="78" xlink:href="147277F5.png"  transform="matrix(1 0 0 1 546 139)">
	</image>
</g>
<g>
	<image style="overflow:visible;" width="78" height="79" xlink:href="147277F7.png"  transform="matrix(1 0 0 1 404 169)">
	</image>
</g>
<g>
	<image style="overflow:visible;" width="79" height="78" xlink:href="147277EA.png"  transform="matrix(1 0 0 1 354 230)">
	</image>
</g>
<g>
	<image style="overflow:visible;" width="79" height="78" xlink:href="147277EB.png"  transform="matrix(1 0 0 1 766 311)">
	</image>
</g>
<g>
	<image style="overflow:visible;" width="78" height="79" xlink:href="147277ED.png"  transform="matrix(1 0 0 1 651 262)">
	</image>
</g>
<g>
	<image style="overflow:visible;" width="78" height="79" xlink:href="147277CA.png"  transform="matrix(1 0 0 1 624 341)">
	</image>
</g>
<g>
	<image style="overflow:visible;" width="78" height="79" xlink:href="147277CD.png"  transform="matrix(1 0 0 1 512 349)">
	</image>
</g>
<g>
	<image style="overflow:visible;" width="79" height="78" xlink:href="147277CE.png"  transform="matrix(1 0 0 1 574 402)">
	</image>
</g>
<g>
	<image style="overflow:visible;" width="79" height="79" xlink:href="147277CC.png"  transform="matrix(1 0 0 1 537 405)">
	</image>
</g>
<g>
	<image style="overflow:visible;" width="79" height="78" xlink:href="147277CB.png"  transform="matrix(1 0 0 1 679 531)">
	</image>
</g>
<g>
	<image style="overflow:visible;" width="79" height="79" xlink:href="147277C5.png"  transform="matrix(1 0 0 1 557 316)">
	</image>
</g>
<g>
	<image style="overflow:visible;" width="79" height="79" xlink:href="147277C6.png"  transform="matrix(1 0 0 1 751 202)">
	</image>
</g>
<g>
	<image style="overflow:visible;" width="78" height="78" xlink:href="147277C4.png"  transform="matrix(1 0 0 1 764 363)">
	</image>
</g>
<g>
	<image style="overflow:visible;" width="78" height="78" xlink:href="1472783A.png"  transform="matrix(1 0 0 1 570 639)">
	</image>
</g>
<g>
	<image style="overflow:visible;" width="78" height="78" xlink:href="1472783D.png"  transform="matrix(1 0 0 1 454 590)">
	</image>
</g>
<g>
	<image style="overflow:visible;" width="79" height="78" xlink:href="14727821.png"  transform="matrix(1 0 0 1 257 182)">
	</image>
</g>
<g>
	<image style="overflow:visible;" width="78" height="79" xlink:href="14727823.png"  transform="matrix(1 0 0 1 115 212)">
	</image>
</g>
<g>
	<image style="overflow:visible;" width="79" height="78" xlink:href="14727820.png"  transform="matrix(1 0 0 1 65 273)">
	</image>
</g>
<g>
	<image style="overflow:visible;" width="79" height="78" xlink:href="1472781F.png"  transform="matrix(1 0 0 1 477 354)">
	</image>
</g>
<g>
	<image style="overflow:visible;" width="78" height="79" xlink:href="14727861.png"  transform="matrix(1 0 0 1 362 305)">
	</image>
</g>
<g>
	<image style="overflow:visible;" width="78" height="79" xlink:href="14727863.png"  transform="matrix(1 0 0 1 335 384)">
	</image>
</g>
<g>
	<image style="overflow:visible;" width="78" height="79" xlink:href="14727860.png"  transform="matrix(1 0 0 1 223 392)">
	</image>
</g>
<g>
	<image style="overflow:visible;" width="79" height="78" xlink:href="14727867.png"  transform="matrix(1 0 0 1 285 445)">
	</image>
</g>
<g>
	<image style="overflow:visible;" width="79" height="79" xlink:href="14727862.png"  transform="matrix(1 0 0 1 268 430)">
	</image>
</g>
<g>
	<image style="overflow:visible;" width="78" height="78" xlink:href="1472786E.png"  transform="matrix(1 0 0 1 262 378)">
	</image>
</g>
<g>
	<image style="overflow:visible;" width="78" height="78" xlink:href="14727804.png"  transform="matrix(1 0 0 1 286 408)">
	</image>
</g>
<g>
	<image style="overflow:visible;" width="78" height="78" xlink:href="1472780B.png"  transform="matrix(1 0 0 1 170 359)">
	</image>
</g>
<g>
	<image style="overflow:visible;" width="78" height="78" xlink:href="1472780C.png"  transform="matrix(1 0 0 1 143 438)">
	</image>
</g>
<g>
	<image style="overflow:visible;" width="78" height="78" xlink:href="1472780F.png"  transform="matrix(1 0 0 1 31 446)">
	</image>
</g>
<g>
	<image style="overflow:visible;" width="79" height="79" xlink:href="1472780D.png"  transform="matrix(1 0 0 1 335 587)">
	</image>
</g>
<g>
	<image style="overflow:visible;" width="78" height="78" xlink:href="1472780A.png"  transform="matrix(1 0 0 1 329 535)">
	</image>
</g>
<g>
	<image style="overflow:visible;" width="78" height="78" xlink:href="14727805.png"  transform="matrix(1 0 0 1 353 565)">
	</image>
</g>
<g>
	<image style="overflow:visible;" width="78" height="78" xlink:href="14727807.png"  transform="matrix(1 0 0 1 237 516)">
	</image>
</g>
<g>
	<image style="overflow:visible;" width="78" height="78" xlink:href="1472781A.png"  transform="matrix(1 0 0 1 210 595)">
	</image>
</g>
<g>
	<image style="overflow:visible;" width="78" height="78" xlink:href="1472781B.png"  transform="matrix(1 0 0 1 98 603)">
	</image>
</g>
<g>
	<image style="overflow:visible;" width="79" height="79" xlink:href="14727837.png"  transform="matrix(1 0 0 1 439 331)">
	</image>
</g>
<g>
	<image style="overflow:visible;" width="78" height="78" xlink:href="14727839.png"  transform="matrix(1 0 0 1 433 279)">
	</image>
</g>
<g>
	<image style="overflow:visible;" width="78" height="78" xlink:href="1472783B.png"  transform="matrix(1 0 0 1 457 309)">
	</image>
</g>
<g>
	<image style="overflow:visible;" width="78" height="78" xlink:href="1472783E.png"  transform="matrix(1 0 0 1 341 260)">
	</image>
</g>
<g>
	<image style="overflow:visible;" width="78" height="78" xlink:href="1472783F.png"  transform="matrix(1 0 0 1 314 339)">
	</image>
</g>
<g>
	<image style="overflow:visible;" width="78" height="78" xlink:href="14727834.png"  transform="matrix(1 0 0 1 202 347)">
	</image>
</g>
<g>
	<image style="overflow:visible;" width="78" height="78" xlink:href="14727835.png"  transform="matrix(1 0 0 1 1239 603)">
	</image>
</g>
<g>
	<image style="overflow:visible;" width="78" height="78" xlink:href="14727836.png"  transform="matrix(1 0 0 1 1123 554)">
	</image>
</g>
<g>
	<image style="overflow:visible;" width="78" height="78" xlink:href="14727833.png"  transform="matrix(1 0 0 1 1024 554)">
	</image>
</g>
<g>
	<image style="overflow:visible;" width="78" height="78" xlink:href="14727829.png"  transform="matrix(1 0 0 1 914 662)">
	</image>
</g>
<g>
	<image style="overflow:visible;" width="79" height="79" xlink:href="147278D6.png"  transform="matrix(1 0 0 1 1002 506)">
	</image>
</g>
<g>
	<image style="overflow:visible;" width="79" height="78" xlink:href="147278D1.png"  transform="matrix(1 0 0 1 1144 632)">
	</image>
</g>
<g>
	<image style="overflow:visible;" width="78" height="78" xlink:href="147278D2.png"  transform="matrix(1 0 0 1 1229 464)">
	</image>
</g>
<g>
	<image style="overflow:visible;" width="78" height="78" xlink:href="147278D0.png"  transform="matrix(1 0 0 1 919 691)">
	</image>
</g>
<g>
	<image style="overflow:visible;" width="78" height="78" xlink:href="147278CE.png"  transform="matrix(1 0 0 1 940 507)">
	</image>
</g>
<g>
	<image style="overflow:visible;" width="79" height="78" xlink:href="147278F1.png"  transform="matrix(1 0 0 1 1127 -15)">
	</image>
</g>
<g>
	<image style="overflow:visible;" width="78" height="78" xlink:href="147278F2.png"  transform="matrix(1 0 0 1 1033 14)">
	</image>
</g>
<g>
	<image style="overflow:visible;" width="78" height="78" xlink:href="147278F0.png"  transform="matrix(1 0 0 1 923 122)">
	</image>
</g>
<g>
	<image style="overflow:visible;" width="78" height="78" xlink:href="147278F6.png"  transform="matrix(1 0 0 1 1188 80)">
	</image>
</g>
<g>
	<image style="overflow:visible;" width="78" height="78" xlink:href="147278F3.png"  transform="matrix(1 0 0 1 1088 80)">
	</image>
</g>
<g>
	<image style="overflow:visible;" width="79" height="79" xlink:href="F48B41C0.png"  transform="matrix(1 0 0 1 1066 32)">
	</image>
</g>
<g>
	<image style="overflow:visible;" width="78" height="79" xlink:href="F48B41C3.png"  transform="matrix(1 0 0 1 1209 157)">
	</image>
</g>
<g>
	<image style="overflow:visible;" width="78" height="78" xlink:href="F48B41C1.png"  transform="matrix(1 0 0 1 1004 33)">
	</image>
</g>
<g>
	<image style="overflow:visible;" width="79" height="78" xlink:href="F48B41CF.png"  transform="matrix(1 0 0 1 138 13)">
	</image>
</g>
<g>
	<image style="overflow:visible;" width="79" height="78" xlink:href="F48B41C2.png"  transform="matrix(1 0 0 1 26 21)">
	</image>
</g>
<g>
	<image style="overflow:visible;" width="78" height="79" xlink:href="F48B41C5.png"  transform="matrix(1 0 0 1 89 73)">
	</image>
</g>
</svg>
