<?xml version="1.0" encoding="utf-8"?>
<!-- Generator: Adobe Illustrator 24.0.1, SVG Export Plug-In . SVG Version: 6.00 Build 0)  -->
<svg version="1.1" id="Capa_2" xmlns="http://www.w3.org/2000/svg" xmlns:xlink="http://www.w3.org/1999/xlink" x="0px" y="0px"
	 viewBox="0 0 1920 1080" style="enable-background:new 0 0 1920 1080;" xml:space="preserve">
<style type="text/css">
	.st0{fill:#9E9E9E;}
</style>
<g>
	<g>
		<path class="st0" d="M-107.9-38.1l618.1,68.5L141.9,531.5L-107.9-38.1 M-109.5-39.3l251.1,572.7L512.1,29.6L-109.5-39.3
			L-109.5-39.3z"/>
	</g>
	<g>
		<path class="st0" d="M-82.3-21.6L473.1,40l-331,450.3L-82.3-21.6 M-84.3-23l226.1,515.7L475.4,39L-84.3-23L-84.3-23z"/>
	</g>
	<g>
		<path class="st0" d="M-56.8-5L436,49.6L142.3,449L-56.8-5 M-59.1-6.8L142,451.9L438.6,48.4L-59.1-6.8L-59.1-6.8z"/>
	</g>
	<g>
		<path class="st0" d="M-31.3,11.5l430.1,47.7L142.5,407.8L-31.3,11.5 M-33.9,9.5l176.1,401.6L401.9,57.8L-33.9,9.5L-33.9,9.5z"/>
	</g>
	<g>
		<path class="st0" d="M-5.7,28l367.5,40.7l-219,297.9L-5.7,28 M-8.8,25.8l151.1,344.6L365.2,67.2L-8.8,25.8L-8.8,25.8z"/>
	</g>
	<g>
		<path class="st0" d="M19.8,44.5l304.8,33.8L143,325.4L19.8,44.5 M16.4,42l126.1,287.5l186-253L16.4,42L16.4,42z"/>
	</g>
	<g>
		<path class="st0" d="M45.4,61.1l242.1,26.8L143.2,284.2L45.4,61.1 M41.6,58.3l101.1,230.5L291.8,86L41.6,58.3L41.6,58.3z"/>
	</g>
	<g>
		<path class="st0" d="M70.9,77.6l179.5,19.9L143.4,243L70.9,77.6 M66.8,74.6L142.9,248L255.1,95.4L66.8,74.6L66.8,74.6z"/>
	</g>
	<g>
		<path class="st0" d="M96.5,94.1l116.8,12.9l-69.6,94.7L96.5,94.1 M92,90.8L143,207.3l75.3-102.4L92,90.8L92,90.8z"/>
	</g>
	<g>
		<path class="st0" d="M122,110.6l54.1,6l-32.3,43.9L122,110.6 M117.2,107.1l26,59.4l38.4-52.3L117.2,107.1L117.2,107.1z"/>
	</g>
</g>
<g>
	<g>
		<path class="st0" d="M1680.5,260.7l676.8,295.9l-594.6,438.2L1680.5,260.7 M1679.3,259.1l82.5,737.5l597.4-440.2L1679.3,259.1
			L1679.3,259.1z"/>
	</g>
	<g>
		<path class="st0" d="M1703.5,288.4l608.4,266l-534.5,393.9L1703.5,288.4 M1702.1,286.4l74.3,664.1l537.9-396.4L1702.1,286.4
			L1702.1,286.4z"/>
	</g>
	<g>
		<path class="st0" d="M1726.6,316l540,236.1l-474.4,349.6L1726.6,316 M1724.9,313.7l66.1,590.6l478.4-352.6L1724.9,313.7
			L1724.9,313.7z"/>
	</g>
	<g>
		<path class="st0" d="M1749.7,343.7l471.5,206.1l-414.3,305.3L1749.7,343.7 M1747.7,341l57.9,517.2l418.9-308.7L1747.7,341
			L1747.7,341z"/>
	</g>
	<g>
		<path class="st0" d="M1772.7,371.4l403.1,176.2l-354.2,261L1772.7,371.4 M1770.5,368.3l49.7,443.7l359.4-264.9L1770.5,368.3
			L1770.5,368.3z"/>
	</g>
	<g>
		<path class="st0" d="M1795.8,399l334.7,146.3L1836.4,762L1795.8,399 M1793.3,395.6l41.4,370.3l299.9-221L1793.3,395.6
			L1793.3,395.6z"/>
	</g>
	<g>
		<path class="st0" d="M1818.8,426.7l266.3,116.4l-233.9,172.4L1818.8,426.7 M1816.1,422.9l33.2,296.8l240.4-177.2L1816.1,422.9
			L1816.1,422.9z"/>
	</g>
	<g>
		<path class="st0" d="M1841.9,454.4l197.8,86.5L1865.9,669L1841.9,454.4 M1838.9,450.3l25,223.4l180.9-133.3L1838.9,450.3
			L1838.9,450.3z"/>
	</g>
	<g>
		<path class="st0" d="M1865,482l129.4,56.6l-113.7,83.8L1865,482 M1861.7,477.6l16.8,149.9l121.5-89.5L1861.7,477.6L1861.7,477.6z"
			/>
	</g>
	<g>
		<path class="st0" d="M1888,509.7l61,26.7l-53.6,39.5L1888,509.7 M1884.5,504.9l8.6,76.5l62-45.7L1884.5,504.9L1884.5,504.9z"/>
	</g>
</g>
<g>
	<g>
		<path class="st0" d="M1861-64.8l129.1,88.2l-141,67.7L1861-64.8 M1860.2-66.6l-12.1,159.4l144.1-69.2L1860.2-66.6L1860.2-66.6z"/>
	</g>
	<g>
		<path class="st0" d="M1865-57.7l115.4,78.8l-125.9,60.5L1865-57.7 M1863.9-59.9L1853,83.6l129.8-62.3L1863.9-59.9L1863.9-59.9z"/>
	</g>
	<g>
		<path class="st0" d="M1868.9-50.6l101.6,69.4l-110.9,53.3L1868.9-50.6 M1867.6-53.2l-9.7,127.7L1973.4,19L1867.6-53.2L1867.6-53.2
			z"/>
	</g>
	<g>
		<path class="st0" d="M1872.8-43.5l87.8,60l-95.8,46L1872.8-43.5 M1871.4-46.5l-8.5,111.8l101.1-48.5L1871.4-46.5L1871.4-46.5z"/>
	</g>
	<g>
		<path class="st0" d="M1876.7-36.4l74,50.6L1870,53L1876.7-36.4 M1875.1-39.8l-7.3,95.9l86.7-41.7L1875.1-39.8L1875.1-39.8z"/>
	</g>
	<g>
		<path class="st0" d="M1880.7-29.3l60.2,41.2l-65.8,31.6L1880.7-29.3 M1878.8-33.1l-6.1,80l72.4-34.8L1878.8-33.1L1878.8-33.1z"/>
	</g>
	<g>
		<path class="st0" d="M1884.6-22.2L1931,9.5l-50.7,24.4L1884.6-22.2 M1882.6-26.4l-4.9,64.2l58-27.9L1882.6-26.4L1882.6-26.4z"/>
	</g>
	<g>
		<path class="st0" d="M1888.5-15.1l32.7,22.3l-35.7,17.1L1888.5-15.1 M1886.3-19.7l-3.7,48.3l43.6-21L1886.3-19.7L1886.3-19.7z"/>
	</g>
	<g>
		<path class="st0" d="M1892.4-8l18.9,12.9l-20.6,9.9L1892.4-8 M1890-13l-2.5,32.4l29.3-14.1L1890-13L1890-13z"/>
	</g>
	<g>
		<path class="st0" d="M1896.4-0.9l5.1,3.5l-5.6,2.7L1896.4-0.9 M1893.8-6.3l-1.3,16.5l14.9-7.2L1893.8-6.3L1893.8-6.3z"/>
	</g>
</g>
<g>
	<g>
		<path class="st0" d="M1001.3-111.9l273.2,182.4L980,215.9L1001.3-111.9 M1000.4-113.7l-21.5,331.2l297.6-147L1000.4-113.7
			L1000.4-113.7z"/>
	</g>
	<g>
		<path class="st0" d="M1009.4-97.7l245.1,163.6L990.3,196.3L1009.4-97.7 M1008.3-99.9l-19.4,298.3l268-132.3L1008.3-99.9
			L1008.3-99.9z"/>
	</g>
	<g>
		<path class="st0" d="M1017.5-83.5l216.9,144.8l-233.9,115.5L1017.5-83.5 M1016.2-86.1L999,179.2l238.4-117.7L1016.2-86.1
			L1016.2-86.1z"/>
	</g>
	<g>
		<path class="st0" d="M1025.6-69.3l188.8,126l-203.5,100.5L1025.6-69.3 M1024.1-72.3L1009,160L1217.7,57L1024.1-72.3L1024.1-72.3z"
			/>
	</g>
	<g>
		<path class="st0" d="M1033.7-55.1l160.7,107.2l-173.2,85.5L1033.7-55.1 M1032-58.4l-13,199.3l179.1-88.4L1032-58.4L1032-58.4z"/>
	</g>
	<g>
		<path class="st0" d="M1041.8-40.8l132.5,88.5l-142.9,70.5L1041.8-40.8 M1039.9-44.6l-10.8,166.3l149.4-73.8L1039.9-44.6
			L1039.9-44.6z"/>
	</g>
	<g>
		<path class="st0" d="M1049.9-26.6l104.4,69.7l-112.5,55.6L1049.9-26.6 M1047.8-30.8l-8.7,133.3l119.8-59.1L1047.8-30.8
			L1047.8-30.8z"/>
	</g>
	<g>
		<path class="st0" d="M1057.9-12.4l76.3,50.9L1052,79.1L1057.9-12.4 M1055.7-17l-6.5,100.3l90.1-44.5L1055.7-17L1055.7-17z"/>
	</g>
	<g>
		<path class="st0" d="M1066,1.8l48.1,32.1l-51.9,25.6L1066,1.8 M1063.6-3.2l-4.4,67.3l60.5-29.9L1063.6-3.2L1063.6-3.2z"/>
	</g>
	<g>
		<path class="st0" d="M1074.1,16l20,13.3L1072.6,40L1074.1,16 M1071.5,10.6l-2.2,34.4l30.9-15.2L1071.5,10.6L1071.5,10.6z"/>
	</g>
</g>
</svg>
