<svg xmlns="http://www.w3.org/2000/svg" viewBox="0 0 1504 1280"><defs><style>.cls-1,.cls-9{fill:none;}.cls-1{stroke:#58dbaf;stroke-miterlimit:10;stroke-width:2px;}.cls-2{fill:#68e1fd;}.cls-3{fill:#093f68;}.cls-4{fill:#fff;}.cls-5{fill:#ffbc0e;}.cls-6{fill:#dfeaef;}.cls-7{fill:#70cc40;}.cls-8{fill:#f56132;}</style></defs><title>UIBanner</title><g id="Capa_1" data-name="Capa 1"><polygon class="cls-1" points="1313 113 91.79 81.11 197.79 729.11 144.79 1235.11 1469 1217 1319 931 1313 113"/><polygon class="cls-1" points="138.65 103.87 217.27 712.79 177.94 1201.11 1422.6 1188.01 1272.69 915.92 1260.31 157.38 138.65 103.87"/><polygon class="cls-1" points="185.51 126.63 236.74 696.48 211.1 1167.11 1376.2 1159.02 1226.38 900.85 1207.62 201.77 185.51 126.63"/><polygon class="cls-1" points="232.38 149.39 256.22 680.16 244.25 1133.11 1329.8 1130.03 1180.08 885.77 1154.92 246.15 232.38 149.39"/><polygon class="cls-1" points="279.24 172.15 275.7 663.85 277.4 1099.11 1283.4 1101.03 1133.77 870.69 1102.23 290.54 279.24 172.15"/><polygon class="cls-1" points="326.1 194.91 295.18 647.53 310.56 1065.11 1236.99 1072.04 1087.46 855.62 1049.54 334.92 326.1 194.91"/><polygon class="cls-1" points="372.96 217.68 314.65 631.21 343.71 1031.11 1190.59 1043.05 1041.15 840.54 996.85 379.31 372.96 217.68"/><polygon class="cls-1" points="419.82 240.44 334.13 614.9 376.87 997.11 1144.19 1014.06 994.85 825.46 944.15 423.69 419.82 240.44"/><polygon class="cls-1" points="466.69 263.2 353.61 598.58 410.02 963.11 1097.79 985.07 948.54 810.38 891.46 468.08 466.69 263.2"/><polygon class="cls-1" points="513.55 285.96 373.09 582.26 443.17 929.11 1051.39 956.08 902.23 795.31 838.77 512.46 513.55 285.96"/><polygon class="cls-1" points="560.41 308.72 392.57 565.95 476.33 895.11 1004.99 927.09 855.92 780.23 786.08 556.85 560.41 308.72"/><polygon class="cls-1" points="607.27 331.48 412.04 549.63 509.48 861.11 958.59 898.09 809.62 765.15 733.38 601.23 607.27 331.48"/><polygon class="cls-1" points="654.14 354.24 431.52 533.32 542.63 827.11 912.19 869.1 763.31 750.08 680.69 645.62 654.14 354.24"/><polygon class="cls-1" points="701 377 451 517 575.79 793.11 865.79 840.11 717 735 628 690 701 377"/><g id="_59_ui_design_outline" data-name=" 59 ui design outline"><rect class="cls-2" x="594.19" y="485.38" width="326.66" height="222.6" rx="19.05"/><path class="cls-3" d="M901.78,710.21H613.37a21.31,21.31,0,0,1-21.29-21.29V504.43a21.29,21.29,0,0,1,21.29-21.27H901.78a21.3,21.3,0,0,1,21.3,21.27V688.92A21.32,21.32,0,0,1,901.78,710.21ZM613.37,487.61a16.86,16.86,0,0,0-16.84,16.82V688.92a16.86,16.86,0,0,0,16.84,16.84H901.78a16.87,16.87,0,0,0,16.85-16.84V504.43a16.85,16.85,0,0,0-16.85-16.82Z"/><polygon class="cls-2" points="809.72 755.84 705.33 755.84 716.23 707.99 798.82 707.99 809.72 755.84"/><path class="cls-3" d="M809.72,758.07H705.33a2.26,2.26,0,0,1-1.74-.85,2.2,2.2,0,0,1-.42-1.87l10.88-47.85a2.21,2.21,0,0,1,2.22-1.74h82.59a2.23,2.23,0,0,1,2.23,1.74L812,755.35a2.23,2.23,0,0,1-2.24,2.72Zm-101.61-4.45h98.83l-9.88-43.41H717.94Z"/><rect class="cls-4" x="616.46" y="503.94" width="282.12" height="165.2"/><path class="cls-3" d="M898.58,671.36H616.46a2.21,2.21,0,0,1-2.22-2.22V503.94a2.22,2.22,0,0,1,2.22-2.23H898.58a2.22,2.22,0,0,1,2.22,2.23v165.2A2.21,2.21,0,0,1,898.58,671.36Zm-279.89-4.45H896.36V506.16H618.69Z"/><path class="cls-2" d="M692.51,755.84h130a9,9,0,0,1,8.94,8.95h0a8.94,8.94,0,0,1-8.94,8.94h-130a8.94,8.94,0,0,1-8.94-8.94h0A9,9,0,0,1,692.51,755.84Z"/><path class="cls-3" d="M822.51,776h-130a11.13,11.13,0,0,1,0-22.25h130a11.13,11.13,0,1,1,0,22.25Zm-130-17.8a6.68,6.68,0,0,0,0,13.35h130a6.68,6.68,0,1,0,0-13.35h-130Z"/><path class="cls-3" d="M897.27,526.74H617.82a2.23,2.23,0,0,1,0-4.45H897.27a2.23,2.23,0,0,1,0,4.45Z"/><circle class="cls-5" cx="631.7" cy="514.4" r="4.34"/><circle class="cls-3" cx="648.52" cy="514.4" r="4.34"/><circle class="cls-3" cx="665.34" cy="514.4" r="4.34"/><rect class="cls-5" x="648.52" y="537.91" width="120.32" height="48.64"/><path class="cls-3" d="M768.85,588.75H648.52a2.22,2.22,0,0,1-2.22-2.22V537.91a2.22,2.22,0,0,1,2.22-2.22H768.85a2.21,2.21,0,0,1,2.22,2.22v48.62A2.21,2.21,0,0,1,768.85,588.75Zm-118.1-4.45H766.62V540.14H650.75Z"/><path class="cls-3" d="M648.52,588.75a2.21,2.21,0,0,1-1.4-3.93h0l39.49-32.46a2.24,2.24,0,0,1,2.83,0l31.42,26.17a2.23,2.23,0,0,1-2.85,3.42l-30-25-38.09,31.35A2.23,2.23,0,0,1,648.52,588.75Z"/><path class="cls-3" d="M768.85,588.75a2.36,2.36,0,0,1-1.38-.46l-35.6-28.22-18.09,16a2.23,2.23,0,0,1-2.94-3.34l19.47-17.2a2.22,2.22,0,0,1,2.85,0l37,29.37a2.22,2.22,0,0,1-1.4,4Z"/><path class="cls-6" d="M861.13,542.34h-69a2.23,2.23,0,0,1,0-4.45h69a2.23,2.23,0,1,1,0,4.45Z"/><path class="cls-6" d="M861.13,562h-69a2.23,2.23,0,0,1,0-4.45h69a2.23,2.23,0,1,1,0,4.45Z"/><path class="cls-6" d="M846.47,581.61H792.12a2.23,2.23,0,1,1,0-4.45h54.35a2.23,2.23,0,1,1,0,4.45Z"/><rect class="cls-7" x="648.52" y="602.72" width="51.31" height="36.07"/><path class="cls-3" d="M699.83,641H648.52a2.23,2.23,0,0,1-2.22-2.23V602.72a2.23,2.23,0,0,1,2.22-2.22h51.31a2.22,2.22,0,0,1,2.22,2.22v36.07A2.22,2.22,0,0,1,699.83,641Zm-49.08-4.45h46.86V605H650.75Z"/><rect class="cls-7" x="731.11" y="602.72" width="51.31" height="36.07"/><path class="cls-3" d="M782.46,641H731.11a2.22,2.22,0,0,1-2.22-2.23V602.72a2.22,2.22,0,0,1,2.22-2.22h51.35a2.23,2.23,0,0,1,2.23,2.22v36.07A2.23,2.23,0,0,1,782.46,641Zm-49.08-4.45h46.86V605h-46.9Z"/><rect class="cls-7" x="813.7" y="602.72" width="51.31" height="36.07"/><path class="cls-3" d="M865,641h-51.4a2.22,2.22,0,0,1-2.22-2.23V602.72a2.22,2.22,0,0,1,2.22-2.22H865a2.22,2.22,0,0,1,2.22,2.22v36.07A2.22,2.22,0,0,1,865,641Zm-49.08-4.45h46.85V605H815.84Z"/><path class="cls-6" d="M685.23,657.86H663.14a2.23,2.23,0,0,1,0-4.45h22.09a2.23,2.23,0,1,1,0,4.45Z"/><path class="cls-6" d="M767.82,657.86H745.71a2.23,2.23,0,1,1,0-4.45h22.11a2.23,2.23,0,1,1,0,4.45Z"/><path class="cls-6" d="M850.41,657.86H828.3a2.23,2.23,0,1,1,0-4.45h22.11a2.23,2.23,0,1,1,0,4.45Z"/><rect class="cls-2" x="483.17" y="547.1" width="146.2" height="226.67" rx="11.86"/><path class="cls-3" d="M617.49,776H495.12a14.13,14.13,0,0,1-14.2-14.06V559A14.13,14.13,0,0,1,495,544.88H617.4A14.1,14.1,0,0,1,631.5,559V761.83A14.1,14.1,0,0,1,617.49,776ZM495.12,549.33a9.65,9.65,0,0,0-9.66,9.63V761.83a9.68,9.68,0,0,0,9.66,9.63H617.49a9.66,9.66,0,0,0,9.65-9.63V559a9.65,9.65,0,0,0-9.65-9.63Z"/><rect class="cls-4" x="495.5" y="577.18" width="121.55" height="162.86" rx="5.7"/><path class="cls-3" d="M611.32,742.27H501.19a7.93,7.93,0,0,1-7.92-7.92V582.88a7.92,7.92,0,0,1,7.92-7.92H611.32a8,8,0,0,1,7.95,7.92V734.35a7.93,7.93,0,0,1-7.92,7.92ZM501.19,579.39a3.47,3.47,0,0,0-3.47,3.47V734.33a3.47,3.47,0,0,0,3.47,3.47H611.32a3.48,3.48,0,0,0,3.5-3.45V582.88a3.47,3.47,0,0,0-3.47-3.47h0Z"/><circle class="cls-3" cx="537.39" cy="559.72" r="1.91"/><path class="cls-3" d="M577,561.94H546.62a2.23,2.23,0,0,1,0-4.45h30.53a2.23,2.23,0,0,1,0,4.45Z"/><circle class="cls-3" cx="556.26" cy="759.78" r="8.03"/><rect class="cls-8" x="510.22" y="594.69" width="92.27" height="58.16"/><path class="cls-3" d="M602.51,655H510.22a2.22,2.22,0,0,1-2.22-2.22V594.69a2.22,2.22,0,0,1,2.22-2.22h92.29a2.22,2.22,0,0,1,2.23,2.22v58.12A2.22,2.22,0,0,1,602.51,655Zm-90.06-4.45h87.84V596.92H512.45Z"/><path class="cls-7" d="M519.9,704.8h72.91a9.68,9.68,0,0,1,9.68,9.68h0a9.68,9.68,0,0,1-9.68,9.68H519.9a9.68,9.68,0,0,1-9.68-9.68h0A9.69,9.69,0,0,1,519.9,704.8Z"/><path class="cls-3" d="M592.81,726.41H519.92a11.93,11.93,0,0,1,0-23.83h72.91a11.93,11.93,0,0,1,1,23.83h-1.05ZM519.92,707a7.48,7.48,0,0,0,0,14.93h72.91a7.48,7.48,0,1,0,.82-14.93,5.61,5.61,0,0,0-.82,0Z"/><path class="cls-6" d="M602.51,671.34H510.22a2.23,2.23,0,0,1,0-4.45h92.29a2.23,2.23,0,1,1,0,4.45Z"/><path class="cls-6" d="M581.75,689.18H510.22a2.23,2.23,0,0,1,0-4.45h71.53a2.23,2.23,0,1,1,0,4.45Z"/><path class="cls-3" d="M572.25,647.31a2.22,2.22,0,0,1-1.69-.78l-27.85-32.06-29.46,30.79a2.22,2.22,0,1,1-3.2-3.09h0l31.14-32.55a2.23,2.23,0,0,1,3.15-.12l.13.12,29.45,33.91a2.22,2.22,0,0,1-.22,3.14A2.25,2.25,0,0,1,572.25,647.31Z"/><path class="cls-3" d="M602.49,641.26a2.23,2.23,0,0,1-1.42-.53l-19.2-16.29L567.05,638.9a2.23,2.23,0,1,1-3.12-3.2l16.27-15.87a2.24,2.24,0,0,1,3,0l20.74,17.58a2.23,2.23,0,0,1-1.45,3.94Z"/><path class="cls-3" d="M467.86,776a2.24,2.24,0,0,1-.3-4.43l.1,0c2.23-.44,368.27-.13,480.36,0a2.23,2.23,0,0,1,0,4.45h0c-4.74,0-473.24-.4-479.76,0Z"/><rect class="cls-4" x="870.32" y="660.44" width="77.67" height="59.34" rx="6.05"/><path class="cls-3" d="M942,722H876.38a8.29,8.29,0,0,1-8.28-8.27V666.49a8.3,8.3,0,0,1,8.28-8.28H942a8.3,8.3,0,0,1,8.27,8.28v47.23A8.29,8.29,0,0,1,942,722Zm-65.59-59.34a3.83,3.83,0,0,0-3.83,3.83h0v47.24a3.82,3.82,0,0,0,3.83,3.82H942a3.82,3.82,0,0,0,3.82-3.82h0V666.49a3.83,3.83,0,0,0-3.82-3.83H876.38Z"/><path class="cls-6" d="M934.51,678.46H886.9a2.23,2.23,0,1,1,0-4.45h47.61a2.23,2.23,0,1,1,0,4.45Z"/><path class="cls-6" d="M934.51,692.32H886.9a2.23,2.23,0,1,1,0-4.45h47.61a2.23,2.23,0,1,1,0,4.45Z"/><path class="cls-6" d="M921.47,706.2H886.9a2.22,2.22,0,1,1,0-4.44h34.57a2.22,2.22,0,1,1,0,4.44Z"/><polygon class="cls-4" points="958.92 709.19 931.75 736.35 916.34 693.77 958.92 709.19"/><path class="cls-3" d="M931.75,738.58h-.49a2.26,2.26,0,0,1-1.6-1.4l-15.42-42.59a2.24,2.24,0,0,1,1.34-2.85,2.3,2.3,0,0,1,1.51,0l42.59,15.42a2.23,2.23,0,0,1,1.13,2.94,2,2,0,0,1-.36.55l-27.16,27.17A2.22,2.22,0,0,1,931.75,738.58Zm-11.7-41.1,12.62,34.82,22.24-22.25Z"/><line class="cls-9" x1="945.35" y1="722.76" x2="954.49" y2="731.9"/><path class="cls-3" d="M954.49,734.13a2.23,2.23,0,0,1-1.58-.65l-9.14-9.14a2.24,2.24,0,0,1,0-3.15h0a2.22,2.22,0,0,1,3.13,0l9.15,9.16a2.23,2.23,0,0,1,0,3.14A2.27,2.27,0,0,1,954.49,734.13Z"/></g></g></svg>