<?xml version="1.0" encoding="utf-8"?>
<!-- Generator: Adobe Illustrator 24.0.1, SVG Export Plug-In . SVG Version: 6.00 Build 0)  -->
<svg version="1.1" id="_340_web_developer_flatline"
	 xmlns="http://www.w3.org/2000/svg" xmlns:xlink="http://www.w3.org/1999/xlink" x="0px" y="0px" viewBox="0 0 1920 1080"
	 style="enable-background:new 0 0 1920 1080;" xml:space="preserve">
<style type="text/css">
	.st0{fill:#E6E7E8;}
	.st1{fill:#FFFFFF;}
	.st2{fill:#D1D3D4;}
	.st3{fill:#231F20;}
	.st4{fill:#AF63C5;}
	.st5{fill:none;}
</style>
<ellipse class="st0" cx="-5004.9" cy="946.8" rx="356.9" ry="29.1"/>
<rect x="-4663.3" y="673.3" class="st1" width="253.8" height="206.7"/>
<path class="st2" d="M-4409.6,882.1h-253.8c-1.1,0-2-0.9-2-2V673.3c0-1.1,0.9-2,2-2h253.8c1.1,0,2,0.9,2,2v206.8
	C-4407.6,881.2-4408.5,882.1-4409.6,882.1z M-4661.3,878.1h249.7V675.3h-249.7V878.1z"/>
<path class="st2" d="M-4409.6,701.9h-253.8c-1.1,0-2-0.9-2-2s0.9-2,2-2h253.8c1.1,0,2,0.9,2,2S-4408.5,701.9-4409.6,701.9z"/>
<path class="st1" d="M-5108.7,287c-15.5,1-28.8-10.6-29.9-26.1c-0.5-7.2,1.8-14.2,6.4-19.8c-15.3-7.1-23.4-25.2-22.3-42
	s10-32.1,21-45c9.1-10.5,20.5-20,34.2-22.6c2.6-0.3,5.1-1,7.5-2.1c1.8-1.3,3.4-2.9,4.7-4.8c10-12.7,22.3-24.4,37.7-29.6
	c15.4-5.1,34.2-2.2,44.5,10.3c14-12.2,35.3-10.7,47.5,3.4c6.3,7.2,9.2,16.8,8,26.3c22.1,3.3,40.4,19,47,40.4
	c5.7,21.1-4,45.8-23.4,55.8c-2.2,1.2-4.9,2.7-4.8,5.2c0.2,1.5,0.9,2.9,1.9,4c6.3,8.9,3.1,21.9-4,30c-7.1,8.1-17.8,12.4-28.1,16.5
	c4.7,4.7,5.9,11.8,3.1,17.8c-3,5.9-7.6,10.7-13.3,13.9c-22.3,14.4-49.9,9.9-74.8,10.4c-23,0.5-45.9-14.2-61.2-30.9
	C-5110.1,295-5112.5,289.3-5108.7,287z"/>
<path class="st3" d="M-5018.3,331.4c-4,0-8,0-11.7,0c-5.2,0-10.7-0.2-15.8,0c-20.9,0.4-44.1-11.4-62.8-31.5c-2.7-2.7-4.1-6.3-4-10.1
	c0-0.1,0-0.3,0-0.4c-16.5-0.8-29.2-14.8-28.4-31.3c0.3-5.9,2.3-11.5,5.7-16.2c-13.8-7.6-22.4-24.8-21.2-42.8
	c1-15.3,8.3-30.9,21.5-46.2c11.5-13.3,23.1-20.9,35.3-23.3l1.4-0.2c3.9-0.2,7.5-2.3,9.5-5.7c12.6-16,25.2-25.9,38.8-30.4
	c16.7-5.6,35-1.7,45.4,9.4c15.6-12.1,38-9.2,50.1,6.4c5.4,7,8,15.7,7.3,24.5c22.1,4,40.1,19.9,46.7,41.4
	c6.1,22.4-4.7,48.1-24.5,58.1c-2,1-3.8,2.1-3.8,3.3c0.2,0.8,0.6,1.6,1.2,2.2l0.4,0.5c7.1,10.1,3.1,24.2-4.3,32.4
	c-7.3,7.2-16.2,12.7-25.9,16c3.6,5.3,4.1,12.1,1.5,18c-3.1,6.2-7.9,11.3-13.9,14.7C-4984.7,330-5001.5,331.4-5018.3,331.4z
	 M-5041.4,327.1c3.8,0,7.7,0,11.4,0c20,0.4,40.7,0.8,57.8-10.2c5.4-3,9.8-7.6,12.5-13.1c2.5-5.2,1.5-11.5-2.6-15.6
	c-0.5-0.5-0.8-1.2-0.7-1.8c0.1-0.7,0.6-1.3,1.2-1.6c9.4-3.8,20-8,27.1-16c6.4-7,9.9-19,4-27.5l-0.4-0.4c-1.1-1.3-1.8-2.8-1.9-4.5
	c0-4,3.8-5.9,5.9-7c18.2-9.4,28.1-32.9,22.4-53.5c-6.5-20.5-24.1-35.5-45.4-38.6c-1.1-0.2-1.8-1.2-1.7-2.2
	c2.2-17.4-10.2-33.2-27.6-35.4c-8.8-1.1-17.7,1.6-24.5,7.4c-0.4,0.4-0.9,0.5-1.5,0.5c-0.5,0-1-0.3-1.4-0.7c-9-11-26.4-15-42.3-9.7
	c-12.8,4.2-24.8,13.7-36.7,28.9c-1.4,2.1-3.2,3.8-5.2,5.2c-2.1,1.1-4.4,1.8-6.8,2.1l-1.3,0.2c-11.3,2.2-22.2,9.4-33.1,22
	c-12.7,14.6-19.6,29.4-20.5,43.8c-1.2,17.3,7.5,33.7,21.1,40.1c0.6,0.3,1,0.8,1.1,1.4c0.1,0.6,0,1.2-0.4,1.7
	c-9.3,10.9-7.9,27.3,3,36.5c5.2,4.4,12,6.6,18.8,6.1c0.9-0.1,1.8,0.5,2.1,1.4c0.3,0.9-0.1,1.8-0.9,2.3c-0.5,0.3-0.8,0.8-0.9,1.4
	c0.1,2.6,1.1,5,3,6.8c17.7,19.3,40.1,30.6,59.7,30.2L-5041.4,327.1z"/>
<path class="st1" d="M-4822.5,873.9c9.2,0,77.6,7.4,109.6,23.3c32,15.9,39,17.2,32.5,38.6s-62.9,26.8-105.8,18.7
	c-27.6-5.7-54.3-15.4-79.1-28.8L-4822.5,873.9z"/>
<path class="st3" d="M-4745.8,960.3c-13.7-0.1-27.4-1.4-40.8-4c-27.8-5.7-54.7-15.5-79.7-28.9c-0.5-0.3-0.8-0.7-0.9-1.3
	c-0.1-0.5,0.1-1.1,0.4-1.5l42.9-51.9c0.3-0.4,0.8-0.7,1.4-0.7h0.4c11.2,0,78,7.6,110,23.5l7.2,3.6c25.7,12.6,32.6,16,26.2,37.3
	C-4682.7,949.9-4709.1,960.3-4745.8,960.3z M-4862.6,925.2c24.1,12.7,49.9,22,76.7,27.5c43.1,8,97.7,2.3,103.7-17.4
	c5.5-18.3,1.5-20.2-24.3-32.9l-7.2-3.6c-30.6-15.2-96-22.9-108-23.2L-4862.6,925.2z"/>
<path class="st1" d="M-4813.3,873.7c12.6,3.1,20.6,15.3,18.5,28.1c-3,22.8-51.2,23.8-54,24C-4851.6,926.1-4813.3,873.7-4813.3,873.7
	z"/>
<path class="st3" d="M-4848.9,927.1c-0.7,0-1.4-0.4-1.8-1c-0.6-1.2-1.6-3,35.8-53.6c0.4-0.6,1.2-0.9,1.9-0.7c0.2,0,23,5.7,20,29.9
	c-3,23.2-47,25.2-55.7,25.4L-4848.9,927.1z M-4812.8,875.7c-11.7,16-29.2,40.1-33.6,47.7c11-0.5,47.1-3.6,49.5-22.2
	C-4795,890-4801.7,879-4812.8,875.7L-4812.8,875.7z"/>
<path class="st1" d="M-5170.7,925.9c-1.4,0.7-14.5,17.8-71.7,24.6c-57.2,6.8-78.3,19.1-91.1-10.9s-4-49.4,24-58s105.8-15.7,121-1.3
	C-5173.1,894.6-5170.7,925.9-5170.7,925.9z"/>
<path class="st3" d="M-5305.2,960.7c-14.1,0-23.2-4.7-29.9-20.4c-6.7-15.6-7.7-29.1-2.8-39.4c4.5-9.6,13.9-16.7,28.1-21
	c26.4-8,106.5-16.3,122.7-0.9c15.6,14.7,18.1,45.5,18.2,46.8c0,0.7-0.3,1.3-0.9,1.7l-0.6,0.5c-16.5,15-48.1,21.5-71.8,24.3
	c-12.3,1.5-22.9,3.2-32.1,4.7C-5284.4,959-5294.8,960.2-5305.2,960.7z M-5231.2,873.9c-27.5,0-60.7,4.4-77.5,9.5
	c-13.1,4-21.9,10.4-25.9,19.1c-4.4,9.4-3.4,21.6,2.8,36.4c9.4,22.2,23.3,20,56.8,14.5c9.4-1.5,20-3.2,32.4-4.7
	c23.2-2.8,54.1-9.1,69.8-23.4l0,0c-0.6-5.2-4-31.2-17-43.5C-5195.4,876-5211.9,873.9-5231.2,873.9z"/>
<path class="st1" d="M-5152.4,913.7c0,0-25.9,21.6-43.2,19.1c-17.3-2.6-41.2-12-31.5-30.7c9.6-18.6,71.5-29.9,71.5-29.9
	L-5152.4,913.7z"/>
<path class="st3" d="M-5192.7,934.8c-1.1,0-2.2-0.1-3.2-0.2c-12.9-1.9-28.6-7.5-33.6-17.3c-2.5-5.1-2.3-11.1,0.7-16
	c9.9-19.3,70.3-30.3,72.9-30.8c0.5-0.1,1,0,1.4,0.4c0.4,0.3,0.7,0.8,0.7,1.3l3.2,41.4c0,0.6-0.2,1.2-0.6,1.6
	C-5152.3,915.9-5175.1,934.8-5192.7,934.8z M-5157.3,874.4c-10.6,2.1-60.1,12.6-68.1,28.5c-2.4,3.8-2.7,8.6-0.7,12.7
	c4.4,8.5,18.8,13.5,30.9,15.3c14.7,2.2,36.8-14.7,41-18.1L-5157.3,874.4z"/>
<path class="st3" d="M-4841,731.9c0,0-27.3,106.6-127.1,127c-99.8,20.4-151.4,15-186.7-52.3c-35.3-67.3-12-108.5-12-108.5l314.8-6.3
	L-4841,731.9z"/>
<path class="st3" d="M-5050.3,871.3c-48.1,0-81.5-16.8-106.2-63.9c-35.4-67.5-12.9-108.7-12-110.4c0.4-0.6,1-1,1.7-1l314.8-6.3
	c0.9,0,1.8,0.6,2,1.5l10.9,40.1c0.1,0.3,0.1,0.7,0,1c-0.3,1.1-28.8,108.2-128.6,128.4C-4999.3,867.3-5026.6,871.3-5050.3,871.3z
	 M-5165.4,700c-3.1,6.6-18.9,45.8,12.5,105.6c35.9,68.1,88.2,71,184.3,51.3c93.9-19.2,123.2-117.1,125.4-125l-10.4-38.1L-5165.4,700
	z"/>
<path class="st4" d="M-5190.3,732.9c0,0-51.6-166.7-44.8-271.2c6.8-104.5,45.6-108.2,98.6-114.1c23.5-2.6,148.8-21.2,195.8,34
	s129.5,313.9,129.5,313.9L-5190.3,732.9z"/>
<path class="st1" d="M-5004.1,347.9l-8,55.8c0,0-17.6,28.8-52.7,14.2c-35.1-14.6-35.8-41.5-35.8-41.5l16.6-103.1
	c0,0,37.1-33.3,52.7-96.8c0,0,31.1,54.2,76.1,66.4c0,0-3,45-11.1,72.9C-4974.2,342.7-5003.5,347.5-5004.1,347.9z"/>
<path class="st3" d="M-5046,424c-6.8-0.1-13.5-1.5-19.8-4.2c-36.1-14.9-37-42.1-37.1-43.3l16.8-103.5c0.1-0.5,0.3-0.9,0.6-1.2
	c0.4-0.3,36.8-33.6,52.1-95.8c0.2-0.8,0.9-1.4,1.7-1.5c0.8-0.1,1.6,0.3,2,1c0.3,0.6,31.2,53.6,74.9,65.4c0.9,0.2,1.6,1.1,1.5,2.1
	c0,0.4-3.1,45.6-11.1,73.3c-6.6,22.9-28.1,30.7-37.8,33.1l-8,54.5c0,0.3-0.1,0.5-0.2,0.8C-5018.5,416.5-5031.7,423.6-5046,424z
	 M-5082,274.3l-16.6,102.4c0,0.6,1.2,25.4,34.6,39.3c31.2,12.9,48.1-10.1,50-13.1l8-55.3c0.1-0.6,0.5-1.2,1-1.4
	c0.4-0.2,0.8-0.4,1.2-0.4c8.6-2,29.4-9.1,35.5-30.5c7.1-24.4,10.3-62.6,10.9-70.9c-37.7-11.1-65-49.9-73.2-62.8
	C-5045.8,238-5077.7,269.9-5082,274.3z M-5012.1,403.6L-5012.1,403.6z"/>
<path class="st1" d="M-5062.4,274.9c-0.5-5.2-2.6-10.1-6.1-14c-3.4-3.5-7.4-6.4-11.8-8.5c-2.3-1.4-4.8-2.3-7.5-2.6
	c-1.9,0-3.7,0.4-5.5,1.1c-4.3,1.4-7.9,4.2-10.3,8c-1.5,3.2-2.3,6.8-2.1,10.4c-0.2,3.9,0.2,7.8,1,11.5c3.9,15.7,19.8,25.2,35.5,21.3
	c0.2-0.1,0.4-0.1,0.6-0.2"/>
<path class="st3" d="M-5076.1,304.8c-14.3,0-26.9-9.7-30.4-23.6c-0.9-3.9-1.3-8-1.1-12c-0.1-3.9,0.7-7.8,2.4-11.3
	c2.6-4.2,6.5-7.3,11.2-8.9c2-0.8,4.1-1.2,6.3-1.2c3,0.3,5.8,1.3,8.4,2.8c4.6,2.2,8.7,5.2,12.3,8.9c3.8,4.2,6.1,9.6,6.6,15.2
	c0.1,1.1-0.7,2.1-1.8,2.2c-1.1,0-2-0.8-2.2-1.8c-0.4-4.8-2.3-9.3-5.5-12.9c-3.3-3.3-7.1-6-11.3-8c-2-1.3-4.3-2.1-6.6-2.4
	c-1.6,0-3.2,0.3-4.7,1c-3.8,1.2-7,3.6-9.2,6.9c-1.4,3-2,6.2-1.8,9.5c-0.2,3.7,0.1,7.4,1,11c3.7,14.6,18.5,23.5,33.1,19.8
	c0.1,0,0.3-0.1,0.4-0.1c1.1-0.3,2.2,0.3,2.4,1.4c0.3,1.1-0.4,2.2-1.4,2.4l0,0C-5070.8,304.4-5073.4,304.8-5076.1,304.8z"/>
<path class="st1" d="M-5012,259c0,0,15.7,31.1,10.6,35.5c-5.2,4.4-17.6-0.4-17.6-0.4"/>
<path class="st3" d="M-5007.9,298.4c-4.1-0.1-8.2-1-12-2.4c-1-0.4-1.5-1.6-1.1-2.6l0,0c0.4-1,1.6-1.5,2.6-1.1
	c2.9,1.1,12,3.7,15.5,0.8c2.1-1.8-3.2-17.6-11-33.1c-0.5-1-0.1-2.1,0.8-2.7c0,0,0,0,0.1,0c1-0.5,2.2-0.1,2.7,0.9
	c4.9,9.8,15.8,33,10.1,38C-5002.5,297.6-5005.1,298.5-5007.9,298.4z"/>
<ellipse transform="matrix(8.124232e-02 -0.9967 0.9967 8.124232e-02 -4877.9414 -4788.5093)" class="st3" cx="-5036.3" cy="251.6" rx="6.7" ry="4.8"/>
<ellipse transform="matrix(7.428534e-02 -0.9972 0.9972 7.428534e-02 -4874.0142 -4733.6187)" class="st3" cx="-4986.7" cy="258.5" rx="6.7" ry="4.8"/>
<path class="st3" d="M-5016.1,323.2c-6.1,0.1-12.2-1.3-17.7-4c-9.6-5-15.7-14.6-18.2-28.5c-0.2-1.1,0.5-2.1,1.6-2.3l0,0
	c1.1-0.2,2.1,0.5,2.3,1.6c2.2,12.6,7.7,21.2,16,25.6c16.8,8.8,40.5-1.8,40.8-2c1-0.5,2.2,0,2.6,1c0.5,1,0,2.2-0.9,2.6c0,0,0,0-0.1,0
	C-4998,321-5007,323-5016.1,323.2z"/>
<path class="st3" d="M-5004.1,347.9c0,0-36.1,3-54.7-11.7c0,0,15.8,50.1,49.1,49.9L-5004.1,347.9z"/>
<path class="st3" d="M-5009.9,388.1c-34.2,0-50.2-49.3-50.9-51.3c-0.2-0.8,0.1-1.7,0.8-2.2s1.7-0.5,2.4,0
	c17.9,14,52.9,11.3,53.3,11.3c1.1-0.1,2.1,0.8,2.1,1.9c0,0.1,0,0.3,0,0.4l-5.6,38.3C-5008,387.4-5008.9,388.1-5009.9,388.1z
	 M-5054.8,341.2c5.1,12.5,19.5,41.6,43.3,42.8l4.9-34C-5014.2,350.3-5038,350.6-5054.8,341.2L-5054.8,341.2z"/>
<path class="st4" d="M-5176.2,356.9c-74-9.2-143.5,305-103.1,334.9c63,46.6,255.3-17,255.3-17l-19.2-82.9c0,0-138.8,6.6-141.3-21.9
	s77.5-162.1,66.3-181.5C-5129.5,368.9-5176.2,356.9-5176.2,356.9z"/>
<path class="st3" d="M-4917.7,594.1c-0.9,0-1.7-0.7-1.8-1.6c-9.5-67-30.5-179.2-37.2-185.8c-0.7-0.7-0.7-1.9,0.1-2.6
	c0.7-0.7,1.8-0.7,2.5,0c8.7,8.5,31.1,137.2,38.3,187.9c0.1,1-0.6,1.9-1.6,2.1H-4917.7z"/>
<polygon class="st1" points="-4988.6,752.7 -5116.3,716.9 -4881.7,672.8 -4754.7,726 "/>
<path class="st3" d="M-4988.6,754.8c-0.2,0-0.3,0-0.5,0l-127.8-36.1c-1.1,0-2-0.9-2-2s0.9-2,2-2l234.6-44.1c0.4-0.1,0.8-0.1,1.1,0
	l127,53.2c0.8,0.4,1.3,1.2,1.2,2.1c-0.1,0.9-0.8,1.6-1.8,1.7l-233.7,27.1L-4988.6,754.8L-4988.6,754.8z M-5107.5,717.4l119.1,33.4
	l225.9-25.8l-119.4-50L-5107.5,717.4z"/>
<path class="st1" d="M-5063.9,620.5c28.1,3.1,54.1,5.1,80.1,16c14.9,6.3,29,14.3,41.9,24c6.6,4.7,12.7,9.9,18.4,15.7
	c4.5,4.9,3,9.7-4.5,7.3c-8.8-2.7-17.1-6.8-24.6-12c18.1,14.7,34,31.8,47.6,50.8c1.5,2.2,3,5.2,1.2,7.2c-1.8,1.9-5.8,0-8-2
	l-39.6-37.6c10.5,9.1,19.4,19.8,26.4,31.7c1,1.7,2,4,0.9,5.6c-1.8,2.9-6.3,0.7-8.7-1.7c-11.9-12-22.7-25-32.3-38.9l21.4,32.1
	c-0.8,2.5-3.5,3.8-6,2.9l0,0c-2.4-1-4.4-2.6-5.9-4.6l-25.9-29.8l15.3,21.1c2.4,3.3,4.8,8,2,11.1c-2.8,3.1-9,0-12.5-3.1
	c-14.2-12.9-29.8-24.3-46.4-33.8c-6.1-3.6-11.2-8.4-17.9-10.5c-9.6-3-21.6-2.6-31.7-3.7"/>
<path class="st3" d="M-4905.7,732.2c-2.7-0.3-5.2-1.5-7.1-3.4l-12.8-12c0.8,1.3,1.7,2.7,2.4,4c1.7,2.1,2,5,0.9,7.5
	c-0.7,1.3-2,2.1-3.4,2.2c-3.1,0-6-1.4-8-3.6c-2.6-2.6-5.2-5.3-7.7-8c0,0.1,0,0.3,0,0.4c-0.3,1.5-1.2,2.8-2.6,3.6
	c-1.7,1-3.9,1.3-5.8,0.8c-2.7-1.1-5-2.9-6.7-5.2l-4.7-5.4c1.2,2.7,0.8,5.8-1.1,8c-1.2,1.3-2.8,2.1-4.6,2.1
	c-4.2-0.5-8.1-2.4-10.9-5.5c-14-12.9-29.5-24.1-46.1-33.5c-2-1.2-4-2.6-5.9-4c-3.5-2.7-7.4-4.9-11.6-6.4c-7-1.8-14.2-2.7-21.4-2.9
	c-3.4-0.2-6.8-0.4-10-0.7c-1-0.1-1.7-1-1.6-2s1-1.7,2-1.6l0,0c3.1,0.3,6.4,0.5,9.8,0.7c7.5,0.1,15,1.2,22.2,3
	c4.5,1.7,8.8,4,12.6,6.9c1.8,1.3,3.7,2.6,5.7,3.8c16.8,9.5,32.5,20.9,46.8,34c2.2,2.2,5,3.7,8,4.2c0.8,0,1.5-0.4,2-0.9
	c2.2-2.4-0.8-7-2.2-8.9l-15.3-21c-0.6-0.8-0.5-1.9,0.3-2.5l0,0c0.7-0.7,1.8-0.7,2.5,0l26,29.8c1.3,1.8,3,3.2,5,4
	c1,0.3,2,0.1,2.8-0.4c0.3-0.1,0.5-0.3,0.6-0.6l-20.9-31.4c-0.6-0.8-0.3-2,0.5-2.5c0.8-0.6,2-0.3,2.5,0.5
	c9.6,13.8,20.3,26.7,32.1,38.6c1.3,1.4,3.1,2.3,5,2.6c0.3,0,0.6-0.2,0.8-0.5c0.4-0.7,0-2-0.9-3.7c-4.8-8.3-10.6-15.9-17.2-22.8
	l-8.9-8.5c-0.7-0.8-0.6-1.9,0.2-2.6c0.6-0.5,1.6-0.6,2.3-0.1c3.2,2.7,6.2,5.6,9.1,8.6l30.6,29.1c1.2,1.4,2.8,2.2,4.6,2.5
	c0.3,0,0.6-0.1,0.8-0.4c0.9-1,0-3.1-1.3-4.9c-13.4-18.8-29.3-35.8-47.2-50.4c-0.7-0.7-0.8-1.9-0.1-2.6c0.6-0.6,1.5-0.8,2.3-0.3
	c7.4,5.1,15.5,9.1,24,11.8c2.8,0.9,4.3,0.5,4.6,0s0-2.3-2-4.4c-5.6-5.7-11.6-10.9-18.2-15.5c-12.8-9.6-26.7-17.6-41.5-23.8
	c-23.5-9.8-47-12.3-72.1-15l-7.8-0.9c-1-0.1-1.7-1-1.6-2l0,0c0.1-1,1-1.7,2-1.6l0,0l8,0.8c25.2,2.7,49,5.3,73,15.3
	c15,6.2,29.3,14.3,42.3,24c6.7,4.8,12.9,10.1,18.7,16c2.9,3.1,3.8,6.5,2.3,8.8c-0.8,1.3-3.1,3.2-8.7,1.4c-3.3-1-6.5-2.2-9.6-3.6
	c12.8,12,24.4,25.2,34.6,39.5c2.8,4,3.1,7.3,1.1,9.5c-0.9,1-2.1,1.5-3.4,1.6L-4905.7,732.2z"/>
<polygon class="st1" points="-4754.7,726 -4696.2,569.5 -4935,574.2 -4988.6,752.7 "/>
<path class="st3" d="M-4988.6,754.8c-0.6,0-1.2-0.3-1.5-0.7c-0.4-0.5-0.6-1.2-0.4-1.8l53.5-178.5c0.3-0.8,1-1.4,1.9-1.4l238.8-4.7
	c0.7,0,1.3,0.3,1.7,0.8s0.4,1.2,0.2,1.8l-58.5,156.3c-0.3,0.7-0.9,1.2-1.7,1.3l-233.8,26.9L-4988.6,754.8L-4988.6,754.8z
	 M-4933.5,576.3l-52.1,174.2l229.6-26.2l57-152.6L-4933.5,576.3z M-4754.7,726.1L-4754.7,726.1z"/>
<path class="st3" d="M-4767.4,727.4c0,0,64.8,52.6,42,100.9c-22.8,48.2-436.8,103.4-436.8,103.4l-18.6-63.1
	C-5180.8,868.6-4856,702.7-4767.4,727.4z"/>
<path class="st3" d="M-5162.2,933.7c-0.9,0-1.7-0.6-1.9-1.4l-18.6-63.1c-0.3-0.9,0.1-1.9,1-2.3c0.8-0.4,82.3-41.9,173.6-79.9
	c122.8-51.1,204-71.8,241.2-61.4c0.3,0.1,0.5,0.2,0.8,0.4c11.3,9.6,21.4,20.6,29.9,32.7c17.9,25.7,22.2,50.1,12.5,70.5
	c-23.3,48.6-421.3,102.2-438.2,104.4L-5162.2,933.7z M-5178.5,869.6l17.7,59.8c28.9-4,411.8-56.8,433.3-102
	c21.2-44.6-36.1-94.1-41-98.2c-84.2-22.5-385.7,128.4-409.7,140.5L-5178.5,869.6z"/>
<path class="st3" d="M-5202.3,703.2c0,0,321.5,130,401.2,164.3l-46.3,71.6c0,0-296.9-5.8-382-80.4S-5308.8,660-5202.3,703.2z"/>
<path class="st3" d="M-4847.4,941.2L-4847.4,941.2c-0.7,0-75.3-1.6-159.3-12.2c-113-14.4-188.4-37.5-224-68.7
	c-44.6-39-75.8-107.6-51.3-147.4c8-13.2,29.4-32.3,80.5-11.6l0,0c3.2,1.3,322.4,130.4,401.3,164.3c0.5,0.2,1,0.7,1.1,1.2
	c0.2,0.6,0.1,1.2-0.2,1.7l-46.3,71.7C-4846,940.9-4846.7,941.2-4847.4,941.2z M-5241.7,696.3c-16.5,0-29.1,6.3-36.8,18.8
	c-18.9,30.7-3.2,95.3,50.5,142.3c81,71,359.6,79.4,379.6,79.9l44.5-68.7c-82.3-35.3-395.8-162.1-399-163.3l0,0
	C-5215.2,699.7-5228.4,696.7-5241.7,696.3z"/>
<path class="st1" d="M-4753.4,663.5c0.3,1.8,1.1,3.6,2.3,5l6.3,9.3c-0.9-3.6-4.5-5.9-8.2-5c-0.4,0.1-0.8,0.2-1.1,0.4
	c-3.6,2-5.8,5.8-5.7,9.9c0.2,4,1.1,8,2.8,11.7c4.4,11.5,14.5,28.4,29.1,19.7c9.9-5.9,12.6-26.9,14-37.3c2.8-20.5-3.5-46.9-29.9-42.9
	c0.8,10.1,4.5,19.7,10.8,27.7C-4737.4,657.8-4754.8,651.4-4753.4,663.5z"/>
<path class="st3" d="M-4736.1,718.7c-1.6,0-3.2-0.3-4.7-0.8c-9.5-3.2-15.4-15.5-18.1-22.5c-1.7-3.9-2.7-8.1-2.9-12.3
	c-0.1-4.8,2.5-9.3,6.9-11.5c1-0.4,2-0.7,3.1-0.7l-0.9-1.3c-1.4-1.7-2.3-3.8-2.6-5.9c-0.7-3.3,1-6.6,4-8c4.1-1.3,8.5-0.9,12.4,0.9
	c-3.9-6.7-6.2-14.2-6.7-22c-0.1-1,0.6-1.8,1.6-2c8.1-1.8,16.6,0.6,22.7,6.3c9.4,9.3,11,26,9.3,38.7c-1.6,11.5-4.4,32.3-14.9,38.6
	C-4729.7,717.8-4732.9,718.7-4736.1,718.7z M-4751.6,674.6c-0.6,0-1.3,0.1-1.9,0.4c-3,1.7-4.8,4.9-4.6,8.3c0.2,3.8,1.1,7.5,2.6,11
	c2,5.1,7.5,17.4,16,20.3c3.6,1.1,7.4,0.6,10.5-1.6c9-5.4,11.7-25.8,13.1-35.5c1.6-12,0.3-27.7-8-36.1c-4.8-4.5-11.4-6.5-17.9-5.5
	c1,9.1,4.6,17.8,10.3,25c0.6,0.7,0.5,1.8-0.2,2.5c-0.7,0.7-1.8,0.7-2.5,0c-2.7-2.6-11.5-6.4-15.5-4.5c-0.9,0.4-2,1.3-1.7,4.4l0,0
	c0.3,1.5,1,3,2,4.2l3.4,5c1.8,1.2,3,3.1,3.2,5.2c0.1,0.8-0.4,1.6-1.2,1.9c-0.8,0.3-1.7,0-2.1-0.7l-2.5-3.7
	C-4749.6,674.8-4750.6,674.6-4751.6,674.6z"/>
<path class="st1" d="M-4843.7,852.7c-0.3,0-0.5,0-0.8,0c-7-2.7-172.8-66.9-210.1-89.8c-1-0.6-1.3-1.9-0.7-2.8c0.6-1,1.8-1.3,2.8-0.7
	l0,0c37,22.7,207.7,88.8,209.4,89.4c1.1,0.4,1.6,1.6,1.2,2.7C-4842.1,852.3-4842.9,852.8-4843.7,852.7z"/>
<ellipse class="st3" cx="-5037" cy="528.4" rx="66.2" ry="62.6"/>
<path class="st3" d="M-5037,593c-37.6,0-68.1-29-68.1-64.6s30.6-64.6,68.1-64.6s68.1,29,68.1,64.6S-4999.5,593-5037,593z
	 M-5037,467.8c-35.4,0-64.1,27.2-64.1,60.6s28.7,60.6,64.1,60.6s64.1-27.2,64.1-60.6S-5001.7,467.8-5037,467.8z"/>
<path class="st1" d="M-5072,548.8l-16-9.4V527l16-9.4c5.3-3.1,10.7-6.2,16-9.4v15c-2.8,1.8-5.7,3.5-8.5,5.1s-5.7,3.3-8.5,5.1
	l8.5,4.7l8.5,4.8V558L-5072,548.8z"/>
<path class="st1" d="M-5051.4,562.1l18.9-71.8l9.9,4.4l-19,71.7L-5051.4,562.1z"/>
<path class="st1" d="M-5001.9,517.6l16,9.4v12.4l-16,9.4l-16,9.4V543l8.5-4.8l8.5-4.7c-2.8-1.8-5.7-3.5-8.5-5.1
	c-2.8-1.6-5.7-3.4-8.5-5.1v-15L-5001.9,517.6z"/>
<path class="st3" d="M-5174.2,702.7c-1.1,0.1-2.1-0.8-2.1-1.9s0.8-2.1,1.9-2.1l96.2-11.7l15.3-77l-123.2-10.4
	c-0.6,0-1.1-0.3-1.5-0.8s-0.5-1.1-0.3-1.7l50.7-188.6c0.3-1.1,1.4-1.8,2.5-1.5c1.1,0.3,1.8,1.4,1.5,2.5l-50.1,186.3l122.8,10.2
	c0.6,0.1,1.1,0.4,1.4,0.8c0.3,0.5,0.5,1,0.4,1.6l-16,80.6c-0.2,0.8-0.9,1.5-1.7,1.6l-97.7,11.8v0.3H-5174.2z"/>
<rect x="-4844.4" y="158.5" class="st0" width="199.8" height="20.7"/>
<rect x="-4621.4" y="158.5" class="st0" width="199.8" height="20.7"/>
<rect x="-4761.9" y="193.9" class="st4" width="117.3" height="20.7"/>
<rect x="-4621.4" y="193.9" class="st0" width="177.5" height="20.7"/>
<rect x="-4792.4" y="229.4" class="st0" width="147.8" height="20.7"/>
<rect x="-4621.4" y="229.4" class="st0" width="83.4" height="20.7"/>
<rect x="-4730.8" y="264.8" class="st0" width="86.2" height="20.7"/>
<rect x="-4621.4" y="264.8" class="st4" width="163.3" height="20.7"/>
<rect x="-4672" y="300.3" class="st4" width="27.5" height="20.7"/>
<rect x="-4621.4" y="300.3" class="st0" width="109.7" height="20.7"/>
<rect x="-4831.7" y="446" class="st4" width="183.6" height="23.7"/>
<rect x="-4618.5" y="446" class="st0" width="112.8" height="23.7"/>
<rect x="-4797.2" y="486.5" class="st0" width="149.1" height="23.7"/>
<rect x="-4618.5" y="486.5" class="st0" width="164.2" height="23.7"/>
<rect x="-4722.6" y="527.1" class="st0" width="74.5" height="23.7"/>
<rect x="-4618.5" y="527.1" class="st0" width="195.2" height="23.7"/>
<rect x="-4676" y="567.7" class="st0" width="27.9" height="23.7"/>
<rect x="-4618.5" y="567.7" class="st4" width="207.5" height="23.7"/>
<rect x="-4618.5" y="608.3" class="st0" width="139.4" height="23.7"/>
<path class="st0" d="M-4547.9,394.6l-15.1-6v-8l15.1-6l15.1-6v9.5c-2.7,1.2-5.4,2.2-8,3.3c-2.6,1-5.4,2.1-8,3.3l8,3l8,3v9.7
	L-4547.9,394.6z"/>
<path class="st0" d="M-4528.4,403.1l17.9-46l9.4,2.8l-18,46.2L-4528.4,403.1z"/>
<path class="st0" d="M-4481.6,374.7c5,2,10.1,4,15.1,6v8l-15.1,6l-15.1,6v-9.8l8-3l8-3c-2.7-1.2-5.4-2.2-8-3.3c-2.6-1-5.4-2.1-8-3.3
	v-9.6L-4481.6,374.7z"/>
<path class="st0" d="M-4839.2,109.2c0-0.9,0.2-1.8,0.6-2.7c0.4-0.9,0.9-1.6,1.6-2.2s1.4-1.1,2.3-1.4c0.9-0.4,1.9-0.6,2.8-0.6
	s1.8,0.2,2.7,0.6c0.8,0.3,1.6,0.8,2.2,1.4s1.2,1.4,1.5,2.2c0.4,0.8,0.6,1.8,0.6,2.7c0,0.9-0.2,1.9-0.6,2.7c-0.4,0.8-0.9,1.5-1.5,2.1
	c-1.3,1.3-3.1,2-4.9,2c-1,0-1.9-0.2-2.8-0.6c-0.9-0.3-1.6-0.8-2.3-1.4s-1.2-1.3-1.6-2.1S-4839.2,110.1-4839.2,109.2z M-4839.2,132.7
	c0-1.9,0.8-3.6,2.2-4.9c0.7-0.6,1.4-1.1,2.3-1.5c0.9-0.4,1.9-0.5,2.8-0.5s1.8,0.2,2.7,0.5c0.8,0.3,1.6,0.8,2.2,1.5
	c0.6,0.6,1.2,1.4,1.5,2.2c0.7,1.7,0.7,3.7,0,5.4c-0.4,0.8-0.9,1.5-1.5,2.2c-0.7,0.6-1.4,1.1-2.2,1.4c-0.9,0.3-1.8,0.5-2.7,0.5
	c-1,0-1.9-0.2-2.8-0.5c-0.8-0.3-1.6-0.8-2.3-1.4c-0.7-0.6-1.2-1.3-1.6-2.2S-4839.2,133.6-4839.2,132.7z"/>
<path class="st0" d="M-4605.2,783.5c1.6,0.1,3.2-0.4,4.4-1.3c1.1-0.8,1.6-2.6,1.6-5.3v-12.4c0-2.1,0.3-4.1,0.8-6.1
	c0.5-1.9,1.3-3.6,2.5-5.1s2.6-2.7,4.3-3.5c2-0.9,4.2-1.4,6.4-1.3h9v12.9h-3.2c-1.5-0.1-2.9,0.5-3.7,1.8c-0.7,1.2-1,2.6-1,4v12.7
	c0,1.6-0.2,3.2-0.8,4.7c-0.5,1.1-1.2,2.2-2,3.1c-0.7,0.8-1.6,1.4-2.6,1.9c-0.8,0.4-1.6,0.7-2.5,0.8l0,0c0.9,0.2,1.7,0.4,2.5,0.8
	c1,0.4,1.9,1,2.6,1.8c1.9,2.1,2.9,4.9,2.8,7.8v12.7c-0.1,1.4,0.3,2.8,1,4c0.8,1.2,2.2,1.9,3.7,1.8h3.2V832h-9
	c-2.2,0.1-4.4-0.4-6.4-1.3c-1.7-0.8-3.2-2-4.3-3.5s-2-3.3-2.5-5.1c-0.5-2-0.8-4.1-0.8-6.1v-12.4c0.3-1.9-0.3-3.9-1.6-5.3
	c-1.3-0.9-2.9-1.4-4.4-1.3V783.5z"/>
<path class="st0" d="M-4466.7,796.8c-1.6-0.1-3.2,0.4-4.5,1.3c-1.3,1.4-1.9,3.4-1.6,5.3v12.4c0,2.1-0.3,4.1-0.8,6.1
	c-0.5,1.9-1.3,3.6-2.5,5.1c-1.1,1.5-2.6,2.7-4.3,3.5c-2,0.9-4.2,1.4-6.4,1.3h-9v-13h3.2c1.5,0.1,2.9-0.6,3.7-1.8
	c0.7-1.2,1.1-2.6,1-4v-12.7c0-1.6,0.2-3.2,0.8-4.6c0.5-1.2,1.2-2.2,2-3.2c0.7-0.8,1.6-1.4,2.6-1.8c0.8-0.4,1.7-0.6,2.6-0.8l0,0
	c-0.9-0.1-1.8-0.4-2.6-0.8c-1-0.5-1.8-1.1-2.6-1.9c-0.9-0.9-1.6-2-2-3.1c-0.6-1.5-0.9-3.1-0.8-4.7v-12.7c0-1.4-0.3-2.8-1-4
	c-0.8-1.2-2.2-1.9-3.7-1.8h-3.2v-12.7h9c2.2-0.1,4.4,0.4,6.4,1.3c1.7,0.8,3.2,2,4.3,3.5c1.2,1.5,2,3.3,2.5,5.1c0.5,2,0.8,4,0.8,6.1
	v12.4c-0.3,1.9,0.3,3.9,1.6,5.3c1.3,0.9,2.9,1.4,4.5,1.3V796.8z"/>
<g id="_286_startup_flatline">
	<path class="st2" d="M-2306.7,890.6h-1182.6c-1.1,0.3-2.3-0.3-2.6-1.4c-0.3-1.1,0.3-2.3,1.4-2.6c0.4-0.1,0.8-0.1,1.1,0h1182.8
		c1.1,0.3,1.8,1.5,1.4,2.6c-0.2,0.7-0.7,1.2-1.4,1.4H-2306.7z"/>
	<rect x="-3420.3" y="68.8" class="st1" width="1044.7" height="610.2"/>
	<path class="st2" d="M-2375.5,681.1h-1044.8c-1.2,0-2.1-0.9-2.1-2.1l0,0V68.8c0-1.2,0.9-2.1,2.1-2.1h1044.8c1.1,0,2.1,0.9,2.1,2.1
		c0,0,0,0,0,0V679C-2373.5,680.2-2374.4,681.1-2375.5,681.1z M-3418.2,677.1h1040.5V70.9h-1040.6L-3418.2,677.1z"/>
	<rect x="-3420.3" y="39.9" class="st1" width="1044.7" height="29"/>
	<path class="st2" d="M-2375.5,70.9h-1044.8c-1.2,0-2.1-0.9-2.1-2.1v-29c0-1.2,0.9-2.1,2.1-2.1h1044.8c1.1,0,2.1,0.9,2.1,2.1
		c0,0,0,0,0,0v29C-2373.5,70-2374.4,70.9-2375.5,70.9z M-3418.2,66.9h1040.5v-25h-1040.6L-3418.2,66.9z"/>
	<rect x="-2920.6" y="452.2" class="st1" width="56.8" height="182.3"/>
	<path class="st2" d="M-2863.8,636.6h-56.8c-1.1,0-2.1-0.9-2.1-2c0,0,0,0,0,0V452.2c0-1.2,0.9-2.1,2.1-2.1c0,0,0,0,0,0h56.8
		c1.2,0,2.1,0.9,2.1,2.1c0,0,0,0,0,0v182.3C-2861.7,635.7-2862.7,636.6-2863.8,636.6C-2863.8,636.6-2863.8,636.6-2863.8,636.6z
		 M-2918.5,632.6h52.7V454.3h-52.7L-2918.5,632.6z"/>
	<path class="st1" d="M-3137.4,679c0,0,12.4-69.2,59.2-88.2c46.7-19,72.1,20.1,72.1,20.1s12.1-64.4,86.3-64.4
		c74.3,0,91.4,50.6,91.4,50.6s15.2-30.6,48.8-28.5c33.5,2.1,38.6,44.3,38.6,44.3c19.7-8.7,42.2-8.7,62,0
		c32.2,15,45.7,66.3,45.7,66.3L-3137.4,679z"/>
	<path class="st2" d="M-2633.3,681.1h-504.1c-0.6,0-1.2-0.3-1.6-0.8c-0.4-0.5-0.5-1.1-0.4-1.7c0.5-2.9,13.2-70.6,60.3-89.8
		c25.1-11.3,54.8-4.2,72,17.3c4.4-14.6,23.5-61.8,87.3-61.8c62.6,0,85.8,36.2,91.7,48.3c5.4-8.2,21.2-27.8,48.6-26
		c29.7,1.9,38.2,33.6,40.2,43.2c19.7-8,41.8-7.6,61.2,1.1c32.7,15.2,46.3,65.5,46.8,67.6c0.2,0.6,0,1.3-0.4,1.8
		C-2632,680.9-2632.6,681.2-2633.3,681.1z M-3134.9,677.1h498.9c-3.3-10.5-17-49.8-43.8-62.3c-19.2-8.4-41.1-8.4-60.3,0
		c-0.6,0.3-1.3,0.3-1.9,0c-0.6-0.3-1-0.9-1.1-1.6c0-0.4-5.3-40.2-36.7-42.3c-31.4-2.1-46.6,27-46.7,27.3c-0.4,0.7-1.2,1.2-2,1.1
		c-0.8,0-1.5-0.6-1.8-1.4c-0.2-0.5-17.8-49.2-89.5-49.2c-30,0-53.3,10.5-69.2,31.2c-7.2,9.3-12.3,20-15.1,31.4
		c-0.1,0.8-0.8,1.5-1.6,1.6c-0.8,0.2-1.7-0.2-2.2-0.9c-15.5-22.4-44.8-30.5-69.6-19.3c-40.1,16.2-54.5,71.6-57.3,84V677.1z"/>
	<polygon class="st1" points="-2862.1,481.2 -2923.8,481.2 -2931.2,451.5 -2854.7,451.5 	"/>
	<path class="st2" d="M-2862.3,483.2h-61.5c-1,0-1.8-0.6-2-1.6l-7.4-29.6c-0.2-0.6,0-1.3,0.4-1.8c0.4-0.5,1-0.8,1.6-0.8h76.4
		c0.6,0,1.2,0.3,1.6,0.8c0.4,0.5,0.5,1.2,0.4,1.8l-7.4,29.6C-2860.4,482.6-2861.3,483.3-2862.3,483.2z M-2922.4,479.2h58.5l6.4-25.5
		h-71L-2922.4,479.2z"/>
	<path class="st1" d="M-2962.1,359.1c0,0-32.2,20.1-43.6,53.9c-11.4,33.8,14.4,98.8,14.4,98.8l58.8-63.7L-2962.1,359.1z"/>
	<path class="st2" d="M-2991.3,513.8h-0.4c-0.7-0.1-1.3-0.6-1.5-1.3c-1.1-2.7-25.7-66.2-14.4-100.2c11.3-34,43-54.1,44.3-55
		c0.6-0.3,1.2-0.3,1.8,0c0.6,0.2,1.1,0.7,1.3,1.3l29.6,88.7c0.2,0.7,0.1,1.5-0.4,2.1l-58.8,63.7
		C-2990.3,513.5-2990.8,513.7-2991.3,513.8z M-2963.1,362.3c-7.4,5.2-31.3,23.8-40.5,51.3c-9.5,28.4,8.3,80.9,13.2,94.2l55.7-60.3
		L-2963.1,362.3z"/>
	<path class="st1" d="M-2822.4,359.1c0,0,32.2,20.1,43.6,53.9c11.4,33.8-14.4,98.8-14.4,98.8L-2852,448L-2822.4,359.1z"/>
	<path class="st2" d="M-2793.2,513.8c-0.6,0-1.1-0.2-1.5-0.7l-58.8-63.7c-0.5-0.6-0.7-1.4-0.4-2.1l29.6-88.9
		c0.2-0.6,0.7-1.1,1.3-1.3c0.6-0.3,1.2-0.3,1.8,0c1.4,0.8,33.1,21,44.5,55s-13.4,97.5-14.4,100.2c-0.3,0.7-0.9,1.2-1.6,1.3
		L-2793.2,513.8z M-2849.5,447.4l55.7,60.3c4.8-13.3,22.6-65.8,13.2-94.2c-9.2-27.5-33.1-46.1-40.5-51.3L-2849.5,447.4z"/>
	<path class="st1" d="M-2840.1,462.8c16.1-38.5,26.1-94.2,26.1-156.2c0-93.9-51.8-143-71.5-158.3c-4.4-3.4-10.5-3.4-14.9,0
		c-19.7,15.2-71.6,64.1-71.6,158.1c0,62,10.1,117.8,26.2,156.2c0,0,16.1,8,52.8,8C-2856.3,470.7-2840.1,462.8-2840.1,462.8z"/>
	<path class="st2" d="M-2893,472.9c-36.9,0-53.1-8-53.7-8.3c-0.4-0.2-0.8-0.6-1-1c-16.8-40.2-26.4-97.3-26.4-156.9
		c0-93.8,50.6-143,72.4-159.8c5.2-4,12.3-4,17.5,0c21.7,16.8,72.4,65.9,72.4,159.8c0,59.7-9.6,116.9-26.4,156.9
		c-0.2,0.4-0.5,0.8-1,1C-2839.9,464.9-2856.1,472.9-2893,472.9z M-2944.2,461.2c3.4,1.4,19.6,7.6,51.2,7.6c31.7,0,47.9-6.1,51.3-7.6
		c16.3-39.5,25.7-95.8,25.7-154.6c0-92-49.5-140.1-70.7-156.5c-3.7-2.8-8.8-2.8-12.4,0c-21.2,16.5-70.7,64.4-70.7,156.5
		C-2969.9,365.5-2960.5,421.8-2944.2,461.2z M-2840.2,462.8L-2840.2,462.8z"/>
	<path class="st1" d="M-2900.4,148.2c-24.2,19.3-43.1,44.3-55,72.8h124.7c-11.9-28.5-30.7-53.5-54.8-72.8
		C-2889.9,144.8-2896.1,144.8-2900.4,148.2z"/>
	<path class="st2" d="M-2830.6,223.3h-124.7c-0.7,0-1.3-0.3-1.7-0.9c-0.4-0.6-0.5-1.3-0.2-2c12-28.8,31.1-54.2,55.5-73.7l0,0
		c5.2-4,12.3-4,17.5,0c24.5,19.5,43.6,44.8,55.6,73.7c0.3,0.7,0.2,1.4-0.2,2C-2829.2,223-2829.9,223.3-2830.6,223.3z M-2952.3,219.3
		h118.5c-11.7-27-29.9-50.8-53-69.2c-3.7-2.8-8.8-2.8-12.4,0l0,0c-23.1,18.3-41.3,42-53.1,69V219.3z"/>
	<circle class="st1" cx="-2889.9" cy="291.1" r="48.2"/>
	<path class="st2" d="M-2889.9,341.4c-27.8,0-50.3-22.5-50.3-50.3c0-27.8,22.5-50.3,50.3-50.3c27.8,0,50.3,22.5,50.3,50.3l0,0
		C-2839.6,318.8-2862.1,341.3-2889.9,341.4z M-2889.9,244.8c-25.5,0-46.1,20.7-46.1,46.1c0,25.5,20.7,46.1,46.1,46.1
		c25.5,0,46.1-20.7,46.1-46.1c0,0,0,0,0,0c-0.1-25.4-20.8-45.9-46.1-45.9V244.8z"/>
	<circle class="st1" cx="-2889.9" cy="291.1" r="29.7"/>
	<path class="st2" d="M-2889.9,322.9c-17.6,0-31.8-14.2-31.8-31.8s14.2-31.8,31.8-31.8s31.8,14.2,31.8,31.8
		C-2858.1,308.7-2872.3,322.9-2889.9,322.9C-2889.9,322.9-2889.9,322.9-2889.9,322.9z M-2889.9,263.5c-15.3,0-27.7,12.4-27.7,27.7
		s12.4,27.7,27.7,27.7c15.3,0,27.7-12.4,27.7-27.7c0,0,0,0,0,0C-2862.2,275.8-2874.6,263.5-2889.9,263.5z"/>
	<path class="st2" d="M-2866.3,290.4c-1,0-1.9-0.7-2-1.7c-0.7-11.2-10.2-19.8-21.4-19.3c-1.1,0.1-2.1-0.8-2.2-1.9
		c-0.1-1.1,0.8-2.1,1.9-2.2c13.3-0.5,24.6,9.5,25.7,22.7c0.1,1.1-0.6,2.1-1.7,2.3L-2866.3,290.4z"/>
	<path class="st2" d="M-2900.4,272.2c-0.6,0-1.2-0.3-1.6-0.8c-0.7-0.9-0.5-2.1,0.4-2.8c1.7-1.3,3.7-2.1,5.9-2.5
		c1.1-0.1,2.1,0.6,2.2,1.7c0,0,0,0,0,0c0.1,1.1-0.6,2.1-1.7,2.3c-1.4,0.2-2.8,0.8-4,1.6C-2899.6,272.1-2900,272.2-2900.4,272.2z"/>
	<path class="st1" d="M-2846,450.5c-0.2,0-0.4,0-0.6,0c-1.1-0.3-1.6-1.5-1.3-2.5c8.3-26.4,15-53.3,20.1-80.5
		c0.2-1.1,1.2-1.8,2.3-1.6c0,0,0,0,0.1,0c1.1,0.2,1.8,1.2,1.6,2.3c-5.1,27.4-11.8,54.5-20.1,81.1
		C-2844.3,450.1-2845.1,450.6-2846,450.5z"/>
	<path class="st2" d="M-2885.4,525.4c-1.1,0-2-0.9-2-2v-38.2c0-1.1,0.9-2,2-2c1.1,0,2,0.9,2,2v38.2
		C-2883.3,524.5-2884.2,525.4-2885.4,525.4z"/>
	<path class="st2" d="M-2906,545.4c-1.1,0-2-0.9-2-2v-39.9c0-1.1,0.9-2,2-2c1.1,0,2,0.9,2,2v39.9
		C-2903.9,544.5-2904.8,545.4-2906,545.4z"/>
	<path class="st2" d="M-3028.8,643.8h-0.4c-1.1-0.2-1.8-1.2-1.6-2.3c0,0,0,0,0,0c0-0.8,4-20.6,21.5-29.7c12.7-6.6,28.9-5.8,48.3,2.7
		c1.1,0.3,1.6,1.5,1.3,2.5c-0.3,1.1-1.5,1.6-2.5,1.3c-0.1,0-0.3-0.1-0.4-0.2c-18.1-8-33.2-8.8-44.7-2.8c-15.6,8-19.4,26.8-19.5,27
		C-3027,643.2-3027.9,643.8-3028.8,643.8z"/>
	<path class="st2" d="M-2800.3,619.9c-0.6,0-1.1-0.3-1.5-0.7c-28.6-31.6-50.2-18.7-50.4-18.6c-0.9,0.6-2.1,0.3-2.7-0.6
		c0,0,0,0,0-0.1c-0.6-1-0.3-2.2,0.7-2.8c1-0.6,24.7-14.7,55.5,19.4c0.8,0.8,0.8,2.1,0,2.8c0,0,0,0,0,0
		C-2799.2,619.7-2799.8,619.9-2800.3,619.9z"/>
	<path class="st2" d="M-2662,215.4h-114c-1.1,0-2-0.9-2-2c0-1.1,0.9-2,2-2h114c1.1,0,2,0.9,2,2C-2660,214.5-2660.9,215.4-2662,215.4
		z"/>
	<path class="st2" d="M-2662,241.3h-114c-1.1,0-2-0.9-2-2c0-1.1,0.9-2,2-2h114c1.1,0,2,0.9,2,2S-2660.9,241.3-2662,241.3z"/>
	<path class="st2" d="M-2662,267.2h-114c-1.1,0-2-0.9-2-2c0-1.1,0.9-2,2-2h114c1.1,0,2,0.9,2,2C-2660,266.3-2660.9,267.2-2662,267.2
		z"/>
	<path class="st2" d="M-2702.4,293.1h-73.6c-1.1,0-2-0.9-2-2s0.9-2,2-2h73.6c1.1,0,2,0.9,2,2S-2701.3,293.1-2702.4,293.1z"/>
	<path class="st2" d="M-2873.6,540.2c-1.1,0-2-0.9-2-2v-16.6c0-1.1,0.9-2,2-2c1.1,0,2,0.9,2,2v16.6
		C-2871.6,539.3-2872.5,540.2-2873.6,540.2z"/>
	<path class="st2" d="M-3001.3,254.2h-162.5c-1.1,0-2-0.9-2-2v-95.3c0-1.1,0.9-2,2-2c1.1,0,2,0.9,2,2v93.3h160.5c1.1,0,2,0.9,2,2
		S-3000.2,254.2-3001.3,254.2z"/>
	<path class="st2" d="M-3146.1,239.5c-0.2,0-0.4,0-0.6,0c-1.1-0.3-1.7-1.4-1.4-2.5l0,0c0.4-1.4,10.8-34.6,35.2-41
		c13.6-3.6,17.3,3.2,20.8,9.7c3.5,6.5,6.4,11.8,17.5,12.3h0.7c22.9,0,41-50.8,41.1-51.3c0.4-1.1,1.5-1.6,2.6-1.2
		c1.1,0.4,1.6,1.5,1.2,2.6c-0.8,2.3-19.2,54-45,54h-0.8c-13.4-0.6-17.5-8-20.8-14.4s-5.7-10.5-16.1-7.8c-22.3,5.9-32.2,38-32.4,38.3
		C-3144.3,239.1-3145.2,239.6-3146.1,239.5z"/>
	<path class="st2" d="M-2729.3,549.4c-19.5,0-35.2-15.8-35.2-35.2s15.8-35.2,35.2-35.2s35.2,15.8,35.2,35.2c0,0,0,0,0,0
		C-2694,533.6-2709.8,549.4-2729.3,549.4z M-2729.3,482.9c-17.2,0-31.2,14-31.2,31.2s14,31.2,31.2,31.2s31.2-14,31.2-31.2
		c0,0,0,0,0,0C-2698.1,496.9-2712,482.9-2729.3,482.9z"/>
	<path class="st2" d="M-2701.9,534.9c-0.4,0-0.8-0.1-1.1-0.4l-27.4-18.8c-0.6-0.4-0.9-1-0.9-1.6v-33.2c0-1.1,0.9-2,2-2
		c1.1,0,2,0.9,2,2v32.2l26.6,18.2c0.9,0.6,1.1,1.9,0.5,2.8C-2700.6,534.6-2701.2,534.9-2701.9,534.9L-2701.9,534.9z"/>
	<path class="st2" d="M-2760.4,523.2c-0.9,0-1.8-0.6-2-1.6c-0.2-1.1,0.4-2.1,1.5-2.4c0,0,0,0,0,0l31.1-7.1c1.1-0.2,2.2,0.5,2.5,1.6
		s-0.5,2.2-1.6,2.5l-31.1,7.1L-2760.4,523.2z"/>
	<path class="st2" d="M-3044.5,519.7h-47.6c-1.1,0-2-0.9-2-2s0.9-2,2-2h47.6c1.1,0,2,0.9,2,2S-3043.4,519.7-3044.5,519.7z"/>
	<path class="st2" d="M-3061.9,540.2h-30.2c-1.1,0-2-0.9-2-2c0-1.1,0.9-2,2-2h30.2c1.1,0,2,0.9,2,2
		C-3059.9,539.3-3060.8,540.2-3061.9,540.2z"/>
	<path class="st1" d="M-2579.6,252.4c-5.1-3.7-7.8-9.8-7.1-16.1c-6.5,1.4-13.1-1.7-16.1-7.6c-2.8-5.9-3.6-12.5-2.2-18.9
		c-13.8-6.7-19.6-23.3-12.9-37.1c3.1-6.4,8.6-11.4,15.3-13.9c-1.8-0.8-3-2.4-3.4-4.3c-3.6-12.1,3.5-25.6,14.6-31.6
		c11.4-5.6,24.7-6,36.4-1.1c-0.7-3.3,0.6-6.6,3.3-8.6c2.7-1.9,5.7-3.2,8.9-3.7c16.2-3.5,33-2.3,48.5,3.5c7.4,2.8,15.4,8.4,14.8,16.1
		c13.1-2.2,25.6,6.6,27.9,19.7c1.1,6.7-0.6,13.6-4.8,19c11.2,10.7,11.5,28.4,0.8,39.5c-3.7,3.9-8.5,6.6-13.7,7.9
		c0.5-1.8,3.3-0.2,4,1.5c4.8,12.1-4,26.2-15.2,32.9c-11.2,6.8-27.6,8-36.9-1.4c0.1,6.4-4.2,12.1-10.5,13.6
		c-6.1,1.4-12.5,1.2-18.5-0.5c-6-1.2-11.4-4.5-17.3-5.8C-2569.4,254.4-2574.3,256.2-2579.6,252.4z"/>
	<path class="st3" d="M-2535,264.9c-4-0.1-8-0.6-11.9-1.5c-3.2-0.8-6.3-1.8-9.3-3.1c-2.6-1.1-5.3-2-8-2.7c-1.8-0.3-3.6-0.5-5.4-0.6
		c-3.9,0.2-7.8-0.8-11.1-2.9l0,0c-4.9-3.6-7.9-9.3-8-15.4c-6.6,0.3-12.7-3.2-15.8-9.1c-2.9-5.8-3.9-12.3-2.7-18.7
		c-14.4-7.9-19.7-26-11.8-40.4c2.9-5.3,7.3-9.5,12.6-12.2c-0.7-1-1.2-2.1-1.5-3.2c-3.7-12.1,3.1-27.1,15.5-33.9
		c10.9-5.5,23.7-6.3,35.2-2.2c0.5-2.9,2-5.4,4.2-7.3c2.9-2.1,6.2-3.5,9.8-4c16.5-3.6,33.8-2.4,49.6,3.5c9.5,3.6,15.4,9.4,16.1,15.9
		c14.4-1,27,9.9,28,24.3c0.4,5.8-1.1,11.6-4.4,16.4c11.3,12.1,10.6,31.1-1.6,42.3c-2.5,2.3-5.3,4.1-8.4,5.5c0.1,0.2,0.2,0.4,0.3,0.6
		c5.3,13.6-4.3,28.4-16.1,35.4c-10.6,6.4-25.8,8.4-36.2,1c-1.7,5.6-6,9.9-11.6,11.5C-2529.8,264.7-2532.4,265-2535,264.9z
		 M-2586.7,234.1c0.5,0,0.9,0.1,1.2,0.4c0.5,0.4,0.8,1.1,0.7,1.8c-0.6,5.6,1.8,11,6.3,14.4l0,0c2.7,1.7,5.8,2.5,9,2.3
		c2.1,0,4.2,0.3,6.2,0.7c2.9,0.7,5.8,1.7,8.5,2.9c2.8,1.2,5.7,2.2,8.6,2.9c5.7,1.6,11.7,1.8,17.5,0.6c5.2-1.3,8.9-5.8,9.1-11.2
		c-0.1-0.9,0.4-1.7,1.1-2.1c0.8-0.4,1.7-0.2,2.3,0.4c8.9,8.9,24.1,7.2,34.5,1c10.4-6.2,18.7-19.4,14.4-30.5
		c-0.1-0.2-0.3-0.4-0.4-0.6l-1.2,0.3c-0.7,0.2-1.4,0-1.9-0.6c-0.5-0.5-0.7-1.3-0.5-2c0.3-1.3,1.5-2.2,2.8-2.3c0.4-0.1,0.7-0.1,1.1,0
		c8-2.9,14.2-9.5,16.6-17.7c2.3-9.2-0.4-18.9-7.1-25.5c-0.7-0.7-0.8-1.9-0.2-2.7c7.5-9.7,5.7-23.7-4-31.1c-4.8-3.7-11-5.3-17-4.3
		c-1.1,0.2-2.2-0.6-2.3-1.7c0-0.1,0-0.3,0-0.4c0.5-6.5-6.7-11.6-13.6-14.2c-15.1-5.6-31.6-6.8-47.4-3.4c-2.9,0.5-5.6,1.6-8,3.3
		c-2,1.5-3,4-2.6,6.5c0.2,0.7,0,1.5-0.6,2c-0.6,0.5-1.3,0.7-2.1,0.4c-11.2-4.7-23.9-4.4-34.8,0.9c-10.8,5.9-16.8,18.8-13.6,29.2
		c0.3,1,1,2.7,2,3c0.8,0.2,1.4,1,1.4,1.9c0,0.9-0.5,1.7-1.3,2c-13.3,5-20.1,19.8-15.2,33.1c2.3,6.2,6.9,11.3,12.9,14.2
		c0.8,0.4,1.3,1.3,1.1,2.1c-1.3,5.9-0.6,12.1,2,17.6c2.6,5.1,8.2,7.8,13.8,6.6c0.2,0,0.4-0.1,0.6,0V234.1z"/>
	<path class="st4" d="M-2604,299.8c0,0-68.7,123.3-77.9,144.8c-9.2,21.6,31.6,71.6,47.4,59.5C-2618.8,491.9-2604,299.8-2604,299.8z"
		/>
	<path class="st1" d="M-2472.3,942.6c0,0,2.7,18.1-1.4,25.1c-5.5,9.9-8.8,20.9-9.5,32.2c6.5,7.5,15.8,11.9,25.7,12.1
		c16.3,0,32.5-12.6,34.4-18.6c1.8-6-13.1-70.1-13.1-70.1L-2472.3,942.6z"/>
	<path class="st3" d="M-2457.4,1013.7c-10.5-0.2-20.4-4.8-27.2-12.8c-0.3-0.4-0.4-0.9-0.4-1.3c0.7-11.5,4.1-22.7,9.7-32.8
		c3.1-5.2,1.9-19,1.1-23.9c-0.1-0.8,0.2-1.5,0.9-1.9l36.2-19.5c0.5-0.3,1.1-0.3,1.6,0c0.5,0.2,0.9,0.7,1,1.2
		c2.5,10.8,14.9,64.9,13.1,71.1C-2423.1,1000-2440.3,1013.7-2457.4,1013.7z M-2481.2,999.2c6.1,6.7,14.7,10.6,23.8,10.8
		c15.6,0,31.1-12.1,32.6-17.3c1-3.5-5.6-36.6-12.6-66.9l-32.9,17.8c0.6,4.4,2,18.6-1.8,25C-2477.4,978-2480.5,988.4-2481.2,999.2z"
		/>
	<path class="st3" d="M-2584.3,503.3l78.3,22.3l18.1-232.8c0,0-64.9-15.8-80.5-8.4C-2583.9,291.9-2584.3,503.3-2584.3,503.3z"/>
	<path class="st3" d="M-2506,527.6h-0.6l-78.2-22.4c-0.9-0.2-1.5-1-1.5-1.9c0-35.5,1.1-213.2,17.1-220.7c16-7.4,79.2,7.6,81.9,8
		c1,0.2,1.6,1.1,1.5,2.1l-18.1,232.8c-0.1,0.6-0.4,1.1-0.8,1.5C-2505.1,527.4-2505.5,527.6-2506,527.6z M-2582.4,501.7l74.5,21.2
		l17.8-228.6c-19.1-4.5-65.6-13.8-77.5-8c-9.1,4.4-14.5,114-14.7,215.5H-2582.4z"/>
	<path class="st1" d="M-2558.2,900.8v54.5l-25.3,7.4l0.6-11.1l-11.4,11.8c0,0-68,12.6-67.6,3.2c0.4-9.3,7.2-14.4,15.8-19
		c9.2-5,33.4-19,33.4-19l3.6-39.9"/>
	<path class="st3" d="M-2649.4,971.8c-4.5,0.5-9-0.3-13.1-2.3c-0.9-0.7-1.4-1.8-1.4-2.9c0.4-10.3,8.3-16.1,16.8-20.6
		s28.2-16.1,32.6-18.5l3.5-39c0.1-1,1-1.7,2-1.6c1,0.1,1.7,1,1.7,2c0,0,0,0,0,0.1l-3.6,40c-0.1,0.6-0.4,1.1-0.9,1.4
		c-0.2,0-24.1,14.1-33.5,19.1c-9.3,4.9-14.6,9.5-14.8,17.5c1.9,3.4,31.6,1.1,64.9-5l11-11.3c0.6-0.5,1.4-0.7,2.1-0.4
		c0.7,0.3,1.1,1,1.1,1.8l-0.5,8.6l21.5-6.3v-53.1c0-1,0.8-1.8,1.8-1.9c0,0,0,0,0,0c1,0,1.9,0.8,1.9,1.9v54.5c0,0.8-0.5,1.6-1.3,1.8
		l-25.3,7.4c-0.6,0.2-1.2,0-1.6-0.3c-0.5-0.4-0.7-0.9-0.7-1.5l0.3-6.3l-8,8.2c-0.3,0.3-0.6,0.5-1,0.5
		C-2612.3,968.7-2630.8,970.9-2649.4,971.8z"/>
	<path class="st3" d="M-2436.7,525.2l21,413.6c0,0-2,15.1-34,17c-31.9,1.9-28.7-5.8-28.7-5.8l-50-303.4l-20.5,269.5l-68.8,4.5
		l13.7-424.8L-2436.7,525.2z"/>
	<path class="st3" d="M-2459.1,958.2c-11.5,0-18.3-1.6-20.6-4.9c-0.7-0.9-1-2.1-0.8-3.3l-47-286.4l-19.2,252.8
		c-0.1,1-0.9,1.8-1.9,1.9l-68.9,4.4c-0.6,0-1.1-0.2-1.5-0.6c-0.4-0.4-0.6-0.9-0.6-1.5l13.7-424.8c0-1.1,0.9-2,2.1-2
		c0.1,0,0.2,0,0.3,0l167.3,29.5c0.9,0.2,1.6,0.9,1.6,1.9l20.8,413.6c0,1-2.6,17.1-35.8,19.1
		C-2453.1,958.1-2456.2,958.2-2459.1,958.2z M-2476.6,950.8l0.4,0.4c1.2,1.2,6.3,4,26.3,2.7c29.6-1.7,32.2-15.1,32.2-15.3
		l-20.8-411.7l-163.5-28.7l-13.6,420.3l65-4l20.4-267.8c0.1-1,0.9-1.8,1.9-1.9c1-0.1,1.9,0.7,2.1,1.6l49.8,303.4
		c0.1,0.4,0.1,0.8,0,1.1L-2476.6,950.8z"/>
	<path class="st4" d="M-2502,270.5c0,0-26.8,280.9-14.8,297c12,16.1,86.3,28.8,91.8-2.4c9.1-51.3,4-235.7-6.7-253.1
		C-2474.9,273.7-2502,270.5-2502,270.5z"/>
	<path class="st4" d="M-2604,299.8c0,0-38.4,255.1-31.1,262.5c7.2,7.4,46.6,17.4,57.4,10c10.9-7.4,25.7-300.4,25.7-300.4
		C-2571.6,276.2-2589.6,285.8-2604,299.8z"/>
	<path class="st1" d="M-2549.9,266.8l-3.3,27.2c3.7,11.2,15.4,17.6,26.8,14.7c20.8-4.4,21-16.4,21-16.4s2.8-61.4,2.8-61.6
		c-0.5-1.4-1.2-2.8-2-4c-3.1-7-7.5-16.6-6.2-24.4c1.1-6.4,4.3-12.3,9.1-16.7c-8.8,3.9-19.2,0-23.1-8.9c-0.6-1.4-1.1-2.9-1.3-4.5
		c0,2.8-2.5,4.8-4.8,6.4c-3.4,2.7-7.7,4.1-12.1,4c-5.7-0.6-10-5.5-15.3-7.6c1.7,3.8,0.4,8.3-3.1,10.5c-3.5,2.1-7.7,2.7-11.6,1.7
		c2.6,0.5,0.4,29.6,0.4,32.2c-0.4,9-0.2,18,0.6,27C-2570,262.6-2549.9,266.8-2549.9,266.8z"/>
	<path class="st3" d="M-2532.4,311.4c-17.3,0-22.7-16.6-22.8-16.8c-0.1-0.3-0.1-0.6,0-0.8l3.1-25.5c-5.3-1.5-20.1-7.1-21.9-22
		c-0.8-8.4-1-16.8-0.7-25.2v-2.1c0-0.4,0-1.5,0-3.1c1.2-19.5,0.8-25.6,0.2-27.2c-0.6-0.5-0.9-1.2-0.7-2c0.2-1.1,1.2-1.8,2.2-1.6
		c0,0,0.1,0,0.1,0l0,0c3.4,0.8,7,0.3,10.1-1.4c2.7-1.7,3.8-5.1,2.5-8c-0.5-1-0.2-2.2,0.8-2.7c0.5-0.3,1.2-0.3,1.7-0.1
		c2.3,1,4.4,2.2,6.4,3.6c2.5,2,5.3,3.3,8.4,4c3.9,0,7.7-1.2,10.7-3.6c2.6-1.7,4-3.2,4-4.7c0-1.1,0.8-1.9,1.9-2c1-0.1,2,0.6,2.1,1.7
		c1.2,8.5,9,14.4,17.4,13.2c1.4-0.2,2.8-0.6,4.2-1.2c0.9-0.4,2-0.1,2.5,0.7c0.5,0.8,0.4,1.9-0.3,2.6c-4.5,4.1-7.5,9.6-8.5,15.5
		c-1.2,6.9,2.8,16.1,5.7,22.4l0.4,0.8c0.2,0.4,0.4,0.7,0.6,1c0.9,1.2,1.4,2.6,1.6,4c0,0,0,0-2.8,61.7c0,0.5-0.5,13.7-22.6,18.3
		C-2528.1,311.4-2530.3,311.5-2532.4,311.4z M-2551.2,293.8c3.4,10,13.9,15.7,24.1,13c18.7-4,19.4-14.1,19.4-14.5
		c0-0.4,2.8-60.7,2.8-61.6c0,0-0.7-1.2-1-1.8c-0.3-0.5-0.6-1-0.8-1.5l-0.3-0.7c-3.1-7.1-7.4-16.7-6-24.8c0.8-4.6,2.6-9.1,5.4-12.9
		c-3.7,0.2-7.5-0.6-10.8-2.3c-3.7-2.1-6.6-5.2-8.3-9.1c-1,1-2.1,1.9-3.3,2.6c-3.9,2.8-8.6,4.2-13.4,4c-3.7-0.7-7.2-2.2-10.1-4.5
		l-2.2-1.4c-0.2,3.4-2,6.5-4.8,8.4c-2.9,1.9-6.3,2.7-9.7,2.4c0.5,8.9,0.4,17.8-0.4,26.7c0,1.5,0,2.6,0,3v2.1
		c-0.3,8.3-0.1,16.5,0.7,24.7c1.7,14.8,20.1,18.9,20.5,18.9c1,0.2,1.7,1.2,1.6,2.2L-2551.2,293.8z M-2573.5,189.2L-2573.5,189.2z"/>
	<path class="st1" d="M-2553.7,216.8c0,0-12.1,15.7-9.5,18.8c2.5,3.1,9.7,1.7,9.7,1.7"/>
	<path class="st3" d="M-2557.1,239.6c-2.8,0.2-5.6-0.8-7.5-2.9c-2.7-3.5,3.7-13.5,9.5-21.2c0.7-0.9,1.9-1.1,2.8-0.4v0
		c0.9,0.6,1.1,1.9,0.5,2.8c0,0,0,0,0,0.1c-5.4,7.1-9.8,14.8-9.5,16.6c1,1.2,5.1,1.2,7.6,0.7c1.1-0.2,2.2,0.5,2.4,1.6c0,0,0,0,0,0
		c0.2,1.1-0.5,2.1-1.6,2.4c0,0,0,0,0,0C-2554.3,239.5-2555.7,239.6-2557.1,239.6z"/>
	<path class="st3" d="M-2549.9,266.8c0,0,16.1,0,23.5-4.3c0,0-6.3,18.8-23.7,23.4L-2549.9,266.8z"/>
	<path class="st3" d="M-2550.1,287.9c-0.4,0-0.9-0.1-1.2-0.4c-0.5-0.4-0.8-1-0.8-1.6l0.2-19.1c0-1.1,0.9-2,2-2l0,0
		c0.8,0,15.6,0,22.4-4c0.7-0.5,1.6-0.5,2.3,0c0.6,0.5,0.9,1.4,0.6,2.2c-0.3,0.8-6.8,19.8-25.1,24.7L-2550.1,287.9z M-2547.9,268.8
		v14.3c7.7-3.3,14-9.3,17.7-16.8c-5.8,1.6-11.7,2.5-17.7,2.6V268.8z"/>
	<path class="st3" d="M-2415.4,497.6h-0.2c-2.6-0.3-63.8-7.4-83.2-18.3c-1-0.5-1.3-1.7-0.8-2.7c0,0,0,0,0-0.1
		c0.6-0.9,1.8-1.3,2.7-0.8c18.7,10.5,81.1,17.7,81.7,17.8c1.1,0.1,2,1,1.9,2.1S-2414.2,497.7-2415.4,497.6z"/>
	<path class="st4" d="M-2431.6,312.1c0,0,121.3,173,69.4,217.7c-47.6,40.9-152.9-27-152.9-27l6.4-57.4c0,0,83.3,46.4,84.7,24.8
		c2-31.8-38.9-75.2-38.9-75.2c-7.4-14.2-8.8-30.8-3.7-46.1C-2461.9,331.5-2448.7,317.8-2431.6,312.1z"/>
	<path class="st3" d="M-2620.9,451.5L-2620.9,451.5c-1.1-0.2-1.9-1.2-1.7-2.3c0,0,0,0,0,0c3.7-25.1,21.7-121,21.9-121.9
		c0.2-1.1,1.3-1.8,2.3-1.6c1.1,0.2,1.8,1.3,1.6,2.4c-0.2,1-18.2,96.6-21.9,121.8C-2618.8,450.9-2619.8,451.7-2620.9,451.5z"/>
	<path class="st1" d="M-2637.9,527.4h121c8.4-0.2,15.1-7.1,14.9-15.5c0-1-0.1-2-0.4-3l-25.7-124.4c-1.5-7.3-7.9-12.7-15.4-12.8
		h-119.2c-8.9,0.1-16,7.5-15.8,16.3c0,1.1,0.1,2.2,0.4,3.2l25.7,123.9C-2651.1,522.2-2645,527.3-2637.9,527.4z"/>
	<path class="st3" d="M-2516.9,529.2h-121c-8-0.1-14.8-5.8-16.4-13.6l-25.6-123.9c-1.1-5.4,0.2-11,3.7-15.3
		c3.3-4.1,8.3-6.5,13.5-6.5h119.2c8.4,0.1,15.6,6.1,17.2,14.3l25.7,124.3c1.1,5.1-0.2,10.5-3.5,14.6
		C-2507.2,526.9-2511.9,529.2-2516.9,529.2z M-2662.6,373.5c-4.1,0-8.1,1.9-10.7,5.1c-2.7,3.4-3.8,7.8-3,12.1l25.7,124
		c1.2,6.1,6.5,10.6,12.8,10.7h121c3.9,0,7.6-1.8,10-4.8c2.6-3.2,3.6-7.4,2.8-11.5l-25.7-124.4c-1.3-6.5-7-11.2-13.6-11.3
		L-2662.6,373.5z"/>
	<path class="st1" d="M-2492,464.9c0.7-4.3,0.4-8.8-1-13c-1.3-2.8-3.1-5.4-5.4-7.6c-3.8-4-7.8-7.8-12.1-11.3
		c-4-3.1-8.6-6.2-13.4-5.1c1.5,7.2,5.6,13.6,11.5,18c-1.9-2.3-4.5-4-7.4-4.9c-1.9-0.6-4.5-0.5-5.4,1.4c-0.4,1.3-0.2,2.6,0.4,3.7
		c2.3,5,5.7,9.3,10.1,12.6l-4.7-3c-1.2-0.9-2.6-1.5-4-1.7c-1.5-0.2-2.9,0.5-3.6,1.9c-0.3,1.1-0.2,2.2,0.3,3.3
		c1.2,2.9,3.2,5.4,5.8,7.2c-1.7-1.4-3.7-2.4-5.9-2.9c-2.3-0.3-4.4,1-5.1,3.2c-0.1,1.2,0.1,2.4,0.7,3.5c3.5,6.9,11.7,7.6,15.7,13.4
		c3,4.3,1.6,8.9,7.7,11.5C-2492.2,501.6-2492.8,474.1-2492,464.9z"/>
	<path class="st3" d="M-2503.1,498.2c-1.7,0-3.4-0.4-5-1.1c-3.5-1.4-6-4.4-6.8-8c-0.4-1.4-1-2.8-1.8-4c-1.8-2.2-4.1-4-6.6-5.2
		c-3.8-1.8-7-4.8-9.2-8.4c-0.9-1.5-1.2-3.2-0.9-4.8c0.7-2.8,3.2-4.7,6-4.8c-0.3-0.5-0.5-1-0.7-1.6c-0.7-1.5-0.9-3.2-0.4-4.7
		c0.9-2,2.8-3.2,4.9-3.2c-1.1-1.6-2-3.3-2.8-5.1c-0.9-1.6-1.1-3.6-0.5-5.4c0.9-2,3-3.1,5.2-2.9c-1.9-3.2-3.3-6.7-4-10.3
		c-0.5-1,0-2.2,1.1-2.7c0.1,0,0.1-0.1,0.2-0.1c5.8-1.2,11.1,2.3,15,5.6c4.4,3.5,8.5,7.4,12.3,11.5c2.4,2.3,4.3,5,5.8,8
		c1.5,4.5,1.9,9.2,1.1,13.9l0,0c0,1.2,0,2.6-0.3,4.3c-0.5,9.3-1.3,23.2-8,27.5C-2499.8,497.6-2501.4,498.1-2503.1,498.2z
		 M-2526.9,465.5c-1.1-0.1-2.2,0.6-2.6,1.6c0,0.8,0.2,1.6,0.6,2.3c1.8,2.9,4.5,5.3,7.6,6.8c3.1,1.5,5.9,3.7,8,6.4
		c1,1.6,1.8,3.3,2.3,5.1c0.4,2.6,2.1,4.8,4.5,5.7c1.8,1,4,1,5.8,0c5.1-3.2,5.9-16.9,6.4-24.1c0-1.7,0-3.3,0.3-4.4
		c0.7-4,0.4-8.2-0.8-12.1c-1.2-2.6-2.9-5-4.9-7c-3.8-4-7.8-7.7-12.1-11.1c-2.6-2.5-6-4.2-9.5-4.9c1.3,4.2,3.5,8.1,6.6,11.3
		c1.5,0.9,2.9,2.1,4,3.4c0.7,0.8,0.7,1.9,0,2.7c-0.7,0.8-1.8,0.9-2.7,0.2c-1.3-1-2.6-2-3.8-3.2c-0.9-0.6-2-1-3-1.4
		c-1.3-0.4-2.7-0.2-2.9,0.3c-0.1,0.7,0,1.5,0.4,2.1c2.1,4.7,5.3,8.8,9.4,11.9c0.9,0.6,1.1,1.8,0.5,2.7c0,0,0,0,0,0
		c-0.6,0.9-1.8,1.1-2.7,0.6l-4.7-2.9c-0.9-0.7-1.9-1.2-3.1-1.4c-0.6-0.1-1.1,0.1-1.5,0.6c-0.1,0.6,0,1.2,0.3,1.8
		c1,2.4,2.6,4.4,4.6,6l0.5,0.4c0.9,0.6,1.1,1.8,0.5,2.7c0,0,0,0,0,0c-0.6,0.9-1.9,1.1-2.8,0.5l-0.5-0.4c-1.3-1.1-2.8-1.8-4.4-2.1
		L-2526.9,465.5z M-2492,465L-2492,465z"/>
	<path class="st1" d="M-2676.2,456.3c0.6-8.3,3.1-17.5,10.1-21.7c4.4-2.5,9.8-2.6,14.4-0.3c0.8,0.3,1.5,1,1.7,1.9
		c0.3,1.3-0.9,2.4-2,3.1c-2.3,1.5-4.9,2.6-7.5,3.3c4.4-0.4,8.6,2.1,10.4,6.2c-2.6,3.1-6.3,5.1-10.3,5.6c2.7-0.7,5.6,0.3,7.3,2.6
		c2.6,3.8,0.5,4.8-2.3,7.1c1.3-0.3,2.6-0.1,3.7,0.4c1.2,0.6,2,1.8,1.9,3.1c-0.2,2.4-3.1,3.2-5.2,4.4c-1.7,1-2.9,2.6-3.5,4.4
		c-0.2,1.1-0.6,2.1-1,3.1c-4,7.2-13,1.2-15.2-4C-2675.9,469.2-2676.8,462.7-2676.2,456.3z"/>
	<path class="st3" d="M-2663.7,484.7h-0.5c-4.9-0.7-9.2-3.8-11.3-8.4c-2.4-6.4-3.3-13.3-2.7-20.1l0,0c0.6-8,2.9-18.5,11.1-23.3
		c5-2.9,11.2-3,16.3-0.3c1.4,0.6,2.4,1.8,2.8,3.2c0.2,1.1,0,3.3-2.9,5.2l-1.8,1c2.4,1.3,4.3,3.4,5.4,5.9c0.3,0.7,0.2,1.5-0.3,2.1
		c-1.3,1.6-2.9,3-4.6,4c0.7,0.5,1.3,1.1,1.7,1.9c2.2,3.1,1.8,5.2,0.6,6.8l0,0c2,0.9,3.2,2.9,3.1,5.1c-0.2,3-2.9,4.3-4.8,5.2
		l-1.4,0.7c-1.3,0.7-2.2,1.9-2.7,3.3c-0.1,0.3-0.2,0.6-0.3,0.9c-0.2,0.9-0.5,1.7-0.9,2.5C-2658.1,483-2660.8,484.6-2663.7,484.7z
		 M-2674.2,456.5c-0.6,6.2,0.2,12.4,2.4,18.2c1.5,3.1,4.4,5.3,7.8,5.9c1.6,0,3.1-0.9,3.7-2.3c0.2-0.5,0.4-1,0.5-1.5
		c0-0.4,0.2-0.8,0.3-1.2c0.8-2.3,2.3-4.2,4.4-5.5l1.6-0.9c1.5-0.7,2.5-1.3,2.6-2c0.1-0.7-0.4-0.9-0.8-1.1c-0.8-0.3-1.7-0.4-2.5-0.2
		c-1.1,0.2-2.1-0.6-2.3-1.7c-0.1-0.7,0.2-1.4,0.7-1.8l0.8-0.6c2.5-1.9,2.5-1.9,1.2-3.7c-1.3-1.9-2.6-2.1-5.4-1.7
		c-1.1,0.2-2.1-0.6-2.2-1.7c0,0,0-0.1,0-0.1c-0.1-1.1,0.6-2.1,1.7-2.3c3-0.4,5.9-1.8,8-4c-1.6-2.7-4.6-4.3-7.7-4
		c-1,0.1-2-0.6-2.2-1.6c-0.2-1,0.4-2.1,1.4-2.3c2.5-0.7,4.8-1.7,7-3c0.8-0.5,1.1-0.9,1.1-1l-0.7-0.4c-3.9-2.1-8.6-2-12.4,0.2
		c-6.7,4-8.7,13.2-9.2,20.1L-2674.2,456.5z"/>
	<path class="st3" d="M-2571.4,224.2c-8.2,0-14.9-6.7-14.9-14.9c0-8.2,6.7-14.9,14.9-14.9c8.2,0,14.9,6.7,14.9,14.9
		C-2556.5,217.6-2563.2,224.2-2571.4,224.2z M-2571.4,198.5c-6,0-10.9,4.9-10.9,10.9s4.9,10.9,10.9,10.9c6,0,10.9-4.9,10.9-10.9
		C-2560.6,203.4-2565.4,198.5-2571.4,198.5z"/>
	<path class="st3" d="M-2538.3,224.2c-8.2,0-14.9-6.7-14.9-14.9c0-8.2,6.7-14.9,14.9-14.9c8.2,0,14.9,6.7,14.9,14.9
		C-2523.4,217.6-2530,224.2-2538.3,224.2L-2538.3,224.2z M-2538.3,198.5c-6,0-10.9,4.9-10.9,10.9s4.9,10.9,10.9,10.9
		c6,0,10.9-4.9,10.9-10.9S-2532.3,198.5-2538.3,198.5L-2538.3,198.5z"/>
	<path class="st3" d="M-2551.6,248.8c-5.2-0.1-10.2-1.4-14.8-3.7c-0.9-0.6-1.3-1.8-0.8-2.7c0.5-1,1.8-1.3,2.7-0.8
		c0.8,0.4,18.7,10.2,29.6-6.4c0.6-0.9,1.9-1.2,2.8-0.6c0.9,0.6,1.2,1.9,0.6,2.8C-2535.6,244.6-2543.3,248.9-2551.6,248.8z"/>
	<path class="st3" d="M-2551.1,211.4h-7.4c-1.1,0-2-0.9-2-2c0-1.1,0.9-2,2-2h7.4c1.1,0,2,0.9,2,2
		C-2549.1,210.5-2550,211.3-2551.1,211.4z"/>
	<path class="st3" d="M-2495.7,219.4c-0.2,0-0.4,0-0.5,0l-29.7-8c-1.1-0.3-1.8-1.4-1.5-2.5c0.3-1.1,1.4-1.8,2.5-1.5l29.7,8
		c1.1,0.3,1.7,1.4,1.4,2.5C-2494,218.8-2494.8,219.4-2495.7,219.4z"/>
	<path class="st1" d="M-2512.3,222.2c0.8-2.9,2.5-5.4,4.8-7.2c3.6-3,8.4-4.4,13-3.7c4.7,2,7.5,7,6.6,12.1c-0.7,6.8-5,12.7-11.3,15.4
		c-4.1,1.5-8.6,1.2-12.6-0.7"/>
	<path class="st3" d="M-2504.5,241.7c-2.8,0-5.5-0.7-8-1.9c-1-0.5-1.4-1.7-0.9-2.6c0,0,0,0,0-0.1c0.5-1,1.7-1.4,2.7-0.9c0,0,0,0,0,0
		c3.4,1.7,7.4,1.9,11,0.7c5.6-2.4,9.4-7.7,10.1-13.7c0.7-4.1-1.4-8.2-5.2-9.9c-4.1-0.5-8.1,0.7-11.3,3.3c-2,1.6-3.4,3.7-4,6.2
		c-0.3,1.1-1.4,1.8-2.6,1.5c-1.1-0.3-1.8-1.4-1.5-2.6c0.9-3.2,2.9-6,5.5-8c4.1-3.5,9.5-4.9,14.8-4c5.7,2.3,9,8.1,8,14.2
		c-0.7,7.6-5.6,14.1-12.6,17C-2500.4,241.4-2502.5,241.8-2504.5,241.7z"/>
	<path class="st3" d="M-2436.6,476.6c-18.5,0-45.7-15-49.6-17.2c-1-0.6-1.3-1.8-0.7-2.8c0.6-1,1.8-1.3,2.8-0.7
		c13,7.4,48.9,24.1,58.3,13s-18.9-66.3-30.6-86.6c-0.5-1,0-2.2,1-2.7c0.9-0.4,1.9-0.1,2.5,0.6c4.5,7.7,43.4,75.7,30.3,91.2
		C-2426.3,475.1-2431.4,477-2436.6,476.6z"/>
	<path class="st3" d="M-2422.4,545h-0.3c-29.7-4.5-68.4-28.2-70.1-29c-0.9-0.6-1.2-1.8-0.6-2.8c0,0,0,0,0,0c0.6-0.9,1.8-1.2,2.7-0.7
		c0,0,0.1,0,0.1,0c0.4,0.2,39.6,24.1,68.4,28.5c1.1,0.1,1.8,1.1,1.7,2.1c0,0,0,0.1,0,0.1C-2420.7,544.2-2421.5,544.9-2422.4,545z"/>
	
		<rect x="-3474.1" y="600.1" transform="matrix(0.229 -0.9734 0.9734 0.229 -3286.9226 -2806.2493)" class="st1" width="118.1" height="143.6"/>
	<path class="st3" d="M-3358.6,747.7h-0.4l-139.8-32.9c-1-0.2-1.6-1.2-1.4-2.2c0,0,0,0,0-0.1l27-114.9c0.2-1,1.2-1.6,2.2-1.4
		l139.8,32.9c0.5,0.1,0.9,0.4,1.2,0.8c0.2,0.4,0.3,0.9,0.2,1.4l-27,114.9c-0.1,0.5-0.4,0.9-0.8,1.1
		C-3358,747.6-3358.3,747.7-3358.6,747.7z M-3496.2,711.5l136.2,32.2l26.2-111.4l-136.2-32.2L-3496.2,711.5z"/>
	<path class="st1" d="M-3386.4,575.8c0,0-2.3,59.3-8.5,55.8c-8-4.7-4.7-18.4-4.7-18.4l-27.3-5.8c0,0,11.6-39.4,12.4-40.7
		C-3413.8,565.4-3386.4,575.8-3386.4,575.8z"/>
	<path class="st3" d="M-3394.4,633.6c-0.5,0-1-0.1-1.4-0.4c-7.4-4.3-6.6-14.3-6-18.5l-25.5-5.4c-0.5-0.1-0.9-0.4-1.2-0.9
		c-0.2-0.5-0.2-1,0-1.4c4.3-14.8,11.8-39.8,12.6-41.1s1.5-2.7,30.3,8.3c0.8,0.3,1.2,1,1.2,1.8c-0.6,16.1-2.7,54.2-8.4,57.3
		C-3393.3,633.5-3393.8,633.6-3394.4,633.6z M-3424.6,606.1l25.3,5.4c0.5,0.1,0.9,0.4,1.2,0.8c0.2,0.5,0.2,1,0,1.4
		c0,0-2.9,11.7,3.3,16.1c2.7-4,5.2-29.6,6.2-52.6c-10.3-4-21.5-7.8-24.9-8.5C-3414.8,573.1-3420.5,592.2-3424.6,606.1z"/>
	<path class="st1" d="M-3344.3,909.3c0,0-2.3,37.2-2.1,51.3c0.1,14.1,0,27.3,16.5,24.1c9-1.6,58.5-14.2,53.9-23.4
		c-4.5-9.2-36.7-11.6-36.7-11.6l2.9-42.5"/>
	<path class="st3" d="M-3334.3,987.1c-3,0.1-6-0.8-8.3-2.7c-5.5-4.5-5.6-13.6-5.6-23.3v-0.6c0-14,2.1-51,2.1-51.4
		c0.1-1,0.9-1.8,1.9-1.7c0,0,0,0,0,0c1,0,1.8,0.8,1.7,1.8c0,0,0,0.1,0,0.1c0,0.4-2.2,37.3-2.1,51.1v0.6c0,8.8,0,17.1,4.3,20.5
		c3,1.9,6.7,2.4,10.1,1.4c11.7-2.2,49-12.6,52.5-19.7c0.2-0.3,0.2-0.8,0-1.1c-3-6-23.1-9.7-35.2-10.5c-1-0.1-1.8-1-1.7-2l2.9-42.5
		c0.1-1,0.9-1.8,1.9-1.7c1,0.1,1.8,1,1.7,2l-2.8,40.7c7.4,0.7,32.2,3.6,36.2,12.5c0.7,1.4,0.7,3,0,4.3
		c-5.5,10.9-54.7,21.5-55.2,21.6C-3331.2,986.9-3332.8,987.1-3334.3,987.1z"/>
	<path class="st1" d="M-3228.7,913.7c0,0-2.3,37.2-2.1,51.3c0.1,14.1,0,27.3,16.5,24.1c9-1.6,62.4-10.2,57.9-19.4
		c-4.5-9.2-40.6-15.6-40.6-15.6l2.9-42.5"/>
	<path class="st3" d="M-3218.7,991.5c-3,0.1-6-0.8-8.3-2.7c-5.5-4.5-5.6-13.6-5.6-23.3v-0.6c0-14,2.1-51,2.1-51.4
		c0.1-1,0.9-1.8,1.9-1.7c1,0,1.8,0.8,1.7,1.8c0,0,0,0.1,0,0.1c0,0.4-2.2,37.3-2.1,51.1v0.6c0,8.8,0,17.1,4.3,20.5
		c3,1.9,6.7,2.4,10.1,1.4l2.8-0.5c41.6-7.3,52.3-12.5,53.7-15.6c0-0.3,0-0.5,0-0.7c-3-6.1-25.7-12.1-39.3-14.6
		c-0.9-0.1-1.6-1-1.5-1.9l2.9-42.5c0.1-1,0.9-1.8,1.9-1.7c1,0.1,1.8,1,1.7,2l-2.7,41c7.7,1.4,35.9,7.3,40.2,16.1
		c0.7,1.3,0.7,2.8,0,4c-2.9,5.8-20.1,11.2-56.3,17.5l-2.8,0.5C-3215.5,991.3-3217.1,991.5-3218.7,991.5z"/>
	<path class="st3" d="M-3349.1,489.7c0,0-11.4,396-5.4,429.9c0,0,23.2,26.2,53.3,13.1l38.1-321.2l20.1,320.9
		c0,0,19.3,19.1,59.7-12.7V475.7L-3349.1,489.7z"/>
	<path class="st3" d="M-3225.5,940.2c-6.9,0.4-13.7-1.9-18.9-6.4c-0.4-0.3-0.6-0.8-0.6-1.3l-18.6-298.7l-35.4,299.1
		c-0.1,0.7-0.6,1.3-1.2,1.6c-31.1,13.5-55.4-13.4-55.6-13.6c-0.2-0.3-0.4-0.6-0.5-1c-6-33.7,4.9-414.1,5.4-430.5
		c0.1-1,0.8-1.8,1.9-1.9l165.7-14c1.1-0.1,2.1,0.7,2.2,1.8c0,0.1,0,0.1,0,0.2v444.2c0,0.6-0.3,1.2-0.8,1.6
		C-3200.9,936.1-3215.3,940.2-3225.5,940.2z M-3241,931.4c3.3,2.7,21,14.2,55.7-12.7V477.9l-161.7,13.7
		c-0.8,28.9-11,391.5-5.5,427.1c3.1,3.3,23.4,23.3,49.6,12.6l37.9-320c0-1,0.9-1.8,1.9-1.8c0,0,0.1,0,0.1,0c1,0,1.9,0.8,2,1.9
		L-3241,931.4z"/>
	<path class="st1" d="M-3011.6,318.8c0,0,22-12.5,23.7-13.8c1.6-1.4,9.3-21.8,10.5-23.1c1.2-1.3,4.3-3.7,5.4-0.9
		c1,2.8-1.2,18.5-1.2,18.5s27.1-21.2,29-20.1c1.9,1.1,3.3,3.5-1,9.5c-3.9,4.6-8.4,8.6-13.5,11.8c0,0,9.5,10.7,8,14.4
		c-1.5,3.7-37.7,27.9-37.7,27.9"/>
	<path class="st3" d="M-2988.1,344.8c-0.6,0-1.2-0.3-1.5-0.8c-0.6-0.8-0.4-2,0.5-2.6c0,0,0,0,0,0c17.1-11.5,35.6-24.7,37-27.1
		c0.4-1.3-3.3-7.3-8-12.4c-0.4-0.4-0.5-1-0.4-1.5c0.1-0.5,0.4-1,0.8-1.3c4.9-3.1,9.2-6.9,13-11.3c2.4-3.4,2.6-5.1,2.4-5.8
		c-0.1-0.3-0.2-0.6-0.4-0.8c-9.6,5.9-18.7,12.4-27.4,19.6c-0.6,0.4-1.4,0.4-2.1,0c-0.6-0.4-1-1.1-0.9-1.9c1.1-5.8,1.5-11.7,1.3-17.5
		c-0.2,0-1.3,0.5-2.3,1.5s-2.5,5.4-4,9.2c-4,9.9-5.6,13.1-6.7,14c-1.1,0.9-20.1,12.1-24.1,14c-0.9,0.4-2,0-2.5-0.9
		c-0.4-0.8-0.1-1.8,0.7-2.3c8.4-4.7,22.2-12.7,23.4-13.7c2.1-4.1,4-8.3,5.6-12.6c1.2-3.6,2.8-7,4.7-10.3c0.7-0.8,3.3-3.2,5.8-2.8
		c1.3,0.3,2.3,1.2,2.7,2.5c0.5,5,0.4,10-0.5,14.9c24.7-19.1,26.4-18.1,27.6-17.4c1.3,0.7,2.3,2,2.6,3.5c0.2,3.2-0.8,6.3-3,8.6
		c-3.4,4.3-7.5,8-12.1,11.1c3.4,4,8.5,10.9,7.2,14.6s-27.3,21.4-38.4,28.8C-2987.5,344.5-2987.8,344.7-2988.1,344.8z"/>
	<path class="st4" d="M-3202.4,296.5c0,0-39.1-12.8-141.9,7c-17.9,3.4-26.1,170-12.6,270.1l180.2-1.5
		C-3176.7,572.1-3147,310.3-3202.4,296.5z"/>
	<path class="st4" d="M-3351.1,279.3c0,0-39,124.7-41.5,135.8c-2.5,11.1-28.9,157.9-28.9,157.9l41,13.8c0,0,59.4-137.3,55.6-175.8
		C-3328.7,372.4-3351.1,279.3-3351.1,279.3z"/>
	<path class="st4" d="M-3205.8,296.5c31.3,3,96.6,78.6,101.9,76.4c5.3-2.2,101.9-68.4,101.9-68.4l30.6,33.5
		c0,0-93.6,108.6-112.6,120.1c-29.3,17.5-153.6-62.2-153.6-62.2S-3237.1,293.5-3205.8,296.5z"/>
	<path class="st1" d="M-3399.5,613.8c0,0-12.7-6.9-7.1-18.5"/>
	<path class="st3" d="M-3399.5,615.7c-0.3,0-0.6-0.1-0.9-0.2c-4.9-2.7-12.9-10.5-8-21c0.4-0.9,1.6-1.3,2.5-0.9
		c0.9,0.4,1.3,1.6,0.9,2.5c-4.8,10,5.8,16.1,6.3,16.1c0.9,0.5,1.2,1.6,0.7,2.5c-0.3,0.6-0.9,0.9-1.6,0.9L-3399.5,615.7z"/>
	<path class="st3" d="M-3110.6,460.6h-0.4c-19.7-4-58.2-26.8-108.6-64.4l-2.3-1.7c-0.8-0.6-1.1-1.7-0.5-2.5c0.5-0.8,1.6-1.1,2.5-0.6
		c0.9,0.6,1.7,1.2,2.6,1.9c49.9,37.3,87.9,60,107,63.8c1,0.2,1.6,1.2,1.4,2.2C-3109.1,460-3109.8,460.5-3110.6,460.6z"/>
	<path class="st3" d="M-3215.6,219.5c-7.3,0-13.2-5.9-13.2-13.2c0-7.3,5.9-13.2,13.2-13.2c7.3,0,13.2,5.9,13.2,13.2
		C-3202.4,213.6-3208.3,219.5-3215.6,219.5L-3215.6,219.5z M-3215.6,197c-5.1,0-9.2,4.1-9.2,9.2c0,5.1,4.1,9.2,9.2,9.2
		c5.1,0,9.2-4.1,9.2-9.2C-3206.4,201.2-3210.5,197-3215.6,197L-3215.6,197z"/>
	<path class="st1" d="M-3221,215c0,0,13.1,21.6,10.1,25.8s-12.5,1-12.5,1"/>
	<path class="st3" d="M-3216.6,244.8c-2.5-0.1-5.1-0.5-7.5-1.3c-1.1-0.4-1.7-1.6-1.3-2.7c0.4-1.1,1.6-1.7,2.7-1.3
		c2.6,0.9,8.5,2,10.2-0.2c1-1.9-3.7-13-10.1-23.6c-0.6-0.9-0.3-2.1,0.6-2.7c0,0,0,0,0,0c0.9-0.6,2.2-0.3,2.8,0.6c0,0,0,0,0,0
		c4,6.8,13.4,23.2,9.9,28.2C-3211.1,243.9-3213.8,245-3216.6,244.8z"/>
	<path class="st1" d="M-3222.9,187.2c8.6,7.5,5.4,22.7,4.9,32.6c-0.6,13.9-1.6,27.9-2.9,41.8c-0.8,8.8-23.7,8-27.6,5.3l4.8,22.1
		l-50-7.3l3.1-28.8c0,0-3.2-40.2,6.4-57.8c5.7-10.4,16.8-16.6,28.6-16.1C-3255.5,178.9-3231.3,179.7-3222.9,187.2z"/>
	<path class="st3" d="M-3243.6,290.9h-0.3l-50-7.3c-1.1-0.2-1.8-1.1-1.7-2.2l3.1-28.8c0-1.3-3.1-40.6,6.7-58.5
		c6-11.1,17.9-17.8,30.6-17.1c0.9,0,25,0.9,33.8,8.6c8,7,6.8,19.1,6,28.9c0,1.9-0.3,3.7-0.4,5.4c-0.6,13.9-1.6,28.2-2.9,41.8
		c-0.4,3.1-2.5,5.8-5.6,6.7c-6.8,2.5-14.2,3-21.4,1.5l4,18.6c0.1,0.6,0,1.3-0.5,1.8C-3242.6,290.7-3243.1,290.9-3243.6,290.9z
		 M-3291.4,279.9l45.2,6.6l-4-19.2c-0.2-0.8,0.2-1.6,0.8-2.1c0.7-0.5,1.6-0.5,2.3,0c6.9,2.1,14.4,2,21.2-0.4c2-0.9,3.1-2.1,3.2-3.5
		c1.3-13.8,2.3-27.8,2.9-41.7c0-1.7,0.2-3.5,0.4-5.5c0.8-8.9,1.7-20.1-4.7-25.5l0,0c-7.7-6.8-31.1-7.6-31.3-7.6
		c-11.1-0.6-21.5,5.3-26.8,15c-9.3,16.9-6.2,56.3-6.2,56.6L-3291.4,279.9z"/>
	<path class="st1" d="M-3303.5,288.4l4.7-15.2l61.4,5.9l3.5,14C-3256.6,302-3282.1,300.3-3303.5,288.4z"/>
	<path class="st3" d="M-3263.1,300.8c-14.4-0.1-28.6-3.7-41.3-10.6c-0.8-0.5-1.3-1.5-1-2.4l4.5-15.2c0.3-0.9,1.2-1.5,2.1-1.4
		l61.5,5.8c0.8,0.1,1.5,0.7,1.7,1.5l3.5,14c0.2,0.9-0.2,1.9-1.1,2.3C-3242.5,298.8-3252.7,300.9-3263.1,300.8z M-3300.8,287.4
		c20,10.4,43.5,12.1,64.8,4.5l-2.7-10.9l-58.3-5.7L-3300.8,287.4z"/>
	<path class="st1" d="M-3273.4,256.4c0,23.7,23.8,71.6,3.4,90.4c-19.2,17.7-52.3,22.3-77.1,19.6c-36.2-4-55.2-29.1-40.2-64.4
		c7.3-17.2,20.1-31.4,30.8-46.8c9.4-13.5,17.3-28,23.5-43.3c5.3-12.9,9.3-28.2,16.4-40.2c15.9-26.7,43.9-37.2,73.3-28.6
		c12.6,3.7,36.9,18.9,31,35.4c-1.4,4-6.4,10.1-10.3,8.4c-1.1,7.8-6.2,11.5-12.3,16.5c-6.4,4.7-13.1,9.1-20,13.1
		c-4.7,2.8-8.8,6.5-12.1,10.9c-3.6,6-5.7,12.7-6,19.7C-3273.4,250.2-3273.5,253.3-3273.4,256.4z"/>
	<path class="st3" d="M-3333.8,369.2c-4.5,0-9-0.2-13.5-0.7c-19.6-2.1-34.4-10.3-41.9-23c-7.5-12.7-7.2-27.4,0-44.3
		c5.9-12.5,13.2-24.1,21.9-34.8c3.1-4,6.1-8,9.1-12.4c9.3-13.4,17.1-27.8,23.3-42.9c1.7-4.3,3.3-8.6,4.9-13.3
		c3-9.3,6.9-18.4,11.6-27c14.9-26.6,46.6-39,75.6-29.4c9.4,2.7,25.3,11.8,31.1,23.2c2.5,4.5,2.9,9.9,1.2,14.8c-1.5,4-4.3,7.3-8,9.4
		c-0.8,0.3-1.7,0.6-2.6,0.6c-1.7,6.9-6.4,10.7-11.8,15.1l-0.8,0.7c-4.2,3.3-8.6,6.3-13.2,8.9c-2.3,1.4-4.5,2.7-6.7,4
		c-4.5,2.8-8.4,6.4-11.5,10.6c-3.4,5.7-5.3,12.1-5.7,18.7c-0.3,3-0.5,6-0.4,9.1l0,0c0.7,9.6,2.4,19.2,5.1,28.5
		c5.8,23.4,12.1,49.9-2.4,63.4C-3285.5,363.9-3311.9,369.2-3333.8,369.2z M-3263.2,142.5c-21.5,0-41.4,11.7-51.9,30.5
		c-4.6,8.4-8.3,17.2-11.3,26.3c-1.6,4.5-3.3,9.3-5,13.4c-6.3,15.4-14.2,30-23.7,43.7c-2.9,4-6,8.4-9.2,12.5
		c-8.5,10.4-15.7,21.8-21.4,34c-6.5,15.5-6.6,29.6,0,40.6c6.8,11.6,20.6,19.1,38.9,21.1c22.6,2.5,56-1.1,75.5-19.1
		c12.9-12.1,6.7-37.2,1.2-59.5c-2.8-9.6-4.6-19.5-5.3-29.4l0,0c0-3.2,0.1-6.3,0.5-9.5c0.4-7.2,2.5-14.3,6.2-20.5
		c3.4-4.6,7.6-8.5,12.5-11.4c2.3-1.5,4.5-2.9,6.8-4.3c4.5-2.6,8.8-5.4,12.8-8.6l0.8-0.6c5.7-4.6,9.7-8,10.7-14.6
		c0.2-1.1,1.2-1.8,2.3-1.7c0.2,0,0.3,0.1,0.5,0.1c0.6,0.2,1.2,0.2,1.8,0c2.7-1.6,4.8-4.1,5.9-7.1c1.3-3.8,1-8-1-11.6
		c-5.2-10.3-20.1-18.7-28.6-21.2C-3250.3,143.6-3256.7,142.5-3263.2,142.5z"/>
	<path class="st1" d="M-3220.8,251.1c0,0-11.1,6.2-16.4-5.2"/>
	<path class="st3" d="M-3227.4,254.8c-1.3,0-2.5-0.2-3.7-0.6c-3.6-1.2-6.4-4-7.8-7.4c-0.5-1,0-2.2,1-2.7c1-0.5,2.2,0,2.7,1l0,0
		c0.9,2.5,2.9,4.4,5.3,5.4c2.8,0.6,5.7,0.3,8.2-1.1c1-0.5,2.2-0.2,2.7,0.8c0,0,0,0,0,0c0.5,0.9,0.2,2.1-0.7,2.6c0,0-0.1,0-0.1,0
		C-3222.1,254.1-3224.8,254.8-3227.4,254.8z"/>
	<path class="st3" d="M-3278.5,223.2c-0.2,0-0.4,0-0.5,0c-1.1-0.3-1.7-1.4-1.4-2.5c2.2-7.5,3.8-7.6,4.7-7.7c1-0.1,47.1-5.8,71-8.7
		c1.1-0.1,2.1,0.6,2.3,1.7c0.1,1.1-0.7,2.1-1.8,2.3c-6.8,0.8-63.6,8-70.6,8.6c-0.8,1.6-1.4,3.2-1.8,4.9
		C-3276.8,222.7-3277.6,223.3-3278.5,223.2z M-3275.3,217L-3275.3,217z"/>
	<path class="st1" d="M-3248.1,222.9c-0.3-3.5-1.5-6.9-3.5-9.7c-1.3-2.4-2.9-4.6-4.8-6.5c-2-1.9-4.7-2.9-7.4-2.6
		c-2.4,0.5-4.4,1.9-5.7,4c-1.2,2.1-1.8,4.4-2,6.8c-0.9,10.7,4,21,12.8,27.1l-0.7-0.9"/>
	<path class="st3" d="M-3258.7,244.2c-0.4,0-0.8-0.1-1.1-0.4c-9.4-6.5-14.5-17.5-13.6-28.9c0.2-2.7,0.9-5.4,2.3-7.7
		c1.5-2.6,4-4.5,7-5c3.4-0.4,6.7,0.7,9.1,3.1c2.1,2.1,3.8,4.4,5.2,7c2.3,3.1,3.7,6.9,4,10.8c-0.1,1.1-1,1.9-2.1,2
		c-1.1,0-2-0.9-2-2.1c0,0,0,0,0,0c-0.3-3.1-1.4-6.1-3.3-8.6c-1.2-2.2-2.7-4.3-4.4-6.1c-1.5-1.5-3.6-2.3-5.8-2.1
		c-1.8,0.4-3.4,1.6-4.3,3.2c-1,1.8-1.6,3.9-1.7,6c-0.8,9.3,3.1,18.3,10.3,24.1c0.5,0,1,0.3,1.3,0.7l0.7,0.8c0.7,0.8,0.7,1.9,0,2.7
		C-3257.5,244-3258.1,244.2-3258.7,244.2z"/>
	
		<ellipse transform="matrix(0.9999 -1.570732e-02 1.570732e-02 0.9999 -3.602 -50.6255)" class="st3" cx="-3224.7" cy="204" rx="2" ry="5"/>
	<path class="st3" d="M-3359.8,549.5c-1,0-1.8-0.7-1.8-1.7c-3.5-47,3.5-173,3.6-174.2c0-1,0.9-1.8,1.9-1.7c0,0,0,0,0,0
		c1,0.1,1.8,1,1.7,2c0,1.2-7.1,126.9-3.6,173.7c0.1,1-0.7,1.9-1.7,2L-3359.8,549.5z"/>
	<path class="st3" d="M-3342.8,553.5c-1-0.2-1.7-1.1-1.6-2.1c0.1-0.8,0.8-1.4,1.6-1.6l160.9-8c1-0.1,1.9,0.7,1.9,1.7
		c0,0,0,0.1,0,0.1c0,1-0.8,1.9-1.8,1.9l-160.9,8L-3342.8,553.5z"/>
</g>
<g id="_513_smart_phone_data_flatline">
	<path class="st3" d="M-518.5,181.3c0,0-9.4-17.5-24.5-41.3c0,0-47.9,35.8-47.5,33.8C-590,171.8-518.5,181.3-518.5,181.3z"/>
	<path class="st3" d="M-518.5,183.5h-0.3c-25.2-3.3-66.3-8.3-70.8-7.7c-1.3,0.5-1.6,0-2.1,0c-0.8-0.5-1.1-1.4-1-2.3
		c0-0.7,0.2-1.3,1.6-1.6l0,0c2.8-1.1,30.1-21.2,46.7-33.5c0.5-0.4,1.1-0.5,1.7-0.4c0.6,0.1,1.1,0.4,1.4,1
		c14.9,23.7,24.5,41.3,24.6,41.4c0.4,0.7,0.4,1.6,0,2.3C-517,183.3-517.8,183.6-518.5,183.5z M-582.7,171.6c9,0.5,26.3,2.5,60.2,6.9
		c-3.4-6.1-10.9-19.2-21.1-35.3C-564.8,159-576.3,167.2-582.7,171.6z"/>
	<polygon class="st3" points="-1152.9,903.7 -1176.8,863.9 -1143.8,834 	"/>
	<path class="st3" d="M-1153,905.9c-0.8,0-1.5-0.4-1.9-1.1l-23.9-39.8c-0.5-0.9-0.4-2,0.4-2.8l33.1-29.9c0.7-0.6,1.7-0.7,2.5-0.3
		c0.8,0.4,1.3,1.3,1.2,2.2l-9.2,69.7c-0.1,0.9-0.8,1.7-1.7,1.9L-1153,905.9z M-1174.1,864.3l19.8,32.9l7.6-57.6L-1174.1,864.3z"/>
	<path class="st3" d="M-1137.4,912.1l384.7,54.8c16.3,2.1,31.7-7.9,36.4-23.6l199.1-744.9c3.8-12.5-3.3-25.6-15.8-29.4
		c-2.1-0.6-4.2-1-6.3-1l-392.3-31.5c-16-0.8-30.5,9.4-35,24.8l-190.7,720c-3.8,12.7,3.3,26.1,16,29.9
		C-1140,911.7-1138.7,911.9-1137.4,912.1z"/>
	<path class="st3" d="M-748.3,969.4c-1.6,0-3.1-0.1-4.7-0.3l-384.7-54.9c-7.6-0.9-14.4-5.1-18.6-11.4c-4.2-6.5-5.4-14.5-3.3-21.9
		l191-720.3c4.9-16.3,20.3-27.1,37.2-26.3l392.3,31.6c8.2,0.4,15.7,4.5,20.5,11.1c4.4,6.4,5.7,14.4,3.5,21.9l-199.1,744.9
		C-718.7,959-732.6,969.4-748.3,969.4z M-934,138.5c-14.2,0.2-26.6,9.6-30.7,23.3l-190.8,720.1c-1.8,6.2-0.8,13,2.7,18.4
		c3.6,5.3,9.3,8.8,15.6,9.5l0,0l384.7,54.9c15.2,2,29.5-7.3,34-21.9l199.1-745c1.8-6.3,0.6-13-3.1-18.4c-4.1-5.6-10.6-9-17.5-9.2
		l-392-31.6C-932.5,138.6-933.3,138.5-934,138.5z"/>
	<path class="st1" d="M-1162.5,871l384.7,54.8c16.3,2.1,31.7-7.9,36.4-23.6l199.1-744.9c3.8-12.5-3.3-25.6-15.8-29.4
		c-2-0.6-4.1-0.9-6.1-1l-392.3-31.6c-16-0.8-30.5,9.4-35,24.8l-190.9,720.1c-3.8,12.7,3.3,26,15.9,29.9
		C-1165.2,870.5-1163.8,870.8-1162.5,871z"/>
	<path class="st3" d="M-773.4,928.3c-1.6,0-3.1-0.1-4.7-0.3l-384.7-54.9c-7.6-0.9-14.4-5.1-18.6-11.4c-4.2-6.5-5.4-14.5-3.3-21.9
		l191-720.3c4.9-16.3,20.2-27.1,37.2-26.3l392.3,31.7c8.2,0.4,15.7,4.5,20.5,11.1c4.4,6.4,5.7,14.4,3.5,21.9L-739.2,903
		C-743.8,918-757.7,928.3-773.4,928.3z M-959,97.4c-14.2,0.2-26.6,9.7-30.7,23.3l-190.9,720.1c-1.8,6.3-0.8,13,2.7,18.5
		c3.6,5.3,9.3,8.8,15.6,9.5l0,0l384.7,54.9c15.2,2,29.5-7.3,34-21.9l199.4-745c1.8-6.3,0.8-13-2.9-18.4c-4.1-5.5-10.4-8.9-17.3-9.2
		l-392.3-31.6L-959,97.4z"/>
	<polygon class="st0" points="-580.2,206.3 -981.9,171.5 -1136,752.6 -740.2,805.3 	"/>
	<path class="st2" d="M-740.2,805.9L-740.2,805.9l-395.8-52.6c-0.4-0.1-0.6-0.4-0.6-0.8c0,0,0-0.1,0-0.1l154.2-581.1
		c0.1-0.3,0.4-0.6,0.7-0.5l401.7,34.8c0.2,0,0.4,0.1,0.5,0.3c0.1,0.2,0.1,0.4,0,0.6l-160,598.8
		C-739.6,805.7-739.9,805.9-740.2,805.9z M-1135.2,752l394.4,52.6l159.7-597.6l-400.3-34.7L-1135.2,752z"/>
	<path class="st1" d="M-1003.4,866.7l75.1,10.6c9.8,1.2,19.1-4.9,21.9-14.4l7.5-28c2.3-8-2.3-16.4-10.2-18.7
		c-0.9-0.3-1.9-0.5-2.9-0.5l-75.2-10.2c-9.8-1.1-18.9,5-21.6,14.4l-7.4,27.8c-2.3,7.9,2.2,16.3,10.1,18.6
		C-1005.3,866.4-1004.4,866.6-1003.4,866.7z"/>
	<path class="st0" d="M-925.8,879.6c-0.9,0.1-1.9,0.1-2.8,0l-75.1-10.6c-9.4-1-16.2-9.5-15.1-18.9c0.1-1,0.3-2,0.6-3l7.4-27.8
		c3.1-10.5,13.2-17.2,24.1-16l75.2,10.2c5.1,0.6,9.7,3.4,12.6,7.6c2.8,4.2,3.6,9.5,2.2,14.4l-7.4,28
		C-907.2,873-915.9,879.5-925.8,879.6z M-989.6,807.4c-8,0.1-14.9,5.5-17.1,13.1l-7.4,27.8c-1,3.6-0.4,7.6,1.6,10.7
		c2.1,3.2,5.5,5.2,9.3,5.6l0,0l75.1,10.6c8.8,1.1,17-4.3,19.5-12.8l7.4-28c1.1-3.7,0.5-7.6-1.6-10.8c-2.2-3.2-5.7-5.3-9.5-5.7
		l-75.2-10.2C-988.2,807.6-988.9,807.5-989.6,807.4z"/>
	<path class="st0" d="M-699,156.5L-699,156.5l-114.7-9.6c-1.2-0.1-2.1-1.1-2-2.3c0,0,0,0,0-0.1c0.1-1.2,1.2-2.1,2.4-2l114.7,9.6
		c1.2,0,2.2,1,2.2,2.2c0,1.2-1,2.2-2.2,2.2L-699,156.5z"/>
	<path class="st0" d="M-829.7,145.6h-0.2l-15.2-1.3c-1.2-0.1-2.1-1.1-2-2.4c0,0,0,0,0,0c0.1-1.2,1.2-2.1,2.4-2l15.2,1.3
		c1.2,0.1,2.1,1.2,2,2.4C-827.6,144.7-828.6,145.6-829.7,145.6z"/>
	<path class="st1" d="M-871.5,711.1c-0.7,0-1.4-0.4-1.8-1L-982.8,553c-0.7-1-0.6-2.3,0.4-3.1c1-0.7,2.3-0.6,3.1,0.4
		c0,0.1,0.1,0.1,0.1,0.2l109.5,157.1c0.7,1,0.4,2.4-0.6,3.1C-870.6,711-871.1,711.1-871.5,711.1z"/>
	<line class="st5" x1="-1072.4" y1="626.8" x2="-931.5" y2="639.1"/>
	<path class="st3" d="M-931.5,641.2L-931.5,641.2l-140.8-12.3c-1.2-0.1-2.1-1.1-2-2.4c0,0,0,0,0,0c0.1-1.2,1.2-2.1,2.4-2l140.9,12.3
		c1.2,0.1,2,1.2,2,2.4C-929.3,640.4-930.3,641.3-931.5,641.2C-931.5,641.2-931.5,641.2-931.5,641.2z"/>
	<line class="st5" x1="-1081.5" y1="652" x2="-968.1" y2="662.3"/>
	<path class="st3" d="M-968.1,664.5h-0.2l-113.4-10.2c-1.2-0.1-2.1-1.1-2-2.4c0,0,0,0,0,0c0.1-1.2,1.2-2.1,2.4-2c0,0,0,0,0,0
		l113.4,10.2c1.2,0.1,2.1,1.1,2,2.4c0,0,0,0,0,0C-966,663.6-966.9,664.4-968.1,664.5z"/>
	<line class="st5" x1="-800" y1="385.7" x2="-659.1" y2="398"/>
	<path class="st3" d="M-659.1,400.2L-659.1,400.2L-800,387.9c-1.2-0.1-2.1-1.2-2-2.4c0.1-1.2,1.2-2.1,2.4-2l140.8,12.3
		c1.2,0.1,2.1,1.2,2,2.4C-656.9,399.4-657.9,400.3-659.1,400.2C-659.1,400.2-659.1,400.2-659.1,400.2z"/>
	<line class="st5" x1="-809.1" y1="411" x2="-695.7" y2="421.2"/>
	<path class="st3" d="M-695.7,423.4h-0.2l-113.5-10.2c-1.2-0.1-2.1-1.2-2-2.4c0.1-1.2,1.1-2.1,2.3-2c0,0,0,0,0.1,0l113.5,10.2
		c1.2,0.1,2.1,1.1,2,2.3c0,0,0,0,0,0.1C-693.6,422.6-694.5,423.4-695.7,423.4z"/>
	<path class="st1" d="M-978.8,308.9l130,8.5c6.8,0.4,12,6.2,11.6,13c0,0.7-0.1,1.3-0.3,2l-20.8,78.8c-1.7,7.9-9,13.4-17.1,12.8
		l-128.7-8.8c-6.7-0.5-11.7-6.3-11.2-13c0.1-0.8,0.2-1.5,0.4-2.3l19.3-78.8C-993.7,313.5-986.6,308.4-978.8,308.9z"/>
	<path class="st3" d="M-874,426.1h-1.6l-128.7-8.8c-4.2-0.3-8-2.4-10.5-5.8c-2.6-3.5-3.4-8-2.5-12.2l19.3-78.8
		c2.2-8.7,10.2-14.5,19.1-14l129.9,8.5c8,0.5,14,7.4,13.4,15.4c0,0.7-0.1,1.4-0.3,2.1l-20.8,78.8
		C-858.2,419.7-865.5,425.8-874,426.1z M-980,311c-6.4,0.1-11.9,4.5-13.5,10.7l-19.3,78.8c-0.8,3-0.2,6.2,1.6,8.8
		c1.7,2.3,4.4,3.8,7.3,4l128.7,8.8c7,0.5,13.3-4.2,14.8-11.1l20.8-78.8c0.6-2.8,0-5.8-1.8-8.1c-1.8-2.4-4.6-3.9-7.6-4.1l-129.9-8.5
		h-1.1L-980,311z"/>
	<path class="st2" d="M-937.2,403.4c2-1.5,3.9-3.1,5.9-4.4c5.5-4.1,11.1-8.1,16.6-12.2c3.7-2.7,7.3-5.4,10.7-8.4
		c3.1-2.6,5.7-5.7,7.8-9.2c1.3-2.3,2.3-4.8,3.1-7.4c0.6-2.2,1.1-4.5,1.4-6.8c1.2-7.5-3.1-14.8-10.2-17.5c-7.5-2.8-16-1.1-21.9,4.4
		c-1.6,1.3-3.1,2.8-4.4,4.4l-0.3,0.3v-0.4c-1.6-3.6-4.3-6.5-7.7-8.5c-3.1-1.8-6.6-2.6-10.2-2.4c-9.1,0.5-17,6.4-19.9,15
		c-0.7,2.2-1.1,4.5-1.3,6.8c-0.3,2.4-0.3,4.9,0,7.3c0.5,3.6,1.8,7,3.8,10c2.1,3,4.4,5.9,7,8.5c3.8,4,7.7,8,11.6,12
		c2.6,2.8,5.1,5.6,7.7,8.5H-937.2z"/>
	<path class="st1" d="M-1019,490l98.6,10.8c5.1,0.5,8.9,5.2,8.3,10.3c-0.1,0.5-0.1,1-0.3,1.5l-18.4,59.2c-1.6,6-7.3,9.9-13.4,9.2
		l-97.6-10.8c-5.1-0.6-8.7-5.2-8.1-10.3c0.1-0.6,0.2-1.2,0.4-1.7l17.3-59.2C-1030.6,493.2-1025,489.4-1019,490z"/>
	<path class="st3" d="M-942.7,583.3c-0.6,0-1.2,0-1.8,0l-97.6-10.9c-3.3-0.4-6.3-2.2-8.1-5c-1.9-2.9-2.4-6.4-1.4-9.7l17.5-59.3
		c2.1-6.7,8.6-11.1,15.6-10.4l98.5,10.8c3.4,0.4,6.4,2.2,8.4,5c1.9,2.8,2.5,6.3,1.6,9.5l-18.5,59.3
		C-930.3,578.9-936.1,583.3-942.7,583.3z M-1020.5,492.1c-4.5,0.1-8.4,3-9.7,7.3l-17.3,59.3c-0.6,2.1-0.3,4.3,0.8,6.1
		c1.2,1.7,3,2.8,5,3.1l97.6,11c5.1,0.6,9.8-2.6,11.1-7.5l18.4-59.3c0.5-2,0.2-4.1-1-5.8c-1.2-1.8-3.1-2.9-5.3-3.1l-98.5-10.8l0,0
		C-1019.7,492.2-1020.1,492.1-1020.5,492.1z"/>
	<path class="st1" d="M-818.5,451.9l136.5,13.8c5,0.1,9.1,4.2,9,9.2c0,0.6-0.1,1.3-0.2,1.9l-22.6,84.1c-2,5.9-8,9.6-14.2,8.8
		l-136.5-17.5c-4.8-0.2-8.6-4.4-8.3-9.2c0-0.6,0.1-1.2,0.3-1.8l22.4-80.7C-830.1,454.8-824.5,451.2-818.5,451.9z"/>
	<path class="st3" d="M-708.2,571.7c-0.7,0-1.3,0-2,0l-136.4-17.5c-3.5-0.3-6.7-2.1-8.8-5c-1.7-2.6-2.2-5.8-1.3-8.8l22.4-80.7
		c2.2-6.6,8.8-10.8,15.7-10l136.5,13.8c3.7,0.3,7.2,2.2,9.4,5.2c1.8,2.6,2.3,5.8,1.4,8.8l-22.4,83.9
		C-695.6,567.7-701.5,571.9-708.2,571.7z M-819.7,454c-4.5-0.1-8.5,2.7-10.1,6.9l-22.4,80.7c-0.5,1.7-0.2,3.6,0.7,5.1
		c1.3,1.8,3.3,2.9,5.5,3.1l136.4,17.5c5.1,0.8,10.1-2.1,11.9-7l22.6-84.1c0.5-1.7,0.2-3.6-0.8-5.1c-1.5-2-3.7-3.2-6.2-3.3
		l-136.5-13.8L-819.7,454L-819.7,454z"/>
	<polygon class="st2" points="-747.9,544.7 -731.7,546.7 -720.3,504.4 -736.5,502.6 	"/>
	<path class="st2" d="M-731.7,547.4L-731.7,547.4l-16.2-2c-0.4-0.1-0.6-0.4-0.6-0.8c0,0,0-0.1,0-0.1l11.4-42
		c0.1-0.3,0.4-0.6,0.7-0.5l16.2,1.8c0.2,0,0.4,0.1,0.5,0.3c0.1,0.2,0.1,0.4,0,0.5l-11.4,42.3C-731.2,547.2-731.4,547.4-731.7,547.4z
		 M-747.1,544.1l14.8,1.8l11.1-40.9l-14.8-1.7L-747.1,544.1z"/>
	<path class="st2" d="M-743.6,505.4c0,0-13.1-4.8-16.6-13.1c-3.5-8.3-1.2-21.6-3.2-22.5c-3.8-1.1-7.8,0.3-10.1,3.4
		c-3.2,4-5,16.4-2.4,24.8c0,0-17.5-2.1-25.4-3c-7.9-0.9-11.2,5.7-7.4,9c0,0-6.4,0-5.6,5.8c0.8,5.8,3,6.2,6.4,6.7
		c0,0-4.4,0.5-4.4,4.7c0,4.2,5.3,5.9,5.3,5.9c-2.6,0.6-4.2,3.2-3.6,5.7c0.1,0.3,0.2,0.7,0.4,1c2.4,5,10.8,5.6,30.7,6.8
		c19.9,1.2,26.8-2.4,26.8-2.4L-743.6,505.4z"/>
	<path class="st2" d="M-771.2,541.8c-2.4,0-5.1,0-8.1-0.3c-19.8-1.2-28.8-1.8-31.4-7.2c-0.7-1.4-0.8-3-0.3-4.4
		c0.5-1.1,1.4-2,2.5-2.6c-2.4-1-4.1-3.3-4.4-5.9c-0.1-1.8,0.8-3.5,2.4-4.4c-2.4-0.7-3.9-2.2-4.4-6.8c-0.3-1.6,0.1-3.2,1.1-4.4
		c1-1.1,2.3-1.8,3.8-2c-1-1.5-1.2-3.3-0.4-4.9c1.8-3.4,5.6-5.2,9.3-4.4c6.7,0.7,20.5,2.4,24.4,2.9c-2.3-8.8-0.5-20.4,2.8-24.5
		c2.5-3.3,6.8-4.8,10.8-3.6c1.2,0.6,1.2,2.7,1.3,7.3c-0.3,5.3,0.5,10.6,2.1,15.6c3.5,7.8,16.2,12.6,16.3,12.6
		c0.3,0.1,0.5,0.5,0.4,0.8l-8.8,33c-0.1,0.2-0.2,0.3-0.3,0.4C-752.5,539.2-757.4,541.8-771.2,541.8z M-802.6,495.7
		c-2.7-0.2-5.3,1.1-6.5,3.5c-0.7,1.5-0.3,3.3,1,4.4c0.2,0.2,0.2,0.5,0,0.7c-0.1,0.3-0.3,0.4-0.6,0.4c-1.5,0-3,0.6-4.2,1.7
		c-0.8,0.9-1.1,2.2-0.8,3.4c0.7,5.4,2.7,5.6,5.9,6c0.4,0,0.6,0.3,0.6,0.7c0,0.3-0.3,0.6-0.6,0.7c0,0-3.9,0.5-3.8,4.1
		c0.1,3.5,4.8,5.3,4.9,5.3c0.3,0.1,0.4,0.4,0.5,0.7c0,0.3-0.2,0.6-0.5,0.7c-1.3,0.4-2.4,1.3-3.1,2.5c-0.4,1.1-0.3,2.3,0.3,3.2
		c2.2,4.7,11,5.2,30.2,6.4c17.5,1.1,24.7-1.6,26.3-2.2l8.8-32.1c-2.6-1.1-13.1-5.7-16.5-13.1c-1.8-5.2-2.6-10.6-2.3-16.1
		c0.2-2,0-4.1-0.5-6.1c-3.5-0.9-7.1,0.4-9.2,3.2c-3.1,3.9-4.8,16.2-2.3,24.3c0.1,0.2,0.1,0.5,0,0.7c-0.2,0.2-0.4,0.3-0.6,0.2
		c0,0-17.5-2.1-25.4-3L-802.6,495.7z"/>
	<path class="st1" d="M-912.6,742.7l148.9,17.2c11.3,0.8,21.6-6.6,24.5-17.5l23.4-88.4c3-9.2-2.1-19.1-11.3-22
		c-0.9-0.3-1.8-0.5-2.7-0.6l-149.3-19c-11.6-1-22.3,6.5-25.2,17.8l-22.9,90.1c-2.8,9.3,2.4,19,11.6,21.9
		C-914.6,742.4-913.6,742.6-912.6,742.7z"/>
	<path class="st3" d="M-761.6,762.2h-2.5L-913,745l0,0c-5.6-0.5-10.7-3.5-13.9-8.2c-3.3-5-4.4-11.2-2.8-17l22.9-90.1
		c3.3-12.3,14.9-20.5,27.6-19.4l149.3,19c5.4,0.7,10.3,3.7,13.4,8.2c3.2,5.1,4.2,11.4,2.5,17.3l-23.4,88.4
		C-740.5,754-750.2,761.7-761.6,762.2z M-912.4,740.6l148.9,17.2c10.2,0.6,19.5-6,22.2-15.9l23.3-88.5c1.4-4.6,0.7-9.6-1.9-13.7
		c-2.4-3.5-6.1-5.8-10.3-6.3l-149.3-19c-10.5-0.9-20.2,6-22.8,16.2l-22.9,90.1c-1.3,4.6-0.5,9.5,2.1,13.5
		C-920.6,737.8-916.7,740.1-912.4,740.6z"/>
	<path class="st2" d="M-864.3,684.5l52.6,42.7c3.5,2.2,8.2,1.2,10.4-2.3c0.5-0.7,0.8-1.5,1-2.4l18.3-70.1c1-3.1-0.7-6.5-3.8-7.6
		c-1.5-0.5-3.1-0.4-4.5,0.3l-71,27.5c-3.8,1.3-5.8,5.4-4.5,9.2C-865.6,682.8-865,683.7-864.3,684.5z"/>
	<path class="st1" d="M-811.4,340.8l157.3,16.4c5.8,0.2,10.9-3.8,12.2-9.5l25.6-105.1c1.5-4.4-0.9-9.2-5.3-10.7
		c-0.6-0.2-1.2-0.3-1.9-0.4l-157-13.1c-5.6,0-10.4,3.9-11.6,9.3l-25.8,102.1c-1.6,4.3,0.6,9.1,4.9,10.6
		C-812.5,340.5-811.9,340.7-811.4,340.8z"/>
	<path class="st3" d="M-781.3,218.3h0.6l157,13.1c4.6,0.5,8,4.6,7.5,9.3c-0.1,0.6-0.2,1.3-0.4,1.9l-25.6,105.1
		c-1.2,5.3-5.8,9.2-11.3,9.5h-0.9l-157-16.4c-4.5-0.7-7.6-4.9-7-9.4c0.1-0.6,0.2-1.1,0.4-1.7l25.8-102.1c1.2-5.2,5.7-9,10.9-9.3
		 M-781.1,213.9c-7.3,0.4-13.5,5.5-15.2,12.6l-25.8,102.1c-1.1,3.9-0.4,8.2,1.8,11.6c2,2.8,5.1,4.6,8.5,4.9l157.3,16.4
		c0.5,0,0.9,0,1.4,0c7.5-0.3,13.8-5.6,15.5-12.9l25.6-105.1c1-3.9,0.3-8.2-2-11.5c-2.1-2.9-5.4-4.8-9-5.1l-157-13.1L-781.1,213.9z"
		/>
	<path class="st2" d="M-723.8,310.7c-0.7,0-1.4-0.3-1.8-0.9l-63.9-88c-0.7-1-0.5-2.3,0.5-3.1c1-0.7,2.4-0.5,3.1,0.5c0,0,0,0,0,0
		l62.3,86.2l104.6-72.6c1-0.7,2.4-0.4,3.1,0.6c0.7,1,0.4,2.4-0.5,3c0,0,0,0,0,0l-106.2,73.7C-723,310.5-723.4,310.7-723.8,310.7z"/>
	<path class="st2" d="M-817,339.6c-0.7,0-1.4-0.4-1.8-1c-0.7-1-0.4-2.4,0.6-3.1l77.6-50.1c1-0.7,2.4-0.4,3,0.6
		c0.7,1,0.4,2.4-0.6,3.1l-77.5,50.1C-816.1,339.5-816.6,339.7-817,339.6z"/>
	<path class="st2" d="M-647.1,357.2c-0.7,0-1.3-0.3-1.7-0.8l-51.5-64.2c-0.7-0.9-0.6-2.3,0.4-3.1c0.9-0.8,2.3-0.6,3,0.3
		c0,0,0,0,0,0.1l51.5,64.2c0.8,0.9,0.6,2.3-0.3,3c0,0,0,0-0.1,0C-646.1,357.1-646.6,357.2-647.1,357.2z"/>
	<path class="st1" d="M-1124.8,551.8c10.7-21.4,25.4-40.5,43.3-56.4c28.7-24.8,45.9-42.9,36.9-47.8s-38.9,16.3-38.9,16.3l22.6-82.8
		c0,0-49.8,32.8-63.9,60.7c-14.1,27.9-42,86.8-42,86.8L-1124.8,551.8z"/>
	<path class="st3" d="M-1124.8,554c-0.4,0-0.7-0.1-1.1-0.3l-42-23.3c-1-0.6-1.4-1.8-0.9-2.8c0.3-0.6,28.1-59.2,42.1-86.8
		c14-27.6,62.6-60.2,64.6-61.6c1-0.7,2.4-0.4,3,0.6c0.4,0.5,0.5,1.2,0.3,1.8l-21,77c9.6-6.3,28.4-17.5,36.3-13.1c2,1,3.3,2.9,3.5,5
		c0.8,7.6-10.8,21-40,46.3c-17.6,15.7-32.1,34.6-42.7,55.7c-0.3,0.6-0.7,1-1.3,1.2C-1124.3,553.9-1124.5,554-1124.8,554z
		 M-1163.9,527.7l38.2,21.1c10.8-20.8,25.3-39.5,42.8-55.1c9.8-8.4,39.4-34.1,38.6-42.5c-0.1-0.7-0.6-1.4-1.3-1.7
		c-5.4-3-24.7,7.7-36.6,16.2c-1,0.7-2.4,0.4-3.1-0.6c-0.3-0.5-0.5-1.1-0.3-1.7l21-77c-12.8,9-47.1,34.6-58.2,56.5
		C-1135.4,467.6-1159.1,517.6-1163.9,527.7L-1163.9,527.7z"/>
	<line class="st5" x1="-962.5" y1="213.9" x2="-821.6" y2="226.2"/>
	<path class="st3" d="M-821.6,228.5L-821.6,228.5l-140.8-12.3c-1.2-0.1-2.1-1.2-2-2.4c0.1-1.2,1.1-2.1,2.4-2c0,0,0,0,0,0l140.7,12.3
		c1.2,0,2.2,1,2.2,2.2c0,1.2-1,2.2-2.2,2.2H-821.6z"/>
	<line class="st5" x1="-971.6" y1="239.2" x2="-858.1" y2="249.4"/>
	<path class="st3" d="M-858.1,251.6L-858.1,251.6l-113.5-10.2c-1.2-0.1-2.1-1.1-2-2.3c0,0,0,0,0-0.1c0.1-1.2,1.1-2.1,2.4-2
		c0,0,0,0,0,0l113.5,10.2c1.2,0.1,2.1,1.1,2.1,2.3c-0.1,1.2-1.1,2.1-2.3,2.1L-858.1,251.6z"/>
	<path class="st1" d="M-1165.8,247.6c0,0,29.6,48.9,22.8,58.5c-6.9,9.6-28.3,2.2-28.3,2.2"/>
	<path class="st3" d="M-1155.8,313.2c-5.5-0.1-11-1.1-16.2-2.8c-1.2-0.4-1.9-1.7-1.5-2.9c0.4-1.2,1.7-1.9,2.9-1.5
		c5.5,1.9,20.9,5.3,25.8-1.4c4.4-5.8-10.9-36.3-22.9-56.1c-0.6-1-0.3-2.4,0.7-3c0,0,0,0,0,0c1-0.6,2.4-0.3,3,0.7
		c5.1,8.4,30,50.6,22.6,60.9C-1144.8,311.4-1150.3,313.7-1155.8,313.2z"/>
	<path class="st1" d="M-1336.9,337.5c-21.9,0.4-40.9-7.4-64.7-21.9c-6.7-4.1-14.5-10.6-12.3-18.1c1.2-2.4,2.1-4.9,2.7-7.5
		c0-4.4-4.4-7.4-7.9-10c-17.2-12.9-20.7-37.3-7.8-54.6c5.4-7.1,13-12.2,21.6-14.4c-18.4-18.3-18.5-48.1-0.2-66.5
		c7.6-7.6,17.6-12.4,28.3-13.6c-6.3,0.7,6.7-35,8.8-38.4c7.9-12.3,19.7-21.5,33.5-26.3c18.5-6.2,38.7-4,55.4,6
		c3.8-9.6,14.6-15,25-15.5c10.4,0.2,20.6,2.5,30.1,6.8c11.5,4.4,24,10,29,21.2c0.8,2.4,2,4.7,3.5,6.8c2.5,2.1,5.5,3.5,8.8,4
		c34.7,10.8,41.6,63,17.8,85.2c-4.4,3.9-8.8,2-12.3,6.8c-2.3,3.2-2.6,12-3.8,16.1c-3.1,9.9-7.2,19.4-12.2,28.5
		c-11,19-24.2,36.7-39.4,52.6c-18.4,20.6-41.6,36.4-67.5,45.9C-1312.2,335-1324.5,337.2-1336.9,337.5z"/>
	<path class="st3" d="M-1338.6,339.7c-19.7,0-38.4-6.5-64.1-22.2c-13.5-8.2-14.7-15.7-13.1-20.6c0.4-1.1,0.8-2.2,1.4-3.3
		c0.7-1.1,1.1-2.4,1.3-3.7c0-2.9-3.1-5.3-6.1-7.5l-0.9-0.7c-18.3-13.5-22.1-39.3-8.6-57.6c4.9-6.7,11.8-11.7,19.6-14.4
		c-17.8-20.5-15.6-51.6,5-69.4c6.7-5.8,14.8-9.7,23.5-11.2c-1.1-9.4,9.3-35.9,10.6-37.9c8.2-12.7,20.4-22.3,34.7-27.3
		c18.3-6.2,38.3-4.4,55.2,5c5.6-8.9,15.3-14.4,25.8-14.5c10.7,0.2,21.2,2.5,31,6.9c11.8,4.4,24.8,10.3,30.2,22.4l0.8,1.8
		c0.5,1.6,1.3,3.1,2.3,4.4c1.8,1.5,4,2.6,6.4,3l1.4,0.4c15.7,4.9,27.5,18.8,31.8,37.2c4.4,19.8-0.6,40.1-13.1,51.8
		c-2,1.7-4.3,2.9-6.8,3.4c-2.1,0.3-3.9,1.4-5.2,3c-1.3,2.9-2,6.1-2.3,9.3c-0.3,2.1-0.7,4.1-1.2,6.2c-3.2,10-7.4,19.6-12.5,28.8
		c-11.2,19-24.6,36.7-39.9,52.6c-18.6,20.9-42.1,36.9-68.4,46.5c-11.8,4.4-24.1,6.8-36.7,7.3h-1.8V339.7z M-1376.9,132.9
		c-24.6,2.7-42.4,24.9-39.7,49.5c1.1,10.2,5.7,19.6,12.9,26.9c0.6,0.6,0.8,1.4,0.6,2.1c-0.2,0.8-0.8,1.3-1.6,1.5
		c-19.7,4.9-31.8,24.9-26.9,44.6c2.1,8.3,6.9,15.6,13.8,20.7l0.9,0.6c3.6,2.7,8.1,6,7.9,11.2c-0.2,1.9-0.8,3.8-1.7,5.4
		c-0.4,0.8-0.8,1.7-1.1,2.6c-1.8,6.2,5.2,11.9,11.3,15.7c25.7,15.6,44.1,21.9,63.5,21.5l0,0c12.1-0.5,24-2.9,35.3-7.1
		c25.6-9.3,48.5-24.9,66.6-45.3c15.1-15.7,28.3-33.1,39.4-51.9c5-8.9,9-18.4,12.1-28.1c0.5-1.8,0.8-3.7,1.1-5.6
		c0.3-3.9,1.3-7.7,3.1-11.2c1.8-2.5,4.5-4.2,7.6-4.7c1.8-0.3,3.6-1.2,5-2.4c11.4-10.6,16-29.3,11.9-47.5
		c-3.9-17.1-14.4-29.5-28.8-34l-1.3-0.4c-3.1-0.7-6-2.2-8.3-4.4c-1.5-1.7-2.6-3.6-3.2-5.7c0-0.5-0.4-1.1-0.7-1.6
		c-4.7-10.6-16.8-15.9-27.8-20.1c-9.2-4.2-19.1-6.4-29.2-6.7c-8.8,0.4-19.4,4.9-23,14.1c-0.3,0.6-0.7,1.1-1.4,1.3
		c-0.6,0.2-1.2,0.2-1.8,0c-16.1-9.8-35.7-11.9-53.6-5.8c-13.4,4.6-24.8,13.6-32.4,25.4c-2,3.2-11.2,30-10,35c0.9,0.2,1.5,1,1.6,1.9
		C-1374.9,131.7-1375.7,132.8-1376.9,132.9z"/>
	<path class="st1" d="M-1170.5,182c1.6,0.9,3,2,4.1,3.4c4.8,6.2,7.9,13.7,8.8,21.5c2.5,16.1-0.5,32.4-1.2,48.5
		c-1.5,31.7-3.6,63.3-6.6,94.8c-1.8,20-53.8,18.4-62.8,12.1l5.1,79.6l-107.6-46.1l7-65.4c0,0,35.3,1.6,57.2-38.5
		c6.2-12.1,10.6-25.1,13.1-38.5c2.5-11.4,7.9-27.6,7.6-39.2c-0.4-5.2-1.5-10.3-3.4-15.1c4.4,2.3,9.5,2.8,14.2,1.4
		c3.4-1.8,5.8-5,6.6-8.8c0.7-3.8,0.8-7.6,0.4-11.4c9.1,5.6,21,2.7,26.5-6.4c0.2-0.4,0.5-0.8,0.7-1.2c1.2,5,7.3,6.7,12.3,7.5
		C-1181.1,181.4-1175.6,179.2-1170.5,182z"/>
	<path class="st3" d="M-1223,444.2c-0.3,0.1-0.6,0.1-0.9,0l-107.6-46.1c-0.9-0.4-1.4-1.3-1.3-2.3l7-65.3c0.1-1.1,1.1-2,2.3-2
		c1.4,0,34.3,1,55.2-37.4c6-11.9,10.4-24.7,12.8-37.8c0.7-3.1,1.6-6.6,2.5-10.2c2.9-9.3,4.5-18.8,5-28.5c-0.4-5-1.5-9.8-3.3-14.5
		c-0.4-1.1,0.2-2.4,1.4-2.8c0.5-0.2,1-0.2,1.5,0c3.9,2,8.3,2.5,12.6,1.4c2.8-1.5,4.8-4.3,5.3-7.4c0.7-3.5,0.8-7.2,0.3-10.7
		c-0.1-0.8,0.4-1.6,1.1-2.1c0.7-0.4,1.6-0.4,2.3,0c8.2,4.8,18.7,2,23.5-6.2c0.2-0.3,0.3-0.6,0.5-0.9c0.4-0.8,1.3-1.3,2.2-1.3
		c0.9,0.1,1.7,0.7,1.9,1.7c0.7,2.9,4.1,4.8,10.6,5.9c2.6,0.3,5.2,0.4,7.8,0.3c3.8-0.4,7.6,0.2,11,1.8l0,0c1.8,1,3.4,2.3,4.7,3.9
		c5.2,6.6,8.3,14.5,9.2,22.8c1.4,11.6,1.4,23.4,0,35c-0.4,4.6-0.8,9.3-1,13.9c-1.4,31.6-3.7,63.5-6.6,94.9
		c-0.4,3.9-2.6,9.4-11.3,13.1c-14.4,6.6-40.2,6-51.3,2.1l4.9,75.9c0,0.8-0.3,1.5-0.9,1.9C-1222,443.9-1222.5,444.1-1223,444.2z
		 M-1328.1,394.5l102.6,44.2l-4.9-76c0-0.8,0.4-1.6,1.1-2.1c0.7-0.4,1.6-0.4,2.3,0c5.9,4.4,35.3,6.3,50.6-0.7
		c5.4-2.5,8.3-5.8,8.8-9.8c2.9-31.4,5.1-63.2,6.6-94.7c0-4.7,0.6-9.4,1.1-14.1c1.4-11.3,1.4-22.7,0-34c-0.7-7.5-3.6-14.6-8.1-20.5
		c-1-1.1-2.2-2.1-3.5-2.9c-2.8-1.2-5.8-1.6-8.8-1.2c-2.9,0.2-5.7,0-8.5-0.4c-4.5-0.4-8.7-2.3-12.1-5.3c-5.9,7.4-15.8,10.3-24.7,7
		c0.1,2.7-0.1,5.5-0.6,8.2c-0.9,4.5-3.8,8.3-7.8,10.4c-3.8,1.4-8,1.4-11.7,0c1.2,3.7,2,7.6,2.1,11.6c-0.4,10.1-2.2,20.1-5.2,29.7
		c-0.9,3.5-1.8,7-2.5,10c-2.5,13.6-7,26.7-13.1,39c-19.2,35-49.1,39.4-57.2,39.4L-1328.1,394.5z"/>
	<path class="st1" d="M-1227.4,262.7c0-7.9-4-15.2-8.1-21.9c-2.9-5.5-6.5-10.4-10.9-14.8c-4.4-4.5-10.5-6.8-16.7-6.2
		c-5.4,1.2-10,4.5-12.8,9.3c-2.6,4.8-4.1,10.1-4.4,15.5c-2,24.1,9.1,47.5,29,61.3l-1.7-2"/>
	<path class="st3" d="M-1251.4,308.5c-0.4,0-0.9-0.1-1.2-0.4c-20.5-14.3-32-38.5-30-63.5c0.4-5.8,2-11.4,4.9-16.5
		c3-5.4,8.3-9.1,14.3-10.3c6.8-0.8,13.6,1.5,18.5,6.4c4.5,4.5,8.3,9.6,11.3,15.3c3.8,6.4,8.5,14.5,8.4,23.3c0,1.2-1,2.1-2.2,2.1
		c-1.2,0-2.2-1-2.1-2.2c0,0,0,0,0,0c0-7.6-4.4-15-7.8-20.9c-2.8-5.3-6.3-10.1-10.5-14.3c-4-3.9-9.5-5.9-15-5.3
		c-4.8,1-8.9,4.1-11.3,8.3c-2.5,4.5-4,9.5-4.4,14.6c-1.7,21.9,7.6,43.3,24.9,56.9c0.7-0.1,1.4,0.2,1.9,0.7l1.7,2
		c0.7,0.8,0.7,2.1,0,2.9C-1250.4,308-1250.9,308.4-1251.4,308.5z"/>
	<path class="st1" d="M-1353.5,414.6l10.7-34.6l139.3,13.4l8,31.8C-1195.5,425.3-1268.3,459.9-1353.5,414.6z"/>
	<path class="st3" d="M-1262.2,439.9c-32.2-0.1-63.9-8.1-92.2-23.4c-0.9-0.5-1.4-1.6-1.1-2.6l10.6-34.6c0.3-1,1.3-1.6,2.3-1.5
		l139.3,13.5c0.9,0.1,1.7,0.7,1.9,1.6l8,31.8c0.3,1-0.2,2.1-1.2,2.5C-1216,435.9-1239,440.3-1262.2,439.9z M-1350.9,413.7
		c47.1,25.3,102.7,29.1,152.8,10.5l-7.2-28.5l-136-13.1L-1350.9,413.7z"/>
	
		<ellipse transform="matrix(0.9999 -1.570732e-02 1.570732e-02 0.9999 -3.7341 -18.4145)" class="st3" cx="-1174.1" cy="228.5" rx="4.5" ry="11.3"/>
	<path class="st4" d="M-1407,986.2c0,0-66.8-445.6-8.2-528.2c32.9-46.4,86-48.2,134.6-45.9c37.7,1.7,71.1-1.2,100.2,21.9
		c66.5,53.2,163.7,526.4,163.7,526.4S-1160.3,1060.6-1407,986.2z"/>
	<path class="st1" d="M-962.7,380.8l16.4-5.4l0,0l20.2,61.4c1.4,4.3-0.9,8.9-5.2,10.3l0,0l-1,0.3c-4.3,1.4-8.9-0.9-10.3-5.2l0,0
		L-962.7,380.8L-962.7,380.8z"/>
	<path class="st3" d="M-934.8,449.9c-4.5,0-8.5-2.9-9.9-7.1l-20.1-61.3c-0.4-1.1,0.3-2.4,1.4-2.8l16.2-5.6c0.5-0.2,1.1-0.2,1.7,0
		c0.5,0.3,0.9,0.7,1.1,1.3l20.1,61.3c0.9,2.6,0.7,5.4-0.6,7.9c-1.2,2.4-3.4,4.3-6,5.2l-1,0.3C-932.7,449.5-933.7,449.8-934.8,449.9z
		 M-960,382.1l19.5,59.3c1,3.1,4.4,4.8,7.5,3.8l1-0.3l0,0c1.5-0.5,2.7-1.6,3.5-3c0.7-1.4,0.8-2.9,0.3-4.4l-19.4-59.3L-960,382.1z"/>
	
		<rect x="-976.6" y="321.7" transform="matrix(0.9501 -0.312 0.312 0.9501 -158.2718 -282.7096)" class="st1" width="27.9" height="63.2"/>
	<path class="st3" d="M-966,389.7c-0.3,0.1-0.7,0.1-1,0c-0.5-0.3-0.9-0.7-1.1-1.3l-19.7-60c-0.4-1.1,0.3-2.4,1.4-2.8l26.5-8.8
		c0.5-0.2,1.1-0.2,1.7,0c0.5,0.3,0.9,0.7,1.1,1.3l19.7,60c0.2,0.5,0.2,1.1,0,1.7c-0.3,0.5-0.7,0.9-1.3,1.1l-26.5,8.8H-966z
		 M-983,328.9l18.3,55.9l22.4-7.4l-18.4-55.9L-983,328.9z"/>
	<path class="st1" d="M-944.2,428l7.8-2.6c5.2-1.7,10.7,1.1,12.4,6.3l28,85.7c1.7,5.2-1.1,10.7-6.3,12.4l-7.8,2.6
		c-5.2,1.7-10.7-1.1-12.4-6.3l-28-85.7C-952.2,435.2-949.4,429.7-944.2,428z"/>
	<path class="st3" d="M-911.8,533.2c-5.2,0-9.8-3.3-11.4-8.3l-28.2-85.7c-2.1-6.3,1.3-13.1,7.7-15.2l7.8-2.5
		c6.3-2.1,13.1,1.4,15.2,7.7l28.2,85.7c2.1,6.3-1.4,13.1-7.7,15.2l-7.8,2.5C-909.4,533-910.6,533.2-911.8,533.2z M-932.1,425.2
		c-0.8,0-1.6,0.1-2.4,0.4l-7.8,2.5c-4,1.3-6.2,5.7-4.9,9.7l28.1,85.7c0.7,1.9,2,3.5,3.9,4.4c1.8,0.9,3.9,1.1,5.8,0.4l7.8-2.5l0,0
		c1.9-0.7,3.5-2,4.4-3.9c0.9-1.8,1.1-3.9,0.4-5.8l-28.2-85.7C-926,427.4-928.9,425.3-932.1,425.2z"/>
	<circle class="st1" cx="-977.6" cy="307.8" r="74.1"/>
	<path class="st3" d="M-977.5,384.2c-42.2,0-76.4-34.1-76.4-76.3s34.1-76.4,76.3-76.4c42.2,0,76.4,34.1,76.4,76.3
		c0,33-21.2,62.3-52.5,72.6C-961.4,382.9-969.4,384.2-977.5,384.2z M-977.5,235.9c-7.6,0-15.2,1.2-22.4,3.6
		c-37.8,12.4-58.3,53.1-45.9,90.8c12.4,37.8,53.1,58.3,90.8,45.9s58.3-53.1,45.9-90.8C-918.7,255.8-946.4,235.9-977.5,235.9z"/>
	<circle class="st1" cx="-977.6" cy="307.8" r="60.2"/>
	<path class="st3" d="M-977.5,370.3c-34.5,0-62.4-27.9-62.4-62.4c0-34.5,27.9-62.4,62.4-62.4c27,0,50.9,17.3,59.3,42.9l0,0
		c10.8,32.7-7.1,68-39.8,78.8C-964.3,369.2-970.9,370.2-977.5,370.3z M-977.5,249.8c-32.1-0.1-58.1,25.9-58.2,58
		c-0.1,32.1,25.9,58.1,58,58.2c32.1,0.1,58.1-25.9,58.2-58c0-6.2-1-12.3-2.9-18.1l0,0c-7.8-23.9-30.2-40.1-55.4-40.1H-977.5z"/>
	<path class="st1" d="M-987.8,560.8l2.9-21.9c0-0.9,1.5-68.5,7.3-73.7s81.4-60,86.7-52.6s-5.3,21.6-5.3,21.6s17.7-1.8,15.9,8.8
		c-1.8,10.6-12.4,21.3-12.4,21.3s10.9-8,12.5,3.5c1,6.8-1.8,13.6-7.2,17.8c0,0,16-7.1,12.4,6.2c-3.5,13.3-42.4,47-42.4,47l-4.7,28.9
		L-987.8,560.8z"/>
	<path class="st3" d="M-922,570.1h-0.2l-65.7-7h-0.4c-1.8-0.5-1.8-0.5,0.9-20.3l0.5-3.9c0-0.4,1.1-68.8,8.1-75.1
		c4.4-4,72.4-53.9,86.5-53.9h0.6c1.1,0.1,2.2,0.7,2.9,1.6c4.4,6.2,0,15.4-2.9,20.5c4.3-0.2,8.6,1.3,12,4.1c1.8,2,2.5,4.8,2,7.4
		c-1.3,5.9-3.9,11.4-7.6,16.1c1,0,2,0.2,3,0.5c2.9,1.5,4.7,4.4,4.8,7.6c0.7,4.9-0.3,9.9-2.9,14.1c2.3-0.4,4.6,0.2,6.4,1.5
		c2.3,2.5,2.9,6.1,1.6,9.2c-3.5,13.1-37.4,43.1-42.5,47.6l-4.4,28.1C-919.7,569.5-920.8,570.3-922,570.1z M-985.4,559l61.6,6.5
		l4.4-26.8c0.1-0.5,0.3-1,0.7-1.3c10.7-9.2,39-35.5,41.8-45.9c0.6-2.4,0.6-4.2,0-4.8c-1.5-1.3-6.4,0-9.2,1.1c-1,0.5-2.3,0.1-2.8-0.9
		c-0.6-1-0.3-2.2,0.7-2.8c4.8-3.7,7.2-9.7,6.3-15.6c-0.3-1.6-0.8-3.6-2.1-4.2c-2.1-0.9-5.8,1.2-7,2.1c-0.9,0.7-2.2,0.5-2.9-0.4
		c-0.8-0.8-0.8-2.1,0-3c0,0,10.2-10.3,11.8-20.1c0.4-1.3,0-2.7-0.9-3.7c-2.7-2.9-10.1-2.8-12.7-2.6c-0.9,0.1-1.7-0.3-2.1-1.1
		c-0.5-0.7-0.5-1.7,0-2.4c2.7-3.6,8.8-14,5.3-19c-7.4-2.2-75.9,46.1-83.5,53c-4.4,4.4-6.6,61-6.6,72.1c0,0,0,1.8-0.6,4.4
		c-0.5,3.9-1.6,11.6-2.1,15.3V559z"/>
	<path class="st4" d="M-1180.5,434c0,0,42.6,25.8,74.4,84.7c31.9,59,79.3,204.9,79.3,204.9l27.3-185.8l93.1,21
		c0,0,8,332.8-74.4,370.3c-82.4,37.4-293.1-194.3-293.1-194.3L-1180.5,434z"/>
	<path class="st3" d="M-1007.7,935h-0.6c-0.4,0-46.4-13.9-99.6-63.2c-49-45.4-114.4-131-148.2-281.6c-0.3-1.2,0.5-2.4,1.7-2.7
		c1.2-0.3,2.4,0.5,2.7,1.7c64.2,285.8,243,341,244.8,341.6c1.2,0.2,2.1,1.3,1.9,2.5c-0.2,1.2-1.3,2.1-2.5,1.9L-1007.7,935z"/>
	<path class="st4" d="M-983.6,335.8c1.4-1.1,2.8-2.2,4.4-3.3l12-8.8c2.7-2,5.3-3.9,7.8-6.1c2.2-1.9,4.1-4.1,5.6-6.6
		c0.9-1.7,1.7-3.5,2.2-5.3c0.5-1.6,0.8-3.3,1-4.9c0.8-5.4-2.3-10.7-7.4-12.6c-5.4-2-11.5-0.8-15.9,3.1c-1.1,0.9-2.2,2-3.1,3.2l0,0
		v-0.3c-1.2-2.6-3.1-4.7-5.6-6.2c-2.2-1.3-4.8-1.9-7.4-1.7c-6.6,0.3-12.3,4.6-14.5,10.9c-0.5,1.6-0.8,3.2-0.9,4.9
		c-0.2,1.8-0.2,3.5,0,5.3c0.4,2.6,1.3,5.1,2.8,7.2c1.5,2.2,3.2,4.3,5,6.2c2.8,2.9,5.6,5.8,8.4,8.8c1.9,2,3.8,4.1,5.6,6.1
		L-983.6,335.8z"/>
	<path class="st1" d="M-1171.7,330l-23.9-13.8c0,0-7.3,28.7,5.7,36.1C-1176.9,359.6-1171.7,330-1171.7,330z"/>
	<path class="st3" d="M-1185.8,355.5c-1.8,0-3.6-0.5-5.1-1.5c-14.2-8.1-7.1-37.3-6.7-38.5c0.2-0.7,0.6-1.2,1.3-1.5
		c0.6-0.3,1.3-0.3,2,0l24,14c0.8,0.5,1.2,1.4,1.1,2.3c-0.4,2.1-3.9,20.2-12.6,24.3C-1183.2,355.3-1184.5,355.5-1185.8,355.5z
		 M-1194,319.5c-1.8,8.8-3.1,26,5.3,30.7c1.4,1,3.2,1.1,4.8,0.4c5.2-2.5,8.8-13.9,9.8-19.6L-1194,319.5z"/>
	<path class="st3" d="M-1228.2,362.4c0,0-34.7-9.3-46.3-20.4c13.8,16.2,29.6,30.5,47.1,42.5L-1228.2,362.4z"/>
	<path class="st3" d="M-1227.4,386.7c-0.4,0-0.8-0.1-1.2-0.4c-17.7-12.2-33.8-26.6-47.7-43c-0.8-0.9-0.6-2.3,0.3-3.1
		c0.8-0.7,2.1-0.6,2.9,0.1c11,10.6,45,19.8,45.4,19.9c0.9,0.2,1.6,1.1,1.6,2l0.9,21.9c0,0.8-0.4,1.6-1.1,2
		C-1226.6,386.5-1227,386.6-1227.4,386.7z M-1262,352.6c9.8,10.3,20.6,19.6,32.2,27.8l-0.7-16.2c-10.8-3-21.3-6.9-31.4-11.5H-1262z"
		/>
</g>
</svg>
